G04 EAGLE Gerber RS-274X export*
G75*
%MOMM*%
%FSLAX34Y34*%
%LPD*%
%INSilkscreen Bottom*%
%IPPOS*%
%AMOC8*
5,1,8,0,0,1.08239X$1,22.5*%
G01*
%ADD10C,0.203200*%
%ADD11C,0.200000*%

G36*
X55073Y107453D02*
X55073Y107453D01*
X55076Y107451D01*
X55081Y107459D01*
X55117Y107487D01*
X55106Y107502D01*
X55110Y107511D01*
X55126Y107479D01*
X55164Y107459D01*
X55170Y107451D01*
X55770Y107451D01*
X55774Y107454D01*
X55777Y107451D01*
X57177Y107651D01*
X57182Y107656D01*
X57186Y107653D01*
X57786Y107853D01*
X57789Y107858D01*
X57792Y107856D01*
X58992Y108456D01*
X58994Y108460D01*
X58997Y108459D01*
X59597Y108859D01*
X59600Y108866D01*
X59605Y108865D01*
X60605Y109865D01*
X60605Y109869D01*
X60608Y109869D01*
X61008Y110369D01*
X61009Y110377D01*
X61014Y110378D01*
X61914Y112178D01*
X61913Y112183D01*
X61917Y112184D01*
X62117Y112784D01*
X62115Y112791D01*
X62119Y112793D01*
X62219Y113493D01*
X62216Y113498D01*
X62219Y113500D01*
X62219Y114900D01*
X62216Y114905D01*
X62219Y114908D01*
X62119Y115508D01*
X62019Y116207D01*
X62011Y116215D01*
X62014Y116222D01*
X61716Y116819D01*
X61517Y117416D01*
X61509Y117421D01*
X61511Y117427D01*
X60711Y118627D01*
X60708Y118628D01*
X60708Y118631D01*
X60308Y119131D01*
X60301Y119133D01*
X60301Y119138D01*
X59801Y119538D01*
X59797Y119539D01*
X59797Y119541D01*
X58597Y120341D01*
X58593Y120341D01*
X58592Y120344D01*
X57992Y120644D01*
X57987Y120643D01*
X57986Y120647D01*
X57386Y120847D01*
X57384Y120846D01*
X57384Y120847D01*
X56684Y121047D01*
X56674Y121044D01*
X56670Y121049D01*
X55975Y121049D01*
X55480Y121148D01*
X55473Y121145D01*
X55470Y121149D01*
X17470Y121149D01*
X17423Y121113D01*
X17425Y121110D01*
X17421Y121108D01*
X17321Y120508D01*
X17324Y120503D01*
X17321Y120500D01*
X17321Y107700D01*
X17350Y107662D01*
X17352Y107654D01*
X17852Y107454D01*
X17865Y107458D01*
X17870Y107451D01*
X55070Y107451D01*
X55073Y107453D01*
G37*
G36*
X55674Y82054D02*
X55674Y82054D01*
X55677Y82051D01*
X57077Y82251D01*
X57082Y82256D01*
X57086Y82253D01*
X57686Y82453D01*
X57687Y82456D01*
X57689Y82455D01*
X58389Y82755D01*
X58392Y82759D01*
X58395Y82758D01*
X58895Y83058D01*
X58896Y83059D01*
X58897Y83059D01*
X59497Y83459D01*
X59498Y83462D01*
X59501Y83462D01*
X60001Y83862D01*
X60002Y83866D01*
X60005Y83865D01*
X60505Y84365D01*
X60505Y84369D01*
X60508Y84369D01*
X60908Y84869D01*
X60909Y84873D01*
X60911Y84873D01*
X61311Y85473D01*
X61311Y85477D01*
X61314Y85478D01*
X61914Y86678D01*
X61912Y86689D01*
X61919Y86693D01*
X62018Y87389D01*
X62217Y87984D01*
X62214Y87994D01*
X62217Y87997D01*
X62216Y87998D01*
X62219Y88000D01*
X62219Y89400D01*
X62216Y89405D01*
X62219Y89408D01*
X62119Y90008D01*
X62019Y90707D01*
X62014Y90712D01*
X62017Y90716D01*
X61817Y91316D01*
X61814Y91317D01*
X61815Y91319D01*
X61515Y92019D01*
X61513Y92021D01*
X61514Y92022D01*
X61214Y92622D01*
X61207Y92625D01*
X61208Y92631D01*
X60808Y93131D01*
X60804Y93132D01*
X60805Y93135D01*
X59805Y94135D01*
X59801Y94135D01*
X59801Y94138D01*
X59301Y94538D01*
X59293Y94539D01*
X59292Y94544D01*
X57492Y95444D01*
X57481Y95442D01*
X57477Y95449D01*
X56777Y95549D01*
X56078Y95649D01*
X55478Y95749D01*
X55473Y95746D01*
X55470Y95749D01*
X17570Y95749D01*
X17532Y95720D01*
X17524Y95718D01*
X17324Y95218D01*
X17325Y95216D01*
X17323Y95214D01*
X17327Y95208D01*
X17328Y95205D01*
X17321Y95200D01*
X17321Y82300D01*
X17350Y82262D01*
X17352Y82254D01*
X17852Y82054D01*
X17865Y82058D01*
X17870Y82051D01*
X55670Y82051D01*
X55674Y82054D01*
G37*
G36*
X55575Y56654D02*
X55575Y56654D01*
X55578Y56651D01*
X56178Y56751D01*
X56877Y56851D01*
X56885Y56859D01*
X56892Y56856D01*
X57488Y57154D01*
X58184Y57353D01*
X58188Y57358D01*
X58192Y57356D01*
X58792Y57656D01*
X58795Y57663D01*
X58801Y57662D01*
X59301Y58062D01*
X59302Y58066D01*
X59305Y58065D01*
X60305Y59065D01*
X60305Y59069D01*
X60308Y59069D01*
X60708Y59569D01*
X60709Y59573D01*
X60711Y59573D01*
X61111Y60173D01*
X61111Y60177D01*
X61114Y60178D01*
X61414Y60778D01*
X61413Y60783D01*
X61417Y60784D01*
X61617Y61384D01*
X61616Y61386D01*
X61617Y61386D01*
X61654Y61513D01*
X61696Y61661D01*
X61710Y61710D01*
X61752Y61858D01*
X61794Y62006D01*
X61808Y62055D01*
X61817Y62086D01*
X61816Y62090D01*
X61819Y62092D01*
X61919Y62692D01*
X61918Y62693D01*
X61919Y62693D01*
X62019Y63393D01*
X62014Y63402D01*
X62019Y63407D01*
X61819Y64807D01*
X61818Y64808D01*
X61819Y64808D01*
X61719Y65408D01*
X61715Y65411D01*
X61717Y65414D01*
X61517Y66114D01*
X61512Y66118D01*
X61514Y66122D01*
X61214Y66722D01*
X61210Y66724D01*
X61211Y66727D01*
X60811Y67327D01*
X60808Y67328D01*
X60808Y67331D01*
X60008Y68331D01*
X60004Y68332D01*
X60005Y68335D01*
X59505Y68835D01*
X59498Y68836D01*
X59497Y68841D01*
X58897Y69241D01*
X58893Y69241D01*
X58892Y69244D01*
X57692Y69844D01*
X57687Y69843D01*
X57686Y69847D01*
X57086Y70047D01*
X57084Y70046D01*
X57084Y70047D01*
X56384Y70247D01*
X56379Y70246D01*
X56377Y70249D01*
X55677Y70349D01*
X55672Y70346D01*
X55670Y70349D01*
X17870Y70349D01*
X17861Y70342D01*
X17858Y70342D01*
X17852Y70346D01*
X17352Y70146D01*
X17336Y70119D01*
X17323Y70109D01*
X17326Y70104D01*
X17321Y70100D01*
X17321Y57200D01*
X17329Y57189D01*
X17324Y57182D01*
X17524Y56682D01*
X17565Y56657D01*
X17570Y56651D01*
X55570Y56651D01*
X55575Y56654D01*
G37*
G36*
X54773Y132853D02*
X54773Y132853D01*
X54776Y132851D01*
X54781Y132859D01*
X54817Y132887D01*
X54806Y132902D01*
X54810Y132911D01*
X54826Y132879D01*
X54864Y132859D01*
X54870Y132851D01*
X55470Y132851D01*
X55474Y132854D01*
X55477Y132851D01*
X56877Y133051D01*
X56882Y133056D01*
X56886Y133053D01*
X57486Y133253D01*
X57489Y133258D01*
X57492Y133256D01*
X58692Y133856D01*
X58694Y133860D01*
X58697Y133859D01*
X59297Y134259D01*
X59300Y134266D01*
X59305Y134265D01*
X59803Y134763D01*
X60301Y135162D01*
X60303Y135172D01*
X60311Y135173D01*
X61111Y136373D01*
X61111Y136377D01*
X61114Y136378D01*
X61414Y136978D01*
X61413Y136983D01*
X61417Y136984D01*
X61817Y138184D01*
X61815Y138191D01*
X61819Y138193D01*
X62019Y139593D01*
X62014Y139602D01*
X62019Y139607D01*
X61919Y140307D01*
X61918Y140308D01*
X61919Y140308D01*
X61819Y140908D01*
X61719Y141607D01*
X61714Y141612D01*
X61717Y141616D01*
X61517Y142216D01*
X61512Y142219D01*
X61514Y142222D01*
X61214Y142822D01*
X61210Y142824D01*
X61211Y142827D01*
X60411Y144027D01*
X60408Y144028D01*
X60408Y144031D01*
X60008Y144531D01*
X60001Y144533D01*
X60001Y144538D01*
X59501Y144938D01*
X59497Y144939D01*
X59497Y144941D01*
X58297Y145741D01*
X58293Y145741D01*
X58292Y145744D01*
X57692Y146044D01*
X57687Y146043D01*
X57686Y146047D01*
X57086Y146247D01*
X57084Y146246D01*
X57084Y146247D01*
X56384Y146447D01*
X56374Y146444D01*
X56370Y146449D01*
X55774Y146449D01*
X55178Y146549D01*
X55173Y146546D01*
X55170Y146549D01*
X17870Y146549D01*
X17861Y146542D01*
X17857Y146542D01*
X17852Y146546D01*
X17352Y146346D01*
X17336Y146319D01*
X17323Y146309D01*
X17326Y146304D01*
X17321Y146300D01*
X17321Y133400D01*
X17329Y133389D01*
X17324Y133382D01*
X17524Y132882D01*
X17565Y132857D01*
X17570Y132851D01*
X54770Y132851D01*
X54773Y132853D01*
G37*
G36*
X234765Y183654D02*
X234765Y183654D01*
X234768Y183651D01*
X235368Y183751D01*
X235409Y183795D01*
X235406Y183798D01*
X235409Y183800D01*
X235409Y197300D01*
X235373Y197347D01*
X235366Y197342D01*
X235360Y197349D01*
X194760Y197349D01*
X194755Y197346D01*
X194752Y197349D01*
X194152Y197249D01*
X194115Y197210D01*
X194113Y197208D01*
X194113Y197207D01*
X194111Y197205D01*
X194114Y197203D01*
X194111Y197200D01*
X194111Y183700D01*
X194147Y183653D01*
X194154Y183658D01*
X194160Y183651D01*
X234760Y183651D01*
X234765Y183654D01*
G37*
G36*
X234871Y158259D02*
X234871Y158259D01*
X234878Y158254D01*
X235378Y158454D01*
X235393Y158478D01*
X235400Y158484D01*
X235398Y158487D01*
X235403Y158495D01*
X235409Y158500D01*
X235409Y171400D01*
X235401Y171411D01*
X235406Y171418D01*
X235206Y171918D01*
X235165Y171943D01*
X235160Y171949D01*
X195460Y171949D01*
X195455Y171946D01*
X195452Y171949D01*
X194852Y171849D01*
X194815Y171810D01*
X194813Y171808D01*
X194813Y171807D01*
X194811Y171805D01*
X194814Y171803D01*
X194811Y171800D01*
X194811Y158900D01*
X194814Y158895D01*
X194811Y158892D01*
X194911Y158292D01*
X194955Y158251D01*
X194958Y158254D01*
X194960Y158251D01*
X234860Y158251D01*
X234871Y158259D01*
G37*
G36*
X234871Y132859D02*
X234871Y132859D01*
X234878Y132854D01*
X235378Y133054D01*
X235393Y133078D01*
X235400Y133084D01*
X235398Y133087D01*
X235403Y133095D01*
X235409Y133100D01*
X235409Y146000D01*
X235401Y146011D01*
X235406Y146018D01*
X235206Y146518D01*
X235165Y146543D01*
X235160Y146549D01*
X202860Y146549D01*
X202856Y146546D01*
X202853Y146549D01*
X202153Y146449D01*
X202148Y146444D01*
X202144Y146447D01*
X201545Y146247D01*
X200846Y146047D01*
X200842Y146042D01*
X200838Y146044D01*
X199638Y145444D01*
X199635Y145437D01*
X199629Y145438D01*
X199129Y145038D01*
X199128Y145034D01*
X199125Y145035D01*
X198125Y144035D01*
X198125Y144031D01*
X198122Y144031D01*
X197722Y143531D01*
X197721Y143523D01*
X197716Y143522D01*
X197116Y142322D01*
X197116Y142320D01*
X197115Y142319D01*
X196815Y141619D01*
X196817Y141611D01*
X196811Y141608D01*
X196711Y141008D01*
X196712Y141007D01*
X196711Y141007D01*
X196611Y140307D01*
X196614Y140302D01*
X196611Y140300D01*
X196611Y138900D01*
X196614Y138895D01*
X196611Y138892D01*
X196711Y138292D01*
X196715Y138289D01*
X196713Y138286D01*
X196913Y137586D01*
X196914Y137585D01*
X196913Y137584D01*
X197113Y136984D01*
X197118Y136981D01*
X197116Y136978D01*
X197416Y136378D01*
X197420Y136376D01*
X197419Y136373D01*
X197819Y135773D01*
X197822Y135772D01*
X197822Y135769D01*
X198222Y135269D01*
X198226Y135268D01*
X198225Y135265D01*
X199225Y134265D01*
X199237Y134264D01*
X199238Y134256D01*
X199835Y133957D01*
X200433Y133559D01*
X200442Y133560D01*
X200444Y133553D01*
X201041Y133354D01*
X201638Y133056D01*
X201649Y133058D01*
X201653Y133051D01*
X203053Y132851D01*
X203058Y132854D01*
X203060Y132851D01*
X234860Y132851D01*
X234871Y132859D01*
G37*
G36*
X235086Y107470D02*
X235086Y107470D01*
X235099Y107470D01*
X235399Y107870D01*
X235399Y107878D01*
X235403Y107881D01*
X235399Y107885D01*
X235399Y107892D01*
X235409Y107900D01*
X235409Y120800D01*
X235390Y120826D01*
X235390Y120839D01*
X234990Y121139D01*
X234972Y121139D01*
X234969Y121142D01*
X234965Y121142D01*
X234960Y121149D01*
X203560Y121149D01*
X203556Y121146D01*
X203553Y121149D01*
X202153Y120949D01*
X202152Y120948D01*
X202152Y120949D01*
X201552Y120849D01*
X201546Y120842D01*
X201541Y120845D01*
X200841Y120545D01*
X200839Y120543D01*
X200838Y120544D01*
X200238Y120244D01*
X200237Y120241D01*
X200235Y120242D01*
X199735Y119942D01*
X199734Y119941D01*
X199733Y119941D01*
X199133Y119541D01*
X199130Y119534D01*
X199125Y119535D01*
X198625Y119035D01*
X198625Y119031D01*
X198622Y119031D01*
X197822Y118031D01*
X197821Y118027D01*
X197819Y118027D01*
X197419Y117427D01*
X197420Y117418D01*
X197419Y117417D01*
X197413Y117416D01*
X197213Y116816D01*
X197214Y116814D01*
X197213Y116814D01*
X197187Y116723D01*
X197173Y116674D01*
X197131Y116526D01*
X197088Y116378D01*
X197074Y116329D01*
X197032Y116181D01*
X197013Y116115D01*
X196813Y115516D01*
X196815Y115509D01*
X196811Y115507D01*
X196711Y114807D01*
X196713Y114803D01*
X196713Y114802D01*
X196711Y114800D01*
X196711Y114100D01*
X196714Y114096D01*
X196711Y114093D01*
X196811Y113393D01*
X196812Y113392D01*
X196811Y113392D01*
X196911Y112792D01*
X196915Y112789D01*
X196913Y112786D01*
X197113Y112086D01*
X197114Y112085D01*
X197113Y112084D01*
X197313Y111484D01*
X197318Y111481D01*
X197316Y111478D01*
X197616Y110878D01*
X197620Y110876D01*
X197619Y110873D01*
X198019Y110273D01*
X198022Y110272D01*
X198022Y110269D01*
X198422Y109769D01*
X198426Y109768D01*
X198425Y109765D01*
X198925Y109265D01*
X198929Y109265D01*
X198929Y109262D01*
X199429Y108862D01*
X199433Y108861D01*
X199433Y108859D01*
X200033Y108459D01*
X200037Y108459D01*
X200038Y108456D01*
X201238Y107856D01*
X201245Y107857D01*
X201246Y107853D01*
X201946Y107653D01*
X201950Y107654D01*
X201952Y107651D01*
X202552Y107551D01*
X202553Y107552D01*
X202553Y107551D01*
X203253Y107451D01*
X203258Y107454D01*
X203260Y107451D01*
X235060Y107451D01*
X235086Y107470D01*
G37*
G36*
X235086Y82070D02*
X235086Y82070D01*
X235099Y82070D01*
X235399Y82470D01*
X235399Y82478D01*
X235403Y82481D01*
X235399Y82485D01*
X235399Y82492D01*
X235409Y82500D01*
X235409Y95400D01*
X235393Y95421D01*
X235395Y95435D01*
X235095Y95735D01*
X235070Y95738D01*
X235067Y95742D01*
X235065Y95742D01*
X235060Y95749D01*
X203460Y95749D01*
X203455Y95746D01*
X203452Y95749D01*
X202852Y95649D01*
X202153Y95549D01*
X202150Y95545D01*
X202148Y95545D01*
X202147Y95545D01*
X202144Y95547D01*
X201544Y95347D01*
X201543Y95344D01*
X201541Y95345D01*
X200841Y95045D01*
X200839Y95043D01*
X200838Y95044D01*
X200238Y94744D01*
X200235Y94737D01*
X200229Y94738D01*
X199229Y93938D01*
X199228Y93934D01*
X199225Y93935D01*
X198725Y93435D01*
X198725Y93431D01*
X198722Y93431D01*
X198322Y92931D01*
X198321Y92927D01*
X198319Y92927D01*
X197919Y92327D01*
X197919Y92323D01*
X197916Y92322D01*
X197316Y91122D01*
X197317Y91115D01*
X197313Y91114D01*
X197274Y90978D01*
X197232Y90831D01*
X197218Y90781D01*
X197176Y90634D01*
X197133Y90486D01*
X197119Y90437D01*
X197113Y90414D01*
X197115Y90409D01*
X197111Y90407D01*
X197011Y89707D01*
X197014Y89702D01*
X197011Y89700D01*
X197011Y88400D01*
X197014Y88396D01*
X197011Y88393D01*
X197111Y87693D01*
X197112Y87692D01*
X197111Y87692D01*
X197211Y87092D01*
X197215Y87089D01*
X197213Y87086D01*
X197413Y86386D01*
X197418Y86382D01*
X197416Y86378D01*
X197716Y85778D01*
X197720Y85776D01*
X197719Y85773D01*
X198119Y85173D01*
X198122Y85172D01*
X198122Y85169D01*
X198922Y84169D01*
X198926Y84168D01*
X198925Y84165D01*
X199425Y83665D01*
X199432Y83664D01*
X199433Y83659D01*
X200031Y83260D01*
X200529Y82862D01*
X200537Y82861D01*
X200538Y82856D01*
X201138Y82556D01*
X201145Y82557D01*
X201146Y82553D01*
X201846Y82353D01*
X201850Y82354D01*
X201852Y82351D01*
X202452Y82251D01*
X202453Y82252D01*
X202453Y82251D01*
X203853Y82051D01*
X203858Y82054D01*
X203860Y82051D01*
X235060Y82051D01*
X235086Y82070D01*
G37*
G36*
X234871Y56659D02*
X234871Y56659D01*
X234878Y56654D01*
X235378Y56854D01*
X235393Y56878D01*
X235400Y56884D01*
X235398Y56887D01*
X235403Y56895D01*
X235409Y56900D01*
X235409Y69700D01*
X235406Y69705D01*
X235409Y69708D01*
X235309Y70308D01*
X235265Y70349D01*
X235263Y70346D01*
X235260Y70349D01*
X204160Y70349D01*
X204155Y70346D01*
X204152Y70349D01*
X203552Y70249D01*
X202853Y70149D01*
X202850Y70145D01*
X202848Y70145D01*
X202847Y70145D01*
X202844Y70147D01*
X202245Y69947D01*
X201546Y69747D01*
X201540Y69739D01*
X201533Y69741D01*
X200934Y69342D01*
X200435Y69042D01*
X200433Y69037D01*
X200428Y69038D01*
X199828Y68538D01*
X199828Y68534D01*
X199825Y68535D01*
X199425Y68135D01*
X199425Y68131D01*
X199422Y68132D01*
X198922Y67532D01*
X198922Y67531D01*
X198522Y67031D01*
X198521Y67023D01*
X198516Y67022D01*
X198216Y66422D01*
X198217Y66418D01*
X198214Y66416D01*
X198213Y66416D01*
X198013Y65816D01*
X198014Y65814D01*
X198013Y65814D01*
X197974Y65677D01*
X197931Y65529D01*
X197917Y65480D01*
X197875Y65332D01*
X197833Y65184D01*
X197819Y65135D01*
X197813Y65114D01*
X197815Y65109D01*
X197811Y65107D01*
X197711Y64408D01*
X197611Y63808D01*
X197613Y63805D01*
X197614Y63804D01*
X197614Y63803D01*
X197611Y63800D01*
X197611Y63100D01*
X197614Y63096D01*
X197611Y63093D01*
X197711Y62393D01*
X197712Y62392D01*
X197711Y62392D01*
X197811Y61792D01*
X197815Y61789D01*
X197813Y61786D01*
X198013Y61086D01*
X198018Y61082D01*
X198016Y61078D01*
X198616Y59878D01*
X198620Y59876D01*
X198619Y59873D01*
X199019Y59273D01*
X199026Y59270D01*
X199025Y59265D01*
X199925Y58365D01*
X199929Y58365D01*
X199928Y58362D01*
X200528Y57862D01*
X200537Y57862D01*
X200538Y57856D01*
X202338Y56956D01*
X202349Y56958D01*
X202353Y56951D01*
X203052Y56851D01*
X203652Y56751D01*
X203653Y56752D01*
X203653Y56751D01*
X204353Y56651D01*
X204358Y56654D01*
X204360Y56651D01*
X234860Y56651D01*
X234871Y56659D01*
G37*
G36*
X49496Y158270D02*
X49496Y158270D01*
X49509Y158270D01*
X49809Y158670D01*
X49809Y158678D01*
X49813Y158681D01*
X49809Y158685D01*
X49809Y158692D01*
X49819Y158700D01*
X49819Y171600D01*
X49797Y171630D01*
X49795Y171642D01*
X49295Y171942D01*
X49283Y171941D01*
X49282Y171942D01*
X49275Y171942D01*
X49270Y171949D01*
X17870Y171949D01*
X17861Y171942D01*
X17857Y171942D01*
X17852Y171946D01*
X17352Y171746D01*
X17336Y171719D01*
X17323Y171709D01*
X17326Y171704D01*
X17321Y171700D01*
X17321Y158800D01*
X17329Y158789D01*
X17324Y158782D01*
X17524Y158282D01*
X17565Y158257D01*
X17570Y158251D01*
X49470Y158251D01*
X49496Y158270D01*
G37*
G36*
X48917Y183687D02*
X48917Y183687D01*
X48912Y183694D01*
X48919Y183700D01*
X48919Y197300D01*
X48883Y197347D01*
X48876Y197342D01*
X48870Y197349D01*
X17670Y197349D01*
X17644Y197330D01*
X17631Y197330D01*
X17331Y196930D01*
X17331Y196918D01*
X17323Y196912D01*
X17328Y196905D01*
X17321Y196900D01*
X17321Y184100D01*
X17334Y184082D01*
X17331Y184070D01*
X17631Y183670D01*
X17662Y183662D01*
X17670Y183651D01*
X48870Y183651D01*
X48917Y183687D01*
G37*
G36*
X71805Y12122D02*
X71805Y12122D01*
X71831Y12123D01*
X71885Y12153D01*
X71943Y12175D01*
X71960Y12194D01*
X71983Y12206D01*
X72018Y12257D01*
X72060Y12302D01*
X72068Y12327D01*
X72083Y12348D01*
X72099Y12432D01*
X72110Y12468D01*
X72108Y12478D01*
X72110Y12490D01*
X72110Y26190D01*
X72106Y26210D01*
X72107Y26237D01*
X72007Y27037D01*
X71999Y27061D01*
X71996Y27094D01*
X71796Y27794D01*
X71777Y27828D01*
X71756Y27886D01*
X71156Y28886D01*
X71136Y28906D01*
X71068Y28987D01*
X70568Y29387D01*
X70563Y29389D01*
X70558Y29394D01*
X70158Y29694D01*
X70123Y29709D01*
X70071Y29743D01*
X69571Y29943D01*
X69542Y29947D01*
X69505Y29963D01*
X69005Y30063D01*
X68999Y30063D01*
X68993Y30065D01*
X68393Y30165D01*
X68366Y30163D01*
X68330Y30170D01*
X67130Y30170D01*
X67115Y30167D01*
X67100Y30169D01*
X66968Y30132D01*
X66961Y30131D01*
X66961Y30130D01*
X66960Y30130D01*
X66584Y29942D01*
X66560Y29930D01*
X66541Y29914D01*
X66517Y29905D01*
X66475Y29859D01*
X66427Y29819D01*
X66417Y29797D01*
X66400Y29778D01*
X66382Y29718D01*
X66356Y29661D01*
X66358Y29636D01*
X66350Y29612D01*
X66361Y29550D01*
X66364Y29488D01*
X66376Y29466D01*
X66380Y29441D01*
X66429Y29368D01*
X66447Y29336D01*
X66455Y29331D01*
X66461Y29321D01*
X66561Y29221D01*
X66593Y29201D01*
X66660Y29150D01*
X67060Y28950D01*
X67083Y28944D01*
X67110Y28929D01*
X67325Y28858D01*
X67798Y28385D01*
X67850Y28228D01*
X67850Y27952D01*
X67785Y27759D01*
X67635Y27532D01*
X67116Y27014D01*
X66721Y26856D01*
X66292Y26770D01*
X65577Y26770D01*
X64886Y26943D01*
X64390Y27274D01*
X64069Y27675D01*
X63910Y28152D01*
X63910Y28721D01*
X64157Y29379D01*
X64799Y30021D01*
X64804Y30030D01*
X64814Y30037D01*
X65614Y30937D01*
X65615Y30939D01*
X65616Y30940D01*
X66316Y31740D01*
X66332Y31769D01*
X66362Y31805D01*
X66862Y32705D01*
X66873Y32743D01*
X66901Y32808D01*
X67101Y33708D01*
X67101Y33710D01*
X67102Y33712D01*
X67101Y33741D01*
X67110Y33790D01*
X67110Y34590D01*
X67102Y34627D01*
X67091Y34710D01*
X66791Y35610D01*
X66772Y35641D01*
X66752Y35692D01*
X66252Y36492D01*
X66231Y36513D01*
X66163Y36590D01*
X65263Y37290D01*
X65239Y37301D01*
X65212Y37324D01*
X64112Y37924D01*
X64093Y37929D01*
X64079Y37939D01*
X64046Y37946D01*
X63998Y37964D01*
X62898Y38164D01*
X62869Y38163D01*
X62830Y38170D01*
X61830Y38170D01*
X61797Y38163D01*
X61748Y38161D01*
X60848Y37961D01*
X60815Y37945D01*
X60760Y37930D01*
X60754Y37927D01*
X59994Y37547D01*
X59360Y37230D01*
X59338Y37212D01*
X59302Y37194D01*
X58902Y36894D01*
X58887Y36876D01*
X58861Y36859D01*
X58761Y36759D01*
X58748Y36737D01*
X58728Y36721D01*
X58702Y36664D01*
X58670Y36612D01*
X58667Y36586D01*
X58657Y36562D01*
X58659Y36501D01*
X58653Y36439D01*
X58662Y36415D01*
X58663Y36389D01*
X58693Y36335D01*
X58715Y36277D01*
X58734Y36260D01*
X58746Y36237D01*
X58797Y36202D01*
X58842Y36160D01*
X58867Y36152D01*
X58888Y36137D01*
X58972Y36121D01*
X59008Y36110D01*
X59018Y36112D01*
X59030Y36110D01*
X59130Y36110D01*
X59145Y36113D01*
X59160Y36111D01*
X59292Y36148D01*
X59299Y36149D01*
X59299Y36150D01*
X59300Y36150D01*
X59420Y36210D01*
X59883Y36210D01*
X60238Y36121D01*
X60246Y36121D01*
X60255Y36117D01*
X60706Y36027D01*
X61029Y35865D01*
X61350Y35625D01*
X61501Y35399D01*
X61578Y35244D01*
X61650Y35028D01*
X61650Y34537D01*
X61577Y34246D01*
X61235Y33732D01*
X60680Y33178D01*
X60310Y32901D01*
X60039Y32720D01*
X59807Y32604D01*
X59697Y32549D01*
X58983Y32370D01*
X58792Y32370D01*
X58635Y32422D01*
X58443Y32615D01*
X58382Y32736D01*
X58310Y32952D01*
X58310Y33790D01*
X58298Y33841D01*
X58297Y33885D01*
X58289Y33899D01*
X58285Y33926D01*
X58275Y33941D01*
X58271Y33959D01*
X58229Y34010D01*
X58214Y34037D01*
X58206Y34042D01*
X58188Y34070D01*
X58172Y34079D01*
X58161Y34092D01*
X58097Y34121D01*
X58085Y34128D01*
X58072Y34137D01*
X58068Y34138D01*
X58037Y34155D01*
X58019Y34156D01*
X58002Y34163D01*
X57946Y34161D01*
X57930Y34164D01*
X57920Y34164D01*
X57910Y34162D01*
X57864Y34164D01*
X57845Y34157D01*
X57829Y34157D01*
X57795Y34138D01*
X57774Y34130D01*
X57752Y34125D01*
X57744Y34118D01*
X57728Y34112D01*
X56928Y33612D01*
X56901Y33585D01*
X56846Y33543D01*
X56046Y32643D01*
X56033Y32620D01*
X56009Y32594D01*
X55309Y31494D01*
X55297Y31460D01*
X55269Y31410D01*
X54769Y29910D01*
X54767Y29888D01*
X54756Y29860D01*
X54456Y28260D01*
X54458Y28224D01*
X54450Y28168D01*
X54550Y26468D01*
X54559Y26437D01*
X54562Y26393D01*
X55062Y24493D01*
X55080Y24461D01*
X55098Y24405D01*
X56098Y22605D01*
X56115Y22587D01*
X56130Y22557D01*
X56830Y21657D01*
X56846Y21643D01*
X56861Y21621D01*
X57661Y20821D01*
X57671Y20815D01*
X57680Y20804D01*
X58480Y20104D01*
X58505Y20090D01*
X58534Y20064D01*
X59534Y19464D01*
X59559Y19456D01*
X59589Y19437D01*
X60589Y19037D01*
X60608Y19034D01*
X60630Y19023D01*
X61730Y18723D01*
X61747Y18723D01*
X61768Y18715D01*
X62968Y18515D01*
X62994Y18517D01*
X63030Y18510D01*
X64899Y18510D01*
X65396Y18427D01*
X66294Y17888D01*
X67251Y16932D01*
X68441Y15543D01*
X68452Y15535D01*
X68461Y15521D01*
X69649Y14333D01*
X70138Y13747D01*
X70150Y13737D01*
X70161Y13721D01*
X70628Y13254D01*
X70904Y12794D01*
X70929Y12768D01*
X70961Y12721D01*
X71461Y12221D01*
X71483Y12208D01*
X71499Y12188D01*
X71556Y12162D01*
X71608Y12130D01*
X71634Y12127D01*
X71658Y12117D01*
X71719Y12119D01*
X71781Y12113D01*
X71805Y12122D01*
G37*
%LPC*%
G36*
X35678Y109649D02*
X35678Y109649D01*
X35107Y109840D01*
X34919Y110309D01*
X34919Y118483D01*
X35297Y118955D01*
X35871Y119050D01*
X36551Y118953D01*
X36938Y118662D01*
X38934Y116767D01*
X39321Y116283D01*
X39321Y115800D01*
X39357Y115753D01*
X39360Y115755D01*
X39363Y115751D01*
X41363Y115451D01*
X41415Y115480D01*
X41413Y115483D01*
X41417Y115484D01*
X41616Y116081D01*
X42212Y117273D01*
X42605Y117765D01*
X43201Y118262D01*
X43697Y118658D01*
X44289Y118954D01*
X44881Y119152D01*
X45573Y119251D01*
X46663Y119251D01*
X47355Y119053D01*
X47951Y118854D01*
X48543Y118558D01*
X49037Y118163D01*
X49533Y117667D01*
X49928Y117173D01*
X50226Y116578D01*
X50522Y115985D01*
X50621Y115293D01*
X50721Y114597D01*
X50721Y113904D01*
X50622Y113311D01*
X50612Y113276D01*
X50598Y113226D01*
X50556Y113079D01*
X50513Y112931D01*
X50499Y112882D01*
X50457Y112734D01*
X50424Y112618D01*
X50128Y112027D01*
X49732Y111531D01*
X49731Y111527D01*
X49729Y111527D01*
X49335Y110936D01*
X48743Y110541D01*
X48742Y110538D01*
X48739Y110538D01*
X48243Y110142D01*
X47655Y109848D01*
X46963Y109749D01*
X46962Y109748D01*
X46962Y109749D01*
X46366Y109649D01*
X45673Y109649D01*
X44981Y109748D01*
X44389Y109946D01*
X43199Y110541D01*
X42708Y111031D01*
X42311Y111627D01*
X42308Y111628D01*
X42308Y111631D01*
X41914Y112124D01*
X41717Y112715D01*
X41518Y113411D01*
X41419Y114004D01*
X41419Y115400D01*
X41383Y115447D01*
X41380Y115445D01*
X41377Y115449D01*
X39377Y115749D01*
X39345Y115731D01*
X39332Y115732D01*
X38837Y115138D01*
X38360Y114852D01*
X37788Y114947D01*
X37197Y115341D01*
X37189Y115340D01*
X37183Y115347D01*
X37173Y115340D01*
X37138Y115337D01*
X37139Y115314D01*
X37121Y115300D01*
X37121Y110504D01*
X37025Y109931D01*
X36556Y109649D01*
X35678Y109649D01*
G37*
%LPD*%
G36*
X245668Y43517D02*
X245668Y43517D01*
X245674Y43513D01*
X246374Y43713D01*
X246375Y43714D01*
X246376Y43713D01*
X246976Y43913D01*
X246981Y43921D01*
X246987Y43919D01*
X247587Y44319D01*
X247588Y44322D01*
X247591Y44322D01*
X248091Y44722D01*
X248092Y44726D01*
X248095Y44725D01*
X248595Y45225D01*
X248596Y45232D01*
X248601Y45233D01*
X249001Y45833D01*
X249001Y45835D01*
X249002Y45835D01*
X249302Y46335D01*
X249296Y46394D01*
X249284Y46393D01*
X249281Y46405D01*
X249256Y46417D01*
X249262Y46417D01*
X249269Y46422D01*
X249299Y46429D01*
X249296Y46441D01*
X249307Y46444D01*
X249507Y47044D01*
X249505Y47050D01*
X249509Y47052D01*
X249609Y47652D01*
X249608Y47653D01*
X249609Y47653D01*
X249709Y48353D01*
X249704Y48362D01*
X249709Y48367D01*
X249509Y49767D01*
X249504Y49772D01*
X249507Y49776D01*
X249307Y50376D01*
X249302Y50379D01*
X249304Y50382D01*
X249004Y50982D01*
X249000Y50984D01*
X249001Y50987D01*
X248601Y51587D01*
X248598Y51588D01*
X248598Y51591D01*
X248198Y52091D01*
X248188Y52093D01*
X248187Y52101D01*
X247587Y52501D01*
X247586Y52501D01*
X247585Y52502D01*
X247085Y52802D01*
X247080Y52802D01*
X247079Y52805D01*
X246379Y53105D01*
X246371Y53103D01*
X246368Y53109D01*
X245768Y53209D01*
X245767Y53208D01*
X245767Y53209D01*
X245067Y53309D01*
X245062Y53306D01*
X245060Y53309D01*
X244360Y53309D01*
X244355Y53306D01*
X244352Y53309D01*
X243752Y53209D01*
X243745Y53201D01*
X243738Y53204D01*
X242538Y52604D01*
X242536Y52600D01*
X242533Y52601D01*
X241933Y52201D01*
X241930Y52194D01*
X241925Y52195D01*
X241425Y51695D01*
X241425Y51691D01*
X241422Y51691D01*
X241022Y51191D01*
X241021Y51187D01*
X241019Y51187D01*
X240619Y50587D01*
X240620Y50578D01*
X240613Y50576D01*
X240213Y49376D01*
X240217Y49365D01*
X240211Y49360D01*
X240211Y47960D01*
X240214Y47956D01*
X240211Y47953D01*
X240311Y47253D01*
X240316Y47248D01*
X240313Y47244D01*
X240513Y46646D01*
X240604Y46282D01*
X240033Y45901D01*
X240030Y45894D01*
X240025Y45895D01*
X239525Y45395D01*
X239522Y45375D01*
X239512Y45370D01*
X239412Y44870D01*
X239419Y44854D01*
X239419Y44853D01*
X239413Y44844D01*
X239613Y44244D01*
X239624Y44237D01*
X239622Y44228D01*
X240122Y43628D01*
X240145Y43623D01*
X240150Y43612D01*
X240650Y43512D01*
X240669Y43521D01*
X240679Y43515D01*
X241379Y43815D01*
X241385Y43824D01*
X241392Y43822D01*
X241973Y44307D01*
X242441Y44214D01*
X243033Y43819D01*
X243042Y43820D01*
X243044Y43813D01*
X243644Y43613D01*
X243651Y43615D01*
X243653Y43611D01*
X244353Y43511D01*
X244358Y43514D01*
X244360Y43511D01*
X245660Y43511D01*
X245668Y43517D01*
G37*
%LPC*%
G36*
X45078Y84249D02*
X45078Y84249D01*
X44489Y84446D01*
X43299Y85041D01*
X42807Y85533D01*
X42410Y86029D01*
X42013Y86625D01*
X41716Y87219D01*
X41518Y87811D01*
X41419Y88503D01*
X41419Y89892D01*
X41617Y90484D01*
X41616Y90486D01*
X41617Y90486D01*
X41638Y90558D01*
X41652Y90607D01*
X41694Y90755D01*
X41736Y90902D01*
X41750Y90952D01*
X41792Y91099D01*
X41793Y91099D01*
X41792Y91099D01*
X41816Y91180D01*
X42112Y91674D01*
X42508Y92269D01*
X43001Y92762D01*
X43595Y93157D01*
X44189Y93454D01*
X45378Y93851D01*
X46566Y93851D01*
X47159Y93752D01*
X47850Y93554D01*
X48344Y93258D01*
X48939Y92862D01*
X49433Y92367D01*
X49830Y91871D01*
X50225Y91278D01*
X50423Y90684D01*
X50622Y90089D01*
X50721Y89397D01*
X50721Y88703D01*
X50622Y88011D01*
X50423Y87416D01*
X50225Y86822D01*
X49830Y86229D01*
X49435Y85735D01*
X48839Y85238D01*
X48343Y84842D01*
X47751Y84546D01*
X47159Y84348D01*
X46467Y84249D01*
X45078Y84249D01*
G37*
%LPD*%
%LPC*%
G36*
X45273Y58849D02*
X45273Y58849D01*
X44581Y58948D01*
X43989Y59146D01*
X43397Y59442D01*
X42903Y59837D01*
X42407Y60333D01*
X41910Y60929D01*
X41614Y61422D01*
X41318Y62114D01*
X41219Y62708D01*
X41119Y63403D01*
X41119Y64097D01*
X41218Y64789D01*
X41416Y65381D01*
X42011Y66571D01*
X42999Y67559D01*
X44189Y68154D01*
X44781Y68352D01*
X45473Y68451D01*
X46463Y68451D01*
X47155Y68253D01*
X47751Y68054D01*
X48341Y67759D01*
X48835Y67265D01*
X48839Y67265D01*
X48839Y67262D01*
X49333Y66866D01*
X49727Y66275D01*
X50024Y65681D01*
X50222Y65089D01*
X50421Y63697D01*
X50421Y63004D01*
X50322Y62411D01*
X50284Y62279D01*
X50242Y62131D01*
X50228Y62082D01*
X50186Y61934D01*
X50143Y61786D01*
X50129Y61737D01*
X50124Y61718D01*
X49828Y61127D01*
X49433Y60633D01*
X48441Y59641D01*
X47848Y59344D01*
X47252Y59046D01*
X46563Y58849D01*
X45273Y58849D01*
G37*
%LPD*%
%LPC*%
G36*
X45273Y135049D02*
X45273Y135049D01*
X44581Y135148D01*
X43989Y135346D01*
X43397Y135642D01*
X42903Y136037D01*
X42407Y136533D01*
X42010Y137029D01*
X41615Y137622D01*
X41417Y138215D01*
X41218Y138911D01*
X41119Y139504D01*
X41119Y140296D01*
X41218Y140889D01*
X41253Y141013D01*
X41254Y141013D01*
X41253Y141013D01*
X41296Y141161D01*
X41310Y141210D01*
X41352Y141358D01*
X41394Y141505D01*
X41408Y141555D01*
X41417Y141585D01*
X41614Y142176D01*
X42008Y142669D01*
X42009Y142673D01*
X42011Y142673D01*
X42406Y143265D01*
X42997Y143659D01*
X42998Y143662D01*
X43001Y143662D01*
X43497Y144058D01*
X44088Y144354D01*
X44781Y144552D01*
X45374Y144651D01*
X46462Y144651D01*
X47054Y144453D01*
X47056Y144454D01*
X47056Y144453D01*
X47750Y144254D01*
X48244Y143958D01*
X48839Y143562D01*
X49333Y143067D01*
X49727Y142574D01*
X50024Y141882D01*
X50222Y141289D01*
X50321Y140593D01*
X50322Y140592D01*
X50321Y140592D01*
X50421Y139996D01*
X50421Y139303D01*
X50322Y138611D01*
X50124Y138019D01*
X49827Y137425D01*
X49432Y136831D01*
X48441Y135841D01*
X47251Y135246D01*
X46662Y135049D01*
X45273Y135049D01*
G37*
%LPD*%
%LPC*%
G36*
X218663Y135049D02*
X218663Y135049D01*
X217971Y135148D01*
X217379Y135346D01*
X216787Y135642D01*
X216293Y136037D01*
X215798Y136531D01*
X215401Y137127D01*
X215005Y137722D01*
X214807Y138316D01*
X214609Y138908D01*
X214609Y140297D01*
X214708Y140989D01*
X214907Y141584D01*
X215105Y142178D01*
X215498Y142769D01*
X216489Y143759D01*
X217679Y144354D01*
X218271Y144552D01*
X218963Y144651D01*
X219953Y144651D01*
X220645Y144453D01*
X221238Y144255D01*
X221831Y143860D01*
X222327Y143463D01*
X222823Y142967D01*
X223218Y142473D01*
X223514Y141882D01*
X223712Y141189D01*
X223811Y140592D01*
X223910Y139900D01*
X223811Y139207D01*
X223712Y138511D01*
X223514Y137919D01*
X223218Y137327D01*
X222822Y136831D01*
X222325Y136235D01*
X221831Y135840D01*
X221238Y135445D01*
X220644Y135247D01*
X220052Y135049D01*
X218663Y135049D01*
G37*
%LPD*%
%LPC*%
G36*
X218664Y58849D02*
X218664Y58849D01*
X218072Y58948D01*
X217479Y59146D01*
X216885Y59443D01*
X216291Y59838D01*
X215797Y60333D01*
X215402Y60827D01*
X215104Y61422D01*
X214806Y62018D01*
X214609Y62707D01*
X214609Y63300D01*
X214573Y63347D01*
X214567Y63343D01*
X214562Y63349D01*
X214530Y63351D01*
X214560Y63351D01*
X214607Y63387D01*
X214602Y63394D01*
X214609Y63400D01*
X214609Y64097D01*
X214709Y64792D01*
X214807Y65385D01*
X215103Y65975D01*
X215500Y66571D01*
X215894Y67063D01*
X216487Y67459D01*
X216488Y67462D01*
X216491Y67462D01*
X216987Y67858D01*
X217579Y68154D01*
X218171Y68352D01*
X218863Y68451D01*
X219952Y68451D01*
X220544Y68253D01*
X220546Y68254D01*
X220546Y68253D01*
X221240Y68054D01*
X221731Y67760D01*
X222327Y67263D01*
X222722Y66869D01*
X223117Y66275D01*
X223416Y65678D01*
X223469Y65652D01*
X223475Y65663D01*
X223487Y65659D01*
X223516Y65677D01*
X223712Y65089D01*
X223811Y64393D01*
X223910Y63700D01*
X223811Y63008D01*
X223712Y62411D01*
X223674Y62279D01*
X223632Y62131D01*
X223618Y62082D01*
X223576Y61934D01*
X223533Y61786D01*
X223519Y61737D01*
X223514Y61718D01*
X223218Y61127D01*
X222822Y60631D01*
X222425Y60135D01*
X221831Y59640D01*
X221337Y59343D01*
X220742Y59046D01*
X220053Y58849D01*
X218664Y58849D01*
G37*
%LPD*%
%LPC*%
G36*
X218467Y84249D02*
X218467Y84249D01*
X217775Y84447D01*
X217184Y84644D01*
X216691Y85038D01*
X216687Y85039D01*
X216687Y85041D01*
X216094Y85437D01*
X215700Y85929D01*
X215302Y86526D01*
X215004Y87022D01*
X214708Y87714D01*
X214609Y88304D01*
X214609Y89697D01*
X214708Y90389D01*
X214906Y90981D01*
X215203Y91575D01*
X215598Y92169D01*
X216091Y92662D01*
X216686Y93058D01*
X217182Y93356D01*
X217874Y93652D01*
X218468Y93751D01*
X219163Y93851D01*
X219457Y93851D01*
X220150Y93752D01*
X220845Y93553D01*
X221436Y93356D01*
X221929Y92962D01*
X221933Y92961D01*
X221933Y92959D01*
X222526Y92563D01*
X222920Y92071D01*
X223315Y91478D01*
X223513Y90885D01*
X223712Y90189D01*
X223811Y89592D01*
X223910Y88900D01*
X223811Y88207D01*
X223712Y87515D01*
X223416Y86922D01*
X223118Y86327D01*
X222723Y85833D01*
X222229Y85338D01*
X221635Y84943D01*
X220445Y84347D01*
X219856Y84249D01*
X218467Y84249D01*
G37*
%LPD*%
%LPC*%
G36*
X218468Y109649D02*
X218468Y109649D01*
X217279Y110046D01*
X216689Y110341D01*
X215697Y111333D01*
X215302Y111827D01*
X215006Y112419D01*
X214807Y113016D01*
X214758Y113049D01*
X214756Y113047D01*
X214754Y113049D01*
X214704Y113042D01*
X214609Y113703D01*
X214609Y115097D01*
X214708Y115789D01*
X214906Y116381D01*
X215202Y116973D01*
X215597Y117467D01*
X216589Y118459D01*
X217775Y119053D01*
X218368Y119151D01*
X219063Y119251D01*
X219457Y119251D01*
X220152Y119151D01*
X220745Y119053D01*
X221335Y118757D01*
X221931Y118360D01*
X222427Y117963D01*
X222919Y117471D01*
X223514Y116281D01*
X223712Y115689D01*
X223811Y114993D01*
X223910Y114300D01*
X223811Y113608D01*
X223713Y113015D01*
X223416Y112422D01*
X223427Y112364D01*
X223432Y112364D01*
X223432Y112360D01*
X223461Y112339D01*
X223428Y112337D01*
X223428Y112327D01*
X223418Y112325D01*
X223118Y111826D01*
X222722Y111231D01*
X222227Y110737D01*
X221733Y110342D01*
X221138Y110044D01*
X220545Y109748D01*
X219857Y109649D01*
X218468Y109649D01*
G37*
%LPD*%
G36*
X204064Y43514D02*
X204064Y43514D01*
X204066Y43511D01*
X204866Y43611D01*
X204882Y43627D01*
X204895Y43625D01*
X205195Y43925D01*
X205196Y43937D01*
X205201Y43941D01*
X205198Y43946D01*
X205198Y43947D01*
X205209Y43953D01*
X205309Y44653D01*
X205306Y44658D01*
X205309Y44660D01*
X205309Y52160D01*
X205306Y52165D01*
X205309Y52168D01*
X205209Y52768D01*
X205187Y52789D01*
X205185Y52802D01*
X204685Y53102D01*
X204667Y53100D01*
X204660Y53109D01*
X201360Y53109D01*
X201355Y53106D01*
X201352Y53109D01*
X200752Y53009D01*
X200749Y53005D01*
X200746Y53007D01*
X200046Y52807D01*
X200042Y52802D01*
X200038Y52804D01*
X199438Y52504D01*
X199437Y52501D01*
X199435Y52502D01*
X198935Y52202D01*
X198933Y52197D01*
X198928Y52198D01*
X198328Y51698D01*
X198327Y51691D01*
X198322Y51691D01*
X197922Y51191D01*
X197921Y51187D01*
X197919Y51187D01*
X197519Y50587D01*
X197519Y50586D01*
X197518Y50585D01*
X197218Y50085D01*
X197219Y50078D01*
X197213Y50074D01*
X197214Y50074D01*
X197213Y50074D01*
X197199Y50025D01*
X197185Y49976D01*
X197143Y49828D01*
X197100Y49680D01*
X197086Y49631D01*
X197044Y49483D01*
X197013Y49374D01*
X197016Y49364D01*
X197011Y49360D01*
X197011Y47260D01*
X197018Y47251D01*
X197013Y47244D01*
X197213Y46644D01*
X197218Y46641D01*
X197216Y46638D01*
X197516Y46038D01*
X197520Y46036D01*
X197519Y46033D01*
X197919Y45433D01*
X197922Y45432D01*
X197922Y45429D01*
X198322Y44929D01*
X198326Y44928D01*
X198325Y44925D01*
X198825Y44425D01*
X198837Y44424D01*
X198838Y44416D01*
X200038Y43816D01*
X200043Y43817D01*
X200044Y43813D01*
X200644Y43613D01*
X200651Y43615D01*
X200653Y43611D01*
X201353Y43511D01*
X201358Y43514D01*
X201360Y43511D01*
X204060Y43511D01*
X204064Y43514D01*
G37*
%LPC*%
G36*
X203264Y185849D02*
X203264Y185849D01*
X202671Y185948D01*
X201980Y186146D01*
X201486Y186442D01*
X200889Y186840D01*
X200395Y187235D01*
X199900Y187829D01*
X199603Y188323D01*
X199306Y188918D01*
X199109Y189607D01*
X199109Y191593D01*
X199116Y191616D01*
X199158Y191764D01*
X199200Y191911D01*
X199214Y191961D01*
X199256Y192108D01*
X199257Y192108D01*
X199256Y192108D01*
X199299Y192256D01*
X199306Y192282D01*
X199602Y192873D01*
X199998Y193369D01*
X200395Y193865D01*
X200989Y194360D01*
X201483Y194657D01*
X202078Y194954D01*
X202771Y195152D01*
X203364Y195251D01*
X206646Y195251D01*
X207115Y194970D01*
X207211Y194396D01*
X207211Y186903D01*
X207114Y186227D01*
X206741Y185947D01*
X206057Y185849D01*
X203264Y185849D01*
G37*
%LPD*%
%LPC*%
G36*
X28374Y185849D02*
X28374Y185849D01*
X27782Y185948D01*
X27192Y186145D01*
X26606Y186536D01*
X26212Y187126D01*
X25916Y187620D01*
X25719Y188307D01*
X25719Y188997D01*
X25818Y189689D01*
X26014Y190276D01*
X26408Y190769D01*
X26409Y190777D01*
X26411Y190779D01*
X26409Y190782D01*
X26409Y190808D01*
X26416Y190818D01*
X26216Y191317D01*
X26018Y191911D01*
X25920Y192599D01*
X26018Y193186D01*
X26313Y193874D01*
X26707Y194367D01*
X27199Y194859D01*
X27785Y195153D01*
X28374Y195251D01*
X31767Y195251D01*
X32651Y195153D01*
X33025Y194872D01*
X33121Y194296D01*
X33121Y186804D01*
X33025Y186227D01*
X32553Y185849D01*
X28374Y185849D01*
G37*
%LPD*%
G36*
X75861Y43527D02*
X75861Y43527D01*
X75875Y43525D01*
X76275Y43925D01*
X76276Y43937D01*
X76281Y43941D01*
X76278Y43946D01*
X76289Y43952D01*
X76389Y44552D01*
X76386Y44557D01*
X76389Y44560D01*
X76389Y52060D01*
X76383Y52068D01*
X76387Y52074D01*
X76187Y52774D01*
X76167Y52789D01*
X76165Y52802D01*
X75665Y53102D01*
X75647Y53100D01*
X75640Y53109D01*
X69540Y53109D01*
X69525Y53098D01*
X69515Y53102D01*
X69015Y52802D01*
X69005Y52778D01*
X68993Y52774D01*
X68981Y52734D01*
X68967Y52685D01*
X68925Y52537D01*
X68883Y52389D01*
X68869Y52340D01*
X68827Y52192D01*
X68793Y52074D01*
X68798Y52061D01*
X68791Y52055D01*
X68891Y51155D01*
X68910Y51134D01*
X68910Y51121D01*
X69310Y50821D01*
X69328Y50821D01*
X69333Y50811D01*
X70033Y50711D01*
X70038Y50714D01*
X70040Y50711D01*
X73436Y50711D01*
X73991Y50618D01*
X73991Y49965D01*
X73900Y49509D01*
X71140Y49509D01*
X71129Y49501D01*
X71122Y49506D01*
X70622Y49306D01*
X70610Y49287D01*
X70598Y49285D01*
X70298Y48785D01*
X70300Y48767D01*
X70291Y48760D01*
X70291Y47860D01*
X70302Y47845D01*
X70298Y47835D01*
X70598Y47335D01*
X70618Y47326D01*
X70622Y47314D01*
X71122Y47114D01*
X71131Y47117D01*
X71134Y47111D01*
X71934Y47011D01*
X71938Y47013D01*
X71940Y47011D01*
X73898Y47011D01*
X73991Y46456D01*
X73991Y45909D01*
X69940Y45909D01*
X69936Y45906D01*
X69933Y45909D01*
X69233Y45809D01*
X69211Y45787D01*
X69198Y45785D01*
X68898Y45285D01*
X68899Y45271D01*
X68891Y45266D01*
X68791Y44466D01*
X68798Y44454D01*
X68793Y44446D01*
X68993Y43746D01*
X69018Y43727D01*
X69022Y43714D01*
X69522Y43514D01*
X69535Y43518D01*
X69540Y43511D01*
X75840Y43511D01*
X75861Y43527D01*
G37*
%LPC*%
G36*
X28777Y84249D02*
X28777Y84249D01*
X28085Y84447D01*
X27492Y84645D01*
X26904Y85037D01*
X26510Y85529D01*
X26115Y86122D01*
X25919Y86708D01*
X25919Y87890D01*
X26214Y88578D01*
X26812Y89575D01*
X26808Y89615D01*
X26812Y89625D01*
X26514Y90122D01*
X26218Y90814D01*
X26120Y91397D01*
X26162Y91543D01*
X26204Y91690D01*
X26218Y91740D01*
X26260Y91887D01*
X26261Y91887D01*
X26260Y91887D01*
X26303Y92035D01*
X26316Y92082D01*
X26612Y92673D01*
X27005Y93165D01*
X27497Y93558D01*
X28088Y93854D01*
X28777Y94051D01*
X29466Y94051D01*
X30059Y93952D01*
X30747Y93755D01*
X31239Y93362D01*
X31733Y92966D01*
X32125Y92378D01*
X32322Y91789D01*
X32420Y91100D01*
X32323Y90418D01*
X31929Y89827D01*
X31929Y89823D01*
X31926Y89822D01*
X31726Y89422D01*
X31734Y89379D01*
X31732Y89369D01*
X32130Y88871D01*
X32523Y88282D01*
X32621Y87696D01*
X32621Y86904D01*
X32523Y86315D01*
X32228Y85727D01*
X31836Y85237D01*
X31243Y84841D01*
X30648Y84445D01*
X30062Y84249D01*
X28777Y84249D01*
G37*
%LPD*%
%LPC*%
G36*
X210563Y185849D02*
X210563Y185849D01*
X209783Y185947D01*
X209406Y186324D01*
X209309Y186908D01*
X209265Y186949D01*
X209263Y186946D01*
X209260Y186949D01*
X209231Y186949D01*
X209262Y186951D01*
X209308Y186989D01*
X209303Y186995D01*
X209309Y187000D01*
X209309Y193697D01*
X209408Y194488D01*
X209600Y194966D01*
X210074Y195251D01*
X210840Y195251D01*
X211511Y194580D01*
X211511Y189800D01*
X211519Y189789D01*
X211517Y189776D01*
X211530Y189774D01*
X211547Y189753D01*
X211558Y189761D01*
X211560Y189758D01*
X211567Y189758D01*
X211580Y189767D01*
X211595Y189765D01*
X211795Y189965D01*
X211796Y189970D01*
X211799Y189970D01*
X212399Y190770D01*
X215199Y194469D01*
X215689Y195058D01*
X216268Y195251D01*
X216945Y195251D01*
X217515Y194871D01*
X217611Y194296D01*
X217611Y186804D01*
X217514Y186224D01*
X217140Y185849D01*
X216268Y185849D01*
X215693Y186041D01*
X215409Y186514D01*
X215409Y191200D01*
X215399Y191213D01*
X215399Y191230D01*
X215387Y191230D01*
X215373Y191247D01*
X215357Y191235D01*
X215350Y191235D01*
X215342Y191230D01*
X215321Y191230D01*
X211723Y186432D01*
X211140Y185849D01*
X210563Y185849D01*
G37*
%LPD*%
G36*
X56948Y43517D02*
X56948Y43517D01*
X56954Y43513D01*
X57654Y43713D01*
X57671Y43735D01*
X57684Y43738D01*
X57884Y44138D01*
X57881Y44154D01*
X57889Y44160D01*
X57889Y52360D01*
X57881Y52371D01*
X57886Y52378D01*
X57686Y52878D01*
X57660Y52894D01*
X57656Y52907D01*
X57056Y53107D01*
X57045Y53103D01*
X57040Y53109D01*
X53640Y53109D01*
X53636Y53106D01*
X53633Y53109D01*
X52933Y53009D01*
X52925Y53001D01*
X52918Y53004D01*
X52318Y52704D01*
X52316Y52700D01*
X52313Y52701D01*
X51713Y52301D01*
X51710Y52294D01*
X51705Y52295D01*
X51205Y51795D01*
X51204Y51786D01*
X51198Y51785D01*
X50898Y51286D01*
X50499Y50687D01*
X50500Y50671D01*
X50493Y50665D01*
X50494Y50663D01*
X50491Y50660D01*
X50491Y49060D01*
X50494Y49055D01*
X50491Y49052D01*
X50591Y48452D01*
X50598Y48446D01*
X50595Y48441D01*
X50895Y47741D01*
X50903Y47736D01*
X50902Y47729D01*
X51302Y47229D01*
X51312Y47227D01*
X51313Y47219D01*
X52513Y46419D01*
X52522Y46420D01*
X52524Y46413D01*
X53124Y46213D01*
X53130Y46215D01*
X53132Y46211D01*
X53732Y46111D01*
X53737Y46114D01*
X53740Y46111D01*
X55128Y46111D01*
X55491Y45930D01*
X55491Y44560D01*
X55494Y44555D01*
X55491Y44552D01*
X55591Y43952D01*
X55610Y43935D01*
X55609Y43922D01*
X56109Y43522D01*
X56132Y43521D01*
X56140Y43511D01*
X56940Y43511D01*
X56948Y43517D01*
G37*
G36*
X38661Y43527D02*
X38661Y43527D01*
X38675Y43525D01*
X39175Y44025D01*
X39176Y44037D01*
X39180Y44039D01*
X39178Y44042D01*
X39187Y44044D01*
X39387Y44644D01*
X39381Y44660D01*
X39389Y44668D01*
X39289Y45268D01*
X39281Y45275D01*
X39284Y45282D01*
X38984Y45882D01*
X38977Y45885D01*
X38978Y45891D01*
X38578Y46391D01*
X38571Y46393D01*
X38571Y46398D01*
X38071Y46798D01*
X38066Y46799D01*
X38066Y46802D01*
X36268Y47900D01*
X35771Y48298D01*
X35277Y48694D01*
X34887Y49278D01*
X34791Y49856D01*
X34981Y50428D01*
X35555Y50811D01*
X36225Y50811D01*
X36799Y50428D01*
X36992Y49848D01*
X37091Y49252D01*
X37097Y49246D01*
X37094Y49242D01*
X37294Y48742D01*
X37322Y48725D01*
X37326Y48713D01*
X38026Y48513D01*
X38036Y48516D01*
X38040Y48511D01*
X38840Y48511D01*
X38858Y48525D01*
X38871Y48522D01*
X39371Y48922D01*
X39378Y48952D01*
X39389Y48960D01*
X39389Y50260D01*
X39382Y50269D01*
X39387Y50276D01*
X38987Y51476D01*
X38979Y51481D01*
X38981Y51487D01*
X38581Y52087D01*
X38574Y52090D01*
X38575Y52095D01*
X38075Y52595D01*
X38063Y52596D01*
X38062Y52604D01*
X37462Y52904D01*
X37457Y52903D01*
X37456Y52907D01*
X36856Y53107D01*
X36849Y53105D01*
X36847Y53109D01*
X36147Y53209D01*
X36142Y53206D01*
X36140Y53209D01*
X35440Y53209D01*
X35436Y53206D01*
X35433Y53209D01*
X34733Y53109D01*
X34725Y53101D01*
X34718Y53104D01*
X34118Y52804D01*
X34115Y52797D01*
X34109Y52798D01*
X33609Y52398D01*
X33608Y52394D01*
X33605Y52395D01*
X33105Y51895D01*
X33104Y51886D01*
X33098Y51885D01*
X32798Y51385D01*
X32798Y51382D01*
X32796Y51382D01*
X32496Y50782D01*
X32498Y50771D01*
X32491Y50767D01*
X32391Y50067D01*
X32394Y50062D01*
X32391Y50060D01*
X32391Y49360D01*
X32394Y49355D01*
X32391Y49352D01*
X32491Y48752D01*
X32495Y48749D01*
X32493Y48746D01*
X32693Y48046D01*
X32704Y48038D01*
X32702Y48029D01*
X33102Y47529D01*
X33106Y47528D01*
X33105Y47525D01*
X33605Y47025D01*
X33609Y47025D01*
X33608Y47022D01*
X34208Y46522D01*
X34214Y46522D01*
X34215Y46518D01*
X34715Y46218D01*
X34718Y46218D01*
X34718Y46216D01*
X35230Y45960D01*
X35128Y45909D01*
X33140Y45909D01*
X33136Y45906D01*
X33133Y45909D01*
X32433Y45809D01*
X32415Y45790D01*
X32402Y45791D01*
X32002Y45291D01*
X32001Y45268D01*
X31991Y45260D01*
X31991Y44560D01*
X31994Y44555D01*
X31991Y44552D01*
X32091Y43952D01*
X32110Y43935D01*
X32109Y43922D01*
X32609Y43522D01*
X32632Y43521D01*
X32640Y43511D01*
X38640Y43511D01*
X38661Y43527D01*
G37*
%LPC*%
G36*
X223063Y185849D02*
X223063Y185849D01*
X222267Y185949D01*
X221675Y186047D01*
X221083Y186343D01*
X220588Y186640D01*
X220102Y187029D01*
X219907Y187616D01*
X219861Y187647D01*
X219879Y187654D01*
X219903Y187695D01*
X219909Y187700D01*
X219909Y190397D01*
X220007Y191081D01*
X220290Y191457D01*
X220967Y191651D01*
X223152Y191651D01*
X223721Y191461D01*
X223911Y190892D01*
X223911Y190220D01*
X223538Y189848D01*
X222157Y189749D01*
X222112Y189710D01*
X222117Y189704D01*
X222111Y189700D01*
X222111Y188400D01*
X222136Y188367D01*
X222138Y188356D01*
X222738Y188056D01*
X222754Y188059D01*
X222760Y188051D01*
X224060Y188051D01*
X224073Y188060D01*
X224082Y188056D01*
X224682Y188356D01*
X224686Y188364D01*
X224692Y188362D01*
X225292Y188862D01*
X225293Y188869D01*
X225298Y188869D01*
X225698Y189369D01*
X225699Y189382D01*
X225707Y189384D01*
X225907Y189984D01*
X225905Y189989D01*
X225908Y189991D01*
X225907Y189992D01*
X225909Y189993D01*
X226009Y190693D01*
X226004Y190702D01*
X226009Y190707D01*
X225909Y191407D01*
X225904Y191412D01*
X225907Y191416D01*
X225707Y192016D01*
X225699Y192021D01*
X225701Y192027D01*
X225301Y192627D01*
X225288Y192632D01*
X225287Y192641D01*
X224687Y193041D01*
X224678Y193040D01*
X224676Y193047D01*
X224076Y193247D01*
X224069Y193245D01*
X224067Y193249D01*
X223367Y193349D01*
X223357Y193343D01*
X223352Y193349D01*
X222752Y193249D01*
X222745Y193242D01*
X222739Y193245D01*
X221454Y192651D01*
X220987Y192745D01*
X220502Y193327D01*
X220213Y193904D01*
X220401Y194468D01*
X220985Y194857D01*
X221579Y195154D01*
X222171Y195352D01*
X222867Y195451D01*
X222868Y195452D01*
X222868Y195451D01*
X223461Y195550D01*
X224153Y195451D01*
X224845Y195352D01*
X225438Y195056D01*
X226033Y194758D01*
X226527Y194363D01*
X227023Y193867D01*
X227420Y193371D01*
X227815Y192778D01*
X228012Y192189D01*
X228211Y190797D01*
X228211Y190104D01*
X228112Y189514D01*
X227815Y188819D01*
X227816Y188816D01*
X227813Y188816D01*
X227616Y188224D01*
X227223Y187733D01*
X226229Y186738D01*
X225635Y186343D01*
X225045Y186047D01*
X224452Y185949D01*
X223757Y185849D01*
X223063Y185849D01*
G37*
%LPD*%
G36*
X45745Y43514D02*
X45745Y43514D01*
X45748Y43511D01*
X46348Y43611D01*
X46354Y43618D01*
X46359Y43615D01*
X47059Y43915D01*
X47062Y43919D01*
X47065Y43918D01*
X47565Y44218D01*
X47570Y44229D01*
X47578Y44229D01*
X47978Y44729D01*
X47979Y44733D01*
X47981Y44733D01*
X48381Y45333D01*
X48381Y45337D01*
X48384Y45338D01*
X48684Y45938D01*
X48681Y45954D01*
X48689Y45960D01*
X48689Y46660D01*
X48676Y46678D01*
X48679Y46690D01*
X48379Y47090D01*
X48358Y47096D01*
X48354Y47107D01*
X47654Y47307D01*
X47642Y47303D01*
X47640Y47303D01*
X47634Y47309D01*
X46834Y47209D01*
X46821Y47196D01*
X46810Y47199D01*
X46410Y46899D01*
X46406Y46883D01*
X46404Y46882D01*
X46395Y46879D01*
X46102Y46196D01*
X45525Y45908D01*
X44845Y45810D01*
X44264Y46004D01*
X43793Y46380D01*
X43886Y46936D01*
X44363Y47414D01*
X45047Y47511D01*
X45048Y47512D01*
X45048Y47511D01*
X45648Y47611D01*
X45663Y47627D01*
X45675Y47625D01*
X46075Y48025D01*
X46079Y48052D01*
X46089Y48060D01*
X46089Y48960D01*
X46082Y48969D01*
X46087Y48976D01*
X45887Y49576D01*
X45865Y49591D01*
X45862Y49604D01*
X45462Y49804D01*
X45450Y49802D01*
X45445Y49809D01*
X44552Y49908D01*
X44089Y50093D01*
X44089Y50636D01*
X44557Y51011D01*
X45228Y51011D01*
X45808Y50721D01*
X46202Y50229D01*
X46209Y50227D01*
X46209Y50222D01*
X46709Y49822D01*
X46730Y49821D01*
X46735Y49815D01*
X46745Y49815D01*
X46748Y49811D01*
X47348Y49911D01*
X47358Y49922D01*
X47367Y49919D01*
X47967Y50319D01*
X47972Y50334D01*
X47982Y50335D01*
X48282Y50835D01*
X48280Y50860D01*
X48288Y50870D01*
X48188Y51370D01*
X48183Y51375D01*
X48185Y51379D01*
X47885Y52079D01*
X47874Y52086D01*
X47875Y52095D01*
X47375Y52595D01*
X47371Y52595D01*
X47371Y52598D01*
X46871Y52998D01*
X46857Y52999D01*
X46854Y53007D01*
X46155Y53207D01*
X45556Y53407D01*
X45545Y53403D01*
X45540Y53409D01*
X43440Y53409D01*
X43417Y53392D01*
X43403Y53393D01*
X42504Y52394D01*
X42005Y51895D01*
X42004Y51883D01*
X41996Y51882D01*
X41696Y51282D01*
X41698Y51271D01*
X41691Y51267D01*
X41591Y50567D01*
X41594Y50562D01*
X41591Y50560D01*
X41591Y49860D01*
X41600Y49847D01*
X41596Y49838D01*
X41896Y49238D01*
X41909Y49231D01*
X41909Y49222D01*
X42391Y48836D01*
X42391Y48483D01*
X41808Y47998D01*
X41805Y47984D01*
X41796Y47982D01*
X41496Y47382D01*
X41498Y47372D01*
X41491Y47368D01*
X41391Y46768D01*
X41394Y46763D01*
X41391Y46760D01*
X41391Y46060D01*
X41398Y46051D01*
X41393Y46044D01*
X41593Y45444D01*
X41601Y45439D01*
X41599Y45433D01*
X41999Y44833D01*
X42006Y44830D01*
X42005Y44825D01*
X42505Y44325D01*
X42514Y44324D01*
X42515Y44318D01*
X43015Y44018D01*
X43018Y44018D01*
X43018Y44016D01*
X43618Y43716D01*
X43623Y43717D01*
X43624Y43713D01*
X44224Y43513D01*
X44235Y43517D01*
X44240Y43511D01*
X45740Y43511D01*
X45745Y43514D01*
G37*
G36*
X9844Y43514D02*
X9844Y43514D01*
X9847Y43511D01*
X10547Y43611D01*
X10555Y43619D01*
X10562Y43616D01*
X11162Y43916D01*
X11165Y43923D01*
X11171Y43922D01*
X11671Y44322D01*
X11672Y44326D01*
X11675Y44325D01*
X12075Y44725D01*
X12076Y44737D01*
X12084Y44738D01*
X12684Y45938D01*
X12682Y45949D01*
X12689Y45953D01*
X12789Y46653D01*
X12786Y46658D01*
X12789Y46660D01*
X12789Y48160D01*
X12786Y48164D01*
X12789Y48167D01*
X12689Y48867D01*
X12684Y48872D01*
X12687Y48876D01*
X12287Y50076D01*
X12282Y50079D01*
X12284Y50082D01*
X11684Y51282D01*
X11677Y51285D01*
X11678Y51291D01*
X11278Y51791D01*
X11271Y51793D01*
X11271Y51798D01*
X10271Y52598D01*
X10263Y52599D01*
X10262Y52604D01*
X9662Y52904D01*
X9657Y52903D01*
X9656Y52907D01*
X9056Y53107D01*
X9049Y53105D01*
X9047Y53109D01*
X8347Y53209D01*
X8342Y53206D01*
X8340Y53209D01*
X6840Y53209D01*
X6815Y53190D01*
X6802Y53191D01*
X6402Y52691D01*
X6401Y52668D01*
X6391Y52660D01*
X6391Y51960D01*
X6394Y51956D01*
X6391Y51953D01*
X6491Y51253D01*
X6510Y51234D01*
X6510Y51221D01*
X6910Y50921D01*
X6928Y50921D01*
X6934Y50911D01*
X7733Y50811D01*
X8329Y50712D01*
X9019Y50515D01*
X9605Y50125D01*
X9994Y49540D01*
X10070Y49235D01*
X9556Y49407D01*
X9545Y49403D01*
X9540Y49409D01*
X8840Y49409D01*
X8832Y49403D01*
X8826Y49407D01*
X8126Y49207D01*
X8122Y49202D01*
X8118Y49204D01*
X7518Y48904D01*
X7515Y48897D01*
X7509Y48898D01*
X7009Y48498D01*
X7008Y48494D01*
X7005Y48495D01*
X6505Y47995D01*
X6504Y47983D01*
X6496Y47982D01*
X6196Y47382D01*
X6198Y47372D01*
X6191Y47368D01*
X6091Y46768D01*
X6094Y46763D01*
X6091Y46760D01*
X6091Y46560D01*
X6094Y46556D01*
X6091Y46553D01*
X6191Y45853D01*
X6196Y45848D01*
X6193Y45844D01*
X6393Y45244D01*
X6398Y45241D01*
X6396Y45238D01*
X6696Y44638D01*
X6709Y44631D01*
X6709Y44622D01*
X7209Y44222D01*
X7213Y44221D01*
X7213Y44219D01*
X7813Y43819D01*
X7822Y43820D01*
X7824Y43813D01*
X8424Y43613D01*
X8431Y43615D01*
X8433Y43611D01*
X9133Y43511D01*
X9138Y43514D01*
X9140Y43511D01*
X9840Y43511D01*
X9844Y43514D01*
G37*
%LPC*%
G36*
X205674Y135049D02*
X205674Y135049D01*
X205205Y135330D01*
X205110Y136000D01*
X205207Y136680D01*
X205586Y137154D01*
X206263Y137251D01*
X208660Y137251D01*
X208677Y137264D01*
X208698Y137268D01*
X208696Y137278D01*
X208707Y137287D01*
X208688Y137313D01*
X208680Y137345D01*
X207586Y137842D01*
X206993Y138337D01*
X206497Y138833D01*
X206100Y139329D01*
X205707Y139918D01*
X205609Y140607D01*
X205608Y140608D01*
X205609Y140608D01*
X205510Y141201D01*
X205608Y141889D01*
X205805Y142478D01*
X206201Y143073D01*
X206597Y143666D01*
X207087Y144058D01*
X207679Y144354D01*
X208268Y144551D01*
X209752Y144551D01*
X210341Y144354D01*
X210933Y144058D01*
X211423Y143666D01*
X211817Y143075D01*
X212114Y142481D01*
X212312Y141889D01*
X212411Y141197D01*
X212411Y140516D01*
X212133Y140146D01*
X211360Y140050D01*
X210587Y140146D01*
X210307Y140520D01*
X210209Y141207D01*
X210204Y141212D01*
X210207Y141216D01*
X210007Y141816D01*
X209993Y141825D01*
X209995Y141835D01*
X209495Y142335D01*
X209468Y142339D01*
X209460Y142349D01*
X208760Y142349D01*
X208747Y142340D01*
X208738Y142344D01*
X208138Y142044D01*
X208129Y142027D01*
X208118Y142025D01*
X207818Y141525D01*
X207820Y141507D01*
X207811Y141500D01*
X207811Y140800D01*
X207823Y140784D01*
X207819Y140773D01*
X208219Y140173D01*
X208226Y140170D01*
X208225Y140165D01*
X208625Y139765D01*
X208629Y139765D01*
X208628Y139762D01*
X209228Y139262D01*
X209235Y139262D01*
X209235Y139258D01*
X210934Y138258D01*
X211526Y137863D01*
X211920Y137371D01*
X212313Y136782D01*
X212410Y136199D01*
X212314Y135526D01*
X211840Y135147D01*
X211157Y135049D01*
X205674Y135049D01*
G37*
%LPD*%
G36*
X234868Y43611D02*
X234868Y43611D01*
X234883Y43627D01*
X234895Y43625D01*
X235395Y44125D01*
X235396Y44136D01*
X235398Y44138D01*
X235397Y44139D01*
X235406Y44142D01*
X237406Y49142D01*
X237404Y49148D01*
X237408Y49150D01*
X237508Y49650D01*
X237495Y49678D01*
X237498Y49691D01*
X237098Y50191D01*
X237082Y50195D01*
X237079Y50205D01*
X236379Y50505D01*
X236372Y50504D01*
X236364Y50504D01*
X236360Y50509D01*
X235760Y50509D01*
X235735Y50490D01*
X235722Y50491D01*
X235322Y49991D01*
X235321Y49981D01*
X235321Y49980D01*
X235314Y49979D01*
X234615Y48281D01*
X234367Y47784D01*
X233706Y49577D01*
X233700Y49581D01*
X233702Y49585D01*
X233402Y50085D01*
X233388Y50091D01*
X233387Y50101D01*
X232787Y50501D01*
X232771Y50500D01*
X232768Y50504D01*
X232758Y50504D01*
X232753Y50509D01*
X232053Y50409D01*
X232038Y50393D01*
X232025Y50395D01*
X231525Y49895D01*
X231524Y49883D01*
X231518Y49879D01*
X231514Y49877D01*
X231214Y49077D01*
X230718Y47787D01*
X230680Y47749D01*
X230006Y49577D01*
X229999Y49582D01*
X230001Y49587D01*
X229601Y50187D01*
X229586Y50192D01*
X229585Y50202D01*
X229085Y50502D01*
X229071Y50501D01*
X229068Y50504D01*
X229057Y50504D01*
X229052Y50509D01*
X228452Y50409D01*
X228443Y50399D01*
X228436Y50403D01*
X227736Y50003D01*
X227727Y49984D01*
X227717Y49976D01*
X227719Y49973D01*
X227712Y49970D01*
X227612Y49470D01*
X227619Y49455D01*
X227613Y49446D01*
X227813Y48746D01*
X227816Y48744D01*
X227815Y48741D01*
X228314Y47542D01*
X229514Y44343D01*
X229523Y44337D01*
X229522Y44329D01*
X229922Y43829D01*
X229936Y43826D01*
X229938Y43816D01*
X230538Y43516D01*
X230559Y43520D01*
X230568Y43511D01*
X231168Y43611D01*
X231183Y43627D01*
X231195Y43625D01*
X231695Y44125D01*
X231696Y44136D01*
X231698Y44138D01*
X231697Y44140D01*
X231706Y44143D01*
X232305Y45740D01*
X232552Y46234D01*
X233214Y44344D01*
X233224Y44337D01*
X233222Y44329D01*
X233622Y43829D01*
X233636Y43826D01*
X233638Y43816D01*
X234238Y43516D01*
X234259Y43520D01*
X234268Y43511D01*
X234868Y43611D01*
G37*
G36*
X64448Y43517D02*
X64448Y43517D01*
X64454Y43513D01*
X65154Y43713D01*
X65160Y43722D01*
X65167Y43719D01*
X65767Y44119D01*
X65768Y44122D01*
X65771Y44122D01*
X66271Y44522D01*
X66272Y44526D01*
X66275Y44525D01*
X66675Y44925D01*
X66676Y44935D01*
X66683Y44936D01*
X67083Y45636D01*
X67080Y45660D01*
X67083Y45664D01*
X67084Y45664D01*
X67084Y45665D01*
X67088Y45670D01*
X66988Y46170D01*
X66973Y46183D01*
X66975Y46195D01*
X66375Y46795D01*
X66354Y46798D01*
X66348Y46809D01*
X65748Y46909D01*
X65744Y46906D01*
X65742Y46909D01*
X65739Y46909D01*
X65729Y46901D01*
X65722Y46906D01*
X65222Y46706D01*
X65216Y46696D01*
X65208Y46698D01*
X64610Y46199D01*
X64022Y45807D01*
X63348Y45711D01*
X62775Y45998D01*
X62492Y46470D01*
X62584Y47027D01*
X63155Y47312D01*
X63847Y47411D01*
X63851Y47415D01*
X63854Y47413D01*
X64554Y47613D01*
X64558Y47618D01*
X64562Y47616D01*
X65762Y48216D01*
X65765Y48223D01*
X65771Y48222D01*
X66271Y48622D01*
X66273Y48629D01*
X66278Y48629D01*
X66678Y49129D01*
X66679Y49143D01*
X66687Y49146D01*
X66720Y49260D01*
X66734Y49309D01*
X66776Y49457D01*
X66818Y49604D01*
X66832Y49654D01*
X66874Y49801D01*
X66875Y49801D01*
X66874Y49801D01*
X66887Y49846D01*
X66886Y49850D01*
X66887Y49851D01*
X66884Y49855D01*
X66884Y49856D01*
X66889Y49860D01*
X66889Y51160D01*
X66880Y51173D01*
X66884Y51182D01*
X66584Y51782D01*
X66580Y51784D01*
X66581Y51787D01*
X66181Y52387D01*
X66171Y52391D01*
X66171Y52398D01*
X65671Y52798D01*
X65666Y52799D01*
X65665Y52802D01*
X65165Y53102D01*
X65156Y53101D01*
X65154Y53107D01*
X64454Y53307D01*
X64449Y53306D01*
X64447Y53309D01*
X63747Y53409D01*
X63738Y53404D01*
X63733Y53409D01*
X63033Y53309D01*
X63032Y53308D01*
X63032Y53309D01*
X62432Y53209D01*
X62430Y53206D01*
X62428Y53208D01*
X61628Y53008D01*
X61616Y52993D01*
X61605Y52995D01*
X60705Y52095D01*
X60702Y52068D01*
X60691Y52060D01*
X60691Y51560D01*
X60702Y51546D01*
X60697Y51536D01*
X61097Y50836D01*
X61116Y50828D01*
X61118Y50816D01*
X61718Y50516D01*
X61734Y50519D01*
X61740Y50511D01*
X62240Y50511D01*
X62259Y50525D01*
X62272Y50522D01*
X62864Y51016D01*
X63445Y51210D01*
X64114Y51114D01*
X64488Y50646D01*
X64395Y50089D01*
X63820Y49706D01*
X62529Y49408D01*
X62528Y49406D01*
X62526Y49407D01*
X61826Y49207D01*
X61822Y49202D01*
X61818Y49204D01*
X61218Y48904D01*
X61215Y48897D01*
X61209Y48898D01*
X60709Y48498D01*
X60707Y48491D01*
X60702Y48491D01*
X60302Y47991D01*
X60301Y47978D01*
X60293Y47976D01*
X60093Y47376D01*
X60096Y47368D01*
X60093Y47366D01*
X60095Y47363D01*
X60091Y47360D01*
X60091Y46560D01*
X60094Y46556D01*
X60091Y46553D01*
X60191Y45853D01*
X60196Y45848D01*
X60193Y45844D01*
X60393Y45244D01*
X60398Y45241D01*
X60396Y45238D01*
X60696Y44638D01*
X60709Y44631D01*
X60709Y44622D01*
X61209Y44222D01*
X61217Y44221D01*
X61218Y44216D01*
X62418Y43616D01*
X62429Y43618D01*
X62433Y43611D01*
X63133Y43511D01*
X63138Y43514D01*
X63140Y43511D01*
X64440Y43511D01*
X64448Y43517D01*
G37*
%LPC*%
G36*
X28873Y135049D02*
X28873Y135049D01*
X28181Y135148D01*
X27592Y135345D01*
X26999Y135740D01*
X26507Y136134D01*
X26115Y136722D01*
X25919Y137308D01*
X25919Y137997D01*
X26018Y138689D01*
X26213Y139273D01*
X27199Y140259D01*
X27785Y140553D01*
X28378Y140651D01*
X29067Y140750D01*
X29756Y140553D01*
X29757Y140553D01*
X29812Y140574D01*
X29806Y140590D01*
X29819Y140600D01*
X29819Y141000D01*
X29805Y141018D01*
X29808Y141031D01*
X29408Y141531D01*
X29401Y141533D01*
X29401Y141538D01*
X28901Y141938D01*
X28891Y141939D01*
X28889Y141945D01*
X28189Y142245D01*
X28180Y142243D01*
X28177Y142249D01*
X26787Y142447D01*
X26311Y142733D01*
X26120Y143305D01*
X26217Y143983D01*
X26500Y144455D01*
X27173Y144551D01*
X27966Y144551D01*
X28559Y144452D01*
X29252Y144254D01*
X29847Y143957D01*
X30340Y143661D01*
X30833Y143167D01*
X31628Y142173D01*
X31924Y141581D01*
X32123Y140985D01*
X32322Y140290D01*
X32421Y139597D01*
X32421Y138108D01*
X32223Y137516D01*
X32224Y137514D01*
X32223Y137514D01*
X32189Y137395D01*
X32175Y137346D01*
X32133Y137198D01*
X32090Y137050D01*
X32076Y137001D01*
X32034Y136853D01*
X32024Y136820D01*
X31730Y136328D01*
X31335Y135835D01*
X30843Y135442D01*
X30255Y135148D01*
X29567Y135049D01*
X28873Y135049D01*
G37*
%LPD*%
%LPC*%
G36*
X28978Y160449D02*
X28978Y160449D01*
X28389Y160646D01*
X27795Y160943D01*
X27204Y161337D01*
X26810Y161829D01*
X26413Y162425D01*
X25817Y163615D01*
X25719Y164204D01*
X25719Y168997D01*
X25815Y169670D01*
X26284Y169951D01*
X26967Y169951D01*
X27621Y169857D01*
X27621Y169800D01*
X27628Y169791D01*
X27623Y169784D01*
X27822Y169189D01*
X27921Y168497D01*
X27921Y164400D01*
X27928Y164391D01*
X27923Y164384D01*
X28123Y163784D01*
X28128Y163781D01*
X28126Y163778D01*
X28426Y163178D01*
X28439Y163171D01*
X28439Y163162D01*
X28939Y162762D01*
X28958Y162761D01*
X28963Y162751D01*
X29663Y162651D01*
X29668Y162654D01*
X29670Y162651D01*
X30370Y162651D01*
X30383Y162660D01*
X30392Y162656D01*
X30992Y162956D01*
X31000Y162972D01*
X31011Y162973D01*
X31411Y163573D01*
X31410Y163582D01*
X31417Y163584D01*
X31617Y164184D01*
X31615Y164190D01*
X31619Y164192D01*
X31719Y164792D01*
X31716Y164797D01*
X31719Y164800D01*
X31719Y168897D01*
X31816Y169574D01*
X32287Y169951D01*
X32967Y169951D01*
X33640Y169855D01*
X33921Y169386D01*
X33921Y164007D01*
X33912Y163977D01*
X33870Y163829D01*
X33828Y163682D01*
X33814Y163632D01*
X33772Y163485D01*
X33729Y163337D01*
X33724Y163318D01*
X33426Y162722D01*
X33128Y162127D01*
X32733Y161633D01*
X32241Y161141D01*
X31648Y160844D01*
X31055Y160548D01*
X30367Y160449D01*
X28978Y160449D01*
G37*
%LPD*%
%LPC*%
G36*
X30373Y58849D02*
X30373Y58849D01*
X29681Y58948D01*
X29089Y59146D01*
X28493Y59443D01*
X28001Y59739D01*
X27507Y60233D01*
X26712Y61227D01*
X26416Y61819D01*
X26217Y62415D01*
X26018Y63110D01*
X25919Y63803D01*
X25919Y65296D01*
X26018Y65889D01*
X26034Y65946D01*
X26048Y65995D01*
X26091Y66143D01*
X26133Y66290D01*
X26147Y66340D01*
X26189Y66487D01*
X26215Y66577D01*
X26608Y67069D01*
X27005Y67565D01*
X27497Y67958D01*
X28085Y68253D01*
X28674Y68351D01*
X29467Y68351D01*
X30159Y68252D01*
X30751Y68054D01*
X31338Y67761D01*
X31730Y67271D01*
X32125Y66678D01*
X32322Y66089D01*
X32420Y65401D01*
X32323Y64815D01*
X32027Y64225D01*
X31632Y63631D01*
X31141Y63141D01*
X30555Y62848D01*
X29863Y62749D01*
X29862Y62748D01*
X29862Y62749D01*
X29273Y62650D01*
X28584Y62847D01*
X28583Y62847D01*
X28528Y62826D01*
X28534Y62810D01*
X28521Y62800D01*
X28521Y62400D01*
X28535Y62382D01*
X28532Y62369D01*
X28932Y61869D01*
X28936Y61868D01*
X28935Y61865D01*
X29435Y61365D01*
X29453Y61363D01*
X29456Y61353D01*
X30156Y61153D01*
X30161Y61155D01*
X30163Y61151D01*
X30863Y61051D01*
X31557Y60952D01*
X32029Y60763D01*
X32220Y60096D01*
X32123Y59323D01*
X31746Y58946D01*
X31166Y58849D01*
X30373Y58849D01*
G37*
%LPD*%
%LPC*%
G36*
X208167Y109649D02*
X208167Y109649D01*
X207475Y109847D01*
X206884Y110044D01*
X206393Y110437D01*
X205897Y110933D01*
X205505Y111423D01*
X205309Y112107D01*
X205309Y112796D01*
X205407Y113385D01*
X205701Y113971D01*
X206195Y114465D01*
X206196Y114477D01*
X206201Y114480D01*
X206198Y114484D01*
X206208Y114488D01*
X206308Y114888D01*
X206291Y114928D01*
X206291Y114938D01*
X205799Y115332D01*
X205509Y115912D01*
X205509Y116597D01*
X205608Y117285D01*
X205902Y117873D01*
X206297Y118367D01*
X207280Y119351D01*
X209156Y119351D01*
X209746Y119252D01*
X210439Y118955D01*
X211031Y118659D01*
X211421Y118270D01*
X211815Y117580D01*
X212008Y117002D01*
X211819Y116530D01*
X211239Y116046D01*
X210665Y115951D01*
X210193Y116140D01*
X209801Y116727D01*
X209788Y116732D01*
X209787Y116741D01*
X209187Y117141D01*
X209167Y117140D01*
X209160Y117149D01*
X208460Y117149D01*
X208447Y117140D01*
X208438Y117144D01*
X207838Y116844D01*
X207823Y116814D01*
X207811Y116808D01*
X207711Y116208D01*
X207734Y116165D01*
X207735Y116158D01*
X208235Y115858D01*
X208249Y115859D01*
X208254Y115851D01*
X209053Y115751D01*
X209623Y115656D01*
X209811Y115092D01*
X209811Y114216D01*
X209530Y113842D01*
X208949Y113648D01*
X208253Y113549D01*
X208242Y113538D01*
X208233Y113541D01*
X207633Y113141D01*
X207623Y113114D01*
X207611Y113108D01*
X207511Y112508D01*
X207525Y112482D01*
X207522Y112469D01*
X207922Y111969D01*
X207941Y111964D01*
X207944Y111953D01*
X208544Y111753D01*
X208555Y111757D01*
X208560Y111751D01*
X209260Y111751D01*
X209274Y111762D01*
X209284Y111757D01*
X209984Y112157D01*
X209992Y112176D01*
X210004Y112178D01*
X210302Y112774D01*
X210587Y113154D01*
X211357Y113250D01*
X212131Y113056D01*
X212411Y112684D01*
X212411Y112107D01*
X212379Y111995D01*
X212365Y111946D01*
X212323Y111798D01*
X212280Y111650D01*
X212266Y111601D01*
X212224Y111453D01*
X212215Y111421D01*
X211823Y110834D01*
X211329Y110438D01*
X210836Y110044D01*
X210245Y109847D01*
X209553Y109649D01*
X208167Y109649D01*
G37*
%LPD*%
%LPC*%
G36*
X224263Y160449D02*
X224263Y160449D01*
X223571Y160548D01*
X222979Y160746D01*
X222387Y161042D01*
X221895Y161435D01*
X221502Y161927D01*
X221208Y162515D01*
X221109Y163203D01*
X221109Y163892D01*
X221304Y164476D01*
X221697Y164967D01*
X222195Y165465D01*
X222196Y165476D01*
X222198Y165477D01*
X222197Y165479D01*
X222203Y165524D01*
X222194Y165525D01*
X222195Y165535D01*
X221797Y165933D01*
X221407Y166420D01*
X221309Y167103D01*
X221309Y167692D01*
X221505Y168278D01*
X221900Y168871D01*
X222297Y169367D01*
X222791Y169861D01*
X223274Y170151D01*
X224557Y170151D01*
X225252Y170051D01*
X225846Y169952D01*
X226534Y169657D01*
X227027Y169263D01*
X227525Y168765D01*
X227559Y168760D01*
X227531Y168740D01*
X227522Y168710D01*
X227515Y168705D01*
X227519Y168700D01*
X227515Y168687D01*
X227513Y168684D01*
X227712Y168088D01*
X227807Y167517D01*
X227331Y167041D01*
X226748Y166749D01*
X226186Y166749D01*
X225801Y167327D01*
X225794Y167330D01*
X225795Y167335D01*
X225295Y167835D01*
X225274Y167838D01*
X225268Y167849D01*
X224668Y167949D01*
X224658Y167943D01*
X224653Y167949D01*
X223953Y167849D01*
X223935Y167830D01*
X223922Y167831D01*
X223522Y167331D01*
X223521Y167292D01*
X223514Y167282D01*
X223714Y166782D01*
X223747Y166762D01*
X223753Y166751D01*
X224453Y166651D01*
X225141Y166553D01*
X225513Y166273D01*
X225610Y165401D01*
X225515Y164730D01*
X225046Y164449D01*
X224360Y164449D01*
X224351Y164442D01*
X224344Y164447D01*
X223744Y164247D01*
X223732Y164228D01*
X223719Y164227D01*
X223319Y163627D01*
X223321Y163602D01*
X223311Y163592D01*
X223411Y162992D01*
X223433Y162971D01*
X223435Y162958D01*
X223935Y162658D01*
X223949Y162659D01*
X223954Y162651D01*
X224754Y162551D01*
X224762Y162556D01*
X224767Y162551D01*
X225467Y162651D01*
X225485Y162670D01*
X225498Y162669D01*
X225898Y163169D01*
X225899Y163177D01*
X225904Y163178D01*
X226198Y163765D01*
X226671Y164049D01*
X227549Y163952D01*
X228116Y163763D01*
X228210Y163200D01*
X228112Y162614D01*
X227817Y161926D01*
X227425Y161435D01*
X226933Y161042D01*
X226341Y160746D01*
X225749Y160548D01*
X225057Y160449D01*
X224263Y160449D01*
G37*
%LPD*%
G36*
X18748Y43517D02*
X18748Y43517D01*
X18754Y43513D01*
X19454Y43713D01*
X19455Y43714D01*
X19456Y43713D01*
X20056Y43913D01*
X20059Y43918D01*
X20062Y43916D01*
X20662Y44216D01*
X20664Y44220D01*
X20667Y44219D01*
X21267Y44619D01*
X21270Y44626D01*
X21275Y44625D01*
X21775Y45125D01*
X21775Y45129D01*
X21778Y45129D01*
X22178Y45629D01*
X22179Y45634D01*
X22182Y45635D01*
X22482Y46135D01*
X22482Y46140D01*
X22485Y46141D01*
X22785Y46841D01*
X22785Y46844D01*
X22787Y46844D01*
X22987Y47444D01*
X22983Y47455D01*
X22989Y47460D01*
X22989Y48860D01*
X22986Y48864D01*
X22989Y48867D01*
X22889Y49567D01*
X22888Y49568D01*
X22889Y49568D01*
X22789Y50168D01*
X22781Y50175D01*
X22784Y50182D01*
X22484Y50782D01*
X22480Y50784D01*
X22481Y50787D01*
X22081Y51387D01*
X22078Y51388D01*
X22078Y51391D01*
X21678Y51891D01*
X21671Y51893D01*
X21671Y51898D01*
X21171Y52298D01*
X21167Y52299D01*
X21167Y52301D01*
X20567Y52701D01*
X20561Y52701D01*
X20559Y52705D01*
X19859Y53005D01*
X19856Y53005D01*
X19856Y53007D01*
X19256Y53207D01*
X19250Y53205D01*
X19248Y53209D01*
X18648Y53309D01*
X18643Y53306D01*
X18640Y53309D01*
X17940Y53309D01*
X17936Y53306D01*
X17933Y53309D01*
X16533Y53109D01*
X16525Y53101D01*
X16518Y53104D01*
X15918Y52804D01*
X15917Y52801D01*
X15915Y52802D01*
X15415Y52502D01*
X15411Y52494D01*
X15405Y52495D01*
X14905Y51995D01*
X14902Y51974D01*
X14891Y51968D01*
X14791Y51368D01*
X14803Y51345D01*
X14799Y51333D01*
X15199Y50733D01*
X15206Y50730D01*
X15205Y50725D01*
X15705Y50225D01*
X15732Y50222D01*
X15740Y50211D01*
X16240Y50211D01*
X16256Y50223D01*
X16267Y50219D01*
X16862Y50615D01*
X17451Y50812D01*
X18140Y50910D01*
X18825Y50812D01*
X19418Y50516D01*
X20006Y50222D01*
X20395Y49638D01*
X20592Y49049D01*
X20690Y48360D01*
X20592Y47675D01*
X20298Y47087D01*
X19906Y46597D01*
X19315Y46203D01*
X18728Y45909D01*
X17452Y45909D01*
X16863Y46204D01*
X16164Y46603D01*
X16139Y46599D01*
X16128Y46608D01*
X15728Y46508D01*
X15716Y46493D01*
X15705Y46495D01*
X15205Y45995D01*
X15204Y45985D01*
X15197Y45984D01*
X14797Y45284D01*
X14801Y45256D01*
X14793Y45244D01*
X14993Y44644D01*
X15010Y44633D01*
X15009Y44622D01*
X15509Y44222D01*
X15514Y44221D01*
X15515Y44218D01*
X16015Y43918D01*
X16025Y43919D01*
X16028Y43912D01*
X16826Y43713D01*
X17424Y43513D01*
X17435Y43517D01*
X17440Y43511D01*
X18740Y43511D01*
X18748Y43517D01*
G37*
%LPC*%
G36*
X202867Y160449D02*
X202867Y160449D01*
X202175Y160647D01*
X201584Y160844D01*
X201093Y161237D01*
X200599Y161731D01*
X200306Y162220D01*
X200108Y162910D01*
X200010Y163599D01*
X200107Y164185D01*
X200401Y164771D01*
X200895Y165265D01*
X200896Y165277D01*
X200901Y165280D01*
X200898Y165284D01*
X200908Y165288D01*
X201008Y165688D01*
X200991Y165728D01*
X200991Y165738D01*
X200499Y166132D01*
X200209Y166712D01*
X200209Y167397D01*
X200308Y168085D01*
X200601Y168671D01*
X201095Y169165D01*
X201095Y169167D01*
X201097Y169167D01*
X201982Y170151D01*
X203857Y170151D01*
X204547Y170052D01*
X205238Y169756D01*
X205730Y169461D01*
X206222Y168969D01*
X206613Y168382D01*
X206709Y167804D01*
X206519Y167232D01*
X205942Y166847D01*
X205370Y166752D01*
X204893Y167038D01*
X204498Y167531D01*
X204488Y167533D01*
X204487Y167541D01*
X203887Y167941D01*
X203867Y167940D01*
X203860Y167949D01*
X203160Y167949D01*
X203147Y167940D01*
X203138Y167944D01*
X202538Y167644D01*
X202523Y167614D01*
X202511Y167608D01*
X202411Y167008D01*
X202434Y166965D01*
X202435Y166958D01*
X202935Y166658D01*
X202950Y166659D01*
X202955Y166651D01*
X203852Y166551D01*
X204322Y166457D01*
X204511Y165892D01*
X204511Y165014D01*
X204230Y164545D01*
X203652Y164449D01*
X202953Y164349D01*
X202942Y164338D01*
X202933Y164341D01*
X202333Y163941D01*
X202323Y163914D01*
X202311Y163908D01*
X202211Y163308D01*
X202225Y163282D01*
X202222Y163269D01*
X202622Y162769D01*
X202641Y162764D01*
X202644Y162753D01*
X203244Y162553D01*
X203255Y162557D01*
X203260Y162551D01*
X204060Y162551D01*
X204076Y162563D01*
X204087Y162559D01*
X204687Y162959D01*
X204693Y162976D01*
X204704Y162978D01*
X205001Y163571D01*
X205383Y163954D01*
X206057Y164050D01*
X206831Y163856D01*
X207111Y163484D01*
X207111Y162907D01*
X207079Y162795D01*
X207065Y162746D01*
X207023Y162598D01*
X206980Y162450D01*
X206966Y162401D01*
X206924Y162253D01*
X206915Y162221D01*
X206523Y161634D01*
X206029Y161238D01*
X205536Y160844D01*
X204945Y160647D01*
X204253Y160449D01*
X202867Y160449D01*
G37*
%LPD*%
%LPC*%
G36*
X208968Y58849D02*
X208968Y58849D01*
X208379Y59046D01*
X207787Y59342D01*
X207295Y59735D01*
X206800Y60329D01*
X206506Y60820D01*
X206309Y61507D01*
X206309Y62197D01*
X206408Y62889D01*
X206604Y63476D01*
X206997Y63967D01*
X207493Y64463D01*
X207986Y64857D01*
X208674Y65152D01*
X209264Y65251D01*
X209860Y65251D01*
X209907Y65287D01*
X209900Y65297D01*
X209909Y65306D01*
X209809Y66106D01*
X209775Y66141D01*
X209772Y66148D01*
X209372Y66248D01*
X209364Y66244D01*
X209360Y66249D01*
X207268Y66249D01*
X206699Y66439D01*
X206509Y67008D01*
X206509Y67886D01*
X206791Y68355D01*
X207364Y68451D01*
X211045Y68451D01*
X211622Y68066D01*
X211912Y67485D01*
X212311Y64394D01*
X212409Y63414D01*
X212126Y63036D01*
X211539Y62645D01*
X210861Y62452D01*
X210284Y62644D01*
X209791Y63038D01*
X209757Y63039D01*
X209746Y63047D01*
X209046Y62847D01*
X209038Y62836D01*
X209029Y62838D01*
X208529Y62438D01*
X208520Y62402D01*
X208511Y62393D01*
X208611Y61693D01*
X208621Y61683D01*
X208618Y61675D01*
X208918Y61175D01*
X208946Y61163D01*
X208953Y61151D01*
X209653Y61051D01*
X209662Y61056D01*
X209667Y61051D01*
X210367Y61151D01*
X210380Y61165D01*
X210392Y61162D01*
X210982Y61654D01*
X211450Y61748D01*
X212027Y61363D01*
X212511Y60782D01*
X212511Y60315D01*
X212125Y59736D01*
X211535Y59343D01*
X210941Y59046D01*
X210352Y58849D01*
X208968Y58849D01*
G37*
%LPD*%
%LPC*%
G36*
X206277Y84249D02*
X206277Y84249D01*
X205806Y84627D01*
X205709Y85204D01*
X205709Y92693D01*
X205718Y92725D01*
X205760Y92872D01*
X205761Y92872D01*
X205760Y92872D01*
X205803Y93020D01*
X205817Y93069D01*
X205859Y93217D01*
X205901Y93365D01*
X205902Y93368D01*
X206374Y93651D01*
X207057Y93651D01*
X207723Y93556D01*
X207911Y92992D01*
X207911Y89000D01*
X207947Y88953D01*
X207954Y88958D01*
X207960Y88951D01*
X210060Y88951D01*
X210061Y88951D01*
X210107Y88987D01*
X210097Y89000D01*
X210107Y89014D01*
X209908Y89712D01*
X209308Y92309D01*
X209212Y92983D01*
X209588Y93358D01*
X210270Y93651D01*
X210940Y93651D01*
X211316Y93274D01*
X211512Y92588D01*
X212512Y88690D01*
X212611Y88092D01*
X212655Y88051D01*
X212660Y88057D01*
X212665Y88051D01*
X212672Y88052D01*
X212652Y88049D01*
X212615Y88010D01*
X212611Y88008D01*
X212514Y87424D01*
X212137Y87047D01*
X211357Y86949D01*
X207960Y86949D01*
X207913Y86913D01*
X207918Y86906D01*
X207911Y86900D01*
X207911Y84912D01*
X207627Y84345D01*
X206957Y84249D01*
X206277Y84249D01*
G37*
%LPD*%
G36*
X192064Y43514D02*
X192064Y43514D01*
X192067Y43511D01*
X192767Y43611D01*
X192772Y43616D01*
X192776Y43613D01*
X193376Y43813D01*
X193381Y43821D01*
X193387Y43819D01*
X193987Y44219D01*
X193990Y44226D01*
X193995Y44225D01*
X194495Y44725D01*
X194496Y44737D01*
X194504Y44738D01*
X195104Y45938D01*
X195102Y45949D01*
X195109Y45953D01*
X195209Y46653D01*
X195206Y46658D01*
X195209Y46660D01*
X195209Y47360D01*
X195206Y47364D01*
X195209Y47367D01*
X195109Y48067D01*
X195104Y48072D01*
X195107Y48076D01*
X194907Y48676D01*
X194902Y48679D01*
X194904Y48682D01*
X194604Y49282D01*
X194591Y49289D01*
X194591Y49298D01*
X193591Y50098D01*
X193583Y50099D01*
X193582Y50104D01*
X192982Y50404D01*
X192975Y50403D01*
X192974Y50407D01*
X192274Y50607D01*
X192269Y50606D01*
X192267Y50609D01*
X191567Y50709D01*
X191558Y50704D01*
X191553Y50709D01*
X190153Y50509D01*
X190145Y50501D01*
X190138Y50504D01*
X189538Y50204D01*
X189533Y50194D01*
X189525Y50195D01*
X189025Y49695D01*
X189025Y49691D01*
X189022Y49691D01*
X188622Y49191D01*
X188621Y49178D01*
X188613Y49176D01*
X188413Y48576D01*
X188415Y48569D01*
X188411Y48567D01*
X188311Y47867D01*
X188314Y47862D01*
X188311Y47860D01*
X188311Y47060D01*
X188330Y47035D01*
X188329Y47022D01*
X188829Y46622D01*
X188837Y46621D01*
X188838Y46616D01*
X189438Y46316D01*
X189449Y46318D01*
X189455Y46318D01*
X189460Y46311D01*
X192251Y46311D01*
X192672Y46142D01*
X192233Y45703D01*
X191652Y45509D01*
X190868Y45509D01*
X189676Y45907D01*
X189647Y45897D01*
X189635Y45902D01*
X189135Y45602D01*
X189128Y45586D01*
X189117Y45584D01*
X188717Y44884D01*
X188720Y44867D01*
X188711Y44860D01*
X188711Y44360D01*
X188727Y44339D01*
X188725Y44325D01*
X189025Y44025D01*
X189034Y44024D01*
X189035Y44018D01*
X189535Y43718D01*
X189545Y43719D01*
X189548Y43712D01*
X190348Y43512D01*
X190356Y43516D01*
X190360Y43511D01*
X192060Y43511D01*
X192064Y43514D01*
G37*
%LPC*%
G36*
X40690Y160547D02*
X40690Y160547D01*
X40209Y160932D01*
X39914Y161522D01*
X36616Y168219D01*
X36417Y168816D01*
X36387Y168836D01*
X36382Y168848D01*
X36362Y168853D01*
X36414Y168877D01*
X36412Y168881D01*
X36416Y168882D01*
X36609Y169364D01*
X37582Y169851D01*
X38146Y169851D01*
X38527Y169374D01*
X38825Y168681D01*
X38826Y168680D01*
X38825Y168679D01*
X41125Y163779D01*
X41146Y163768D01*
X41148Y163756D01*
X41348Y163656D01*
X41406Y163667D01*
X41405Y163677D01*
X41415Y163680D01*
X43814Y168979D01*
X44012Y169373D01*
X44394Y169851D01*
X44958Y169851D01*
X45738Y169461D01*
X46117Y168987D01*
X46023Y168516D01*
X42328Y161127D01*
X41941Y160642D01*
X41365Y160450D01*
X40690Y160547D01*
G37*
%LPD*%
%LPC*%
G36*
X39697Y186043D02*
X39697Y186043D01*
X39211Y186529D01*
X35914Y193222D01*
X35619Y193812D01*
X35619Y194386D01*
X35907Y194866D01*
X36292Y195155D01*
X36963Y195347D01*
X37432Y195065D01*
X40326Y188979D01*
X40332Y188975D01*
X40333Y188968D01*
X40345Y188969D01*
X40378Y188951D01*
X40389Y188971D01*
X40411Y188973D01*
X40611Y189273D01*
X40611Y189279D01*
X40615Y189280D01*
X43013Y194575D01*
X43306Y194965D01*
X43780Y195345D01*
X44350Y195155D01*
X45031Y194766D01*
X45218Y194297D01*
X45205Y194253D01*
X45191Y194204D01*
X45149Y194056D01*
X45107Y193908D01*
X45093Y193859D01*
X45051Y193711D01*
X45024Y193618D01*
X41331Y186332D01*
X40849Y185946D01*
X40274Y185851D01*
X39697Y186043D01*
G37*
%LPD*%
%LPC*%
G36*
X213874Y160449D02*
X213874Y160449D01*
X213395Y160737D01*
X213003Y161325D01*
X209705Y168020D01*
X209411Y168705D01*
X209505Y169176D01*
X209988Y169658D01*
X210469Y169851D01*
X211043Y169851D01*
X211518Y169471D01*
X211713Y168884D01*
X211717Y168882D01*
X211715Y168879D01*
X214015Y163879D01*
X214020Y163877D01*
X214019Y163873D01*
X214219Y163573D01*
X214226Y163570D01*
X214227Y163564D01*
X214239Y163566D01*
X214275Y163553D01*
X214282Y163574D01*
X214304Y163578D01*
X214604Y164178D01*
X214604Y164179D01*
X214605Y164180D01*
X216705Y168780D01*
X216704Y168784D01*
X216707Y168784D01*
X216903Y169373D01*
X217287Y169757D01*
X217858Y169947D01*
X218532Y169658D01*
X219011Y169180D01*
X219011Y168700D01*
X219037Y168665D01*
X219040Y168655D01*
X219067Y168643D01*
X219057Y168643D01*
X219051Y168638D01*
X219021Y168630D01*
X219023Y168623D01*
X219016Y168622D01*
X218716Y168022D01*
X215416Y161322D01*
X215123Y160737D01*
X214548Y160449D01*
X213874Y160449D01*
G37*
%LPD*%
%LPC*%
G36*
X29978Y109649D02*
X29978Y109649D01*
X29410Y109839D01*
X29219Y110507D01*
X29219Y111000D01*
X29212Y111009D01*
X29217Y111016D01*
X28817Y112216D01*
X28811Y112220D01*
X28813Y112224D01*
X28413Y112923D01*
X27713Y114223D01*
X27711Y114225D01*
X27712Y114226D01*
X27012Y115326D01*
X27011Y115327D01*
X26613Y115925D01*
X26316Y116517D01*
X26118Y117311D01*
X26019Y117805D01*
X26019Y118483D01*
X26396Y118954D01*
X27073Y119051D01*
X31567Y119051D01*
X32253Y118953D01*
X32725Y118670D01*
X32820Y118000D01*
X32724Y117323D01*
X32347Y116946D01*
X31667Y116849D01*
X28970Y116849D01*
X28927Y116817D01*
X28923Y116816D01*
X28823Y116516D01*
X28833Y116485D01*
X28829Y116473D01*
X29628Y115274D01*
X29928Y114775D01*
X29929Y114774D01*
X29929Y114773D01*
X30327Y114175D01*
X30925Y112979D01*
X31222Y112286D01*
X31321Y111692D01*
X31421Y110997D01*
X31421Y110308D01*
X31233Y109744D01*
X30666Y109649D01*
X29978Y109649D01*
G37*
%LPD*%
G36*
X182873Y43520D02*
X182873Y43520D01*
X182882Y43516D01*
X183482Y43816D01*
X183491Y43834D01*
X183503Y43835D01*
X186203Y48535D01*
X186202Y48538D01*
X186204Y48538D01*
X186504Y49138D01*
X186501Y49154D01*
X186509Y49160D01*
X186509Y49760D01*
X186493Y49781D01*
X186495Y49795D01*
X185995Y50295D01*
X185982Y50297D01*
X185979Y50305D01*
X185279Y50605D01*
X185269Y50603D01*
X185258Y50603D01*
X185252Y50609D01*
X184652Y50509D01*
X184633Y50488D01*
X184619Y50487D01*
X184219Y49887D01*
X184219Y49883D01*
X184216Y49882D01*
X182730Y46909D01*
X182490Y46909D01*
X180903Y49883D01*
X180897Y49886D01*
X180898Y49891D01*
X180498Y50391D01*
X180481Y50395D01*
X180478Y50406D01*
X179978Y50606D01*
X179967Y50603D01*
X179945Y50603D01*
X179941Y50605D01*
X179241Y50305D01*
X179235Y50296D01*
X179228Y50298D01*
X178628Y49798D01*
X178625Y49783D01*
X178619Y49779D01*
X178622Y49775D01*
X178612Y49770D01*
X178512Y49270D01*
X178523Y49245D01*
X178519Y49233D01*
X178918Y48634D01*
X181617Y43935D01*
X181629Y43930D01*
X181629Y43922D01*
X182129Y43522D01*
X182152Y43521D01*
X182160Y43511D01*
X182860Y43511D01*
X182873Y43520D01*
G37*
G36*
X213665Y43514D02*
X213665Y43514D01*
X213668Y43511D01*
X214268Y43611D01*
X214271Y43615D01*
X214274Y43613D01*
X214974Y43813D01*
X214980Y43822D01*
X214987Y43819D01*
X215587Y44219D01*
X215590Y44226D01*
X215595Y44225D01*
X216095Y44725D01*
X216095Y44729D01*
X216098Y44729D01*
X216498Y45229D01*
X216499Y45237D01*
X216504Y45238D01*
X216804Y45838D01*
X216802Y45849D01*
X216809Y45853D01*
X216909Y46553D01*
X216906Y46558D01*
X216909Y46560D01*
X216909Y47260D01*
X216906Y47264D01*
X216909Y47267D01*
X216809Y47967D01*
X216804Y47972D01*
X216807Y47976D01*
X216607Y48576D01*
X216599Y48581D01*
X216601Y48587D01*
X216201Y49187D01*
X216198Y49188D01*
X216198Y49191D01*
X215798Y49691D01*
X215788Y49693D01*
X215787Y49701D01*
X215187Y50101D01*
X215178Y50100D01*
X215176Y50107D01*
X214576Y50307D01*
X214574Y50306D01*
X214574Y50307D01*
X213874Y50507D01*
X213866Y50504D01*
X213864Y50504D01*
X213860Y50509D01*
X213260Y50509D01*
X213256Y50506D01*
X213253Y50509D01*
X212553Y50409D01*
X212550Y50406D01*
X212549Y50406D01*
X212546Y50407D01*
X211846Y50207D01*
X211840Y50199D01*
X211833Y50201D01*
X211233Y49801D01*
X211229Y49791D01*
X211222Y49791D01*
X210822Y49291D01*
X210821Y49262D01*
X210811Y49252D01*
X210911Y48652D01*
X210923Y48641D01*
X210920Y48631D01*
X211420Y47931D01*
X211434Y47927D01*
X211435Y47918D01*
X211935Y47618D01*
X211967Y47621D01*
X211978Y47614D01*
X212478Y47814D01*
X212479Y47815D01*
X213170Y48111D01*
X213843Y48111D01*
X214318Y47731D01*
X214512Y47149D01*
X214607Y46480D01*
X214039Y46006D01*
X213463Y45910D01*
X212778Y46106D01*
X212182Y46404D01*
X212153Y46399D01*
X212142Y46406D01*
X211642Y46206D01*
X211633Y46191D01*
X211622Y46192D01*
X211122Y45592D01*
X211122Y45583D01*
X211116Y45582D01*
X210816Y44982D01*
X210821Y44953D01*
X210814Y44942D01*
X211014Y44442D01*
X211029Y44433D01*
X211028Y44422D01*
X211628Y43922D01*
X211637Y43922D01*
X211638Y43916D01*
X212238Y43616D01*
X212249Y43618D01*
X212253Y43611D01*
X212953Y43511D01*
X212958Y43514D01*
X212960Y43511D01*
X213660Y43511D01*
X213665Y43514D01*
G37*
%LPC*%
G36*
X35200Y84345D02*
X35200Y84345D01*
X34919Y84814D01*
X34919Y92900D01*
X34917Y92903D01*
X34919Y92907D01*
X34911Y92911D01*
X34883Y92947D01*
X34868Y92935D01*
X34859Y92940D01*
X34891Y92956D01*
X34903Y92978D01*
X34916Y92982D01*
X35107Y93461D01*
X35675Y93650D01*
X36355Y93552D01*
X36743Y93359D01*
X37338Y92863D01*
X38736Y91564D01*
X39321Y90980D01*
X39321Y90512D01*
X39031Y89931D01*
X38452Y89449D01*
X37983Y89449D01*
X37294Y89843D01*
X37235Y89835D01*
X37238Y89819D01*
X37222Y89812D01*
X37122Y89412D01*
X37125Y89404D01*
X37123Y89402D01*
X37121Y89400D01*
X37121Y84720D01*
X36747Y84347D01*
X35871Y84250D01*
X35200Y84345D01*
G37*
%LPD*%
%LPC*%
G36*
X35284Y135049D02*
X35284Y135049D01*
X34814Y135331D01*
X34719Y135805D01*
X34719Y143980D01*
X35093Y144354D01*
X35765Y144450D01*
X36347Y144256D01*
X36739Y143962D01*
X38732Y142168D01*
X39118Y141590D01*
X39022Y141110D01*
X39048Y141056D01*
X39059Y141062D01*
X39065Y141051D01*
X39096Y141048D01*
X39072Y141049D01*
X39046Y141031D01*
X39032Y141032D01*
X38541Y140442D01*
X37966Y140251D01*
X37390Y140347D01*
X37000Y140639D01*
X36989Y140639D01*
X36983Y140647D01*
X36973Y140639D01*
X36940Y140639D01*
X36940Y140615D01*
X36921Y140600D01*
X36921Y135812D01*
X36634Y135239D01*
X36161Y135049D01*
X35284Y135049D01*
G37*
%LPD*%
%LPC*%
G36*
X35186Y58849D02*
X35186Y58849D01*
X34815Y59128D01*
X34719Y59704D01*
X34719Y67872D01*
X35187Y68153D01*
X35862Y68249D01*
X36445Y67957D01*
X36739Y67761D01*
X38734Y65867D01*
X39118Y65386D01*
X39024Y64824D01*
X38442Y64242D01*
X37968Y64052D01*
X36984Y64347D01*
X36983Y64347D01*
X36982Y64346D01*
X36928Y64326D01*
X36934Y64310D01*
X36921Y64300D01*
X36921Y60303D01*
X36822Y59611D01*
X36631Y59037D01*
X36161Y58849D01*
X35186Y58849D01*
G37*
%LPD*%
G36*
X46074Y111854D02*
X46074Y111854D01*
X46077Y111851D01*
X46777Y111951D01*
X46785Y111959D01*
X46792Y111956D01*
X47392Y112256D01*
X47395Y112263D01*
X47401Y112262D01*
X47901Y112662D01*
X47902Y112666D01*
X47905Y112665D01*
X48405Y113165D01*
X48406Y113177D01*
X48414Y113178D01*
X48514Y113378D01*
X48511Y113394D01*
X48519Y113400D01*
X48519Y114800D01*
X48513Y114808D01*
X48517Y114814D01*
X48317Y115514D01*
X48310Y115519D01*
X48312Y115525D01*
X48012Y116025D01*
X48004Y116029D01*
X48005Y116035D01*
X47505Y116535D01*
X47493Y116536D01*
X47492Y116544D01*
X46892Y116844D01*
X46887Y116843D01*
X46886Y116847D01*
X46286Y117047D01*
X46275Y117043D01*
X46270Y117049D01*
X45570Y117049D01*
X45557Y117040D01*
X45548Y117044D01*
X44948Y116744D01*
X44946Y116740D01*
X44943Y116741D01*
X44343Y116341D01*
X44339Y116331D01*
X44332Y116331D01*
X43932Y115831D01*
X43931Y115818D01*
X43923Y115816D01*
X43723Y115216D01*
X43724Y115214D01*
X43723Y115213D01*
X43725Y115209D01*
X43721Y115207D01*
X43621Y114507D01*
X43624Y114502D01*
X43621Y114500D01*
X43621Y113800D01*
X43627Y113792D01*
X43623Y113786D01*
X43823Y113086D01*
X43834Y113078D01*
X43832Y113069D01*
X44232Y112569D01*
X44242Y112567D01*
X44243Y112559D01*
X44843Y112159D01*
X44847Y112159D01*
X44848Y112156D01*
X45448Y111856D01*
X45464Y111859D01*
X45470Y111851D01*
X46070Y111851D01*
X46074Y111854D01*
G37*
G36*
X219465Y137254D02*
X219465Y137254D01*
X219468Y137251D01*
X220068Y137351D01*
X220078Y137362D01*
X220087Y137359D01*
X220687Y137759D01*
X220688Y137762D01*
X220691Y137762D01*
X221191Y138162D01*
X221193Y138171D01*
X221200Y138171D01*
X221700Y138871D01*
X221699Y138893D01*
X221709Y138900D01*
X221709Y139600D01*
X221706Y139604D01*
X221709Y139607D01*
X221609Y140307D01*
X221605Y140311D01*
X221607Y140314D01*
X221407Y141014D01*
X221400Y141019D01*
X221402Y141025D01*
X221102Y141525D01*
X221094Y141529D01*
X221095Y141535D01*
X220595Y142035D01*
X220583Y142036D01*
X220582Y142044D01*
X219982Y142344D01*
X219971Y142342D01*
X219967Y142349D01*
X219267Y142449D01*
X219257Y142443D01*
X219252Y142449D01*
X218652Y142349D01*
X218648Y142344D01*
X218644Y142347D01*
X218044Y142147D01*
X218037Y142136D01*
X218028Y142138D01*
X217428Y141638D01*
X217427Y141631D01*
X217422Y141631D01*
X217022Y141131D01*
X217021Y141118D01*
X217013Y141116D01*
X216813Y140516D01*
X216814Y140515D01*
X216813Y140515D01*
X216814Y140513D01*
X216817Y140505D01*
X216811Y140500D01*
X216811Y139000D01*
X216820Y138987D01*
X216816Y138978D01*
X217116Y138378D01*
X217123Y138375D01*
X217122Y138369D01*
X217522Y137869D01*
X217532Y137867D01*
X217533Y137859D01*
X218133Y137459D01*
X218142Y137460D01*
X218144Y137453D01*
X218744Y137253D01*
X218755Y137257D01*
X218760Y137251D01*
X219460Y137251D01*
X219465Y137254D01*
G37*
G36*
X45874Y137254D02*
X45874Y137254D01*
X45877Y137251D01*
X46577Y137351D01*
X46585Y137359D01*
X46592Y137356D01*
X47192Y137656D01*
X47197Y137666D01*
X47205Y137665D01*
X48205Y138665D01*
X48209Y138692D01*
X48219Y138700D01*
X48219Y140200D01*
X48213Y140208D01*
X48217Y140214D01*
X48017Y140914D01*
X48012Y140918D01*
X48014Y140922D01*
X47714Y141522D01*
X47701Y141529D01*
X47701Y141538D01*
X47201Y141938D01*
X47197Y141939D01*
X47197Y141941D01*
X46597Y142341D01*
X46582Y142340D01*
X46577Y142349D01*
X45877Y142449D01*
X45872Y142446D01*
X45870Y142449D01*
X45270Y142449D01*
X45257Y142440D01*
X45248Y142444D01*
X44648Y142144D01*
X44646Y142140D01*
X44643Y142141D01*
X44043Y141741D01*
X44039Y141731D01*
X44032Y141731D01*
X43632Y141231D01*
X43631Y141218D01*
X43623Y141216D01*
X43423Y140616D01*
X43424Y140614D01*
X43423Y140613D01*
X43425Y140609D01*
X43426Y140609D01*
X43421Y140606D01*
X43321Y139806D01*
X43326Y139798D01*
X43321Y139793D01*
X43421Y139093D01*
X43426Y139088D01*
X43423Y139084D01*
X43623Y138484D01*
X43634Y138477D01*
X43632Y138469D01*
X44032Y137969D01*
X44042Y137967D01*
X44043Y137959D01*
X44643Y137559D01*
X44647Y137559D01*
X44648Y137556D01*
X45248Y137256D01*
X45264Y137259D01*
X45270Y137251D01*
X45870Y137251D01*
X45874Y137254D01*
G37*
G36*
X45975Y61054D02*
X45975Y61054D01*
X45978Y61051D01*
X46578Y61151D01*
X46585Y61159D01*
X46592Y61156D01*
X47192Y61456D01*
X47197Y61466D01*
X47205Y61465D01*
X48205Y62465D01*
X48209Y62492D01*
X48219Y62500D01*
X48219Y64100D01*
X48212Y64109D01*
X48217Y64116D01*
X48017Y64716D01*
X48012Y64719D01*
X48014Y64722D01*
X47714Y65322D01*
X47701Y65328D01*
X47702Y65338D01*
X47102Y65838D01*
X47096Y65838D01*
X47095Y65842D01*
X46595Y66142D01*
X46581Y66141D01*
X46577Y66149D01*
X45877Y66249D01*
X45867Y66243D01*
X45862Y66249D01*
X45262Y66149D01*
X45258Y66144D01*
X45254Y66147D01*
X44654Y65947D01*
X44649Y65939D01*
X44643Y65941D01*
X44043Y65541D01*
X44038Y65528D01*
X44029Y65527D01*
X43629Y64927D01*
X43630Y64918D01*
X43623Y64916D01*
X43423Y64316D01*
X43424Y64315D01*
X43423Y64315D01*
X43424Y64313D01*
X43425Y64309D01*
X43421Y64307D01*
X43321Y63607D01*
X43326Y63598D01*
X43321Y63593D01*
X43421Y62893D01*
X43426Y62888D01*
X43423Y62884D01*
X43623Y62284D01*
X43634Y62277D01*
X43632Y62269D01*
X44032Y61769D01*
X44039Y61767D01*
X44038Y61762D01*
X44638Y61262D01*
X44652Y61262D01*
X44654Y61253D01*
X45254Y61053D01*
X45265Y61057D01*
X45270Y61051D01*
X45970Y61051D01*
X45975Y61054D01*
G37*
G36*
X219364Y61054D02*
X219364Y61054D01*
X219367Y61051D01*
X220067Y61151D01*
X220077Y61161D01*
X220085Y61158D01*
X220585Y61458D01*
X220588Y61465D01*
X220593Y61464D01*
X221693Y62464D01*
X221698Y62492D01*
X221709Y62500D01*
X221709Y63400D01*
X221706Y63404D01*
X221709Y63407D01*
X221609Y64107D01*
X221608Y64108D01*
X221609Y64108D01*
X221509Y64708D01*
X221498Y64718D01*
X221501Y64727D01*
X221101Y65327D01*
X221094Y65330D01*
X221095Y65335D01*
X220595Y65835D01*
X220583Y65836D01*
X220582Y65844D01*
X219982Y66144D01*
X219972Y66142D01*
X219968Y66149D01*
X219368Y66249D01*
X219358Y66243D01*
X219353Y66249D01*
X218653Y66149D01*
X218648Y66144D01*
X218644Y66147D01*
X218044Y65947D01*
X218035Y65933D01*
X218025Y65935D01*
X217525Y65435D01*
X217525Y65431D01*
X217522Y65431D01*
X217122Y64931D01*
X217121Y64923D01*
X217116Y64922D01*
X216816Y64322D01*
X216817Y64317D01*
X216813Y64315D01*
X216819Y64307D01*
X216819Y64306D01*
X216811Y64300D01*
X216811Y62900D01*
X216820Y62887D01*
X216816Y62878D01*
X217116Y62278D01*
X217123Y62275D01*
X217122Y62269D01*
X217522Y61769D01*
X217526Y61768D01*
X217525Y61765D01*
X218025Y61265D01*
X218043Y61263D01*
X218046Y61253D01*
X218746Y61053D01*
X218756Y61056D01*
X218760Y61051D01*
X219360Y61051D01*
X219364Y61054D01*
G37*
G36*
X219568Y86457D02*
X219568Y86457D01*
X219574Y86453D01*
X220274Y86653D01*
X220282Y86664D01*
X220291Y86662D01*
X220791Y87062D01*
X220792Y87066D01*
X220795Y87065D01*
X221295Y87565D01*
X221296Y87575D01*
X221303Y87576D01*
X221703Y88276D01*
X221700Y88293D01*
X221709Y88300D01*
X221709Y89000D01*
X221706Y89004D01*
X221709Y89007D01*
X221609Y89707D01*
X221604Y89712D01*
X221607Y89716D01*
X221407Y90316D01*
X221399Y90321D01*
X221401Y90327D01*
X221001Y90927D01*
X220988Y90932D01*
X220987Y90941D01*
X220387Y91341D01*
X220378Y91340D01*
X220376Y91347D01*
X219776Y91547D01*
X219769Y91545D01*
X219767Y91549D01*
X219067Y91649D01*
X219057Y91643D01*
X219052Y91649D01*
X218452Y91549D01*
X218445Y91541D01*
X218438Y91544D01*
X217838Y91244D01*
X217833Y91234D01*
X217825Y91235D01*
X217325Y90735D01*
X217324Y90723D01*
X217316Y90722D01*
X217016Y90122D01*
X217017Y90117D01*
X217013Y90116D01*
X216813Y89516D01*
X216817Y89505D01*
X216811Y89500D01*
X216811Y88700D01*
X216814Y88696D01*
X216811Y88693D01*
X216911Y87993D01*
X216921Y87983D01*
X216918Y87975D01*
X217218Y87475D01*
X217226Y87471D01*
X217225Y87465D01*
X217725Y86965D01*
X217732Y86964D01*
X217733Y86959D01*
X218333Y86559D01*
X218347Y86560D01*
X218352Y86551D01*
X218952Y86451D01*
X218957Y86454D01*
X218960Y86451D01*
X219560Y86451D01*
X219568Y86457D01*
G37*
G36*
X46683Y86460D02*
X46683Y86460D01*
X46692Y86456D01*
X47292Y86756D01*
X47297Y86766D01*
X47305Y86765D01*
X47803Y87263D01*
X48301Y87662D01*
X48302Y87666D01*
X48305Y87665D01*
X48505Y87865D01*
X48509Y87892D01*
X48519Y87900D01*
X48519Y89300D01*
X48512Y89309D01*
X48517Y89316D01*
X48317Y89916D01*
X48312Y89919D01*
X48314Y89922D01*
X48014Y90522D01*
X48007Y90525D01*
X48008Y90531D01*
X47608Y91031D01*
X47598Y91033D01*
X47597Y91041D01*
X46997Y91441D01*
X46988Y91440D01*
X46986Y91447D01*
X46386Y91647D01*
X46375Y91643D01*
X46370Y91649D01*
X45670Y91649D01*
X45661Y91642D01*
X45654Y91647D01*
X45054Y91447D01*
X45049Y91439D01*
X45043Y91441D01*
X44443Y91041D01*
X44439Y91031D01*
X44432Y91031D01*
X44032Y90531D01*
X44031Y90523D01*
X44026Y90522D01*
X43726Y89922D01*
X43727Y89915D01*
X43722Y89912D01*
X43724Y89909D01*
X43721Y89907D01*
X43621Y89207D01*
X43624Y89202D01*
X43621Y89200D01*
X43621Y88500D01*
X43628Y88491D01*
X43623Y88484D01*
X43823Y87884D01*
X43828Y87881D01*
X43826Y87878D01*
X44126Y87278D01*
X44142Y87270D01*
X44143Y87259D01*
X44743Y86859D01*
X44747Y86859D01*
X44748Y86856D01*
X45348Y86556D01*
X45359Y86558D01*
X45362Y86551D01*
X45962Y86451D01*
X45967Y86454D01*
X45970Y86451D01*
X46670Y86451D01*
X46683Y86460D01*
G37*
%LPC*%
G36*
X53378Y84249D02*
X53378Y84249D01*
X52807Y84440D01*
X52619Y84909D01*
X52619Y93080D01*
X52996Y93456D01*
X53674Y93650D01*
X54447Y93553D01*
X54821Y93180D01*
X54821Y85104D01*
X54725Y84531D01*
X54256Y84249D01*
X53378Y84249D01*
G37*
%LPD*%
G36*
X219569Y111858D02*
X219569Y111858D01*
X219576Y111853D01*
X220176Y112053D01*
X220181Y112061D01*
X220187Y112059D01*
X220787Y112459D01*
X220790Y112466D01*
X220795Y112465D01*
X221295Y112965D01*
X221296Y112975D01*
X221303Y112976D01*
X221703Y113676D01*
X221700Y113693D01*
X221709Y113700D01*
X221709Y114400D01*
X221706Y114404D01*
X221709Y114407D01*
X221609Y115107D01*
X221604Y115112D01*
X221607Y115116D01*
X221407Y115716D01*
X221396Y115723D01*
X221398Y115731D01*
X220998Y116231D01*
X220991Y116233D01*
X220992Y116238D01*
X220392Y116738D01*
X220378Y116738D01*
X220376Y116747D01*
X219776Y116947D01*
X219770Y116945D01*
X219768Y116949D01*
X219168Y117049D01*
X219158Y117043D01*
X219153Y117049D01*
X218453Y116949D01*
X218445Y116941D01*
X218438Y116944D01*
X217838Y116644D01*
X217833Y116634D01*
X217825Y116635D01*
X217325Y116135D01*
X217324Y116123D01*
X217316Y116122D01*
X217016Y115522D01*
X217017Y115517D01*
X217013Y115516D01*
X216813Y114916D01*
X216817Y114905D01*
X216811Y114900D01*
X216811Y114200D01*
X216814Y114196D01*
X216811Y114193D01*
X216911Y113493D01*
X216919Y113485D01*
X216916Y113478D01*
X217216Y112878D01*
X217226Y112873D01*
X217225Y112865D01*
X217725Y112365D01*
X217734Y112364D01*
X217735Y112358D01*
X218235Y112058D01*
X218244Y112059D01*
X218246Y112053D01*
X218946Y111853D01*
X218956Y111856D01*
X218960Y111851D01*
X219560Y111851D01*
X219569Y111858D01*
G37*
%LPC*%
G36*
X226374Y58849D02*
X226374Y58849D01*
X225905Y59131D01*
X225809Y59704D01*
X225809Y67197D01*
X225906Y67873D01*
X226279Y68153D01*
X227155Y68250D01*
X227727Y68059D01*
X228011Y67586D01*
X228011Y59509D01*
X227823Y59040D01*
X227252Y58849D01*
X226374Y58849D01*
G37*
%LPD*%
%LPC*%
G36*
X52984Y135049D02*
X52984Y135049D01*
X52511Y135333D01*
X52319Y135908D01*
X52319Y143396D01*
X52416Y143976D01*
X52793Y144353D01*
X53567Y144450D01*
X54336Y144258D01*
X54521Y143888D01*
X54521Y135705D01*
X54427Y135238D01*
X53862Y135049D01*
X52984Y135049D01*
G37*
%LPD*%
%LPC*%
G36*
X226374Y135049D02*
X226374Y135049D01*
X225905Y135330D01*
X225809Y136003D01*
X225809Y143400D01*
X225808Y143402D01*
X225809Y143404D01*
X225804Y143407D01*
X225773Y143447D01*
X225761Y143438D01*
X225760Y143440D01*
X225754Y143440D01*
X225749Y143443D01*
X225778Y143454D01*
X225797Y143486D01*
X225809Y143492D01*
X225905Y144070D01*
X226376Y144352D01*
X227155Y144450D01*
X227744Y144253D01*
X227771Y144262D01*
X227783Y144256D01*
X227817Y144274D01*
X228011Y143791D01*
X228011Y135709D01*
X227823Y135241D01*
X227153Y135049D01*
X226374Y135049D01*
G37*
%LPD*%
%LPC*%
G36*
X53284Y109649D02*
X53284Y109649D01*
X52810Y109934D01*
X52619Y110409D01*
X52619Y117897D01*
X52716Y118577D01*
X53093Y118953D01*
X53870Y119050D01*
X54540Y118955D01*
X54821Y118486D01*
X54821Y110408D01*
X54631Y109837D01*
X54161Y109649D01*
X53284Y109649D01*
G37*
%LPD*%
%LPC*%
G36*
X52984Y58849D02*
X52984Y58849D01*
X52511Y59133D01*
X52319Y59708D01*
X52319Y67197D01*
X52415Y67870D01*
X52886Y68152D01*
X53666Y68250D01*
X54333Y68059D01*
X54521Y67591D01*
X54521Y59509D01*
X54333Y59040D01*
X53762Y58849D01*
X52984Y58849D01*
G37*
%LPD*%
%LPC*%
G36*
X226187Y84346D02*
X226187Y84346D01*
X225907Y84720D01*
X225809Y85403D01*
X225809Y92891D01*
X225999Y93364D01*
X226572Y93651D01*
X227444Y93651D01*
X227818Y93370D01*
X228011Y92792D01*
X228011Y84720D01*
X227637Y84346D01*
X226960Y84250D01*
X226187Y84346D01*
G37*
%LPD*%
%LPC*%
G36*
X226187Y109746D02*
X226187Y109746D01*
X225907Y110120D01*
X225809Y110803D01*
X225809Y118291D01*
X225999Y118764D01*
X226572Y119051D01*
X227346Y119051D01*
X227819Y118767D01*
X228011Y118192D01*
X228011Y110803D01*
X227913Y110120D01*
X227633Y109746D01*
X226960Y109650D01*
X226187Y109746D01*
G37*
%LPD*%
%LPC*%
G36*
X244864Y45909D02*
X244864Y45909D01*
X244275Y46007D01*
X243685Y46303D01*
X243098Y46694D01*
X242806Y47279D01*
X242609Y47868D01*
X242609Y48557D01*
X242708Y49245D01*
X243002Y49833D01*
X243394Y50323D01*
X243982Y50715D01*
X244568Y50911D01*
X245252Y50911D01*
X245838Y50715D01*
X246426Y50323D01*
X246818Y49833D01*
X247114Y49241D01*
X247311Y48652D01*
X247311Y47280D01*
X247127Y47097D01*
X246629Y46698D01*
X246628Y46694D01*
X246625Y46695D01*
X246132Y46202D01*
X245450Y45909D01*
X244864Y45909D01*
G37*
%LPD*%
G36*
X204907Y188087D02*
X204907Y188087D01*
X204905Y188090D01*
X204909Y188092D01*
X205009Y188692D01*
X205006Y188697D01*
X205009Y188700D01*
X205009Y192700D01*
X204990Y192726D01*
X204990Y192739D01*
X204590Y193039D01*
X204568Y193039D01*
X204560Y193049D01*
X203160Y193049D01*
X203147Y193040D01*
X203138Y193044D01*
X202538Y192744D01*
X202535Y192737D01*
X202529Y192738D01*
X202029Y192338D01*
X202027Y192331D01*
X202022Y192331D01*
X201622Y191831D01*
X201621Y191823D01*
X201616Y191822D01*
X201316Y191222D01*
X201317Y191218D01*
X201314Y191216D01*
X201318Y191211D01*
X201311Y191207D01*
X201211Y190507D01*
X201216Y190498D01*
X201211Y190493D01*
X201311Y189793D01*
X201319Y189785D01*
X201316Y189778D01*
X201616Y189178D01*
X201626Y189173D01*
X201625Y189165D01*
X202625Y188165D01*
X202637Y188164D01*
X202638Y188156D01*
X202838Y188056D01*
X202854Y188059D01*
X202860Y188051D01*
X204860Y188051D01*
X204907Y188087D01*
G37*
G36*
X220581Y43527D02*
X220581Y43527D01*
X220595Y43525D01*
X220995Y43925D01*
X220996Y43937D01*
X221001Y43941D01*
X220998Y43946D01*
X220999Y43952D01*
X221009Y43960D01*
X221009Y49860D01*
X220993Y49881D01*
X220995Y49895D01*
X220595Y50295D01*
X220572Y50298D01*
X220566Y50309D01*
X219766Y50409D01*
X219761Y50406D01*
X219756Y50406D01*
X219753Y50409D01*
X219053Y50309D01*
X219031Y50287D01*
X219018Y50285D01*
X218718Y49785D01*
X218718Y49781D01*
X218716Y49779D01*
X218719Y49775D01*
X218720Y49767D01*
X218711Y49760D01*
X218711Y44260D01*
X218719Y44249D01*
X218714Y44242D01*
X218914Y43742D01*
X218942Y43725D01*
X218946Y43713D01*
X219646Y43513D01*
X219656Y43516D01*
X219660Y43511D01*
X220560Y43511D01*
X220581Y43527D01*
G37*
G36*
X224781Y43527D02*
X224781Y43527D01*
X224795Y43525D01*
X225195Y43925D01*
X225196Y43937D01*
X225201Y43941D01*
X225198Y43946D01*
X225198Y43947D01*
X225209Y43953D01*
X225309Y44653D01*
X225306Y44658D01*
X225309Y44660D01*
X225309Y49160D01*
X225306Y49164D01*
X225309Y49167D01*
X225209Y49867D01*
X225196Y49879D01*
X225199Y49890D01*
X224899Y50290D01*
X224872Y50297D01*
X224865Y50309D01*
X223965Y50409D01*
X223960Y50406D01*
X223955Y50406D01*
X223952Y50409D01*
X223352Y50309D01*
X223331Y50287D01*
X223318Y50285D01*
X223018Y49785D01*
X223018Y49781D01*
X223016Y49779D01*
X223019Y49775D01*
X223020Y49767D01*
X223011Y49760D01*
X223011Y44260D01*
X223019Y44249D01*
X223014Y44242D01*
X223214Y43742D01*
X223242Y43725D01*
X223246Y43713D01*
X223946Y43513D01*
X223956Y43516D01*
X223960Y43511D01*
X224760Y43511D01*
X224781Y43527D01*
G37*
%LPC*%
G36*
X200780Y45909D02*
X200780Y45909D01*
X200595Y46095D01*
X200591Y46095D01*
X200591Y46098D01*
X200097Y46494D01*
X199703Y47085D01*
X199407Y47675D01*
X199310Y48261D01*
X199408Y48945D01*
X199703Y49535D01*
X200094Y50122D01*
X200682Y50416D01*
X201272Y50711D01*
X202640Y50711D01*
X202911Y50440D01*
X202911Y46365D01*
X202820Y45909D01*
X200780Y45909D01*
G37*
%LPD*%
G36*
X30381Y188059D02*
X30381Y188059D01*
X30388Y188054D01*
X30888Y188254D01*
X30903Y188278D01*
X30910Y188284D01*
X30908Y188287D01*
X30913Y188295D01*
X30919Y188300D01*
X30919Y193000D01*
X30883Y193047D01*
X30876Y193042D01*
X30870Y193049D01*
X28770Y193049D01*
X28755Y193038D01*
X28745Y193042D01*
X28245Y192742D01*
X28233Y192714D01*
X28221Y192707D01*
X28121Y192007D01*
X28144Y191967D01*
X28145Y191958D01*
X28645Y191658D01*
X28659Y191659D01*
X28664Y191651D01*
X29443Y191554D01*
X29723Y191181D01*
X29819Y190411D01*
X29540Y189945D01*
X28263Y189749D01*
X28241Y189727D01*
X28228Y189725D01*
X27928Y189225D01*
X27930Y189207D01*
X27921Y189200D01*
X27921Y188600D01*
X27935Y188582D01*
X27932Y188569D01*
X28332Y188069D01*
X28362Y188062D01*
X28370Y188051D01*
X30370Y188051D01*
X30381Y188059D01*
G37*
G36*
X29458Y47224D02*
X29458Y47224D01*
X29470Y47221D01*
X29870Y47521D01*
X29874Y47537D01*
X29881Y47542D01*
X29878Y47547D01*
X29889Y47553D01*
X29989Y48253D01*
X29984Y48262D01*
X29989Y48267D01*
X29889Y48967D01*
X29867Y48989D01*
X29865Y49002D01*
X29365Y49302D01*
X29347Y49300D01*
X29340Y49309D01*
X25940Y49309D01*
X25936Y49306D01*
X25933Y49309D01*
X25233Y49209D01*
X25204Y49179D01*
X25193Y49176D01*
X24993Y48576D01*
X24997Y48565D01*
X24991Y48560D01*
X24991Y47860D01*
X25000Y47847D01*
X24996Y47838D01*
X25296Y47238D01*
X25333Y47220D01*
X25340Y47211D01*
X29440Y47211D01*
X29458Y47224D01*
G37*
%LPC*%
G36*
X53556Y48509D02*
X53556Y48509D01*
X53177Y48794D01*
X52889Y49274D01*
X52889Y49945D01*
X53272Y50519D01*
X53848Y50711D01*
X55220Y50711D01*
X55491Y50440D01*
X55491Y48509D01*
X53556Y48509D01*
G37*
%LPD*%
G36*
X224767Y51311D02*
X224767Y51311D01*
X224782Y51327D01*
X224795Y51325D01*
X225295Y51825D01*
X225296Y51836D01*
X225298Y51838D01*
X225297Y51840D01*
X225299Y51852D01*
X225309Y51860D01*
X225309Y52560D01*
X225306Y52565D01*
X225309Y52568D01*
X225209Y53168D01*
X225190Y53186D01*
X225190Y53199D01*
X224790Y53499D01*
X224771Y53499D01*
X224765Y53509D01*
X223865Y53609D01*
X223852Y53601D01*
X223844Y53607D01*
X223244Y53407D01*
X223226Y53380D01*
X223213Y53376D01*
X223013Y52776D01*
X223017Y52765D01*
X223011Y52760D01*
X223011Y52060D01*
X223018Y52051D01*
X223013Y52044D01*
X223213Y51444D01*
X223227Y51435D01*
X223225Y51425D01*
X223325Y51325D01*
X223347Y51322D01*
X223353Y51311D01*
X224053Y51211D01*
X224062Y51216D01*
X224067Y51211D01*
X224767Y51311D01*
G37*
G36*
X220467Y51311D02*
X220467Y51311D01*
X220482Y51327D01*
X220495Y51325D01*
X220995Y51825D01*
X220996Y51836D01*
X220998Y51838D01*
X220997Y51840D01*
X220999Y51852D01*
X221009Y51860D01*
X221009Y52560D01*
X221006Y52565D01*
X221009Y52568D01*
X220909Y53168D01*
X220890Y53186D01*
X220890Y53199D01*
X220490Y53499D01*
X220471Y53499D01*
X220465Y53509D01*
X219565Y53609D01*
X219552Y53601D01*
X219544Y53607D01*
X218944Y53407D01*
X218926Y53380D01*
X218913Y53376D01*
X218713Y52776D01*
X218717Y52765D01*
X218711Y52760D01*
X218711Y52060D01*
X218718Y52051D01*
X218713Y52044D01*
X218913Y51444D01*
X218935Y51429D01*
X218938Y51416D01*
X219138Y51316D01*
X219149Y51318D01*
X219152Y51311D01*
X219752Y51211D01*
X219762Y51217D01*
X219767Y51211D01*
X220467Y51311D01*
G37*
G36*
X29977Y86451D02*
X29977Y86451D01*
X29997Y86472D01*
X30011Y86473D01*
X30411Y87073D01*
X30410Y87093D01*
X30419Y87100D01*
X30419Y87700D01*
X30405Y87718D01*
X30408Y87731D01*
X30008Y88231D01*
X29988Y88236D01*
X29984Y88247D01*
X29284Y88447D01*
X29266Y88440D01*
X29256Y88447D01*
X28556Y88247D01*
X28544Y88230D01*
X28532Y88231D01*
X28132Y87731D01*
X28131Y87708D01*
X28121Y87700D01*
X28121Y87000D01*
X28135Y86982D01*
X28132Y86969D01*
X28532Y86469D01*
X28557Y86463D01*
X28563Y86451D01*
X29263Y86351D01*
X29272Y86356D01*
X29277Y86351D01*
X29977Y86451D01*
G37*
G36*
X29585Y64662D02*
X29585Y64662D01*
X29595Y64658D01*
X30095Y64958D01*
X30103Y64977D01*
X30110Y64982D01*
X30107Y64986D01*
X30119Y64993D01*
X30219Y65693D01*
X30207Y65713D01*
X30212Y65725D01*
X29912Y66225D01*
X29878Y66239D01*
X29870Y66249D01*
X28570Y66249D01*
X28540Y66227D01*
X28528Y66225D01*
X28228Y65725D01*
X28230Y65707D01*
X28221Y65700D01*
X28221Y65100D01*
X28240Y65075D01*
X28239Y65062D01*
X28739Y64662D01*
X28762Y64661D01*
X28770Y64651D01*
X29570Y64651D01*
X29585Y64662D01*
G37*
G36*
X29796Y137170D02*
X29796Y137170D01*
X29809Y137170D01*
X30109Y137570D01*
X30109Y137578D01*
X30113Y137581D01*
X30109Y137585D01*
X30109Y137592D01*
X30119Y137600D01*
X30119Y138300D01*
X30098Y138328D01*
X30097Y138341D01*
X29497Y138741D01*
X29477Y138740D01*
X29470Y138749D01*
X28770Y138749D01*
X28752Y138735D01*
X28739Y138738D01*
X28239Y138338D01*
X28233Y138314D01*
X28221Y138308D01*
X28121Y137708D01*
X28133Y137687D01*
X28128Y137675D01*
X28428Y137175D01*
X28462Y137161D01*
X28470Y137151D01*
X29770Y137151D01*
X29796Y137170D01*
G37*
%LPC*%
G36*
X8961Y45806D02*
X8961Y45806D01*
X8493Y46180D01*
X8586Y46739D01*
X8964Y47211D01*
X9640Y47211D01*
X9687Y47247D01*
X9688Y47247D01*
X9693Y47268D01*
X9714Y47223D01*
X9715Y47218D01*
X10195Y46930D01*
X10289Y46364D01*
X10103Y45804D01*
X9441Y45710D01*
X8961Y45806D01*
G37*
%LPD*%
G36*
X29886Y90653D02*
X29886Y90653D01*
X29901Y90675D01*
X29914Y90678D01*
X30214Y91278D01*
X30206Y91321D01*
X30208Y91331D01*
X29808Y91831D01*
X29783Y91837D01*
X29777Y91849D01*
X29077Y91949D01*
X29055Y91937D01*
X29043Y91941D01*
X28443Y91541D01*
X28437Y91524D01*
X28426Y91522D01*
X28326Y91322D01*
X28330Y91302D01*
X28329Y91301D01*
X28330Y91299D01*
X28332Y91290D01*
X28326Y91278D01*
X28626Y90678D01*
X28650Y90666D01*
X28654Y90653D01*
X29254Y90453D01*
X29275Y90460D01*
X29286Y90453D01*
X29886Y90653D01*
G37*
%LPC*%
G36*
X191076Y47609D02*
X191076Y47609D01*
X190718Y47878D01*
X190897Y48416D01*
X191555Y48510D01*
X192133Y48317D01*
X192597Y47854D01*
X192434Y47609D01*
X191076Y47609D01*
G37*
%LPD*%
%LPC*%
G36*
X219849Y187642D02*
X219849Y187642D01*
X219854Y187645D01*
X219852Y187641D01*
X219849Y187642D01*
G37*
%LPD*%
D10*
X170200Y55470D02*
X170200Y37470D01*
X83800Y37470D02*
X83800Y55470D01*
D11*
X187000Y85510D02*
X195000Y85510D01*
X195000Y93510D01*
X67000Y85510D02*
X59000Y85510D01*
X59000Y93510D01*
X195000Y187510D02*
X195000Y197510D01*
X59000Y197510D02*
X59000Y187510D01*
M02*
