G04 EAGLE Gerber RS-274X export*
G75*
%MOMM*%
%FSLAX34Y34*%
%LPD*%
%INTop Copper*%
%IPPOS*%
%AMOC8*
5,1,8,0,0,1.08239X$1,22.5*%
G01*
%ADD10C,0.203200*%
%ADD11C,0.755600*%
%ADD12C,1.879600*%
%ADD13C,0.100000*%
%ADD14C,0.096000*%
%ADD15C,0.102000*%
%ADD16C,0.099000*%
%ADD17C,0.300000*%
%ADD18C,0.099059*%
%ADD19C,0.104000*%
%ADD20C,0.100800*%
%ADD21C,0.635000*%
%ADD22C,0.254000*%
%ADD23C,0.508000*%
%ADD24C,0.660400*%
%ADD25C,0.177800*%

G36*
X223044Y2809D02*
X223044Y2809D01*
X223136Y2814D01*
X223175Y2828D01*
X223216Y2835D01*
X223299Y2875D01*
X223385Y2907D01*
X223418Y2932D01*
X223455Y2950D01*
X223523Y3013D01*
X223596Y3070D01*
X223619Y3104D01*
X223649Y3132D01*
X223695Y3212D01*
X223748Y3287D01*
X223761Y3327D01*
X223781Y3362D01*
X223801Y3452D01*
X223830Y3540D01*
X223830Y3582D01*
X223839Y3622D01*
X223832Y3714D01*
X223833Y3806D01*
X223821Y3846D01*
X223817Y3887D01*
X223783Y3973D01*
X223757Y4061D01*
X223734Y4095D01*
X223718Y4134D01*
X223660Y4205D01*
X223609Y4282D01*
X223583Y4300D01*
X223551Y4340D01*
X223330Y4487D01*
X223310Y4492D01*
X223293Y4504D01*
X216514Y7312D01*
X210512Y13314D01*
X207263Y21156D01*
X207263Y29644D01*
X210512Y37486D01*
X216514Y43488D01*
X224356Y46737D01*
X232844Y46737D01*
X240686Y43488D01*
X246688Y37486D01*
X249496Y30707D01*
X249544Y30628D01*
X249584Y30545D01*
X249612Y30515D01*
X249634Y30480D01*
X249703Y30418D01*
X249766Y30351D01*
X249802Y30330D01*
X249832Y30303D01*
X249916Y30265D01*
X249996Y30219D01*
X250037Y30210D01*
X250074Y30193D01*
X250166Y30181D01*
X250256Y30161D01*
X250297Y30164D01*
X250338Y30159D01*
X250429Y30175D01*
X250521Y30183D01*
X250559Y30198D01*
X250600Y30205D01*
X250682Y30247D01*
X250768Y30282D01*
X250800Y30308D01*
X250836Y30326D01*
X250902Y30391D01*
X250974Y30449D01*
X250997Y30483D01*
X251026Y30512D01*
X251070Y30593D01*
X251121Y30670D01*
X251128Y30701D01*
X251153Y30746D01*
X251204Y31007D01*
X251201Y31027D01*
X251205Y31047D01*
X251205Y55455D01*
X251198Y55506D01*
X251199Y55557D01*
X251178Y55636D01*
X251165Y55717D01*
X251143Y55764D01*
X251129Y55814D01*
X251085Y55883D01*
X251050Y55957D01*
X251015Y55994D01*
X250987Y56038D01*
X250924Y56091D01*
X250868Y56151D01*
X250824Y56177D01*
X250784Y56210D01*
X250709Y56242D01*
X250638Y56283D01*
X250587Y56294D01*
X250540Y56314D01*
X250458Y56323D01*
X250378Y56341D01*
X250327Y56337D01*
X250275Y56342D01*
X250195Y56326D01*
X250113Y56319D01*
X250065Y56300D01*
X250015Y56290D01*
X249971Y56262D01*
X249866Y56220D01*
X249727Y56107D01*
X249689Y56083D01*
X247631Y54025D01*
X243523Y52323D01*
X239077Y52323D01*
X234969Y54025D01*
X231825Y57169D01*
X230123Y61277D01*
X230123Y65723D01*
X231825Y69831D01*
X234969Y72975D01*
X239077Y74677D01*
X243523Y74677D01*
X247631Y72975D01*
X249689Y70917D01*
X249730Y70887D01*
X249766Y70849D01*
X249837Y70808D01*
X249903Y70760D01*
X249952Y70743D01*
X249996Y70717D01*
X250076Y70699D01*
X250154Y70672D01*
X250206Y70670D01*
X250256Y70659D01*
X250338Y70666D01*
X250420Y70663D01*
X250469Y70677D01*
X250521Y70681D01*
X250597Y70711D01*
X250676Y70733D01*
X250720Y70761D01*
X250768Y70780D01*
X250831Y70832D01*
X250900Y70876D01*
X250934Y70915D01*
X250974Y70947D01*
X251019Y71016D01*
X251072Y71078D01*
X251093Y71126D01*
X251121Y71169D01*
X251133Y71219D01*
X251177Y71323D01*
X251195Y71501D01*
X251205Y71545D01*
X251205Y80855D01*
X251198Y80906D01*
X251199Y80957D01*
X251178Y81036D01*
X251165Y81117D01*
X251143Y81164D01*
X251129Y81214D01*
X251085Y81283D01*
X251050Y81357D01*
X251015Y81394D01*
X250987Y81438D01*
X250924Y81491D01*
X250868Y81551D01*
X250824Y81577D01*
X250784Y81610D01*
X250709Y81642D01*
X250638Y81683D01*
X250587Y81694D01*
X250540Y81714D01*
X250458Y81723D01*
X250378Y81741D01*
X250327Y81737D01*
X250275Y81742D01*
X250195Y81726D01*
X250113Y81719D01*
X250065Y81700D01*
X250015Y81690D01*
X249971Y81662D01*
X249866Y81620D01*
X249727Y81507D01*
X249689Y81483D01*
X247631Y79425D01*
X243523Y77723D01*
X239077Y77723D01*
X234969Y79425D01*
X231825Y82569D01*
X230123Y86677D01*
X230123Y91123D01*
X231825Y95231D01*
X234969Y98375D01*
X239077Y100077D01*
X243523Y100077D01*
X247631Y98375D01*
X249689Y96317D01*
X249704Y96306D01*
X249715Y96292D01*
X249741Y96275D01*
X249766Y96249D01*
X249837Y96208D01*
X249903Y96160D01*
X249927Y96151D01*
X249936Y96145D01*
X249955Y96141D01*
X249996Y96117D01*
X250076Y96099D01*
X250154Y96072D01*
X250206Y96070D01*
X250256Y96059D01*
X250304Y96063D01*
X250313Y96061D01*
X250317Y96061D01*
X250347Y96066D01*
X250420Y96063D01*
X250469Y96077D01*
X250521Y96081D01*
X250565Y96098D01*
X250580Y96101D01*
X250608Y96114D01*
X250676Y96133D01*
X250720Y96161D01*
X250768Y96180D01*
X250803Y96209D01*
X250819Y96217D01*
X250844Y96240D01*
X250900Y96276D01*
X250934Y96315D01*
X250974Y96347D01*
X250998Y96383D01*
X251013Y96398D01*
X251032Y96431D01*
X251072Y96478D01*
X251093Y96526D01*
X251121Y96569D01*
X251128Y96598D01*
X251145Y96629D01*
X251155Y96671D01*
X251177Y96723D01*
X251186Y96811D01*
X251203Y96888D01*
X251200Y96923D01*
X251205Y96945D01*
X251205Y106255D01*
X251198Y106306D01*
X251199Y106357D01*
X251178Y106436D01*
X251165Y106517D01*
X251143Y106564D01*
X251129Y106614D01*
X251085Y106683D01*
X251050Y106757D01*
X251015Y106794D01*
X250987Y106838D01*
X250924Y106891D01*
X250868Y106951D01*
X250824Y106977D01*
X250784Y107010D01*
X250709Y107042D01*
X250638Y107083D01*
X250587Y107094D01*
X250540Y107114D01*
X250458Y107123D01*
X250378Y107141D01*
X250327Y107137D01*
X250275Y107142D01*
X250195Y107126D01*
X250113Y107119D01*
X250065Y107100D01*
X250015Y107090D01*
X249971Y107062D01*
X249866Y107020D01*
X249727Y106907D01*
X249689Y106883D01*
X247631Y104825D01*
X243523Y103123D01*
X239077Y103123D01*
X234969Y104825D01*
X231825Y107969D01*
X230123Y112077D01*
X230123Y116523D01*
X231825Y120631D01*
X234969Y123775D01*
X239077Y125477D01*
X243523Y125477D01*
X247631Y123775D01*
X249689Y121717D01*
X249730Y121687D01*
X249766Y121649D01*
X249837Y121608D01*
X249903Y121560D01*
X249952Y121543D01*
X249996Y121517D01*
X250076Y121499D01*
X250154Y121472D01*
X250206Y121470D01*
X250256Y121459D01*
X250338Y121466D01*
X250420Y121463D01*
X250469Y121477D01*
X250521Y121481D01*
X250597Y121511D01*
X250676Y121533D01*
X250720Y121561D01*
X250768Y121580D01*
X250831Y121632D01*
X250900Y121676D01*
X250934Y121715D01*
X250974Y121747D01*
X251019Y121816D01*
X251072Y121878D01*
X251093Y121926D01*
X251121Y121969D01*
X251133Y122019D01*
X251177Y122123D01*
X251195Y122301D01*
X251205Y122345D01*
X251205Y131655D01*
X251198Y131706D01*
X251199Y131757D01*
X251178Y131836D01*
X251165Y131917D01*
X251143Y131964D01*
X251129Y132014D01*
X251085Y132083D01*
X251050Y132157D01*
X251015Y132194D01*
X250987Y132238D01*
X250924Y132291D01*
X250868Y132351D01*
X250824Y132377D01*
X250784Y132410D01*
X250709Y132442D01*
X250638Y132483D01*
X250587Y132494D01*
X250540Y132514D01*
X250458Y132523D01*
X250378Y132541D01*
X250327Y132537D01*
X250275Y132542D01*
X250195Y132526D01*
X250113Y132519D01*
X250065Y132500D01*
X250015Y132490D01*
X249971Y132462D01*
X249866Y132420D01*
X249727Y132307D01*
X249689Y132283D01*
X247631Y130225D01*
X243523Y128523D01*
X239077Y128523D01*
X234969Y130225D01*
X231825Y133369D01*
X230123Y137477D01*
X230123Y141923D01*
X231825Y146031D01*
X234969Y149175D01*
X239077Y150877D01*
X243523Y150877D01*
X247631Y149175D01*
X249689Y147117D01*
X249730Y147087D01*
X249766Y147049D01*
X249837Y147008D01*
X249903Y146960D01*
X249952Y146943D01*
X249996Y146917D01*
X250076Y146899D01*
X250154Y146872D01*
X250206Y146870D01*
X250256Y146859D01*
X250338Y146866D01*
X250420Y146863D01*
X250469Y146877D01*
X250521Y146881D01*
X250597Y146911D01*
X250676Y146933D01*
X250720Y146961D01*
X250768Y146980D01*
X250831Y147032D01*
X250900Y147076D01*
X250934Y147115D01*
X250974Y147147D01*
X251019Y147216D01*
X251072Y147278D01*
X251093Y147326D01*
X251121Y147369D01*
X251133Y147419D01*
X251177Y147523D01*
X251195Y147701D01*
X251205Y147745D01*
X251205Y157055D01*
X251198Y157106D01*
X251199Y157157D01*
X251178Y157236D01*
X251165Y157317D01*
X251143Y157364D01*
X251129Y157414D01*
X251085Y157483D01*
X251050Y157557D01*
X251015Y157594D01*
X250987Y157638D01*
X250924Y157691D01*
X250868Y157751D01*
X250824Y157777D01*
X250784Y157810D01*
X250709Y157842D01*
X250638Y157883D01*
X250587Y157894D01*
X250540Y157914D01*
X250458Y157923D01*
X250378Y157941D01*
X250327Y157937D01*
X250275Y157942D01*
X250195Y157926D01*
X250113Y157919D01*
X250065Y157900D01*
X250015Y157890D01*
X249971Y157862D01*
X249866Y157820D01*
X249727Y157707D01*
X249689Y157683D01*
X247631Y155625D01*
X243523Y153923D01*
X239077Y153923D01*
X234969Y155625D01*
X231825Y158769D01*
X230123Y162877D01*
X230123Y167323D01*
X231825Y171431D01*
X234969Y174575D01*
X239077Y176277D01*
X243523Y176277D01*
X247631Y174575D01*
X249689Y172517D01*
X249730Y172487D01*
X249766Y172449D01*
X249837Y172408D01*
X249903Y172360D01*
X249952Y172343D01*
X249996Y172317D01*
X250076Y172299D01*
X250154Y172272D01*
X250206Y172270D01*
X250256Y172259D01*
X250338Y172266D01*
X250420Y172263D01*
X250469Y172277D01*
X250521Y172281D01*
X250597Y172311D01*
X250676Y172333D01*
X250720Y172361D01*
X250768Y172380D01*
X250831Y172432D01*
X250900Y172476D01*
X250934Y172515D01*
X250974Y172547D01*
X251019Y172616D01*
X251072Y172678D01*
X251093Y172726D01*
X251121Y172769D01*
X251133Y172819D01*
X251177Y172923D01*
X251195Y173101D01*
X251205Y173145D01*
X251205Y181377D01*
X251198Y181428D01*
X251199Y181480D01*
X251178Y181559D01*
X251165Y181640D01*
X251143Y181686D01*
X251129Y181736D01*
X251085Y181805D01*
X251050Y181879D01*
X251014Y181917D01*
X250987Y181960D01*
X250924Y182013D01*
X250868Y182073D01*
X250824Y182099D01*
X250784Y182132D01*
X250709Y182165D01*
X250638Y182205D01*
X250587Y182217D01*
X250540Y182237D01*
X250458Y182245D01*
X250378Y182263D01*
X250327Y182259D01*
X250275Y182264D01*
X250195Y182248D01*
X250113Y182241D01*
X250065Y182222D01*
X250015Y182212D01*
X249971Y182184D01*
X249866Y182142D01*
X249774Y182067D01*
X249771Y182066D01*
X249764Y182059D01*
X249727Y182029D01*
X249689Y182005D01*
X249078Y181394D01*
X247557Y180289D01*
X245883Y179436D01*
X244096Y178855D01*
X243077Y178694D01*
X243077Y189611D01*
X243062Y189712D01*
X243053Y189815D01*
X243042Y189843D01*
X243037Y189874D01*
X242993Y189966D01*
X242954Y190061D01*
X242935Y190085D01*
X242922Y190113D01*
X242852Y190188D01*
X242787Y190268D01*
X242761Y190285D01*
X242740Y190307D01*
X242651Y190358D01*
X242566Y190415D01*
X242542Y190420D01*
X242510Y190439D01*
X242250Y190497D01*
X242212Y190494D01*
X242189Y190499D01*
X241299Y190499D01*
X241299Y191389D01*
X241284Y191490D01*
X241275Y191593D01*
X241264Y191621D01*
X241259Y191652D01*
X241215Y191744D01*
X241176Y191839D01*
X241157Y191863D01*
X241144Y191891D01*
X241074Y191966D01*
X241009Y192046D01*
X240983Y192063D01*
X240962Y192085D01*
X240873Y192136D01*
X240788Y192193D01*
X240764Y192199D01*
X240731Y192217D01*
X240472Y192275D01*
X240434Y192272D01*
X240411Y192277D01*
X229494Y192277D01*
X229655Y193296D01*
X230236Y195083D01*
X231089Y196757D01*
X232194Y198278D01*
X232678Y198762D01*
X232709Y198803D01*
X232746Y198839D01*
X232787Y198910D01*
X232836Y198976D01*
X232853Y199025D01*
X232878Y199069D01*
X232896Y199149D01*
X232923Y199227D01*
X232925Y199279D01*
X232936Y199329D01*
X232929Y199411D01*
X232932Y199493D01*
X232919Y199542D01*
X232914Y199594D01*
X232884Y199670D01*
X232862Y199749D01*
X232835Y199793D01*
X232815Y199841D01*
X232764Y199904D01*
X232720Y199973D01*
X232680Y200007D01*
X232648Y200047D01*
X232580Y200092D01*
X232517Y200145D01*
X232470Y200166D01*
X232427Y200194D01*
X232376Y200206D01*
X232273Y200250D01*
X232094Y200268D01*
X232050Y200278D01*
X195667Y200278D01*
X195565Y200263D01*
X195463Y200255D01*
X195435Y200243D01*
X195404Y200238D01*
X195312Y200194D01*
X195216Y200156D01*
X195193Y200136D01*
X195165Y200123D01*
X195090Y200053D01*
X195010Y199988D01*
X194993Y199962D01*
X194971Y199941D01*
X194920Y199852D01*
X194863Y199767D01*
X194857Y199743D01*
X194839Y199711D01*
X194781Y199451D01*
X194784Y199413D01*
X194779Y199390D01*
X194779Y199265D01*
X194782Y199244D01*
X194780Y199223D01*
X194802Y199113D01*
X194819Y199002D01*
X194819Y199001D01*
X194819Y195560D01*
X194822Y195539D01*
X194820Y195518D01*
X194842Y195408D01*
X194859Y195297D01*
X194868Y195278D01*
X194872Y195258D01*
X194896Y195219D01*
X194956Y195095D01*
X194957Y195094D01*
X194974Y195058D01*
X195051Y194976D01*
X195079Y194932D01*
X196279Y193732D01*
X196279Y183868D01*
X194932Y182521D01*
X186068Y182521D01*
X184634Y183955D01*
X184599Y184044D01*
X184579Y184067D01*
X184566Y184095D01*
X184496Y184170D01*
X184431Y184250D01*
X184405Y184267D01*
X184384Y184289D01*
X184295Y184340D01*
X184210Y184397D01*
X184186Y184403D01*
X184154Y184421D01*
X183894Y184479D01*
X183856Y184476D01*
X183833Y184481D01*
X160477Y184481D01*
X160456Y184478D01*
X160435Y184480D01*
X160325Y184458D01*
X160214Y184441D01*
X160195Y184432D01*
X160174Y184428D01*
X160136Y184404D01*
X159975Y184326D01*
X159892Y184249D01*
X159849Y184221D01*
X152661Y177033D01*
X152648Y177016D01*
X152632Y177003D01*
X152570Y176910D01*
X152503Y176819D01*
X152496Y176799D01*
X152485Y176782D01*
X152475Y176737D01*
X152416Y176568D01*
X152412Y176456D01*
X152401Y176405D01*
X152401Y175695D01*
X149425Y172719D01*
X145199Y172719D01*
X145147Y172749D01*
X145081Y172797D01*
X145032Y172814D01*
X144988Y172840D01*
X144908Y172858D01*
X144830Y172885D01*
X144778Y172887D01*
X144728Y172898D01*
X144646Y172891D01*
X144564Y172894D01*
X144515Y172880D01*
X144463Y172876D01*
X144387Y172846D01*
X144308Y172824D01*
X144264Y172796D01*
X144216Y172777D01*
X144153Y172725D01*
X144084Y172681D01*
X144050Y172642D01*
X144010Y172610D01*
X143965Y172541D01*
X143912Y172479D01*
X143891Y172431D01*
X143863Y172388D01*
X143851Y172338D01*
X143807Y172234D01*
X143789Y172056D01*
X143779Y172012D01*
X143779Y155456D01*
X142444Y154121D01*
X140937Y154121D01*
X140835Y154106D01*
X140733Y154098D01*
X140705Y154086D01*
X140674Y154081D01*
X140582Y154037D01*
X140486Y153999D01*
X140463Y153979D01*
X140435Y153966D01*
X140360Y153896D01*
X140280Y153831D01*
X140263Y153805D01*
X140241Y153784D01*
X140190Y153695D01*
X140133Y153610D01*
X140130Y153599D01*
X138173Y151642D01*
X138153Y151614D01*
X138127Y151592D01*
X138074Y151508D01*
X138016Y151428D01*
X138004Y151395D01*
X137986Y151366D01*
X137961Y151270D01*
X137928Y151177D01*
X137927Y151142D01*
X137918Y151109D01*
X137923Y151010D01*
X137919Y150911D01*
X137928Y150878D01*
X137930Y150843D01*
X137963Y150750D01*
X137989Y150655D01*
X138008Y150626D01*
X138019Y150593D01*
X138079Y150514D01*
X138132Y150430D01*
X138158Y150408D01*
X138179Y150380D01*
X138259Y150322D01*
X138334Y150258D01*
X138366Y150245D01*
X138394Y150225D01*
X138488Y150193D01*
X138579Y150154D01*
X138613Y150150D01*
X138646Y150139D01*
X138698Y150142D01*
X138843Y150126D01*
X138979Y150154D01*
X139031Y150156D01*
X139348Y150241D01*
X140741Y150241D01*
X140741Y145311D01*
X140756Y145210D01*
X140764Y145107D01*
X140776Y145079D01*
X140780Y145048D01*
X140825Y144956D01*
X140863Y144861D01*
X140883Y144837D01*
X140896Y144809D01*
X140966Y144734D01*
X141031Y144654D01*
X141057Y144637D01*
X141078Y144615D01*
X141167Y144564D01*
X141252Y144507D01*
X141276Y144502D01*
X141308Y144483D01*
X141568Y144425D01*
X141606Y144428D01*
X141629Y144423D01*
X141963Y144423D01*
X141963Y144089D01*
X141978Y143987D01*
X141987Y143885D01*
X141998Y143857D01*
X142003Y143826D01*
X142047Y143734D01*
X142086Y143638D01*
X142105Y143615D01*
X142118Y143587D01*
X142189Y143512D01*
X142253Y143432D01*
X142279Y143415D01*
X142300Y143393D01*
X142389Y143342D01*
X142474Y143285D01*
X142498Y143279D01*
X142531Y143261D01*
X142790Y143203D01*
X142828Y143206D01*
X142851Y143201D01*
X151789Y143201D01*
X151890Y143216D01*
X151993Y143224D01*
X152021Y143236D01*
X152052Y143240D01*
X152144Y143285D01*
X152239Y143323D01*
X152263Y143343D01*
X152291Y143356D01*
X152366Y143426D01*
X152446Y143491D01*
X152463Y143517D01*
X152485Y143538D01*
X152536Y143627D01*
X152593Y143712D01*
X152598Y143736D01*
X152617Y143768D01*
X152675Y144028D01*
X152672Y144066D01*
X152677Y144089D01*
X152677Y144423D01*
X153011Y144423D01*
X153113Y144438D01*
X153215Y144447D01*
X153243Y144458D01*
X153274Y144463D01*
X153366Y144507D01*
X153462Y144546D01*
X153485Y144565D01*
X153513Y144578D01*
X153588Y144649D01*
X153668Y144713D01*
X153685Y144739D01*
X153707Y144760D01*
X153758Y144849D01*
X153815Y144934D01*
X153821Y144958D01*
X153839Y144991D01*
X153897Y145250D01*
X153894Y145288D01*
X153899Y145311D01*
X153899Y150241D01*
X155292Y150241D01*
X156068Y150033D01*
X156763Y149631D01*
X157391Y149004D01*
X157473Y148943D01*
X157552Y148876D01*
X157580Y148864D01*
X157605Y148846D01*
X157702Y148812D01*
X157796Y148772D01*
X157827Y148769D01*
X157856Y148759D01*
X157958Y148755D01*
X158061Y148744D01*
X158091Y148750D01*
X158121Y148749D01*
X158220Y148776D01*
X158321Y148797D01*
X158341Y148809D01*
X158378Y148819D01*
X158602Y148962D01*
X158627Y148991D01*
X158647Y149004D01*
X158843Y149200D01*
X158904Y149282D01*
X158970Y149360D01*
X158982Y149389D01*
X159001Y149414D01*
X159034Y149510D01*
X159075Y149605D01*
X159078Y149636D01*
X159088Y149665D01*
X159091Y149767D01*
X159102Y149869D01*
X159096Y149900D01*
X159097Y149930D01*
X159070Y150029D01*
X159050Y150130D01*
X159037Y150150D01*
X159027Y150187D01*
X158884Y150411D01*
X158856Y150436D01*
X158843Y150456D01*
X158241Y151057D01*
X158241Y170173D01*
X160287Y172219D01*
X167647Y179579D01*
X193033Y179579D01*
X198273Y174339D01*
X198290Y174326D01*
X198303Y174310D01*
X198396Y174248D01*
X198487Y174181D01*
X198506Y174174D01*
X198524Y174163D01*
X198568Y174153D01*
X198738Y174094D01*
X198850Y174090D01*
X198901Y174079D01*
X204432Y174079D01*
X205779Y172732D01*
X205779Y166701D01*
X205782Y166680D01*
X205780Y166659D01*
X205802Y166549D01*
X205819Y166438D01*
X205828Y166419D01*
X205832Y166398D01*
X205856Y166360D01*
X205934Y166199D01*
X206011Y166116D01*
X206039Y166073D01*
X208013Y164099D01*
X210059Y162053D01*
X210059Y134557D01*
X208013Y132511D01*
X205579Y130077D01*
X205566Y130060D01*
X205550Y130047D01*
X205488Y129954D01*
X205421Y129863D01*
X205414Y129844D01*
X205403Y129826D01*
X205393Y129782D01*
X205334Y129612D01*
X205330Y129500D01*
X205319Y129449D01*
X205319Y124608D01*
X203982Y123271D01*
X194798Y123271D01*
X193461Y124608D01*
X193461Y130599D01*
X193454Y130650D01*
X193455Y130702D01*
X193434Y130781D01*
X193421Y130862D01*
X193399Y130908D01*
X193385Y130958D01*
X193341Y131028D01*
X193306Y131101D01*
X193271Y131139D01*
X193243Y131183D01*
X193180Y131236D01*
X193124Y131296D01*
X193080Y131321D01*
X193040Y131355D01*
X192965Y131387D01*
X192894Y131428D01*
X192843Y131439D01*
X192796Y131459D01*
X192714Y131468D01*
X192634Y131485D01*
X192583Y131481D01*
X192531Y131487D01*
X192451Y131470D01*
X192369Y131464D01*
X192321Y131445D01*
X192271Y131434D01*
X192227Y131407D01*
X192122Y131365D01*
X191983Y131252D01*
X191945Y131227D01*
X191099Y130381D01*
X187146Y130381D01*
X187125Y130378D01*
X187104Y130380D01*
X186994Y130358D01*
X186883Y130341D01*
X186864Y130332D01*
X186844Y130328D01*
X186805Y130304D01*
X186644Y130226D01*
X186561Y130149D01*
X186518Y130121D01*
X186318Y129921D01*
X182938Y129921D01*
X182887Y129914D01*
X182836Y129915D01*
X182757Y129894D01*
X182676Y129881D01*
X182629Y129859D01*
X182579Y129845D01*
X182510Y129801D01*
X182436Y129766D01*
X182398Y129730D01*
X182355Y129703D01*
X182302Y129640D01*
X182242Y129584D01*
X182216Y129540D01*
X182183Y129500D01*
X182151Y129425D01*
X182110Y129354D01*
X182099Y129303D01*
X182079Y129256D01*
X182070Y129174D01*
X182052Y129094D01*
X182056Y129043D01*
X182051Y128991D01*
X182067Y128911D01*
X182074Y128829D01*
X182093Y128781D01*
X182103Y128731D01*
X182131Y128687D01*
X182173Y128582D01*
X182286Y128443D01*
X182310Y128405D01*
X182881Y127835D01*
X182881Y123625D01*
X181109Y121854D01*
X181096Y121837D01*
X181080Y121823D01*
X181018Y121730D01*
X180951Y121640D01*
X180944Y121620D01*
X180933Y121602D01*
X180923Y121558D01*
X180864Y121389D01*
X180860Y121276D01*
X180849Y121226D01*
X180849Y111921D01*
X180852Y111900D01*
X180850Y111879D01*
X180872Y111769D01*
X180889Y111658D01*
X180898Y111639D01*
X180902Y111618D01*
X180926Y111580D01*
X181004Y111419D01*
X181081Y111336D01*
X181109Y111293D01*
X181543Y110859D01*
X181560Y110846D01*
X181573Y110830D01*
X181666Y110768D01*
X181757Y110701D01*
X181776Y110694D01*
X181794Y110683D01*
X181838Y110673D01*
X182008Y110614D01*
X182120Y110610D01*
X182171Y110599D01*
X189217Y110599D01*
X190549Y109267D01*
X190549Y109200D01*
X190551Y109183D01*
X190549Y109165D01*
X190571Y109051D01*
X190589Y108937D01*
X190596Y108921D01*
X190599Y108904D01*
X190654Y108802D01*
X190704Y108698D01*
X190716Y108685D01*
X190724Y108670D01*
X190806Y108588D01*
X190886Y108503D01*
X190901Y108495D01*
X190913Y108482D01*
X191016Y108429D01*
X191116Y108371D01*
X191133Y108368D01*
X191149Y108360D01*
X191263Y108339D01*
X191376Y108314D01*
X191393Y108315D01*
X191410Y108312D01*
X191525Y108326D01*
X191641Y108335D01*
X191657Y108342D01*
X191674Y108344D01*
X191780Y108391D01*
X191888Y108434D01*
X191901Y108445D01*
X191917Y108452D01*
X192003Y108528D01*
X192094Y108602D01*
X192103Y108616D01*
X192116Y108628D01*
X192136Y108665D01*
X192241Y108823D01*
X192258Y108900D01*
X192295Y108970D01*
X192436Y109497D01*
X192836Y110189D01*
X193401Y110754D01*
X194093Y111154D01*
X194865Y111361D01*
X197993Y111361D01*
X197993Y105209D01*
X198008Y105108D01*
X198017Y105005D01*
X198028Y104977D01*
X198033Y104946D01*
X198077Y104854D01*
X198116Y104759D01*
X198135Y104735D01*
X198148Y104707D01*
X198218Y104632D01*
X198283Y104552D01*
X198309Y104535D01*
X198330Y104513D01*
X198419Y104462D01*
X198504Y104405D01*
X198528Y104400D01*
X198560Y104381D01*
X198820Y104323D01*
X198858Y104326D01*
X198881Y104321D01*
X199771Y104321D01*
X199771Y104319D01*
X198881Y104319D01*
X198780Y104304D01*
X198677Y104295D01*
X198649Y104284D01*
X198618Y104279D01*
X198526Y104235D01*
X198431Y104196D01*
X198407Y104177D01*
X198379Y104164D01*
X198304Y104094D01*
X198224Y104029D01*
X198207Y104003D01*
X198185Y103982D01*
X198134Y103893D01*
X198077Y103808D01*
X198071Y103784D01*
X198053Y103751D01*
X197995Y103492D01*
X197998Y103454D01*
X197993Y103431D01*
X197993Y97279D01*
X194865Y97279D01*
X194093Y97486D01*
X193401Y97886D01*
X192836Y98451D01*
X192436Y99143D01*
X192295Y99670D01*
X192288Y99686D01*
X192285Y99703D01*
X192235Y99807D01*
X192189Y99914D01*
X192177Y99927D01*
X192170Y99942D01*
X192090Y100027D01*
X192015Y100115D01*
X192000Y100124D01*
X191988Y100137D01*
X191888Y100194D01*
X191789Y100256D01*
X191773Y100260D01*
X191758Y100269D01*
X191644Y100294D01*
X191532Y100323D01*
X191515Y100323D01*
X191498Y100326D01*
X191383Y100317D01*
X191267Y100312D01*
X191250Y100306D01*
X191233Y100305D01*
X191126Y100262D01*
X191016Y100223D01*
X191003Y100212D01*
X190986Y100206D01*
X190896Y100133D01*
X190804Y100063D01*
X190794Y100049D01*
X190780Y100038D01*
X190716Y99942D01*
X190648Y99848D01*
X190642Y99832D01*
X190633Y99817D01*
X190624Y99776D01*
X190563Y99596D01*
X190566Y99517D01*
X190549Y99440D01*
X190549Y99373D01*
X189217Y98041D01*
X187707Y98041D01*
X187605Y98026D01*
X187503Y98018D01*
X187475Y98006D01*
X187444Y98001D01*
X187352Y97957D01*
X187256Y97919D01*
X187233Y97899D01*
X187205Y97886D01*
X187130Y97816D01*
X187050Y97751D01*
X187033Y97725D01*
X187011Y97704D01*
X186960Y97615D01*
X186903Y97530D01*
X186897Y97506D01*
X186879Y97474D01*
X186821Y97214D01*
X186824Y97176D01*
X186819Y97153D01*
X186819Y70487D01*
X186834Y70385D01*
X186842Y70283D01*
X186854Y70255D01*
X186859Y70224D01*
X186903Y70132D01*
X186941Y70036D01*
X186961Y70013D01*
X186974Y69985D01*
X187044Y69910D01*
X187109Y69830D01*
X187135Y69813D01*
X187156Y69791D01*
X187245Y69740D01*
X187330Y69683D01*
X187354Y69677D01*
X187386Y69659D01*
X187646Y69601D01*
X187684Y69604D01*
X187707Y69599D01*
X189217Y69599D01*
X190549Y68267D01*
X190549Y68200D01*
X190551Y68183D01*
X190549Y68165D01*
X190571Y68051D01*
X190589Y67937D01*
X190596Y67921D01*
X190599Y67904D01*
X190654Y67802D01*
X190704Y67698D01*
X190716Y67685D01*
X190724Y67670D01*
X190806Y67588D01*
X190886Y67503D01*
X190901Y67495D01*
X190913Y67482D01*
X191016Y67429D01*
X191116Y67371D01*
X191133Y67368D01*
X191149Y67360D01*
X191263Y67339D01*
X191376Y67314D01*
X191393Y67315D01*
X191410Y67312D01*
X191525Y67326D01*
X191641Y67335D01*
X191657Y67342D01*
X191674Y67344D01*
X191780Y67391D01*
X191888Y67434D01*
X191901Y67445D01*
X191917Y67452D01*
X192004Y67529D01*
X192094Y67602D01*
X192103Y67616D01*
X192116Y67628D01*
X192136Y67665D01*
X192241Y67823D01*
X192258Y67900D01*
X192295Y67970D01*
X192436Y68497D01*
X192836Y69189D01*
X193401Y69754D01*
X194093Y70154D01*
X194865Y70361D01*
X197993Y70361D01*
X197993Y64209D01*
X198008Y64108D01*
X198017Y64005D01*
X198028Y63977D01*
X198033Y63946D01*
X198077Y63854D01*
X198116Y63759D01*
X198135Y63735D01*
X198148Y63707D01*
X198218Y63632D01*
X198283Y63552D01*
X198309Y63535D01*
X198330Y63513D01*
X198419Y63462D01*
X198504Y63405D01*
X198528Y63400D01*
X198560Y63381D01*
X198820Y63323D01*
X198858Y63326D01*
X198881Y63321D01*
X199771Y63321D01*
X199771Y63319D01*
X198881Y63319D01*
X198780Y63304D01*
X198677Y63295D01*
X198649Y63284D01*
X198618Y63279D01*
X198526Y63235D01*
X198431Y63196D01*
X198407Y63177D01*
X198379Y63164D01*
X198304Y63094D01*
X198224Y63029D01*
X198207Y63003D01*
X198185Y62982D01*
X198134Y62893D01*
X198077Y62808D01*
X198071Y62784D01*
X198053Y62751D01*
X197995Y62492D01*
X197998Y62454D01*
X197993Y62431D01*
X197993Y56279D01*
X194865Y56279D01*
X194093Y56486D01*
X193401Y56886D01*
X192836Y57451D01*
X192436Y58143D01*
X192295Y58670D01*
X192288Y58686D01*
X192285Y58703D01*
X192235Y58807D01*
X192189Y58914D01*
X192177Y58927D01*
X192170Y58942D01*
X192090Y59027D01*
X192015Y59115D01*
X192000Y59124D01*
X191988Y59137D01*
X191887Y59194D01*
X191789Y59256D01*
X191773Y59260D01*
X191758Y59269D01*
X191644Y59294D01*
X191532Y59323D01*
X191515Y59323D01*
X191498Y59326D01*
X191383Y59317D01*
X191267Y59312D01*
X191250Y59306D01*
X191233Y59305D01*
X191126Y59262D01*
X191016Y59223D01*
X191003Y59212D01*
X190986Y59206D01*
X190896Y59132D01*
X190804Y59063D01*
X190794Y59049D01*
X190780Y59038D01*
X190716Y58942D01*
X190648Y58848D01*
X190642Y58832D01*
X190633Y58817D01*
X190624Y58776D01*
X190563Y58596D01*
X190566Y58517D01*
X190549Y58440D01*
X190549Y58373D01*
X189217Y57041D01*
X178323Y57041D01*
X176810Y58554D01*
X176754Y58596D01*
X176705Y58644D01*
X176648Y58674D01*
X176596Y58712D01*
X176531Y58735D01*
X176469Y58767D01*
X176406Y58778D01*
X176345Y58800D01*
X176276Y58802D01*
X176208Y58814D01*
X176144Y58806D01*
X176079Y58809D01*
X176013Y58791D01*
X175944Y58782D01*
X175885Y58756D01*
X175823Y58739D01*
X175764Y58702D01*
X175701Y58673D01*
X175670Y58641D01*
X175599Y58596D01*
X175438Y58407D01*
X175430Y58399D01*
X175164Y57975D01*
X175136Y57949D01*
X175061Y57889D01*
X175040Y57858D01*
X175013Y57833D01*
X175011Y57828D01*
X174530Y57525D01*
X174418Y57429D01*
X174374Y57401D01*
X173961Y56988D01*
X173928Y56968D01*
X173841Y56927D01*
X173814Y56901D01*
X173782Y56882D01*
X173779Y56878D01*
X173242Y56690D01*
X173112Y56621D01*
X173063Y56604D01*
X172568Y56293D01*
X172532Y56281D01*
X172438Y56260D01*
X172406Y56241D01*
X172371Y56230D01*
X172366Y56226D01*
X171801Y56162D01*
X171660Y56124D01*
X171608Y56118D01*
X171056Y55925D01*
X171018Y55922D01*
X170922Y55922D01*
X170886Y55911D01*
X170849Y55907D01*
X170844Y55905D01*
X170279Y55968D01*
X170133Y55963D01*
X170081Y55968D01*
X169500Y55903D01*
X169462Y55908D01*
X169368Y55930D01*
X169331Y55927D01*
X169294Y55932D01*
X169289Y55931D01*
X168752Y56118D01*
X168608Y56145D01*
X168559Y56162D01*
X167977Y56228D01*
X167942Y56241D01*
X167855Y56283D01*
X167818Y56288D01*
X167784Y56302D01*
X167778Y56302D01*
X167297Y56604D01*
X167162Y56663D01*
X167118Y56690D01*
X166566Y56883D01*
X166534Y56904D01*
X166459Y56964D01*
X166424Y56978D01*
X166393Y56998D01*
X166388Y56999D01*
X165986Y57401D01*
X165868Y57489D01*
X165830Y57525D01*
X165335Y57836D01*
X165309Y57864D01*
X165249Y57939D01*
X165218Y57960D01*
X165193Y57987D01*
X165188Y57989D01*
X164885Y58470D01*
X164789Y58582D01*
X164761Y58626D01*
X164348Y59039D01*
X164328Y59072D01*
X164287Y59159D01*
X164261Y59186D01*
X164242Y59218D01*
X164238Y59221D01*
X164050Y59758D01*
X163981Y59888D01*
X163964Y59937D01*
X163653Y60432D01*
X163641Y60468D01*
X163620Y60562D01*
X163601Y60594D01*
X163590Y60629D01*
X163586Y60634D01*
X163522Y61199D01*
X163484Y61340D01*
X163478Y61392D01*
X163316Y61855D01*
X163341Y61936D01*
X163341Y62023D01*
X163351Y62067D01*
X163351Y62667D01*
X163342Y62730D01*
X163346Y62767D01*
X163272Y63416D01*
X163290Y63447D01*
X163349Y63706D01*
X163346Y63746D01*
X163351Y63771D01*
X163351Y72869D01*
X163336Y72972D01*
X163327Y73076D01*
X163317Y73097D01*
X163311Y73132D01*
X163271Y73215D01*
X163346Y73873D01*
X163343Y73937D01*
X163351Y73973D01*
X163351Y74573D01*
X163351Y74578D01*
X163351Y74582D01*
X163347Y74599D01*
X163318Y74791D01*
X163478Y75248D01*
X163505Y75392D01*
X163522Y75441D01*
X163588Y76023D01*
X163601Y76058D01*
X163643Y76145D01*
X163648Y76182D01*
X163662Y76216D01*
X163662Y76222D01*
X163964Y76703D01*
X164023Y76838D01*
X164050Y76882D01*
X164081Y76970D01*
X164103Y77086D01*
X164128Y77202D01*
X164127Y77217D01*
X164130Y77231D01*
X164116Y77349D01*
X164107Y77467D01*
X164101Y77480D01*
X164100Y77495D01*
X164052Y77603D01*
X164008Y77714D01*
X163999Y77725D01*
X163993Y77738D01*
X163915Y77827D01*
X163840Y77920D01*
X163828Y77928D01*
X163818Y77939D01*
X163718Y78001D01*
X163619Y78067D01*
X163608Y78070D01*
X163593Y78079D01*
X163335Y78146D01*
X163276Y78144D01*
X163242Y78151D01*
X157936Y78151D01*
X157915Y78148D01*
X157894Y78150D01*
X157784Y78128D01*
X157673Y78111D01*
X157654Y78102D01*
X157634Y78098D01*
X157595Y78074D01*
X157434Y77996D01*
X157351Y77919D01*
X157308Y77891D01*
X156784Y77367D01*
X156723Y77284D01*
X156656Y77206D01*
X156644Y77178D01*
X156626Y77153D01*
X156592Y77056D01*
X156552Y76962D01*
X156549Y76931D01*
X156539Y76902D01*
X156535Y76799D01*
X156524Y76697D01*
X156530Y76667D01*
X156529Y76636D01*
X156556Y76537D01*
X156577Y76436D01*
X156589Y76416D01*
X156599Y76380D01*
X156742Y76155D01*
X156771Y76131D01*
X156784Y76111D01*
X157331Y75563D01*
X157733Y74868D01*
X157941Y74092D01*
X157941Y72699D01*
X153011Y72699D01*
X152910Y72684D01*
X152807Y72676D01*
X152779Y72664D01*
X152748Y72659D01*
X152656Y72615D01*
X152561Y72577D01*
X152537Y72557D01*
X152509Y72544D01*
X152434Y72474D01*
X152354Y72409D01*
X152337Y72383D01*
X152315Y72362D01*
X152264Y72273D01*
X152207Y72188D01*
X152202Y72164D01*
X152183Y72132D01*
X152125Y71872D01*
X152128Y71834D01*
X152123Y71811D01*
X152123Y70589D01*
X152138Y70487D01*
X152147Y70385D01*
X152158Y70357D01*
X152163Y70326D01*
X152207Y70234D01*
X152246Y70138D01*
X152265Y70115D01*
X152278Y70087D01*
X152349Y70012D01*
X152413Y69932D01*
X152439Y69915D01*
X152460Y69893D01*
X152549Y69842D01*
X152634Y69785D01*
X152658Y69779D01*
X152691Y69761D01*
X152950Y69703D01*
X152988Y69706D01*
X153011Y69701D01*
X157941Y69701D01*
X157941Y68459D01*
X157944Y68438D01*
X157942Y68417D01*
X157964Y68307D01*
X157981Y68196D01*
X157990Y68177D01*
X157994Y68157D01*
X158018Y68118D01*
X158096Y67957D01*
X158173Y67874D01*
X158201Y67831D01*
X160929Y65103D01*
X160929Y60937D01*
X157983Y57991D01*
X157078Y57991D01*
X157027Y57984D01*
X156976Y57985D01*
X156897Y57964D01*
X156816Y57951D01*
X156769Y57929D01*
X156719Y57915D01*
X156650Y57871D01*
X156576Y57836D01*
X156539Y57801D01*
X156495Y57773D01*
X156442Y57710D01*
X156382Y57654D01*
X156356Y57610D01*
X156323Y57570D01*
X156291Y57495D01*
X156250Y57424D01*
X156239Y57373D01*
X156219Y57326D01*
X156210Y57244D01*
X156192Y57164D01*
X156196Y57113D01*
X156191Y57061D01*
X156207Y56981D01*
X156214Y56899D01*
X156233Y56851D01*
X156243Y56801D01*
X156271Y56757D01*
X156313Y56652D01*
X156426Y56513D01*
X156450Y56475D01*
X157481Y55445D01*
X157481Y51235D01*
X155768Y49523D01*
X155707Y49440D01*
X155641Y49362D01*
X155629Y49334D01*
X155611Y49309D01*
X155577Y49212D01*
X155537Y49118D01*
X155533Y49087D01*
X155523Y49058D01*
X155520Y48956D01*
X155509Y48853D01*
X155515Y48823D01*
X155514Y48792D01*
X155541Y48693D01*
X155561Y48593D01*
X155574Y48573D01*
X155584Y48536D01*
X155727Y48312D01*
X155755Y48287D01*
X155768Y48267D01*
X157481Y46555D01*
X157481Y42345D01*
X154505Y39369D01*
X151999Y39369D01*
X151978Y39366D01*
X151957Y39368D01*
X151847Y39346D01*
X151736Y39329D01*
X151717Y39320D01*
X151696Y39316D01*
X151658Y39292D01*
X151497Y39214D01*
X151414Y39137D01*
X151371Y39109D01*
X149853Y37591D01*
X137087Y37591D01*
X132667Y42011D01*
X132650Y42024D01*
X132637Y42040D01*
X132544Y42102D01*
X132453Y42169D01*
X132434Y42176D01*
X132416Y42187D01*
X132372Y42197D01*
X132202Y42256D01*
X132090Y42260D01*
X132039Y42271D01*
X128562Y42271D01*
X127835Y42998D01*
X127794Y43029D01*
X127758Y43067D01*
X127687Y43107D01*
X127621Y43156D01*
X127572Y43173D01*
X127528Y43198D01*
X127448Y43216D01*
X127370Y43243D01*
X127318Y43245D01*
X127268Y43256D01*
X127186Y43250D01*
X127104Y43252D01*
X127055Y43239D01*
X127003Y43235D01*
X126927Y43204D01*
X126848Y43183D01*
X126804Y43155D01*
X126756Y43136D01*
X126693Y43084D01*
X126624Y43040D01*
X126590Y43001D01*
X126550Y42968D01*
X126505Y42900D01*
X126452Y42837D01*
X126431Y42790D01*
X126403Y42747D01*
X126391Y42697D01*
X126347Y42593D01*
X126329Y42415D01*
X126319Y42370D01*
X126319Y41254D01*
X126322Y41234D01*
X126320Y41213D01*
X126342Y41102D01*
X126359Y40992D01*
X126368Y40973D01*
X126372Y40952D01*
X126396Y40914D01*
X126474Y40752D01*
X126551Y40670D01*
X126579Y40626D01*
X127001Y40205D01*
X127001Y37115D01*
X127004Y37094D01*
X127002Y37073D01*
X127024Y36963D01*
X127041Y36852D01*
X127050Y36833D01*
X127054Y36812D01*
X127078Y36774D01*
X127156Y36613D01*
X127233Y36530D01*
X127261Y36487D01*
X129959Y33789D01*
X129976Y33776D01*
X129989Y33760D01*
X130082Y33698D01*
X130173Y33631D01*
X130193Y33624D01*
X130210Y33613D01*
X130255Y33603D01*
X130424Y33544D01*
X130536Y33540D01*
X130587Y33529D01*
X154053Y33529D01*
X154074Y33532D01*
X154095Y33530D01*
X154205Y33552D01*
X154316Y33569D01*
X154335Y33578D01*
X154356Y33582D01*
X154394Y33606D01*
X154555Y33684D01*
X154638Y33761D01*
X154681Y33789D01*
X164712Y43820D01*
X164725Y43837D01*
X164741Y43850D01*
X164803Y43943D01*
X164870Y44034D01*
X164877Y44054D01*
X164888Y44071D01*
X164898Y44116D01*
X164957Y44285D01*
X164961Y44397D01*
X164972Y44448D01*
X164972Y52517D01*
X166304Y53849D01*
X173802Y53849D01*
X174632Y53018D01*
X174715Y52958D01*
X174793Y52891D01*
X174821Y52879D01*
X174846Y52861D01*
X174943Y52827D01*
X175037Y52787D01*
X175068Y52784D01*
X175097Y52773D01*
X175200Y52770D01*
X175302Y52759D01*
X175332Y52765D01*
X175363Y52764D01*
X175462Y52791D01*
X175562Y52811D01*
X175583Y52824D01*
X175619Y52834D01*
X175843Y52977D01*
X175868Y53006D01*
X175888Y53018D01*
X176718Y53849D01*
X184216Y53849D01*
X185548Y52517D01*
X185548Y38923D01*
X185279Y38655D01*
X185249Y38614D01*
X185211Y38578D01*
X185170Y38507D01*
X185122Y38441D01*
X185105Y38392D01*
X185079Y38348D01*
X185061Y38268D01*
X185034Y38190D01*
X185033Y38138D01*
X185021Y38088D01*
X185028Y38006D01*
X185025Y37924D01*
X185039Y37875D01*
X185043Y37823D01*
X185074Y37747D01*
X185095Y37668D01*
X185123Y37624D01*
X185142Y37576D01*
X185194Y37513D01*
X185238Y37444D01*
X185277Y37410D01*
X185310Y37370D01*
X185378Y37325D01*
X185440Y37272D01*
X185488Y37251D01*
X185531Y37223D01*
X185581Y37211D01*
X185685Y37167D01*
X185863Y37149D01*
X185908Y37139D01*
X195358Y37139D01*
X197279Y35218D01*
X197279Y25502D01*
X195358Y23581D01*
X185642Y23581D01*
X183721Y25502D01*
X183721Y26423D01*
X183706Y26525D01*
X183698Y26627D01*
X183686Y26655D01*
X183681Y26686D01*
X183637Y26778D01*
X183599Y26874D01*
X183579Y26897D01*
X183566Y26925D01*
X183496Y27000D01*
X183431Y27080D01*
X183405Y27097D01*
X183384Y27119D01*
X183295Y27170D01*
X183210Y27227D01*
X183186Y27233D01*
X183154Y27251D01*
X182894Y27309D01*
X182856Y27306D01*
X182833Y27311D01*
X181617Y27311D01*
X179464Y29464D01*
X178525Y30403D01*
X178484Y30434D01*
X178448Y30472D01*
X178377Y30512D01*
X178311Y30561D01*
X178262Y30578D01*
X178218Y30604D01*
X178138Y30621D01*
X178060Y30648D01*
X178008Y30650D01*
X177958Y30661D01*
X177876Y30655D01*
X177794Y30658D01*
X177745Y30644D01*
X177693Y30640D01*
X177617Y30609D01*
X177538Y30588D01*
X177494Y30560D01*
X177446Y30541D01*
X177383Y30489D01*
X177314Y30445D01*
X177280Y30406D01*
X177240Y30373D01*
X177195Y30305D01*
X177142Y30243D01*
X177121Y30195D01*
X177093Y30152D01*
X177081Y30102D01*
X177037Y29998D01*
X177019Y29820D01*
X177009Y29775D01*
X177009Y29673D01*
X177018Y29610D01*
X177014Y29573D01*
X177088Y28924D01*
X177070Y28893D01*
X177011Y28634D01*
X177012Y28621D01*
X177011Y28615D01*
X177013Y28588D01*
X177009Y28569D01*
X177009Y24471D01*
X177024Y24368D01*
X177033Y24264D01*
X177043Y24243D01*
X177049Y24208D01*
X177089Y24125D01*
X177014Y23467D01*
X177017Y23403D01*
X177009Y23367D01*
X177009Y22767D01*
X177009Y22762D01*
X177009Y22758D01*
X177013Y22741D01*
X177042Y22549D01*
X176882Y22092D01*
X176855Y21948D01*
X176838Y21899D01*
X176772Y21317D01*
X176759Y21282D01*
X176717Y21195D01*
X176712Y21158D01*
X176698Y21124D01*
X176698Y21118D01*
X176396Y20637D01*
X176337Y20502D01*
X176310Y20458D01*
X176117Y19906D01*
X176096Y19874D01*
X176036Y19799D01*
X176022Y19764D01*
X176002Y19733D01*
X176001Y19728D01*
X175599Y19326D01*
X175511Y19208D01*
X175475Y19170D01*
X175164Y18675D01*
X175136Y18649D01*
X175061Y18589D01*
X175040Y18558D01*
X175013Y18533D01*
X175011Y18528D01*
X174530Y18225D01*
X174418Y18129D01*
X174374Y18101D01*
X173998Y17725D01*
X173967Y17684D01*
X173930Y17648D01*
X173889Y17577D01*
X173840Y17511D01*
X173823Y17462D01*
X173798Y17418D01*
X173780Y17338D01*
X173753Y17260D01*
X173751Y17208D01*
X173740Y17158D01*
X173746Y17076D01*
X173744Y16994D01*
X173757Y16945D01*
X173761Y16893D01*
X173792Y16817D01*
X173814Y16738D01*
X173841Y16694D01*
X173860Y16646D01*
X173912Y16583D01*
X173956Y16514D01*
X173995Y16480D01*
X174028Y16440D01*
X174096Y16395D01*
X174159Y16342D01*
X174206Y16321D01*
X174249Y16293D01*
X174300Y16281D01*
X174403Y16237D01*
X174582Y16219D01*
X174626Y16209D01*
X181158Y16209D01*
X182205Y15162D01*
X182246Y15131D01*
X182282Y15093D01*
X182353Y15053D01*
X182419Y15004D01*
X182468Y14987D01*
X182512Y14962D01*
X182592Y14944D01*
X182670Y14917D01*
X182722Y14915D01*
X182772Y14904D01*
X182854Y14910D01*
X182936Y14908D01*
X182985Y14921D01*
X183037Y14925D01*
X183113Y14956D01*
X183192Y14977D01*
X183236Y15005D01*
X183284Y15024D01*
X183347Y15076D01*
X183416Y15120D01*
X183450Y15159D01*
X183490Y15192D01*
X183535Y15260D01*
X183588Y15323D01*
X183609Y15370D01*
X183637Y15413D01*
X183649Y15463D01*
X183693Y15567D01*
X183711Y15745D01*
X183721Y15790D01*
X183721Y17678D01*
X185642Y19599D01*
X195358Y19599D01*
X197279Y17678D01*
X197279Y7962D01*
X195358Y6041D01*
X185642Y6041D01*
X183723Y7960D01*
X183640Y8021D01*
X183562Y8088D01*
X183534Y8100D01*
X183509Y8118D01*
X183412Y8152D01*
X183318Y8192D01*
X183287Y8195D01*
X183258Y8205D01*
X183156Y8209D01*
X183053Y8219D01*
X183023Y8213D01*
X182992Y8214D01*
X182893Y8187D01*
X182793Y8167D01*
X182772Y8154D01*
X182736Y8144D01*
X182512Y8002D01*
X182487Y7973D01*
X182467Y7960D01*
X181158Y6651D01*
X174282Y6651D01*
X173887Y7046D01*
X173804Y7107D01*
X173726Y7174D01*
X173698Y7186D01*
X173673Y7204D01*
X173576Y7238D01*
X173482Y7278D01*
X173451Y7281D01*
X173422Y7291D01*
X173319Y7295D01*
X173217Y7306D01*
X173187Y7300D01*
X173156Y7301D01*
X173057Y7274D01*
X172956Y7253D01*
X172936Y7241D01*
X172900Y7231D01*
X172675Y7088D01*
X172651Y7059D01*
X172631Y7046D01*
X172083Y6499D01*
X171388Y6097D01*
X170612Y5889D01*
X169219Y5889D01*
X169219Y10819D01*
X169204Y10920D01*
X169196Y11023D01*
X169184Y11051D01*
X169179Y11082D01*
X169135Y11174D01*
X169097Y11269D01*
X169077Y11293D01*
X169064Y11321D01*
X168994Y11396D01*
X168929Y11476D01*
X168903Y11493D01*
X168882Y11515D01*
X168793Y11566D01*
X168708Y11623D01*
X168684Y11628D01*
X168652Y11647D01*
X168392Y11705D01*
X168354Y11702D01*
X168331Y11707D01*
X167109Y11707D01*
X167007Y11692D01*
X166905Y11683D01*
X166877Y11672D01*
X166846Y11667D01*
X166754Y11623D01*
X166658Y11584D01*
X166635Y11565D01*
X166607Y11552D01*
X166532Y11481D01*
X166452Y11417D01*
X166435Y11391D01*
X166413Y11370D01*
X166362Y11281D01*
X166305Y11196D01*
X166299Y11172D01*
X166281Y11139D01*
X166223Y10880D01*
X166225Y10858D01*
X166223Y10850D01*
X166224Y10834D01*
X166221Y10819D01*
X166221Y5889D01*
X164828Y5889D01*
X164014Y6108D01*
X163988Y6122D01*
X163924Y6137D01*
X163864Y6160D01*
X163795Y6165D01*
X163728Y6180D01*
X163663Y6175D01*
X163599Y6180D01*
X163532Y6164D01*
X163463Y6159D01*
X163403Y6134D01*
X163340Y6120D01*
X163280Y6085D01*
X163216Y6060D01*
X163166Y6019D01*
X163110Y5986D01*
X163064Y5935D01*
X163010Y5892D01*
X162974Y5838D01*
X162930Y5790D01*
X162901Y5728D01*
X162863Y5671D01*
X162853Y5627D01*
X162816Y5550D01*
X162782Y5307D01*
X162779Y5294D01*
X162779Y3683D01*
X162794Y3581D01*
X162802Y3479D01*
X162814Y3451D01*
X162819Y3420D01*
X162863Y3328D01*
X162901Y3232D01*
X162921Y3209D01*
X162934Y3181D01*
X163004Y3106D01*
X163069Y3026D01*
X163095Y3009D01*
X163116Y2987D01*
X163205Y2936D01*
X163290Y2879D01*
X163314Y2873D01*
X163346Y2855D01*
X163606Y2797D01*
X163644Y2800D01*
X163667Y2795D01*
X222953Y2795D01*
X223044Y2809D01*
G37*
G36*
X27600Y66552D02*
X27600Y66552D01*
X27621Y66550D01*
X27731Y66572D01*
X27842Y66589D01*
X27861Y66598D01*
X27882Y66602D01*
X27920Y66626D01*
X28081Y66704D01*
X28164Y66781D01*
X28207Y66809D01*
X53079Y91681D01*
X53092Y91698D01*
X53108Y91711D01*
X53170Y91804D01*
X53237Y91895D01*
X53244Y91914D01*
X53255Y91932D01*
X53265Y91976D01*
X53324Y92146D01*
X53328Y92258D01*
X53339Y92309D01*
X53339Y94815D01*
X55747Y97222D01*
X55759Y97239D01*
X55776Y97252D01*
X55791Y97276D01*
X55802Y97286D01*
X55828Y97330D01*
X55838Y97346D01*
X55905Y97436D01*
X55912Y97456D01*
X55923Y97474D01*
X55932Y97513D01*
X55934Y97517D01*
X55937Y97530D01*
X55992Y97687D01*
X55996Y97800D01*
X56007Y97850D01*
X56007Y103431D01*
X55992Y103532D01*
X55983Y103635D01*
X55972Y103663D01*
X55967Y103694D01*
X55923Y103786D01*
X55884Y103881D01*
X55865Y103905D01*
X55852Y103933D01*
X55782Y104008D01*
X55717Y104088D01*
X55691Y104105D01*
X55670Y104127D01*
X55581Y104178D01*
X55496Y104235D01*
X55472Y104240D01*
X55439Y104259D01*
X55180Y104317D01*
X55142Y104314D01*
X55119Y104319D01*
X54229Y104319D01*
X54229Y104321D01*
X55119Y104321D01*
X55220Y104336D01*
X55323Y104345D01*
X55351Y104356D01*
X55382Y104361D01*
X55474Y104405D01*
X55569Y104444D01*
X55593Y104463D01*
X55621Y104476D01*
X55696Y104546D01*
X55776Y104611D01*
X55793Y104637D01*
X55815Y104658D01*
X55866Y104747D01*
X55923Y104832D01*
X55928Y104856D01*
X55947Y104889D01*
X56005Y105148D01*
X56002Y105186D01*
X56007Y105209D01*
X56007Y110430D01*
X56004Y110450D01*
X56006Y110471D01*
X55984Y110582D01*
X55967Y110692D01*
X55958Y110711D01*
X55954Y110732D01*
X55930Y110771D01*
X55852Y110932D01*
X55775Y111014D01*
X55747Y111058D01*
X54609Y112195D01*
X54609Y116405D01*
X57585Y119381D01*
X60242Y119381D01*
X60293Y119388D01*
X60345Y119387D01*
X60424Y119408D01*
X60505Y119421D01*
X60551Y119443D01*
X60601Y119457D01*
X60670Y119501D01*
X60744Y119536D01*
X60782Y119571D01*
X60826Y119599D01*
X60879Y119662D01*
X60939Y119718D01*
X60964Y119762D01*
X60998Y119802D01*
X61030Y119877D01*
X61070Y119948D01*
X61082Y119999D01*
X61102Y120046D01*
X61110Y120128D01*
X61128Y120208D01*
X61124Y120259D01*
X61129Y120311D01*
X61113Y120391D01*
X61107Y120473D01*
X61087Y120521D01*
X61077Y120571D01*
X61050Y120615D01*
X61008Y120720D01*
X60895Y120859D01*
X60870Y120897D01*
X57876Y123891D01*
X57859Y123904D01*
X57846Y123920D01*
X57752Y123982D01*
X57662Y124049D01*
X57642Y124056D01*
X57625Y124067D01*
X57580Y124077D01*
X57411Y124136D01*
X57298Y124140D01*
X57248Y124151D01*
X49752Y124151D01*
X47831Y126072D01*
X47831Y135788D01*
X49752Y137709D01*
X59468Y137709D01*
X61389Y135788D01*
X61389Y128292D01*
X61392Y128271D01*
X61390Y128250D01*
X61412Y128140D01*
X61429Y128029D01*
X61438Y128010D01*
X61442Y127990D01*
X61466Y127951D01*
X61544Y127790D01*
X61621Y127707D01*
X61649Y127664D01*
X68155Y121158D01*
X68172Y121145D01*
X68185Y121129D01*
X68279Y121067D01*
X68369Y121000D01*
X68389Y120993D01*
X68406Y120982D01*
X68451Y120972D01*
X68620Y120913D01*
X68733Y120909D01*
X68783Y120898D01*
X70581Y120898D01*
X80798Y110681D01*
X80798Y105312D01*
X80801Y105291D01*
X80799Y105270D01*
X80821Y105160D01*
X80838Y105049D01*
X80847Y105030D01*
X80851Y105010D01*
X80875Y104971D01*
X80953Y104810D01*
X81030Y104727D01*
X81058Y104684D01*
X82754Y102988D01*
X82771Y102975D01*
X82784Y102959D01*
X82878Y102897D01*
X82968Y102830D01*
X82988Y102823D01*
X83005Y102812D01*
X83050Y102802D01*
X83219Y102743D01*
X83332Y102739D01*
X83382Y102728D01*
X87677Y102728D01*
X88063Y102341D01*
X88146Y102281D01*
X88224Y102214D01*
X88252Y102202D01*
X88277Y102184D01*
X88374Y102150D01*
X88468Y102110D01*
X88499Y102106D01*
X88528Y102096D01*
X88631Y102093D01*
X88733Y102082D01*
X88763Y102088D01*
X88794Y102087D01*
X88893Y102114D01*
X88994Y102134D01*
X89014Y102147D01*
X89050Y102157D01*
X89275Y102300D01*
X89299Y102329D01*
X89319Y102341D01*
X89861Y102883D01*
X90553Y103283D01*
X91325Y103490D01*
X92606Y103490D01*
X92606Y95435D01*
X92621Y95334D01*
X92629Y95231D01*
X92641Y95203D01*
X92645Y95172D01*
X92690Y95080D01*
X92728Y94985D01*
X92748Y94961D01*
X92757Y94943D01*
X92747Y94925D01*
X92690Y94840D01*
X92684Y94816D01*
X92666Y94783D01*
X92608Y94524D01*
X92611Y94486D01*
X92606Y94463D01*
X92606Y86397D01*
X92609Y86377D01*
X92607Y86356D01*
X92629Y86245D01*
X92645Y86135D01*
X92655Y86116D01*
X92659Y86095D01*
X92683Y86057D01*
X92711Y86000D01*
X92711Y85137D01*
X92726Y85035D01*
X92734Y84933D01*
X92746Y84905D01*
X92751Y84874D01*
X92795Y84782D01*
X92833Y84686D01*
X92853Y84663D01*
X92866Y84635D01*
X92936Y84560D01*
X93001Y84480D01*
X93027Y84463D01*
X93048Y84441D01*
X93137Y84390D01*
X93222Y84333D01*
X93246Y84327D01*
X93278Y84309D01*
X93538Y84251D01*
X93576Y84254D01*
X93599Y84249D01*
X96064Y84249D01*
X96085Y84252D01*
X96106Y84250D01*
X96216Y84272D01*
X96327Y84289D01*
X96346Y84298D01*
X96366Y84302D01*
X96405Y84326D01*
X96566Y84404D01*
X96649Y84481D01*
X96692Y84509D01*
X97075Y84892D01*
X97106Y84933D01*
X97144Y84969D01*
X97184Y85040D01*
X97233Y85106D01*
X97250Y85155D01*
X97275Y85199D01*
X97293Y85279D01*
X97320Y85357D01*
X97322Y85409D01*
X97333Y85459D01*
X97327Y85541D01*
X97329Y85623D01*
X97316Y85672D01*
X97312Y85724D01*
X97281Y85800D01*
X97260Y85879D01*
X97232Y85923D01*
X97213Y85971D01*
X97161Y86034D01*
X97117Y86103D01*
X97078Y86137D01*
X97045Y86177D01*
X96977Y86222D01*
X96914Y86275D01*
X96867Y86296D01*
X96824Y86324D01*
X96774Y86336D01*
X96670Y86380D01*
X96492Y86398D01*
X96447Y86408D01*
X95354Y86408D01*
X95354Y94463D01*
X95339Y94564D01*
X95331Y94667D01*
X95319Y94695D01*
X95314Y94726D01*
X95270Y94818D01*
X95232Y94913D01*
X95212Y94937D01*
X95203Y94955D01*
X95213Y94973D01*
X95270Y95058D01*
X95276Y95082D01*
X95294Y95115D01*
X95352Y95374D01*
X95349Y95412D01*
X95354Y95435D01*
X95354Y103490D01*
X96635Y103490D01*
X97407Y103283D01*
X98099Y102883D01*
X98641Y102341D01*
X98723Y102281D01*
X98802Y102214D01*
X98830Y102202D01*
X98855Y102184D01*
X98952Y102150D01*
X99046Y102110D01*
X99077Y102106D01*
X99106Y102096D01*
X99208Y102093D01*
X99311Y102082D01*
X99341Y102088D01*
X99371Y102087D01*
X99470Y102114D01*
X99571Y102134D01*
X99591Y102147D01*
X99628Y102157D01*
X99852Y102300D01*
X99877Y102329D01*
X99897Y102341D01*
X100283Y102728D01*
X103128Y102728D01*
X103149Y102731D01*
X103170Y102729D01*
X103280Y102751D01*
X103391Y102768D01*
X103410Y102777D01*
X103431Y102781D01*
X103469Y102805D01*
X103630Y102883D01*
X103713Y102960D01*
X103756Y102988D01*
X106654Y105885D01*
X106714Y105968D01*
X106781Y106046D01*
X106793Y106074D01*
X106811Y106099D01*
X106845Y106196D01*
X106885Y106290D01*
X106888Y106321D01*
X106899Y106350D01*
X106902Y106453D01*
X106913Y106555D01*
X106907Y106585D01*
X106908Y106616D01*
X106881Y106715D01*
X106861Y106815D01*
X106848Y106836D01*
X106838Y106872D01*
X106695Y107097D01*
X106666Y107121D01*
X106654Y107141D01*
X105409Y108385D01*
X105409Y112284D01*
X105394Y112386D01*
X105386Y112488D01*
X105374Y112516D01*
X105369Y112547D01*
X105325Y112639D01*
X105287Y112735D01*
X105267Y112758D01*
X105254Y112786D01*
X105184Y112861D01*
X105119Y112941D01*
X105093Y112958D01*
X105072Y112980D01*
X104983Y113031D01*
X104898Y113088D01*
X104874Y113094D01*
X104842Y113112D01*
X104582Y113170D01*
X104544Y113167D01*
X104521Y113172D01*
X100283Y113172D01*
X98951Y114504D01*
X98951Y117014D01*
X98936Y117116D01*
X98928Y117218D01*
X98916Y117246D01*
X98911Y117277D01*
X98867Y117369D01*
X98829Y117465D01*
X98809Y117488D01*
X98796Y117516D01*
X98726Y117591D01*
X98661Y117671D01*
X98635Y117688D01*
X98614Y117710D01*
X98525Y117761D01*
X98440Y117818D01*
X98416Y117824D01*
X98384Y117842D01*
X98124Y117900D01*
X98086Y117897D01*
X98063Y117902D01*
X97515Y117902D01*
X97495Y117899D01*
X97474Y117901D01*
X97363Y117879D01*
X97253Y117862D01*
X97234Y117853D01*
X97213Y117849D01*
X97175Y117825D01*
X97013Y117747D01*
X96931Y117670D01*
X96887Y117642D01*
X96085Y116839D01*
X91875Y116839D01*
X90525Y118190D01*
X90484Y118220D01*
X90448Y118258D01*
X90377Y118299D01*
X90311Y118347D01*
X90262Y118364D01*
X90218Y118390D01*
X90138Y118408D01*
X90060Y118435D01*
X90008Y118437D01*
X89958Y118448D01*
X89876Y118441D01*
X89794Y118444D01*
X89745Y118430D01*
X89693Y118426D01*
X89617Y118396D01*
X89538Y118374D01*
X89494Y118346D01*
X89446Y118327D01*
X89383Y118275D01*
X89314Y118231D01*
X89280Y118192D01*
X89240Y118160D01*
X89195Y118091D01*
X89142Y118029D01*
X89121Y117981D01*
X89093Y117938D01*
X89081Y117888D01*
X89037Y117784D01*
X89019Y117606D01*
X89009Y117562D01*
X89009Y114504D01*
X87677Y113172D01*
X81283Y113172D01*
X79951Y114504D01*
X79951Y124776D01*
X79948Y124797D01*
X79950Y124818D01*
X79928Y124928D01*
X79911Y125039D01*
X79902Y125058D01*
X79898Y125078D01*
X79874Y125117D01*
X79796Y125278D01*
X79719Y125361D01*
X79691Y125404D01*
X79165Y125930D01*
X79148Y125943D01*
X79135Y125959D01*
X79041Y126021D01*
X78951Y126088D01*
X78931Y126095D01*
X78914Y126106D01*
X78869Y126116D01*
X78700Y126175D01*
X78587Y126179D01*
X78537Y126190D01*
X75857Y126190D01*
X72386Y129661D01*
X72369Y129674D01*
X72356Y129690D01*
X72262Y129752D01*
X72172Y129819D01*
X72152Y129826D01*
X72135Y129837D01*
X72090Y129847D01*
X71921Y129906D01*
X71808Y129910D01*
X71758Y129921D01*
X67682Y129921D01*
X66341Y131262D01*
X66341Y138138D01*
X66736Y138533D01*
X66797Y138616D01*
X66864Y138694D01*
X66876Y138722D01*
X66894Y138747D01*
X66928Y138844D01*
X66968Y138938D01*
X66971Y138969D01*
X66981Y138998D01*
X66985Y139101D01*
X66996Y139203D01*
X66990Y139233D01*
X66991Y139264D01*
X66964Y139363D01*
X66943Y139464D01*
X66931Y139484D01*
X66921Y139520D01*
X66778Y139745D01*
X66749Y139769D01*
X66736Y139789D01*
X66189Y140337D01*
X65787Y141032D01*
X65579Y141808D01*
X65579Y143201D01*
X70509Y143201D01*
X70610Y143216D01*
X70713Y143224D01*
X70741Y143236D01*
X70772Y143240D01*
X70864Y143285D01*
X70959Y143323D01*
X70983Y143343D01*
X71011Y143356D01*
X71086Y143426D01*
X71166Y143491D01*
X71183Y143517D01*
X71205Y143538D01*
X71256Y143627D01*
X71313Y143712D01*
X71318Y143736D01*
X71337Y143768D01*
X71395Y144028D01*
X71392Y144066D01*
X71397Y144089D01*
X71397Y144423D01*
X71731Y144423D01*
X71833Y144438D01*
X71935Y144447D01*
X71963Y144458D01*
X71994Y144463D01*
X72086Y144507D01*
X72182Y144546D01*
X72205Y144565D01*
X72233Y144578D01*
X72308Y144649D01*
X72388Y144713D01*
X72405Y144739D01*
X72427Y144760D01*
X72478Y144849D01*
X72535Y144934D01*
X72541Y144958D01*
X72559Y144991D01*
X72617Y145250D01*
X72614Y145288D01*
X72619Y145311D01*
X72619Y150241D01*
X74012Y150241D01*
X74788Y150033D01*
X75483Y149631D01*
X76111Y149004D01*
X76193Y148943D01*
X76272Y148876D01*
X76300Y148864D01*
X76325Y148846D01*
X76422Y148812D01*
X76516Y148772D01*
X76547Y148769D01*
X76576Y148759D01*
X76678Y148755D01*
X76781Y148744D01*
X76811Y148750D01*
X76841Y148749D01*
X76940Y148776D01*
X77041Y148797D01*
X77061Y148809D01*
X77098Y148819D01*
X77322Y148962D01*
X77347Y148991D01*
X77367Y149004D01*
X77842Y149479D01*
X81379Y149479D01*
X81400Y149482D01*
X81421Y149480D01*
X81531Y149502D01*
X81642Y149519D01*
X81661Y149528D01*
X81682Y149532D01*
X81720Y149556D01*
X81881Y149634D01*
X81964Y149711D01*
X82007Y149739D01*
X83051Y150783D01*
X83064Y150800D01*
X83080Y150813D01*
X83142Y150906D01*
X83209Y150997D01*
X83216Y151016D01*
X83227Y151034D01*
X83237Y151078D01*
X83296Y151248D01*
X83300Y151360D01*
X83311Y151411D01*
X83311Y157039D01*
X83308Y157060D01*
X83310Y157081D01*
X83288Y157191D01*
X83271Y157302D01*
X83262Y157321D01*
X83258Y157342D01*
X83234Y157380D01*
X83156Y157541D01*
X83079Y157624D01*
X83051Y157667D01*
X79114Y161604D01*
X79073Y161635D01*
X79037Y161673D01*
X78966Y161713D01*
X78900Y161762D01*
X78851Y161779D01*
X78807Y161805D01*
X78727Y161822D01*
X78649Y161849D01*
X78597Y161851D01*
X78547Y161862D01*
X78465Y161856D01*
X78383Y161859D01*
X78334Y161845D01*
X78282Y161841D01*
X78206Y161810D01*
X78127Y161789D01*
X78083Y161761D01*
X78035Y161742D01*
X77972Y161690D01*
X77903Y161646D01*
X77869Y161607D01*
X77829Y161574D01*
X77784Y161506D01*
X77731Y161443D01*
X77710Y161396D01*
X77682Y161353D01*
X77670Y161303D01*
X77626Y161199D01*
X77608Y161021D01*
X77598Y160976D01*
X77598Y158303D01*
X76266Y156971D01*
X68768Y156971D01*
X67938Y157802D01*
X67855Y157862D01*
X67777Y157929D01*
X67749Y157941D01*
X67724Y157959D01*
X67627Y157993D01*
X67533Y158033D01*
X67502Y158036D01*
X67473Y158047D01*
X67370Y158050D01*
X67268Y158061D01*
X67238Y158055D01*
X67207Y158056D01*
X67108Y158029D01*
X67008Y158009D01*
X66987Y157996D01*
X66951Y157986D01*
X66727Y157843D01*
X66702Y157814D01*
X66682Y157802D01*
X65852Y156971D01*
X61194Y156971D01*
X61173Y156968D01*
X61152Y156970D01*
X61042Y156948D01*
X60931Y156931D01*
X60912Y156922D01*
X60891Y156918D01*
X60853Y156894D01*
X60692Y156816D01*
X60609Y156739D01*
X60566Y156711D01*
X59914Y156059D01*
X59853Y155977D01*
X59786Y155898D01*
X59774Y155870D01*
X59756Y155845D01*
X59722Y155748D01*
X59682Y155654D01*
X59679Y155623D01*
X59669Y155594D01*
X59665Y155492D01*
X59655Y155389D01*
X59661Y155359D01*
X59660Y155328D01*
X59687Y155229D01*
X59707Y155129D01*
X59719Y155109D01*
X59729Y155072D01*
X59872Y154848D01*
X59901Y154823D01*
X59914Y154803D01*
X61389Y153328D01*
X61389Y143612D01*
X59468Y141691D01*
X49752Y141691D01*
X47831Y143612D01*
X47831Y153328D01*
X49752Y155249D01*
X50673Y155249D01*
X50775Y155264D01*
X50877Y155272D01*
X50905Y155284D01*
X50936Y155289D01*
X51028Y155333D01*
X51124Y155371D01*
X51147Y155391D01*
X51175Y155404D01*
X51250Y155474D01*
X51330Y155539D01*
X51347Y155565D01*
X51369Y155586D01*
X51420Y155675D01*
X51477Y155760D01*
X51483Y155784D01*
X51501Y155816D01*
X51559Y156076D01*
X51556Y156114D01*
X51561Y156137D01*
X51561Y156330D01*
X56762Y161531D01*
X56775Y161548D01*
X56791Y161561D01*
X56853Y161654D01*
X56920Y161745D01*
X56927Y161764D01*
X56938Y161782D01*
X56948Y161826D01*
X57007Y161996D01*
X57011Y162108D01*
X57022Y162159D01*
X57022Y171897D01*
X58354Y173229D01*
X65852Y173229D01*
X66682Y172398D01*
X66765Y172338D01*
X66843Y172271D01*
X66871Y172259D01*
X66896Y172241D01*
X66993Y172207D01*
X67087Y172167D01*
X67118Y172163D01*
X67147Y172153D01*
X67249Y172150D01*
X67352Y172139D01*
X67382Y172145D01*
X67413Y172144D01*
X67512Y172171D01*
X67612Y172191D01*
X67632Y172204D01*
X67669Y172214D01*
X67893Y172357D01*
X67918Y172386D01*
X67938Y172398D01*
X68768Y173229D01*
X76266Y173229D01*
X77598Y171897D01*
X77598Y169037D01*
X77613Y168935D01*
X77621Y168833D01*
X77633Y168805D01*
X77638Y168774D01*
X77682Y168682D01*
X77720Y168586D01*
X77740Y168563D01*
X77753Y168535D01*
X77823Y168460D01*
X77888Y168380D01*
X77914Y168363D01*
X77935Y168341D01*
X78024Y168290D01*
X78109Y168233D01*
X78133Y168227D01*
X78165Y168209D01*
X78425Y168151D01*
X78463Y168154D01*
X78486Y168149D01*
X81193Y168149D01*
X89409Y159933D01*
X89409Y151129D01*
X89424Y151027D01*
X89432Y150925D01*
X89444Y150897D01*
X89449Y150866D01*
X89493Y150774D01*
X89531Y150678D01*
X89551Y150655D01*
X89564Y150627D01*
X89634Y150552D01*
X89699Y150472D01*
X89725Y150455D01*
X89746Y150433D01*
X89835Y150382D01*
X89920Y150325D01*
X89941Y150320D01*
X89941Y145311D01*
X89956Y145210D01*
X89964Y145107D01*
X89976Y145079D01*
X89980Y145048D01*
X90025Y144956D01*
X90063Y144861D01*
X90083Y144837D01*
X90096Y144809D01*
X90166Y144734D01*
X90231Y144654D01*
X90257Y144637D01*
X90278Y144615D01*
X90367Y144564D01*
X90452Y144507D01*
X90476Y144502D01*
X90508Y144483D01*
X90768Y144425D01*
X90806Y144428D01*
X90829Y144423D01*
X91163Y144423D01*
X91163Y144089D01*
X91178Y143987D01*
X91187Y143885D01*
X91198Y143857D01*
X91203Y143826D01*
X91247Y143734D01*
X91286Y143638D01*
X91305Y143615D01*
X91318Y143587D01*
X91389Y143512D01*
X91453Y143432D01*
X91479Y143415D01*
X91500Y143393D01*
X91589Y143342D01*
X91674Y143285D01*
X91698Y143279D01*
X91731Y143261D01*
X91990Y143203D01*
X92028Y143206D01*
X92051Y143201D01*
X100989Y143201D01*
X101090Y143216D01*
X101193Y143224D01*
X101221Y143236D01*
X101252Y143240D01*
X101344Y143285D01*
X101439Y143323D01*
X101463Y143343D01*
X101491Y143356D01*
X101566Y143426D01*
X101646Y143491D01*
X101663Y143517D01*
X101685Y143538D01*
X101736Y143627D01*
X101793Y143712D01*
X101798Y143736D01*
X101817Y143768D01*
X101875Y144028D01*
X101872Y144066D01*
X101877Y144089D01*
X101877Y144423D01*
X102211Y144423D01*
X102313Y144438D01*
X102415Y144447D01*
X102443Y144458D01*
X102474Y144463D01*
X102566Y144507D01*
X102662Y144546D01*
X102685Y144565D01*
X102713Y144578D01*
X102788Y144649D01*
X102868Y144713D01*
X102885Y144739D01*
X102907Y144760D01*
X102958Y144849D01*
X103015Y144934D01*
X103021Y144958D01*
X103039Y144991D01*
X103097Y145250D01*
X103094Y145288D01*
X103099Y145311D01*
X103099Y150241D01*
X104492Y150241D01*
X105268Y150033D01*
X105963Y149631D01*
X106591Y149004D01*
X106673Y148943D01*
X106752Y148876D01*
X106780Y148864D01*
X106805Y148846D01*
X106902Y148812D01*
X106996Y148772D01*
X107027Y148769D01*
X107056Y148759D01*
X107158Y148755D01*
X107260Y148744D01*
X107291Y148750D01*
X107321Y148749D01*
X107420Y148776D01*
X107521Y148797D01*
X107541Y148809D01*
X107578Y148819D01*
X107802Y148962D01*
X107827Y148991D01*
X107847Y149004D01*
X108083Y149239D01*
X108144Y149322D01*
X108210Y149400D01*
X108222Y149429D01*
X108240Y149453D01*
X108274Y149550D01*
X108315Y149645D01*
X108318Y149675D01*
X108328Y149705D01*
X108331Y149807D01*
X108342Y149909D01*
X108336Y149939D01*
X108337Y149970D01*
X108310Y150069D01*
X108290Y150170D01*
X108277Y150190D01*
X108267Y150227D01*
X108124Y150451D01*
X108096Y150476D01*
X108083Y150496D01*
X98057Y160521D01*
X98040Y160534D01*
X98027Y160550D01*
X97934Y160612D01*
X97843Y160679D01*
X97824Y160686D01*
X97806Y160697D01*
X97762Y160707D01*
X97592Y160766D01*
X97480Y160770D01*
X97429Y160781D01*
X97214Y160781D01*
X97194Y160778D01*
X97173Y160780D01*
X97062Y160758D01*
X96952Y160741D01*
X96933Y160732D01*
X96912Y160728D01*
X96874Y160704D01*
X96712Y160626D01*
X96630Y160549D01*
X96586Y160521D01*
X96085Y160019D01*
X91875Y160019D01*
X88899Y162995D01*
X88899Y167205D01*
X91875Y170181D01*
X96085Y170181D01*
X99126Y167139D01*
X99143Y167126D01*
X99157Y167110D01*
X99250Y167048D01*
X99340Y166981D01*
X99360Y166974D01*
X99378Y166963D01*
X99422Y166953D01*
X99591Y166894D01*
X99704Y166890D01*
X99754Y166879D01*
X100323Y166879D01*
X107943Y159259D01*
X107984Y159228D01*
X108020Y159190D01*
X108091Y159150D01*
X108157Y159101D01*
X108206Y159084D01*
X108250Y159058D01*
X108330Y159041D01*
X108408Y159014D01*
X108460Y159012D01*
X108510Y159001D01*
X108592Y159007D01*
X108674Y159004D01*
X108723Y159018D01*
X108775Y159022D01*
X108851Y159053D01*
X108930Y159074D01*
X108974Y159102D01*
X109022Y159121D01*
X109085Y159173D01*
X109154Y159217D01*
X109188Y159256D01*
X109228Y159289D01*
X109273Y159357D01*
X109326Y159420D01*
X109347Y159467D01*
X109375Y159510D01*
X109387Y159560D01*
X109431Y159664D01*
X109449Y159842D01*
X109459Y159887D01*
X109459Y177123D01*
X115223Y177123D01*
X115223Y153217D01*
X115195Y153204D01*
X115120Y153134D01*
X115040Y153069D01*
X115023Y153043D01*
X115001Y153022D01*
X114950Y152933D01*
X114893Y152848D01*
X114887Y152824D01*
X114869Y152792D01*
X114811Y152532D01*
X114814Y152494D01*
X114809Y152471D01*
X114809Y150236D01*
X114812Y150215D01*
X114810Y150194D01*
X114827Y150108D01*
X114832Y150040D01*
X114842Y150017D01*
X114849Y149973D01*
X114858Y149954D01*
X114862Y149934D01*
X114886Y149895D01*
X114913Y149840D01*
X114931Y149794D01*
X114941Y149782D01*
X114964Y149734D01*
X115041Y149651D01*
X115069Y149608D01*
X115673Y149004D01*
X115756Y148943D01*
X115834Y148876D01*
X115862Y148864D01*
X115887Y148846D01*
X115984Y148812D01*
X116078Y148772D01*
X116109Y148769D01*
X116138Y148759D01*
X116241Y148755D01*
X116343Y148744D01*
X116373Y148750D01*
X116404Y148749D01*
X116503Y148776D01*
X116604Y148797D01*
X116624Y148809D01*
X116660Y148819D01*
X116885Y148962D01*
X116909Y148991D01*
X116929Y149004D01*
X117557Y149631D01*
X118252Y150033D01*
X119028Y150241D01*
X120421Y150241D01*
X120421Y145311D01*
X120436Y145210D01*
X120444Y145107D01*
X120456Y145079D01*
X120460Y145048D01*
X120505Y144956D01*
X120543Y144861D01*
X120563Y144837D01*
X120576Y144809D01*
X120646Y144734D01*
X120711Y144654D01*
X120737Y144637D01*
X120758Y144615D01*
X120847Y144564D01*
X120932Y144507D01*
X120956Y144502D01*
X120988Y144483D01*
X121248Y144425D01*
X121286Y144428D01*
X121309Y144423D01*
X122531Y144423D01*
X122633Y144438D01*
X122735Y144447D01*
X122763Y144458D01*
X122794Y144463D01*
X122886Y144507D01*
X122982Y144546D01*
X123005Y144565D01*
X123033Y144578D01*
X123108Y144649D01*
X123188Y144713D01*
X123205Y144739D01*
X123227Y144760D01*
X123278Y144849D01*
X123335Y144934D01*
X123341Y144958D01*
X123359Y144991D01*
X123417Y145250D01*
X123414Y145288D01*
X123419Y145311D01*
X123419Y150241D01*
X124812Y150241D01*
X125588Y150033D01*
X126283Y149631D01*
X126911Y149004D01*
X126993Y148943D01*
X127072Y148876D01*
X127100Y148864D01*
X127125Y148846D01*
X127222Y148812D01*
X127316Y148772D01*
X127347Y148769D01*
X127376Y148759D01*
X127478Y148755D01*
X127581Y148744D01*
X127611Y148750D01*
X127641Y148749D01*
X127740Y148776D01*
X127841Y148797D01*
X127861Y148809D01*
X127898Y148819D01*
X128122Y148962D01*
X128147Y148991D01*
X128167Y149004D01*
X128771Y149608D01*
X128784Y149625D01*
X128800Y149638D01*
X128832Y149686D01*
X128839Y149693D01*
X128857Y149724D01*
X128862Y149732D01*
X128929Y149822D01*
X128936Y149842D01*
X128947Y149859D01*
X128956Y149896D01*
X128971Y149924D01*
X128984Y149981D01*
X129016Y150073D01*
X129018Y150134D01*
X129029Y150183D01*
X129027Y150215D01*
X129031Y150236D01*
X129031Y151123D01*
X131165Y153256D01*
X131226Y153339D01*
X131292Y153417D01*
X131304Y153446D01*
X131323Y153470D01*
X131356Y153567D01*
X131397Y153662D01*
X131400Y153692D01*
X131410Y153721D01*
X131413Y153824D01*
X131424Y153926D01*
X131418Y153956D01*
X131419Y153987D01*
X131392Y154086D01*
X131372Y154187D01*
X131359Y154207D01*
X131349Y154244D01*
X131207Y154468D01*
X131178Y154492D01*
X131165Y154513D01*
X130221Y155456D01*
X130221Y196843D01*
X130206Y196945D01*
X130198Y197047D01*
X130186Y197075D01*
X130181Y197106D01*
X130137Y197198D01*
X130099Y197294D01*
X130079Y197317D01*
X130066Y197345D01*
X129996Y197420D01*
X129931Y197500D01*
X129905Y197517D01*
X129884Y197539D01*
X129795Y197590D01*
X129710Y197647D01*
X129686Y197653D01*
X129654Y197671D01*
X129394Y197729D01*
X129356Y197726D01*
X129333Y197731D01*
X125429Y197731D01*
X125327Y197716D01*
X125225Y197708D01*
X125197Y197696D01*
X125166Y197691D01*
X125074Y197647D01*
X124978Y197609D01*
X124955Y197589D01*
X124927Y197576D01*
X124852Y197506D01*
X124772Y197441D01*
X124755Y197415D01*
X124733Y197394D01*
X124682Y197305D01*
X124625Y197220D01*
X124619Y197196D01*
X124601Y197164D01*
X124543Y196904D01*
X124546Y196866D01*
X124541Y196843D01*
X124541Y180677D01*
X117889Y180677D01*
X117788Y180662D01*
X117685Y180653D01*
X117657Y180642D01*
X117626Y180637D01*
X117534Y180593D01*
X117439Y180554D01*
X117415Y180535D01*
X117387Y180522D01*
X117312Y180452D01*
X117232Y180387D01*
X117215Y180361D01*
X117193Y180340D01*
X117142Y180251D01*
X117085Y180166D01*
X117080Y180142D01*
X117061Y180109D01*
X117003Y179850D01*
X117006Y179812D01*
X117001Y179789D01*
X117001Y178899D01*
X116999Y178899D01*
X116999Y179789D01*
X116984Y179890D01*
X116975Y179993D01*
X116964Y180021D01*
X116959Y180052D01*
X116915Y180144D01*
X116876Y180239D01*
X116857Y180263D01*
X116844Y180291D01*
X116774Y180366D01*
X116709Y180446D01*
X116683Y180463D01*
X116662Y180485D01*
X116573Y180536D01*
X116488Y180593D01*
X116464Y180598D01*
X116431Y180617D01*
X116172Y180675D01*
X116134Y180672D01*
X116111Y180677D01*
X109459Y180677D01*
X109459Y196843D01*
X109444Y196945D01*
X109436Y197047D01*
X109424Y197075D01*
X109419Y197106D01*
X109375Y197198D01*
X109337Y197294D01*
X109317Y197317D01*
X109304Y197345D01*
X109234Y197420D01*
X109169Y197500D01*
X109143Y197517D01*
X109122Y197539D01*
X109033Y197590D01*
X108948Y197647D01*
X108924Y197653D01*
X108892Y197671D01*
X108632Y197729D01*
X108594Y197726D01*
X108571Y197731D01*
X60263Y197731D01*
X59221Y198773D01*
X59221Y199390D01*
X59206Y199492D01*
X59198Y199594D01*
X59186Y199622D01*
X59181Y199653D01*
X59137Y199745D01*
X59099Y199841D01*
X59079Y199864D01*
X59066Y199892D01*
X58996Y199967D01*
X58931Y200047D01*
X58905Y200064D01*
X58884Y200086D01*
X58795Y200137D01*
X58710Y200194D01*
X58686Y200200D01*
X58654Y200218D01*
X58394Y200276D01*
X58356Y200273D01*
X58333Y200278D01*
X20872Y200278D01*
X20821Y200271D01*
X20770Y200272D01*
X20691Y200251D01*
X20610Y200238D01*
X20563Y200216D01*
X20513Y200202D01*
X20444Y200158D01*
X20370Y200123D01*
X20333Y200087D01*
X20289Y200060D01*
X20236Y199997D01*
X20176Y199941D01*
X20150Y199897D01*
X20117Y199857D01*
X20085Y199782D01*
X20044Y199711D01*
X20033Y199660D01*
X20013Y199613D01*
X20004Y199531D01*
X19986Y199451D01*
X19990Y199400D01*
X19985Y199348D01*
X20001Y199268D01*
X20008Y199186D01*
X20027Y199138D01*
X20037Y199088D01*
X20065Y199044D01*
X20107Y198939D01*
X20220Y198800D01*
X20244Y198762D01*
X22175Y196831D01*
X23877Y192723D01*
X23877Y188277D01*
X22175Y184169D01*
X19031Y181025D01*
X14923Y179323D01*
X10477Y179323D01*
X6369Y181025D01*
X4311Y183083D01*
X4270Y183113D01*
X4234Y183151D01*
X4163Y183192D01*
X4097Y183240D01*
X4048Y183257D01*
X4004Y183283D01*
X3924Y183301D01*
X3846Y183328D01*
X3794Y183330D01*
X3744Y183341D01*
X3662Y183334D01*
X3580Y183337D01*
X3531Y183323D01*
X3479Y183319D01*
X3403Y183289D01*
X3324Y183267D01*
X3280Y183239D01*
X3232Y183220D01*
X3169Y183168D01*
X3100Y183124D01*
X3066Y183085D01*
X3026Y183053D01*
X2981Y182984D01*
X2928Y182922D01*
X2907Y182874D01*
X2879Y182831D01*
X2867Y182781D01*
X2823Y182677D01*
X2805Y182499D01*
X2795Y182455D01*
X2795Y173145D01*
X2802Y173094D01*
X2801Y173043D01*
X2822Y172964D01*
X2835Y172883D01*
X2857Y172836D01*
X2871Y172786D01*
X2915Y172717D01*
X2950Y172643D01*
X2985Y172606D01*
X3013Y172562D01*
X3076Y172509D01*
X3132Y172449D01*
X3176Y172423D01*
X3216Y172390D01*
X3291Y172358D01*
X3362Y172317D01*
X3413Y172306D01*
X3460Y172286D01*
X3542Y172277D01*
X3622Y172259D01*
X3673Y172263D01*
X3725Y172258D01*
X3805Y172274D01*
X3887Y172281D01*
X3935Y172300D01*
X3985Y172310D01*
X4029Y172338D01*
X4134Y172380D01*
X4273Y172493D01*
X4311Y172517D01*
X6369Y174575D01*
X10477Y176277D01*
X14923Y176277D01*
X19031Y174575D01*
X22175Y171431D01*
X23877Y167323D01*
X23877Y162877D01*
X22175Y158769D01*
X19031Y155625D01*
X14923Y153923D01*
X10477Y153923D01*
X6369Y155625D01*
X4311Y157683D01*
X4270Y157713D01*
X4234Y157751D01*
X4163Y157792D01*
X4097Y157840D01*
X4048Y157857D01*
X4004Y157883D01*
X3924Y157901D01*
X3846Y157928D01*
X3794Y157930D01*
X3744Y157941D01*
X3662Y157934D01*
X3580Y157937D01*
X3531Y157923D01*
X3479Y157919D01*
X3403Y157889D01*
X3324Y157867D01*
X3280Y157839D01*
X3232Y157820D01*
X3169Y157768D01*
X3100Y157724D01*
X3066Y157685D01*
X3026Y157653D01*
X2981Y157584D01*
X2928Y157522D01*
X2907Y157474D01*
X2879Y157431D01*
X2867Y157381D01*
X2823Y157277D01*
X2805Y157099D01*
X2795Y157055D01*
X2795Y147745D01*
X2802Y147694D01*
X2801Y147643D01*
X2822Y147564D01*
X2835Y147483D01*
X2857Y147436D01*
X2871Y147386D01*
X2915Y147317D01*
X2950Y147243D01*
X2985Y147206D01*
X3013Y147162D01*
X3076Y147109D01*
X3132Y147049D01*
X3176Y147023D01*
X3216Y146990D01*
X3291Y146958D01*
X3362Y146917D01*
X3413Y146906D01*
X3460Y146886D01*
X3542Y146877D01*
X3622Y146859D01*
X3673Y146863D01*
X3725Y146858D01*
X3805Y146874D01*
X3887Y146881D01*
X3935Y146900D01*
X3985Y146910D01*
X4029Y146938D01*
X4134Y146980D01*
X4273Y147093D01*
X4311Y147117D01*
X6369Y149175D01*
X10477Y150877D01*
X14923Y150877D01*
X19031Y149175D01*
X22175Y146031D01*
X23877Y141923D01*
X23877Y137477D01*
X22175Y133369D01*
X19031Y130225D01*
X14923Y128523D01*
X10477Y128523D01*
X6369Y130225D01*
X4311Y132283D01*
X4270Y132313D01*
X4234Y132351D01*
X4163Y132392D01*
X4097Y132440D01*
X4048Y132457D01*
X4004Y132483D01*
X3924Y132501D01*
X3846Y132528D01*
X3794Y132530D01*
X3744Y132541D01*
X3662Y132534D01*
X3580Y132537D01*
X3531Y132523D01*
X3479Y132519D01*
X3403Y132489D01*
X3324Y132467D01*
X3280Y132439D01*
X3232Y132420D01*
X3169Y132368D01*
X3100Y132324D01*
X3066Y132285D01*
X3026Y132253D01*
X2981Y132184D01*
X2928Y132122D01*
X2907Y132074D01*
X2879Y132031D01*
X2867Y131981D01*
X2823Y131877D01*
X2805Y131699D01*
X2795Y131655D01*
X2795Y122345D01*
X2802Y122294D01*
X2801Y122243D01*
X2822Y122164D01*
X2835Y122083D01*
X2857Y122036D01*
X2871Y121986D01*
X2915Y121917D01*
X2950Y121843D01*
X2985Y121806D01*
X3013Y121762D01*
X3076Y121709D01*
X3132Y121649D01*
X3176Y121623D01*
X3216Y121590D01*
X3291Y121558D01*
X3362Y121517D01*
X3413Y121506D01*
X3460Y121486D01*
X3542Y121477D01*
X3622Y121459D01*
X3673Y121463D01*
X3725Y121458D01*
X3805Y121474D01*
X3887Y121481D01*
X3935Y121500D01*
X3985Y121510D01*
X4029Y121538D01*
X4134Y121580D01*
X4273Y121693D01*
X4311Y121717D01*
X6369Y123775D01*
X10477Y125477D01*
X14923Y125477D01*
X19031Y123775D01*
X22175Y120631D01*
X23877Y116523D01*
X23877Y112077D01*
X22175Y107969D01*
X19031Y104825D01*
X14923Y103123D01*
X10477Y103123D01*
X6369Y104825D01*
X4311Y106883D01*
X4270Y106913D01*
X4234Y106951D01*
X4163Y106992D01*
X4097Y107040D01*
X4048Y107057D01*
X4004Y107083D01*
X3924Y107101D01*
X3846Y107128D01*
X3794Y107130D01*
X3744Y107141D01*
X3662Y107134D01*
X3580Y107137D01*
X3531Y107123D01*
X3479Y107119D01*
X3403Y107089D01*
X3324Y107067D01*
X3280Y107039D01*
X3232Y107020D01*
X3169Y106968D01*
X3100Y106924D01*
X3066Y106885D01*
X3026Y106853D01*
X2981Y106784D01*
X2928Y106722D01*
X2907Y106674D01*
X2879Y106631D01*
X2867Y106581D01*
X2823Y106477D01*
X2805Y106299D01*
X2795Y106255D01*
X2795Y96945D01*
X2802Y96894D01*
X2801Y96843D01*
X2815Y96791D01*
X2818Y96745D01*
X2829Y96719D01*
X2835Y96683D01*
X2857Y96636D01*
X2871Y96586D01*
X2902Y96536D01*
X2917Y96499D01*
X2932Y96480D01*
X2950Y96443D01*
X2985Y96406D01*
X3013Y96362D01*
X3062Y96320D01*
X3085Y96292D01*
X3101Y96282D01*
X3132Y96249D01*
X3176Y96223D01*
X3216Y96190D01*
X3279Y96163D01*
X3306Y96145D01*
X3319Y96142D01*
X3362Y96117D01*
X3413Y96106D01*
X3460Y96086D01*
X3542Y96077D01*
X3622Y96059D01*
X3672Y96063D01*
X3683Y96061D01*
X3687Y96061D01*
X3691Y96062D01*
X3725Y96058D01*
X3805Y96074D01*
X3887Y96081D01*
X3928Y96098D01*
X3950Y96101D01*
X3958Y96105D01*
X3985Y96110D01*
X4029Y96138D01*
X4134Y96180D01*
X4163Y96204D01*
X4189Y96217D01*
X4258Y96281D01*
X4273Y96293D01*
X4311Y96317D01*
X6369Y98375D01*
X10477Y100077D01*
X14923Y100077D01*
X19031Y98375D01*
X22175Y95231D01*
X23877Y91123D01*
X23877Y86677D01*
X22175Y82569D01*
X19031Y79425D01*
X14923Y77723D01*
X10477Y77723D01*
X6369Y79425D01*
X4311Y81483D01*
X4270Y81513D01*
X4234Y81551D01*
X4163Y81592D01*
X4097Y81640D01*
X4048Y81657D01*
X4004Y81683D01*
X3924Y81701D01*
X3846Y81728D01*
X3794Y81730D01*
X3744Y81741D01*
X3662Y81734D01*
X3580Y81737D01*
X3531Y81723D01*
X3479Y81719D01*
X3403Y81689D01*
X3324Y81667D01*
X3280Y81639D01*
X3232Y81620D01*
X3169Y81568D01*
X3100Y81524D01*
X3066Y81485D01*
X3026Y81453D01*
X2981Y81384D01*
X2928Y81322D01*
X2907Y81274D01*
X2879Y81231D01*
X2867Y81181D01*
X2823Y81077D01*
X2805Y80899D01*
X2795Y80855D01*
X2795Y71545D01*
X2802Y71494D01*
X2801Y71443D01*
X2822Y71364D01*
X2835Y71283D01*
X2857Y71236D01*
X2871Y71186D01*
X2915Y71117D01*
X2950Y71043D01*
X2985Y71006D01*
X3013Y70962D01*
X3076Y70909D01*
X3132Y70849D01*
X3176Y70823D01*
X3216Y70790D01*
X3291Y70758D01*
X3362Y70717D01*
X3413Y70706D01*
X3460Y70686D01*
X3542Y70677D01*
X3622Y70659D01*
X3673Y70663D01*
X3725Y70658D01*
X3805Y70674D01*
X3887Y70681D01*
X3935Y70700D01*
X3985Y70710D01*
X4029Y70738D01*
X4134Y70780D01*
X4273Y70893D01*
X4311Y70917D01*
X6369Y72975D01*
X10477Y74677D01*
X14923Y74677D01*
X19031Y72975D01*
X22175Y69831D01*
X23308Y67097D01*
X23340Y67044D01*
X23363Y66986D01*
X23408Y66931D01*
X23445Y66869D01*
X23491Y66828D01*
X23530Y66780D01*
X23590Y66740D01*
X23644Y66693D01*
X23700Y66667D01*
X23751Y66633D01*
X23799Y66622D01*
X23885Y66583D01*
X24098Y66556D01*
X24128Y66549D01*
X27579Y66549D01*
X27600Y66552D01*
G37*
G36*
X90435Y2810D02*
X90435Y2810D01*
X90537Y2818D01*
X90565Y2830D01*
X90596Y2835D01*
X90688Y2879D01*
X90784Y2917D01*
X90807Y2937D01*
X90835Y2950D01*
X90910Y3020D01*
X90990Y3085D01*
X91007Y3111D01*
X91029Y3132D01*
X91080Y3221D01*
X91137Y3306D01*
X91143Y3330D01*
X91161Y3362D01*
X91219Y3622D01*
X91216Y3660D01*
X91221Y3683D01*
X91221Y5294D01*
X91211Y5362D01*
X91211Y5431D01*
X91191Y5493D01*
X91181Y5557D01*
X91152Y5619D01*
X91131Y5684D01*
X91094Y5738D01*
X91066Y5796D01*
X91019Y5847D01*
X90980Y5903D01*
X90929Y5943D01*
X90884Y5991D01*
X90825Y6025D01*
X90771Y6067D01*
X90710Y6090D01*
X90654Y6122D01*
X90586Y6137D01*
X90522Y6162D01*
X90457Y6166D01*
X90394Y6180D01*
X90325Y6175D01*
X90257Y6179D01*
X90214Y6166D01*
X90129Y6159D01*
X90033Y6120D01*
X89172Y5889D01*
X87779Y5889D01*
X87779Y10819D01*
X87764Y10920D01*
X87756Y11023D01*
X87744Y11051D01*
X87739Y11082D01*
X87695Y11174D01*
X87657Y11269D01*
X87637Y11293D01*
X87624Y11321D01*
X87554Y11396D01*
X87489Y11476D01*
X87463Y11493D01*
X87442Y11515D01*
X87353Y11566D01*
X87268Y11623D01*
X87244Y11628D01*
X87212Y11647D01*
X86952Y11705D01*
X86914Y11702D01*
X86891Y11707D01*
X85669Y11707D01*
X85567Y11692D01*
X85465Y11683D01*
X85437Y11672D01*
X85406Y11667D01*
X85314Y11623D01*
X85218Y11584D01*
X85195Y11565D01*
X85167Y11552D01*
X85092Y11481D01*
X85012Y11417D01*
X84995Y11391D01*
X84973Y11370D01*
X84922Y11281D01*
X84865Y11196D01*
X84859Y11172D01*
X84841Y11139D01*
X84783Y10880D01*
X84785Y10858D01*
X84783Y10850D01*
X84784Y10834D01*
X84781Y10819D01*
X84781Y5889D01*
X83388Y5889D01*
X82612Y6097D01*
X81917Y6499D01*
X81369Y7046D01*
X81287Y7107D01*
X81208Y7174D01*
X81180Y7186D01*
X81155Y7204D01*
X81058Y7238D01*
X80964Y7278D01*
X80933Y7281D01*
X80904Y7291D01*
X80802Y7295D01*
X80699Y7306D01*
X80669Y7300D01*
X80639Y7301D01*
X80540Y7274D01*
X80439Y7253D01*
X80419Y7241D01*
X80382Y7231D01*
X80158Y7088D01*
X80133Y7059D01*
X80113Y7046D01*
X79718Y6651D01*
X72842Y6651D01*
X71533Y7960D01*
X71450Y8021D01*
X71372Y8088D01*
X71344Y8100D01*
X71319Y8118D01*
X71222Y8152D01*
X71128Y8192D01*
X71097Y8195D01*
X71068Y8205D01*
X70965Y8209D01*
X70863Y8219D01*
X70833Y8213D01*
X70802Y8214D01*
X70703Y8187D01*
X70603Y8167D01*
X70583Y8154D01*
X70546Y8144D01*
X70322Y8002D01*
X70297Y7973D01*
X70277Y7960D01*
X68358Y6041D01*
X58642Y6041D01*
X56721Y7962D01*
X56721Y17678D01*
X58642Y19599D01*
X68358Y19599D01*
X70279Y17678D01*
X70279Y15790D01*
X70286Y15739D01*
X70285Y15687D01*
X70306Y15608D01*
X70319Y15527D01*
X70341Y15481D01*
X70355Y15431D01*
X70399Y15362D01*
X70434Y15288D01*
X70469Y15250D01*
X70497Y15206D01*
X70560Y15153D01*
X70616Y15093D01*
X70660Y15068D01*
X70700Y15034D01*
X70775Y15002D01*
X70846Y14962D01*
X70897Y14950D01*
X70944Y14930D01*
X71026Y14922D01*
X71106Y14904D01*
X71157Y14908D01*
X71209Y14903D01*
X71289Y14919D01*
X71371Y14925D01*
X71419Y14945D01*
X71469Y14955D01*
X71513Y14982D01*
X71618Y15024D01*
X71757Y15137D01*
X71795Y15162D01*
X72842Y16209D01*
X79374Y16209D01*
X79425Y16216D01*
X79477Y16215D01*
X79556Y16236D01*
X79637Y16249D01*
X79683Y16271D01*
X79733Y16285D01*
X79802Y16329D01*
X79876Y16364D01*
X79914Y16400D01*
X79957Y16427D01*
X80010Y16490D01*
X80070Y16546D01*
X80096Y16591D01*
X80130Y16630D01*
X80162Y16705D01*
X80202Y16776D01*
X80214Y16827D01*
X80234Y16874D01*
X80242Y16956D01*
X80260Y17036D01*
X80256Y17087D01*
X80261Y17139D01*
X80245Y17219D01*
X80239Y17301D01*
X80219Y17349D01*
X80209Y17399D01*
X80182Y17443D01*
X80140Y17548D01*
X80027Y17687D01*
X80002Y17725D01*
X79626Y18101D01*
X79508Y18188D01*
X79470Y18225D01*
X78975Y18536D01*
X78949Y18564D01*
X78889Y18639D01*
X78858Y18660D01*
X78833Y18687D01*
X78828Y18689D01*
X78525Y19170D01*
X78429Y19282D01*
X78401Y19326D01*
X77988Y19739D01*
X77968Y19772D01*
X77927Y19859D01*
X77901Y19886D01*
X77882Y19918D01*
X77878Y19921D01*
X77690Y20458D01*
X77621Y20588D01*
X77604Y20637D01*
X77293Y21132D01*
X77281Y21168D01*
X77260Y21262D01*
X77241Y21294D01*
X77230Y21329D01*
X77226Y21334D01*
X77162Y21899D01*
X77124Y22040D01*
X77118Y22092D01*
X76956Y22555D01*
X76981Y22636D01*
X76981Y22723D01*
X76991Y22767D01*
X76991Y23367D01*
X76982Y23430D01*
X76986Y23467D01*
X76912Y24116D01*
X76930Y24147D01*
X76989Y24406D01*
X76986Y24446D01*
X76991Y24471D01*
X76991Y28569D01*
X76976Y28672D01*
X76967Y28776D01*
X76957Y28797D01*
X76951Y28832D01*
X76911Y28915D01*
X76986Y29573D01*
X76983Y29637D01*
X76991Y29673D01*
X76991Y30273D01*
X76991Y30278D01*
X76991Y30282D01*
X76987Y30299D01*
X76958Y30491D01*
X77118Y30948D01*
X77145Y31092D01*
X77162Y31141D01*
X77228Y31723D01*
X77234Y31738D01*
X77261Y31786D01*
X77267Y31811D01*
X77283Y31845D01*
X77288Y31882D01*
X77302Y31916D01*
X77302Y31922D01*
X77604Y32403D01*
X77663Y32538D01*
X77690Y32582D01*
X77883Y33134D01*
X77904Y33166D01*
X77964Y33241D01*
X77978Y33276D01*
X77998Y33307D01*
X77999Y33312D01*
X78401Y33714D01*
X78489Y33832D01*
X78525Y33870D01*
X78836Y34365D01*
X78864Y34391D01*
X78939Y34451D01*
X78960Y34482D01*
X78987Y34507D01*
X78989Y34512D01*
X79470Y34815D01*
X79582Y34911D01*
X79626Y34939D01*
X80039Y35352D01*
X80072Y35372D01*
X80159Y35413D01*
X80186Y35439D01*
X80218Y35458D01*
X80232Y35476D01*
X80253Y35487D01*
X80334Y35519D01*
X80370Y35549D01*
X80411Y35571D01*
X80472Y35632D01*
X80540Y35687D01*
X80566Y35726D01*
X80599Y35759D01*
X80639Y35836D01*
X80687Y35908D01*
X80695Y35942D01*
X80722Y35994D01*
X80771Y36256D01*
X80769Y36273D01*
X80771Y36285D01*
X80771Y36703D01*
X80756Y36805D01*
X80748Y36907D01*
X80736Y36935D01*
X80731Y36966D01*
X80687Y37058D01*
X80649Y37154D01*
X80629Y37177D01*
X80616Y37205D01*
X80546Y37280D01*
X80481Y37360D01*
X80455Y37377D01*
X80434Y37399D01*
X80345Y37450D01*
X80327Y37463D01*
X79907Y37883D01*
X79824Y37944D01*
X79746Y38010D01*
X79718Y38022D01*
X79693Y38040D01*
X79596Y38074D01*
X79502Y38115D01*
X79471Y38118D01*
X79442Y38128D01*
X79339Y38131D01*
X79237Y38142D01*
X79207Y38136D01*
X79176Y38137D01*
X79077Y38110D01*
X78976Y38090D01*
X78956Y38077D01*
X78920Y38067D01*
X78695Y37924D01*
X78671Y37896D01*
X78651Y37883D01*
X78204Y37436D01*
X77512Y37036D01*
X76739Y36829D01*
X75183Y36829D01*
X75183Y44387D01*
X85725Y44387D01*
X85744Y44399D01*
X85766Y44403D01*
X85773Y44418D01*
X85782Y44424D01*
X85781Y44434D01*
X85788Y44450D01*
X85788Y46990D01*
X85776Y47009D01*
X85772Y47031D01*
X85757Y47038D01*
X85751Y47047D01*
X85741Y47046D01*
X85725Y47053D01*
X75183Y47053D01*
X75183Y54611D01*
X76739Y54611D01*
X77512Y54404D01*
X78204Y54004D01*
X78651Y53557D01*
X78734Y53496D01*
X78812Y53430D01*
X78840Y53418D01*
X78865Y53400D01*
X78962Y53366D01*
X79056Y53325D01*
X79087Y53322D01*
X79116Y53312D01*
X79218Y53309D01*
X79321Y53298D01*
X79351Y53304D01*
X79381Y53303D01*
X79480Y53330D01*
X79581Y53350D01*
X79601Y53363D01*
X79638Y53373D01*
X79862Y53516D01*
X79887Y53545D01*
X79907Y53557D01*
X80198Y53849D01*
X87696Y53849D01*
X89028Y52517D01*
X89028Y38923D01*
X87685Y37580D01*
X87655Y37576D01*
X87553Y37568D01*
X87525Y37556D01*
X87494Y37551D01*
X87402Y37507D01*
X87306Y37469D01*
X87283Y37449D01*
X87255Y37436D01*
X87180Y37366D01*
X87100Y37301D01*
X87083Y37275D01*
X87061Y37254D01*
X87010Y37165D01*
X86953Y37080D01*
X86947Y37056D01*
X86929Y37024D01*
X86871Y36764D01*
X86874Y36726D01*
X86869Y36703D01*
X86869Y36285D01*
X86882Y36199D01*
X86886Y36112D01*
X86902Y36068D01*
X86909Y36022D01*
X86946Y35944D01*
X86976Y35862D01*
X87004Y35825D01*
X87024Y35783D01*
X87083Y35719D01*
X87136Y35650D01*
X87165Y35632D01*
X87206Y35588D01*
X87424Y35464D01*
X87466Y35436D01*
X87541Y35376D01*
X87576Y35362D01*
X87607Y35342D01*
X87612Y35341D01*
X88014Y34939D01*
X88132Y34851D01*
X88170Y34815D01*
X88665Y34504D01*
X88691Y34476D01*
X88751Y34401D01*
X88782Y34380D01*
X88807Y34353D01*
X88812Y34351D01*
X89115Y33870D01*
X89211Y33758D01*
X89239Y33714D01*
X89652Y33301D01*
X89672Y33268D01*
X89713Y33181D01*
X89739Y33154D01*
X89758Y33122D01*
X89762Y33119D01*
X89950Y32582D01*
X90019Y32452D01*
X90036Y32403D01*
X90341Y31918D01*
X90342Y31903D01*
X90364Y31850D01*
X90380Y31778D01*
X90399Y31746D01*
X90410Y31710D01*
X90414Y31706D01*
X90478Y31141D01*
X90500Y31058D01*
X90504Y31015D01*
X90518Y30978D01*
X90522Y30948D01*
X90684Y30485D01*
X90659Y30404D01*
X90659Y30317D01*
X90649Y30273D01*
X90649Y29673D01*
X90658Y29610D01*
X90654Y29573D01*
X90728Y28924D01*
X90710Y28893D01*
X90651Y28634D01*
X90652Y28621D01*
X90651Y28615D01*
X90653Y28588D01*
X90649Y28569D01*
X90649Y26077D01*
X90656Y26026D01*
X90655Y25975D01*
X90676Y25896D01*
X90689Y25815D01*
X90711Y25768D01*
X90725Y25718D01*
X90769Y25649D01*
X90804Y25575D01*
X90840Y25538D01*
X90867Y25494D01*
X90930Y25441D01*
X90986Y25381D01*
X91030Y25355D01*
X91070Y25322D01*
X91145Y25290D01*
X91216Y25249D01*
X91267Y25238D01*
X91314Y25218D01*
X91396Y25209D01*
X91476Y25191D01*
X91527Y25196D01*
X91579Y25190D01*
X91659Y25206D01*
X91741Y25213D01*
X91789Y25232D01*
X91839Y25242D01*
X91883Y25270D01*
X91988Y25312D01*
X92127Y25425D01*
X92165Y25449D01*
X92544Y25829D01*
X105456Y25829D01*
X106779Y24506D01*
X106779Y3683D01*
X106794Y3581D01*
X106802Y3479D01*
X106814Y3451D01*
X106819Y3420D01*
X106863Y3328D01*
X106901Y3232D01*
X106921Y3209D01*
X106934Y3181D01*
X107004Y3106D01*
X107069Y3026D01*
X107095Y3009D01*
X107116Y2987D01*
X107205Y2936D01*
X107290Y2879D01*
X107314Y2873D01*
X107346Y2855D01*
X107606Y2797D01*
X107644Y2800D01*
X107667Y2795D01*
X146333Y2795D01*
X146435Y2810D01*
X146537Y2818D01*
X146565Y2830D01*
X146596Y2835D01*
X146688Y2879D01*
X146784Y2917D01*
X146807Y2937D01*
X146835Y2950D01*
X146910Y3020D01*
X146990Y3085D01*
X147007Y3111D01*
X147029Y3132D01*
X147080Y3221D01*
X147137Y3306D01*
X147143Y3330D01*
X147161Y3362D01*
X147219Y3622D01*
X147216Y3660D01*
X147221Y3683D01*
X147221Y24003D01*
X147206Y24105D01*
X147198Y24207D01*
X147186Y24235D01*
X147181Y24266D01*
X147137Y24358D01*
X147099Y24454D01*
X147079Y24477D01*
X147066Y24505D01*
X146996Y24580D01*
X146931Y24660D01*
X146905Y24677D01*
X146884Y24699D01*
X146795Y24750D01*
X146710Y24807D01*
X146686Y24813D01*
X146654Y24831D01*
X146394Y24889D01*
X146356Y24886D01*
X146333Y24891D01*
X126641Y24891D01*
X117681Y33851D01*
X117681Y34786D01*
X117678Y34806D01*
X117680Y34827D01*
X117662Y34917D01*
X117658Y34976D01*
X117649Y34996D01*
X117641Y35048D01*
X117632Y35067D01*
X117628Y35088D01*
X117604Y35126D01*
X117564Y35208D01*
X117559Y35222D01*
X117556Y35226D01*
X117526Y35288D01*
X117449Y35370D01*
X117421Y35414D01*
X116839Y35995D01*
X116839Y40205D01*
X117248Y40613D01*
X117258Y40627D01*
X117272Y40638D01*
X117337Y40734D01*
X117406Y40827D01*
X117411Y40844D01*
X117421Y40858D01*
X117455Y40969D01*
X117493Y41078D01*
X117494Y41096D01*
X117499Y41112D01*
X117498Y41228D01*
X117502Y41344D01*
X117498Y41361D01*
X117498Y41378D01*
X117463Y41489D01*
X117432Y41600D01*
X117423Y41615D01*
X117418Y41632D01*
X117352Y41727D01*
X117290Y41825D01*
X117277Y41836D01*
X117267Y41850D01*
X117176Y41922D01*
X117087Y41997D01*
X117071Y42004D01*
X117058Y42014D01*
X116950Y42056D01*
X116843Y42101D01*
X116825Y42103D01*
X116809Y42109D01*
X116694Y42117D01*
X116578Y42129D01*
X116561Y42125D01*
X116544Y42126D01*
X116504Y42114D01*
X116318Y42077D01*
X116251Y42034D01*
X116176Y42011D01*
X115667Y41717D01*
X114892Y41509D01*
X113499Y41509D01*
X113499Y50189D01*
X113484Y50290D01*
X113476Y50393D01*
X113464Y50421D01*
X113459Y50452D01*
X113415Y50544D01*
X113377Y50639D01*
X113357Y50663D01*
X113344Y50691D01*
X113274Y50766D01*
X113209Y50846D01*
X113183Y50863D01*
X113162Y50885D01*
X113073Y50936D01*
X112988Y50993D01*
X112964Y50998D01*
X112932Y51017D01*
X112672Y51075D01*
X112634Y51072D01*
X112611Y51077D01*
X112277Y51077D01*
X112277Y51411D01*
X112262Y51513D01*
X112253Y51615D01*
X112242Y51643D01*
X112237Y51674D01*
X112193Y51766D01*
X112154Y51862D01*
X112135Y51885D01*
X112122Y51913D01*
X112051Y51988D01*
X111987Y52068D01*
X111961Y52085D01*
X111940Y52107D01*
X111851Y52158D01*
X111766Y52215D01*
X111742Y52221D01*
X111709Y52239D01*
X111450Y52297D01*
X111412Y52294D01*
X111389Y52299D01*
X106842Y52299D01*
X106822Y52296D01*
X106801Y52298D01*
X106690Y52276D01*
X106580Y52259D01*
X106561Y52250D01*
X106540Y52246D01*
X106502Y52222D01*
X106340Y52144D01*
X106258Y52067D01*
X106214Y52039D01*
X105991Y51815D01*
X101781Y51815D01*
X98805Y54791D01*
X98805Y57103D01*
X98790Y57205D01*
X98782Y57307D01*
X98770Y57335D01*
X98765Y57366D01*
X98721Y57458D01*
X98683Y57554D01*
X98663Y57577D01*
X98650Y57605D01*
X98580Y57680D01*
X98515Y57760D01*
X98489Y57777D01*
X98468Y57799D01*
X98379Y57850D01*
X98294Y57907D01*
X98270Y57913D01*
X98238Y57931D01*
X97978Y57989D01*
X97940Y57986D01*
X97917Y57991D01*
X96017Y57991D01*
X93071Y60937D01*
X93071Y65103D01*
X95799Y67831D01*
X95812Y67848D01*
X95828Y67861D01*
X95890Y67954D01*
X95957Y68045D01*
X95964Y68065D01*
X95975Y68082D01*
X95985Y68127D01*
X96044Y68296D01*
X96048Y68409D01*
X96059Y68459D01*
X96059Y69701D01*
X100989Y69701D01*
X101090Y69716D01*
X101193Y69724D01*
X101221Y69736D01*
X101252Y69740D01*
X101344Y69785D01*
X101439Y69823D01*
X101463Y69843D01*
X101491Y69856D01*
X101566Y69926D01*
X101646Y69991D01*
X101663Y70017D01*
X101685Y70038D01*
X101736Y70127D01*
X101793Y70212D01*
X101798Y70236D01*
X101817Y70268D01*
X101875Y70528D01*
X101872Y70566D01*
X101877Y70589D01*
X101877Y71811D01*
X101862Y71913D01*
X101853Y72015D01*
X101842Y72043D01*
X101837Y72074D01*
X101793Y72166D01*
X101754Y72262D01*
X101735Y72285D01*
X101722Y72313D01*
X101651Y72388D01*
X101587Y72468D01*
X101561Y72485D01*
X101540Y72507D01*
X101451Y72558D01*
X101366Y72615D01*
X101342Y72621D01*
X101309Y72639D01*
X101050Y72697D01*
X101012Y72694D01*
X100989Y72699D01*
X96059Y72699D01*
X96059Y74092D01*
X96267Y74868D01*
X96669Y75563D01*
X97216Y76111D01*
X97277Y76193D01*
X97344Y76272D01*
X97356Y76300D01*
X97374Y76325D01*
X97408Y76422D01*
X97448Y76516D01*
X97451Y76547D01*
X97461Y76576D01*
X97465Y76678D01*
X97476Y76781D01*
X97470Y76811D01*
X97471Y76841D01*
X97444Y76941D01*
X97423Y77041D01*
X97411Y77061D01*
X97401Y77098D01*
X97258Y77322D01*
X97229Y77347D01*
X97216Y77367D01*
X96692Y77891D01*
X96675Y77904D01*
X96662Y77920D01*
X96568Y77982D01*
X96478Y78049D01*
X96458Y78056D01*
X96441Y78067D01*
X96396Y78077D01*
X96227Y78136D01*
X96114Y78140D01*
X96064Y78151D01*
X90758Y78151D01*
X90640Y78134D01*
X90522Y78120D01*
X90509Y78114D01*
X90495Y78111D01*
X90388Y78060D01*
X90279Y78012D01*
X90269Y78002D01*
X90256Y77996D01*
X90168Y77914D01*
X90079Y77837D01*
X90072Y77824D01*
X90061Y77814D01*
X90002Y77711D01*
X89940Y77610D01*
X89936Y77596D01*
X89929Y77584D01*
X89904Y77468D01*
X89874Y77353D01*
X89875Y77341D01*
X89872Y77324D01*
X89893Y77059D01*
X89915Y77004D01*
X89919Y76969D01*
X89950Y76882D01*
X90019Y76752D01*
X90036Y76703D01*
X90347Y76208D01*
X90359Y76172D01*
X90380Y76078D01*
X90399Y76046D01*
X90410Y76011D01*
X90414Y76006D01*
X90478Y75441D01*
X90516Y75300D01*
X90522Y75248D01*
X90684Y74785D01*
X90659Y74704D01*
X90659Y74617D01*
X90649Y74573D01*
X90649Y73973D01*
X90658Y73910D01*
X90654Y73873D01*
X90728Y73224D01*
X90710Y73193D01*
X90651Y72934D01*
X90654Y72894D01*
X90649Y72869D01*
X90649Y63771D01*
X90664Y63668D01*
X90673Y63564D01*
X90683Y63543D01*
X90689Y63508D01*
X90729Y63425D01*
X90654Y62767D01*
X90657Y62703D01*
X90649Y62667D01*
X90649Y62067D01*
X90649Y62062D01*
X90649Y62058D01*
X90653Y62041D01*
X90682Y61849D01*
X90522Y61392D01*
X90495Y61248D01*
X90478Y61199D01*
X90412Y60617D01*
X90399Y60582D01*
X90357Y60495D01*
X90352Y60458D01*
X90338Y60424D01*
X90338Y60418D01*
X90036Y59937D01*
X89977Y59802D01*
X89950Y59758D01*
X89757Y59206D01*
X89736Y59174D01*
X89676Y59099D01*
X89662Y59064D01*
X89642Y59033D01*
X89641Y59028D01*
X89239Y58626D01*
X89151Y58508D01*
X89115Y58470D01*
X88804Y57975D01*
X88776Y57949D01*
X88701Y57889D01*
X88680Y57858D01*
X88653Y57833D01*
X88651Y57828D01*
X88170Y57525D01*
X88058Y57429D01*
X88014Y57401D01*
X87601Y56988D01*
X87568Y56968D01*
X87481Y56927D01*
X87454Y56901D01*
X87422Y56882D01*
X87419Y56878D01*
X86882Y56690D01*
X86752Y56621D01*
X86703Y56604D01*
X86208Y56293D01*
X86172Y56281D01*
X86078Y56260D01*
X86046Y56241D01*
X86011Y56230D01*
X86006Y56226D01*
X85441Y56162D01*
X85300Y56124D01*
X85248Y56118D01*
X84696Y55925D01*
X84658Y55922D01*
X84562Y55922D01*
X84526Y55911D01*
X84489Y55907D01*
X84484Y55905D01*
X83919Y55968D01*
X83773Y55963D01*
X83721Y55968D01*
X83140Y55903D01*
X83102Y55908D01*
X83008Y55930D01*
X82971Y55927D01*
X82934Y55932D01*
X82929Y55931D01*
X82392Y56118D01*
X82248Y56145D01*
X82199Y56162D01*
X81617Y56228D01*
X81582Y56241D01*
X81495Y56283D01*
X81458Y56288D01*
X81424Y56302D01*
X81418Y56302D01*
X80937Y56604D01*
X80802Y56663D01*
X80758Y56690D01*
X80206Y56883D01*
X80174Y56904D01*
X80099Y56964D01*
X80064Y56978D01*
X80033Y56998D01*
X80028Y56999D01*
X79626Y57401D01*
X79508Y57489D01*
X79470Y57525D01*
X78975Y57836D01*
X78949Y57864D01*
X78889Y57939D01*
X78858Y57960D01*
X78833Y57987D01*
X78828Y57989D01*
X78570Y58399D01*
X78525Y58451D01*
X78488Y58510D01*
X78439Y58552D01*
X78397Y58600D01*
X78338Y58637D01*
X78285Y58682D01*
X78226Y58707D01*
X78171Y58741D01*
X78105Y58759D01*
X78041Y58786D01*
X77977Y58793D01*
X77914Y58809D01*
X77845Y58806D01*
X77776Y58814D01*
X77713Y58801D01*
X77649Y58798D01*
X77584Y58775D01*
X77516Y58762D01*
X77478Y58737D01*
X77398Y58709D01*
X77200Y58561D01*
X77190Y58554D01*
X75677Y57041D01*
X64783Y57041D01*
X63451Y58373D01*
X63451Y58440D01*
X63449Y58457D01*
X63451Y58475D01*
X63429Y58589D01*
X63411Y58703D01*
X63404Y58719D01*
X63401Y58736D01*
X63346Y58838D01*
X63296Y58942D01*
X63284Y58955D01*
X63276Y58970D01*
X63194Y59052D01*
X63114Y59137D01*
X63099Y59145D01*
X63087Y59158D01*
X62984Y59211D01*
X62884Y59269D01*
X62867Y59272D01*
X62851Y59280D01*
X62737Y59301D01*
X62624Y59326D01*
X62607Y59325D01*
X62590Y59328D01*
X62475Y59314D01*
X62359Y59305D01*
X62343Y59298D01*
X62326Y59296D01*
X62220Y59249D01*
X62112Y59206D01*
X62099Y59195D01*
X62083Y59188D01*
X61996Y59111D01*
X61906Y59038D01*
X61897Y59024D01*
X61884Y59012D01*
X61864Y58975D01*
X61759Y58817D01*
X61742Y58740D01*
X61705Y58670D01*
X61564Y58143D01*
X61164Y57451D01*
X60599Y56886D01*
X59907Y56486D01*
X59135Y56279D01*
X56007Y56279D01*
X56007Y62431D01*
X55992Y62532D01*
X55983Y62635D01*
X55972Y62663D01*
X55967Y62694D01*
X55923Y62786D01*
X55884Y62881D01*
X55865Y62905D01*
X55852Y62933D01*
X55782Y63008D01*
X55717Y63088D01*
X55691Y63105D01*
X55670Y63127D01*
X55581Y63178D01*
X55496Y63235D01*
X55472Y63240D01*
X55439Y63259D01*
X55180Y63317D01*
X55142Y63314D01*
X55119Y63319D01*
X54229Y63319D01*
X54229Y63321D01*
X55119Y63321D01*
X55220Y63336D01*
X55323Y63345D01*
X55351Y63356D01*
X55382Y63361D01*
X55474Y63405D01*
X55569Y63444D01*
X55593Y63463D01*
X55621Y63476D01*
X55696Y63546D01*
X55776Y63611D01*
X55793Y63637D01*
X55815Y63658D01*
X55866Y63747D01*
X55923Y63832D01*
X55928Y63856D01*
X55947Y63889D01*
X56005Y64148D01*
X56002Y64186D01*
X56007Y64209D01*
X56007Y70361D01*
X59135Y70361D01*
X59907Y70154D01*
X60599Y69754D01*
X61164Y69189D01*
X61564Y68497D01*
X61705Y67970D01*
X61712Y67954D01*
X61715Y67937D01*
X61765Y67833D01*
X61811Y67726D01*
X61823Y67713D01*
X61830Y67698D01*
X61910Y67613D01*
X61985Y67525D01*
X62000Y67516D01*
X62012Y67503D01*
X62113Y67446D01*
X62211Y67384D01*
X62227Y67380D01*
X62242Y67371D01*
X62356Y67346D01*
X62468Y67317D01*
X62485Y67317D01*
X62502Y67314D01*
X62617Y67323D01*
X62733Y67328D01*
X62750Y67334D01*
X62767Y67335D01*
X62874Y67378D01*
X62984Y67417D01*
X62997Y67428D01*
X63014Y67434D01*
X63104Y67508D01*
X63196Y67577D01*
X63206Y67591D01*
X63220Y67602D01*
X63284Y67698D01*
X63352Y67792D01*
X63358Y67808D01*
X63367Y67823D01*
X63376Y67864D01*
X63437Y68044D01*
X63434Y68123D01*
X63451Y68200D01*
X63451Y68267D01*
X64783Y69599D01*
X66293Y69599D01*
X66395Y69614D01*
X66497Y69622D01*
X66525Y69634D01*
X66556Y69639D01*
X66648Y69683D01*
X66744Y69721D01*
X66767Y69741D01*
X66795Y69754D01*
X66870Y69824D01*
X66950Y69889D01*
X66967Y69915D01*
X66989Y69936D01*
X67040Y70025D01*
X67097Y70110D01*
X67103Y70134D01*
X67121Y70166D01*
X67179Y70426D01*
X67176Y70464D01*
X67181Y70487D01*
X67181Y97153D01*
X67166Y97255D01*
X67158Y97357D01*
X67146Y97385D01*
X67141Y97416D01*
X67097Y97508D01*
X67059Y97604D01*
X67039Y97627D01*
X67026Y97655D01*
X66956Y97730D01*
X66891Y97810D01*
X66865Y97827D01*
X66844Y97849D01*
X66755Y97900D01*
X66670Y97957D01*
X66646Y97963D01*
X66614Y97981D01*
X66354Y98039D01*
X66316Y98036D01*
X66293Y98041D01*
X64783Y98041D01*
X63451Y99373D01*
X63451Y99440D01*
X63449Y99457D01*
X63451Y99475D01*
X63429Y99589D01*
X63411Y99703D01*
X63404Y99719D01*
X63401Y99736D01*
X63346Y99838D01*
X63296Y99942D01*
X63284Y99955D01*
X63276Y99970D01*
X63194Y100052D01*
X63114Y100137D01*
X63099Y100145D01*
X63087Y100157D01*
X62984Y100211D01*
X62884Y100269D01*
X62867Y100272D01*
X62851Y100280D01*
X62737Y100301D01*
X62624Y100326D01*
X62607Y100325D01*
X62590Y100328D01*
X62475Y100314D01*
X62359Y100305D01*
X62343Y100298D01*
X62326Y100296D01*
X62220Y100249D01*
X62112Y100206D01*
X62099Y100195D01*
X62083Y100188D01*
X61996Y100112D01*
X61906Y100038D01*
X61896Y100024D01*
X61884Y100012D01*
X61864Y99976D01*
X61759Y99817D01*
X61741Y99740D01*
X61705Y99670D01*
X61564Y99143D01*
X61164Y98451D01*
X61142Y98429D01*
X61117Y98395D01*
X61110Y98389D01*
X61103Y98376D01*
X61081Y98346D01*
X61015Y98268D01*
X61003Y98240D01*
X60985Y98215D01*
X60951Y98118D01*
X60911Y98024D01*
X60907Y97993D01*
X60897Y97964D01*
X60894Y97861D01*
X60883Y97759D01*
X60889Y97729D01*
X60888Y97698D01*
X60915Y97599D01*
X60935Y97499D01*
X60948Y97479D01*
X60958Y97442D01*
X61101Y97218D01*
X61129Y97193D01*
X61142Y97173D01*
X63501Y94815D01*
X63501Y90605D01*
X60525Y87629D01*
X58019Y87629D01*
X57998Y87626D01*
X57977Y87628D01*
X57867Y87606D01*
X57756Y87589D01*
X57737Y87580D01*
X57716Y87576D01*
X57678Y87552D01*
X57517Y87474D01*
X57434Y87397D01*
X57391Y87369D01*
X30473Y60451D01*
X24128Y60451D01*
X24067Y60442D01*
X24005Y60443D01*
X23936Y60422D01*
X23865Y60411D01*
X23810Y60384D01*
X23750Y60367D01*
X23691Y60327D01*
X23626Y60296D01*
X23581Y60253D01*
X23529Y60219D01*
X23502Y60180D01*
X23432Y60114D01*
X23326Y59928D01*
X23308Y59903D01*
X22175Y57169D01*
X19031Y54025D01*
X14923Y52323D01*
X10477Y52323D01*
X6369Y54025D01*
X4311Y56083D01*
X4270Y56113D01*
X4234Y56151D01*
X4163Y56192D01*
X4097Y56240D01*
X4048Y56257D01*
X4004Y56283D01*
X3924Y56301D01*
X3846Y56328D01*
X3794Y56330D01*
X3744Y56341D01*
X3662Y56334D01*
X3580Y56337D01*
X3531Y56323D01*
X3479Y56319D01*
X3403Y56289D01*
X3324Y56267D01*
X3280Y56239D01*
X3232Y56220D01*
X3169Y56168D01*
X3100Y56124D01*
X3066Y56085D01*
X3026Y56053D01*
X2981Y55984D01*
X2928Y55922D01*
X2907Y55874D01*
X2879Y55831D01*
X2867Y55781D01*
X2823Y55677D01*
X2805Y55499D01*
X2795Y55455D01*
X2795Y31047D01*
X2809Y30956D01*
X2814Y30864D01*
X2828Y30825D01*
X2835Y30784D01*
X2875Y30701D01*
X2907Y30615D01*
X2932Y30582D01*
X2950Y30545D01*
X3013Y30477D01*
X3070Y30404D01*
X3104Y30381D01*
X3132Y30351D01*
X3212Y30305D01*
X3287Y30252D01*
X3327Y30239D01*
X3362Y30219D01*
X3452Y30199D01*
X3540Y30170D01*
X3582Y30170D01*
X3622Y30161D01*
X3714Y30168D01*
X3806Y30167D01*
X3846Y30179D01*
X3887Y30183D01*
X3973Y30217D01*
X4061Y30243D01*
X4095Y30266D01*
X4134Y30282D01*
X4205Y30340D01*
X4282Y30391D01*
X4300Y30417D01*
X4340Y30449D01*
X4487Y30670D01*
X4492Y30690D01*
X4504Y30707D01*
X7312Y37486D01*
X13314Y43488D01*
X21156Y46737D01*
X29644Y46737D01*
X37486Y43488D01*
X43488Y37486D01*
X44010Y36226D01*
X44058Y36147D01*
X44098Y36064D01*
X44126Y36034D01*
X44148Y35998D01*
X44217Y35937D01*
X44280Y35870D01*
X44316Y35849D01*
X44346Y35822D01*
X44347Y35821D01*
X44342Y35778D01*
X44324Y35687D01*
X44330Y35656D01*
X44324Y35605D01*
X44377Y35344D01*
X44388Y35327D01*
X44391Y35307D01*
X46737Y29644D01*
X46737Y21156D01*
X43488Y13314D01*
X42995Y12820D01*
X42964Y12779D01*
X42926Y12743D01*
X42886Y12672D01*
X42837Y12606D01*
X42820Y12557D01*
X42794Y12513D01*
X42777Y12433D01*
X42750Y12355D01*
X42748Y12303D01*
X42737Y12253D01*
X42743Y12171D01*
X42741Y12089D01*
X42754Y12040D01*
X42758Y11988D01*
X42789Y11912D01*
X42810Y11833D01*
X42838Y11789D01*
X42857Y11741D01*
X42909Y11678D01*
X42953Y11609D01*
X42992Y11575D01*
X43025Y11535D01*
X43093Y11490D01*
X43156Y11437D01*
X43203Y11416D01*
X43246Y11388D01*
X43296Y11376D01*
X43400Y11332D01*
X43578Y11314D01*
X43623Y11304D01*
X46502Y11304D01*
X49404Y8402D01*
X49404Y4294D01*
X49386Y4270D01*
X49348Y4234D01*
X49308Y4163D01*
X49259Y4097D01*
X49242Y4048D01*
X49216Y4004D01*
X49199Y3924D01*
X49172Y3846D01*
X49170Y3794D01*
X49159Y3744D01*
X49165Y3662D01*
X49162Y3580D01*
X49176Y3531D01*
X49180Y3479D01*
X49211Y3403D01*
X49232Y3324D01*
X49260Y3280D01*
X49279Y3232D01*
X49331Y3169D01*
X49375Y3100D01*
X49414Y3066D01*
X49447Y3026D01*
X49515Y2981D01*
X49578Y2928D01*
X49625Y2907D01*
X49668Y2879D01*
X49718Y2867D01*
X49822Y2823D01*
X50000Y2805D01*
X50045Y2795D01*
X90333Y2795D01*
X90435Y2810D01*
G37*
G36*
X189431Y141192D02*
X189431Y141192D01*
X189513Y141198D01*
X189561Y141217D01*
X189611Y141228D01*
X189655Y141255D01*
X189760Y141297D01*
X189899Y141410D01*
X189937Y141435D01*
X194158Y145656D01*
X194219Y145738D01*
X194285Y145816D01*
X194297Y145845D01*
X194316Y145870D01*
X194349Y145967D01*
X194390Y146061D01*
X194393Y146092D01*
X194403Y146121D01*
X194407Y146223D01*
X194417Y146325D01*
X194411Y146356D01*
X194412Y146386D01*
X194385Y146485D01*
X194365Y146586D01*
X194352Y146606D01*
X194342Y146643D01*
X194200Y146867D01*
X194171Y146892D01*
X194158Y146912D01*
X193461Y147608D01*
X193461Y150653D01*
X193458Y150674D01*
X193460Y150695D01*
X193438Y150805D01*
X193421Y150916D01*
X193412Y150935D01*
X193408Y150956D01*
X193384Y150994D01*
X193306Y151155D01*
X193229Y151238D01*
X193201Y151281D01*
X183221Y161261D01*
X183204Y161274D01*
X183191Y161290D01*
X183098Y161352D01*
X183007Y161419D01*
X182987Y161426D01*
X182970Y161437D01*
X182925Y161447D01*
X182756Y161506D01*
X182644Y161510D01*
X182593Y161521D01*
X176568Y161521D01*
X175134Y162955D01*
X175099Y163044D01*
X175079Y163067D01*
X175066Y163095D01*
X174996Y163170D01*
X174931Y163250D01*
X174905Y163267D01*
X174884Y163289D01*
X174795Y163340D01*
X174710Y163397D01*
X174686Y163403D01*
X174654Y163421D01*
X174394Y163479D01*
X174356Y163476D01*
X174333Y163481D01*
X170771Y163481D01*
X170683Y163569D01*
X170666Y163582D01*
X170653Y163598D01*
X170560Y163660D01*
X170469Y163727D01*
X170449Y163734D01*
X170432Y163745D01*
X170387Y163755D01*
X170218Y163814D01*
X170106Y163818D01*
X170055Y163829D01*
X169345Y163829D01*
X166369Y166805D01*
X166369Y167533D01*
X166362Y167584D01*
X166363Y167636D01*
X166342Y167715D01*
X166329Y167796D01*
X166307Y167843D01*
X166293Y167892D01*
X166249Y167962D01*
X166214Y168035D01*
X166179Y168073D01*
X166151Y168117D01*
X166088Y168170D01*
X166032Y168230D01*
X165988Y168255D01*
X165948Y168289D01*
X165873Y168321D01*
X165802Y168362D01*
X165751Y168373D01*
X165704Y168393D01*
X165622Y168402D01*
X165542Y168419D01*
X165491Y168415D01*
X165439Y168421D01*
X165359Y168404D01*
X165277Y168398D01*
X165229Y168379D01*
X165179Y168369D01*
X165135Y168341D01*
X165030Y168299D01*
X164891Y168186D01*
X164853Y168161D01*
X164599Y167907D01*
X164586Y167890D01*
X164570Y167877D01*
X164508Y167784D01*
X164441Y167693D01*
X164434Y167674D01*
X164423Y167656D01*
X164413Y167612D01*
X164354Y167442D01*
X164350Y167330D01*
X164339Y167279D01*
X164339Y160909D01*
X164354Y160807D01*
X164362Y160705D01*
X164374Y160677D01*
X164379Y160646D01*
X164423Y160554D01*
X164461Y160458D01*
X164481Y160435D01*
X164494Y160407D01*
X164564Y160332D01*
X164629Y160252D01*
X164655Y160235D01*
X164676Y160213D01*
X164765Y160162D01*
X164850Y160105D01*
X164874Y160099D01*
X164906Y160081D01*
X165166Y160023D01*
X165204Y160026D01*
X165227Y160021D01*
X169745Y160021D01*
X172721Y157045D01*
X172721Y152835D01*
X171436Y151551D01*
X171376Y151469D01*
X171309Y151390D01*
X171297Y151362D01*
X171279Y151337D01*
X171245Y151240D01*
X171205Y151146D01*
X171202Y151115D01*
X171191Y151086D01*
X171188Y150984D01*
X171177Y150882D01*
X171183Y150851D01*
X171182Y150821D01*
X171209Y150722D01*
X171229Y150621D01*
X171242Y150601D01*
X171252Y150564D01*
X171395Y150340D01*
X171424Y150315D01*
X171436Y150295D01*
X171993Y149739D01*
X172010Y149726D01*
X172023Y149710D01*
X172116Y149648D01*
X172207Y149581D01*
X172226Y149574D01*
X172244Y149563D01*
X172288Y149553D01*
X172458Y149494D01*
X172570Y149490D01*
X172621Y149479D01*
X176158Y149479D01*
X176633Y149004D01*
X176716Y148943D01*
X176794Y148876D01*
X176822Y148864D01*
X176847Y148846D01*
X176944Y148812D01*
X177038Y148772D01*
X177069Y148769D01*
X177098Y148759D01*
X177201Y148755D01*
X177303Y148744D01*
X177333Y148750D01*
X177364Y148749D01*
X177463Y148776D01*
X177564Y148797D01*
X177584Y148809D01*
X177620Y148819D01*
X177845Y148962D01*
X177869Y148991D01*
X177889Y149004D01*
X178517Y149631D01*
X179212Y150033D01*
X179988Y150241D01*
X181381Y150241D01*
X181381Y145311D01*
X181396Y145210D01*
X181404Y145107D01*
X181416Y145079D01*
X181420Y145048D01*
X181465Y144956D01*
X181503Y144861D01*
X181523Y144837D01*
X181536Y144809D01*
X181606Y144734D01*
X181671Y144654D01*
X181697Y144637D01*
X181718Y144615D01*
X181807Y144564D01*
X181892Y144507D01*
X181916Y144502D01*
X181948Y144483D01*
X182208Y144425D01*
X182246Y144428D01*
X182269Y144423D01*
X182603Y144423D01*
X182603Y144089D01*
X182618Y143987D01*
X182627Y143885D01*
X182638Y143857D01*
X182643Y143826D01*
X182687Y143734D01*
X182726Y143638D01*
X182745Y143615D01*
X182758Y143587D01*
X182829Y143512D01*
X182893Y143432D01*
X182919Y143415D01*
X182940Y143393D01*
X183029Y143342D01*
X183114Y143285D01*
X183138Y143279D01*
X183171Y143261D01*
X183430Y143203D01*
X183468Y143206D01*
X183491Y143201D01*
X188421Y143201D01*
X188421Y142063D01*
X188428Y142012D01*
X188427Y141960D01*
X188448Y141881D01*
X188461Y141800D01*
X188483Y141754D01*
X188497Y141704D01*
X188541Y141635D01*
X188576Y141561D01*
X188611Y141523D01*
X188639Y141479D01*
X188702Y141426D01*
X188758Y141366D01*
X188802Y141341D01*
X188842Y141307D01*
X188917Y141275D01*
X188988Y141234D01*
X189039Y141223D01*
X189086Y141203D01*
X189168Y141194D01*
X189248Y141177D01*
X189299Y141181D01*
X189351Y141175D01*
X189431Y141192D01*
G37*
%LPC*%
G36*
X58642Y23581D02*
X58642Y23581D01*
X56721Y25502D01*
X56721Y32459D01*
X56718Y32480D01*
X56720Y32501D01*
X56698Y32611D01*
X56681Y32722D01*
X56672Y32741D01*
X56668Y32762D01*
X56644Y32800D01*
X56566Y32961D01*
X56489Y33044D01*
X56461Y33087D01*
X55145Y34404D01*
X55062Y34464D01*
X54984Y34531D01*
X54956Y34543D01*
X54931Y34561D01*
X54834Y34595D01*
X54740Y34635D01*
X54709Y34638D01*
X54680Y34649D01*
X54577Y34652D01*
X54475Y34663D01*
X54445Y34657D01*
X54414Y34658D01*
X54315Y34631D01*
X54214Y34611D01*
X54194Y34598D01*
X54158Y34588D01*
X53933Y34445D01*
X53909Y34416D01*
X53889Y34404D01*
X52905Y33419D01*
X48695Y33419D01*
X45840Y36275D01*
X45765Y36330D01*
X45697Y36391D01*
X45692Y36393D01*
X45718Y36526D01*
X45715Y36546D01*
X45719Y36566D01*
X45719Y40605D01*
X48695Y43581D01*
X52905Y43581D01*
X54676Y41809D01*
X54693Y41796D01*
X54707Y41780D01*
X54800Y41718D01*
X54890Y41651D01*
X54910Y41644D01*
X54928Y41633D01*
X54972Y41623D01*
X55141Y41564D01*
X55254Y41560D01*
X55304Y41549D01*
X56623Y41549D01*
X60773Y37399D01*
X60790Y37386D01*
X60803Y37370D01*
X60896Y37308D01*
X60987Y37241D01*
X61006Y37234D01*
X61024Y37223D01*
X61068Y37213D01*
X61238Y37154D01*
X61350Y37150D01*
X61401Y37139D01*
X67256Y37139D01*
X67324Y37149D01*
X67393Y37149D01*
X67455Y37169D01*
X67519Y37179D01*
X67581Y37208D01*
X67646Y37229D01*
X67700Y37266D01*
X67758Y37294D01*
X67809Y37341D01*
X67865Y37380D01*
X67905Y37431D01*
X67953Y37476D01*
X67987Y37535D01*
X68029Y37589D01*
X68052Y37650D01*
X68085Y37706D01*
X68100Y37773D01*
X68124Y37838D01*
X68128Y37902D01*
X68142Y37966D01*
X68137Y38034D01*
X68141Y38103D01*
X68128Y38146D01*
X68121Y38231D01*
X68030Y38458D01*
X68025Y38471D01*
X67897Y38693D01*
X67690Y39466D01*
X67690Y44070D01*
X71883Y44070D01*
X71883Y36829D01*
X70812Y36829D01*
X70761Y36822D01*
X70709Y36823D01*
X70630Y36802D01*
X70549Y36789D01*
X70503Y36767D01*
X70453Y36753D01*
X70384Y36709D01*
X70310Y36674D01*
X70272Y36638D01*
X70229Y36611D01*
X70175Y36548D01*
X70116Y36492D01*
X70090Y36447D01*
X70057Y36408D01*
X70024Y36333D01*
X69984Y36262D01*
X69972Y36211D01*
X69952Y36164D01*
X69944Y36082D01*
X69926Y36002D01*
X69930Y35951D01*
X69925Y35899D01*
X69941Y35819D01*
X69947Y35737D01*
X69967Y35689D01*
X69977Y35639D01*
X70004Y35595D01*
X70046Y35490D01*
X70159Y35351D01*
X70184Y35313D01*
X70279Y35218D01*
X70279Y25502D01*
X68358Y23581D01*
X58642Y23581D01*
G37*
%LPD*%
G36*
X84938Y57896D02*
X84938Y57896D01*
X84944Y57902D01*
X84949Y57899D01*
X86006Y58269D01*
X86010Y58276D01*
X86016Y58273D01*
X86964Y58869D01*
X86967Y58877D01*
X86972Y58876D01*
X87764Y59668D01*
X87765Y59676D01*
X87771Y59676D01*
X88367Y60624D01*
X88366Y60633D01*
X88371Y60634D01*
X88741Y61691D01*
X88740Y61695D01*
X88742Y61697D01*
X88740Y61700D01*
X88744Y61702D01*
X88869Y62815D01*
X88867Y62818D01*
X88869Y62820D01*
X88869Y73820D01*
X88867Y73823D01*
X88869Y73826D01*
X88744Y74938D01*
X88738Y74944D01*
X88741Y74949D01*
X88371Y76006D01*
X88365Y76010D01*
X88367Y76016D01*
X87771Y76964D01*
X87763Y76967D01*
X87764Y76972D01*
X86972Y77764D01*
X86964Y77765D01*
X86964Y77771D01*
X86016Y78367D01*
X86007Y78366D01*
X86006Y78371D01*
X84949Y78741D01*
X84941Y78739D01*
X84938Y78744D01*
X83826Y78869D01*
X83818Y78865D01*
X83815Y78869D01*
X82702Y78744D01*
X82696Y78738D01*
X82691Y78741D01*
X81634Y78371D01*
X81630Y78365D01*
X81624Y78367D01*
X80676Y77771D01*
X80673Y77763D01*
X80668Y77764D01*
X79876Y76972D01*
X79875Y76964D01*
X79869Y76964D01*
X79273Y76016D01*
X79274Y76009D01*
X79270Y76007D01*
X79270Y76006D01*
X79269Y76006D01*
X78899Y74949D01*
X78901Y74941D01*
X78896Y74938D01*
X78771Y73826D01*
X78773Y73822D01*
X78771Y73820D01*
X78771Y62820D01*
X78773Y62817D01*
X78771Y62815D01*
X78896Y61702D01*
X78902Y61696D01*
X78899Y61691D01*
X79269Y60634D01*
X79276Y60630D01*
X79273Y60624D01*
X79869Y59676D01*
X79877Y59673D01*
X79876Y59668D01*
X80668Y58876D01*
X80676Y58875D01*
X80676Y58869D01*
X81624Y58273D01*
X81633Y58274D01*
X81634Y58269D01*
X82691Y57899D01*
X82699Y57901D01*
X82702Y57896D01*
X83815Y57771D01*
X83822Y57775D01*
X83826Y57771D01*
X84938Y57896D01*
G37*
G36*
X171298Y57896D02*
X171298Y57896D01*
X171304Y57902D01*
X171309Y57899D01*
X172366Y58269D01*
X172370Y58276D01*
X172376Y58273D01*
X173324Y58869D01*
X173327Y58877D01*
X173332Y58876D01*
X174124Y59668D01*
X174125Y59676D01*
X174131Y59676D01*
X174727Y60624D01*
X174726Y60633D01*
X174731Y60634D01*
X175101Y61691D01*
X175100Y61695D01*
X175102Y61697D01*
X175100Y61700D01*
X175104Y61702D01*
X175229Y62815D01*
X175227Y62818D01*
X175229Y62820D01*
X175229Y73820D01*
X175227Y73823D01*
X175229Y73826D01*
X175104Y74938D01*
X175098Y74944D01*
X175101Y74949D01*
X174731Y76006D01*
X174725Y76010D01*
X174727Y76016D01*
X174131Y76964D01*
X174123Y76967D01*
X174124Y76972D01*
X173332Y77764D01*
X173324Y77765D01*
X173324Y77771D01*
X172376Y78367D01*
X172367Y78366D01*
X172366Y78371D01*
X171309Y78741D01*
X171301Y78739D01*
X171298Y78744D01*
X170186Y78869D01*
X170178Y78865D01*
X170175Y78869D01*
X169062Y78744D01*
X169056Y78738D01*
X169051Y78741D01*
X167994Y78371D01*
X167990Y78365D01*
X167984Y78367D01*
X167036Y77771D01*
X167033Y77763D01*
X167028Y77764D01*
X166236Y76972D01*
X166235Y76964D01*
X166229Y76964D01*
X165633Y76016D01*
X165634Y76009D01*
X165630Y76007D01*
X165630Y76006D01*
X165629Y76006D01*
X165259Y74949D01*
X165261Y74941D01*
X165256Y74938D01*
X165131Y73826D01*
X165133Y73822D01*
X165131Y73820D01*
X165131Y62820D01*
X165133Y62817D01*
X165131Y62815D01*
X165256Y61702D01*
X165262Y61696D01*
X165259Y61691D01*
X165629Y60634D01*
X165636Y60630D01*
X165633Y60624D01*
X166229Y59676D01*
X166237Y59673D01*
X166236Y59668D01*
X167028Y58876D01*
X167036Y58875D01*
X167036Y58869D01*
X167984Y58273D01*
X167993Y58274D01*
X167994Y58269D01*
X169051Y57899D01*
X169059Y57901D01*
X169062Y57896D01*
X170175Y57771D01*
X170182Y57775D01*
X170186Y57771D01*
X171298Y57896D01*
G37*
G36*
X162220Y84252D02*
X162220Y84252D01*
X162241Y84250D01*
X162351Y84272D01*
X162462Y84289D01*
X162481Y84298D01*
X162502Y84302D01*
X162540Y84326D01*
X162701Y84404D01*
X162784Y84481D01*
X162827Y84509D01*
X163141Y84823D01*
X163210Y84892D01*
X163241Y84933D01*
X163279Y84969D01*
X163319Y85040D01*
X163368Y85106D01*
X163385Y85155D01*
X163411Y85199D01*
X163428Y85279D01*
X163455Y85357D01*
X163457Y85408D01*
X163468Y85459D01*
X163462Y85541D01*
X163465Y85622D01*
X163451Y85672D01*
X163447Y85724D01*
X163416Y85800D01*
X163395Y85879D01*
X163367Y85923D01*
X163348Y85971D01*
X163296Y86034D01*
X163252Y86103D01*
X163213Y86137D01*
X163180Y86177D01*
X163112Y86222D01*
X163050Y86275D01*
X163002Y86296D01*
X162959Y86324D01*
X162909Y86336D01*
X162805Y86380D01*
X162627Y86398D01*
X162582Y86408D01*
X161394Y86408D01*
X161394Y94463D01*
X161379Y94564D01*
X161371Y94667D01*
X161359Y94695D01*
X161354Y94726D01*
X161310Y94818D01*
X161272Y94913D01*
X161252Y94937D01*
X161243Y94955D01*
X161253Y94973D01*
X161310Y95058D01*
X161316Y95082D01*
X161334Y95115D01*
X161392Y95374D01*
X161389Y95412D01*
X161394Y95435D01*
X161394Y103490D01*
X162675Y103490D01*
X163447Y103283D01*
X164139Y102883D01*
X164681Y102341D01*
X164763Y102281D01*
X164842Y102214D01*
X164870Y102202D01*
X164895Y102184D01*
X164992Y102150D01*
X165086Y102110D01*
X165117Y102106D01*
X165146Y102096D01*
X165248Y102093D01*
X165350Y102082D01*
X165381Y102088D01*
X165411Y102087D01*
X165510Y102114D01*
X165611Y102134D01*
X165631Y102147D01*
X165668Y102157D01*
X165892Y102300D01*
X165917Y102329D01*
X165937Y102341D01*
X166211Y102616D01*
X166224Y102633D01*
X166240Y102646D01*
X166302Y102739D01*
X166369Y102830D01*
X166376Y102849D01*
X166387Y102867D01*
X166397Y102911D01*
X166456Y103081D01*
X166460Y103193D01*
X166471Y103244D01*
X166471Y105709D01*
X166468Y105730D01*
X166470Y105751D01*
X166448Y105861D01*
X166431Y105972D01*
X166422Y105991D01*
X166418Y106012D01*
X166394Y106050D01*
X166316Y106211D01*
X166239Y106294D01*
X166211Y106337D01*
X160648Y111900D01*
X160565Y111961D01*
X160487Y112028D01*
X160459Y112040D01*
X160434Y112058D01*
X160337Y112092D01*
X160243Y112132D01*
X160212Y112135D01*
X160183Y112145D01*
X160080Y112149D01*
X159978Y112160D01*
X159948Y112154D01*
X159917Y112155D01*
X159818Y112128D01*
X159718Y112107D01*
X159697Y112095D01*
X159661Y112085D01*
X159437Y111942D01*
X159412Y111913D01*
X159392Y111900D01*
X157321Y109829D01*
X153829Y106337D01*
X153816Y106320D01*
X153800Y106307D01*
X153738Y106214D01*
X153671Y106123D01*
X153664Y106104D01*
X153653Y106086D01*
X153643Y106042D01*
X153584Y105872D01*
X153580Y105760D01*
X153569Y105709D01*
X153569Y103244D01*
X153572Y103223D01*
X153570Y103202D01*
X153592Y103092D01*
X153609Y102981D01*
X153618Y102962D01*
X153622Y102941D01*
X153646Y102903D01*
X153724Y102742D01*
X153801Y102659D01*
X153829Y102616D01*
X154103Y102341D01*
X154186Y102280D01*
X154264Y102214D01*
X154292Y102202D01*
X154317Y102184D01*
X154414Y102150D01*
X154508Y102110D01*
X154539Y102106D01*
X154568Y102096D01*
X154671Y102093D01*
X154773Y102082D01*
X154803Y102088D01*
X154834Y102087D01*
X154933Y102114D01*
X155034Y102134D01*
X155054Y102147D01*
X155090Y102157D01*
X155315Y102300D01*
X155339Y102329D01*
X155359Y102341D01*
X155901Y102883D01*
X156593Y103283D01*
X157365Y103490D01*
X158646Y103490D01*
X158646Y95435D01*
X158661Y95334D01*
X158669Y95231D01*
X158681Y95203D01*
X158685Y95172D01*
X158730Y95080D01*
X158768Y94985D01*
X158788Y94961D01*
X158797Y94943D01*
X158787Y94925D01*
X158730Y94840D01*
X158724Y94816D01*
X158706Y94783D01*
X158648Y94524D01*
X158651Y94486D01*
X158646Y94463D01*
X158646Y86408D01*
X157553Y86408D01*
X157502Y86401D01*
X157450Y86402D01*
X157371Y86381D01*
X157290Y86368D01*
X157244Y86346D01*
X157194Y86332D01*
X157125Y86288D01*
X157051Y86253D01*
X157013Y86217D01*
X156969Y86190D01*
X156916Y86127D01*
X156856Y86071D01*
X156831Y86026D01*
X156797Y85987D01*
X156765Y85912D01*
X156725Y85841D01*
X156713Y85790D01*
X156693Y85743D01*
X156685Y85661D01*
X156667Y85581D01*
X156671Y85530D01*
X156666Y85478D01*
X156682Y85398D01*
X156688Y85316D01*
X156708Y85268D01*
X156718Y85218D01*
X156745Y85174D01*
X156787Y85070D01*
X156900Y84930D01*
X156925Y84892D01*
X157308Y84509D01*
X157325Y84496D01*
X157338Y84480D01*
X157432Y84418D01*
X157522Y84351D01*
X157542Y84344D01*
X157559Y84333D01*
X157604Y84323D01*
X157773Y84264D01*
X157886Y84260D01*
X157936Y84249D01*
X162199Y84249D01*
X162220Y84252D01*
G37*
G36*
X171298Y18596D02*
X171298Y18596D01*
X171304Y18602D01*
X171309Y18599D01*
X172366Y18969D01*
X172370Y18976D01*
X172376Y18973D01*
X173324Y19569D01*
X173327Y19577D01*
X173332Y19576D01*
X174124Y20368D01*
X174125Y20376D01*
X174131Y20376D01*
X174727Y21324D01*
X174726Y21333D01*
X174731Y21334D01*
X175101Y22391D01*
X175100Y22395D01*
X175102Y22397D01*
X175100Y22400D01*
X175104Y22402D01*
X175229Y23515D01*
X175227Y23518D01*
X175229Y23520D01*
X175229Y29520D01*
X175227Y29523D01*
X175229Y29526D01*
X175104Y30638D01*
X175098Y30644D01*
X175101Y30649D01*
X174731Y31706D01*
X174725Y31710D01*
X174727Y31716D01*
X174131Y32664D01*
X174123Y32667D01*
X174124Y32672D01*
X173332Y33464D01*
X173324Y33465D01*
X173324Y33471D01*
X172376Y34067D01*
X172367Y34066D01*
X172366Y34071D01*
X171309Y34441D01*
X171301Y34439D01*
X171298Y34444D01*
X170186Y34569D01*
X170178Y34565D01*
X170175Y34569D01*
X169062Y34444D01*
X169056Y34438D01*
X169051Y34441D01*
X167994Y34071D01*
X167990Y34065D01*
X167984Y34067D01*
X167036Y33471D01*
X167033Y33463D01*
X167028Y33464D01*
X166236Y32672D01*
X166235Y32664D01*
X166229Y32664D01*
X165633Y31716D01*
X165634Y31707D01*
X165629Y31706D01*
X165259Y30649D01*
X165261Y30641D01*
X165256Y30638D01*
X165131Y29526D01*
X165133Y29522D01*
X165131Y29520D01*
X165131Y23520D01*
X165133Y23517D01*
X165131Y23515D01*
X165256Y22402D01*
X165262Y22396D01*
X165259Y22391D01*
X165629Y21334D01*
X165636Y21330D01*
X165633Y21324D01*
X166229Y20376D01*
X166237Y20373D01*
X166236Y20368D01*
X167028Y19576D01*
X167036Y19575D01*
X167036Y19569D01*
X167984Y18973D01*
X167993Y18974D01*
X167994Y18969D01*
X169051Y18599D01*
X169059Y18601D01*
X169062Y18596D01*
X170175Y18471D01*
X170182Y18475D01*
X170186Y18471D01*
X171298Y18596D01*
G37*
G36*
X84938Y18596D02*
X84938Y18596D01*
X84944Y18602D01*
X84949Y18599D01*
X86006Y18969D01*
X86010Y18976D01*
X86016Y18973D01*
X86964Y19569D01*
X86967Y19577D01*
X86972Y19576D01*
X87764Y20368D01*
X87765Y20376D01*
X87771Y20376D01*
X88367Y21324D01*
X88366Y21333D01*
X88371Y21334D01*
X88741Y22391D01*
X88740Y22395D01*
X88742Y22397D01*
X88740Y22400D01*
X88744Y22402D01*
X88869Y23515D01*
X88867Y23518D01*
X88869Y23520D01*
X88869Y29520D01*
X88867Y29523D01*
X88869Y29526D01*
X88744Y30638D01*
X88738Y30644D01*
X88741Y30649D01*
X88371Y31706D01*
X88365Y31710D01*
X88367Y31716D01*
X87771Y32664D01*
X87763Y32667D01*
X87764Y32672D01*
X86972Y33464D01*
X86964Y33465D01*
X86964Y33471D01*
X86016Y34067D01*
X86007Y34066D01*
X86006Y34071D01*
X84949Y34441D01*
X84941Y34439D01*
X84938Y34444D01*
X83826Y34569D01*
X83818Y34565D01*
X83815Y34569D01*
X82702Y34444D01*
X82696Y34438D01*
X82691Y34441D01*
X81634Y34071D01*
X81630Y34065D01*
X81624Y34067D01*
X80676Y33471D01*
X80673Y33463D01*
X80668Y33464D01*
X79876Y32672D01*
X79875Y32664D01*
X79869Y32664D01*
X79273Y31716D01*
X79274Y31707D01*
X79269Y31706D01*
X78899Y30649D01*
X78901Y30641D01*
X78896Y30638D01*
X78771Y29526D01*
X78773Y29522D01*
X78771Y29520D01*
X78771Y23520D01*
X78773Y23517D01*
X78771Y23515D01*
X78896Y22402D01*
X78902Y22396D01*
X78899Y22391D01*
X79269Y21334D01*
X79276Y21330D01*
X79273Y21324D01*
X79869Y20376D01*
X79877Y20373D01*
X79876Y20368D01*
X80668Y19576D01*
X80676Y19575D01*
X80676Y19569D01*
X81624Y18973D01*
X81633Y18974D01*
X81634Y18969D01*
X82691Y18599D01*
X82699Y18601D01*
X82702Y18596D01*
X83815Y18471D01*
X83822Y18475D01*
X83826Y18471D01*
X84938Y18596D01*
G37*
%LPC*%
G36*
X118777Y153359D02*
X118777Y153359D01*
X118777Y177123D01*
X124541Y177123D01*
X124541Y156000D01*
X124333Y155226D01*
X123933Y154533D01*
X123367Y153967D01*
X122674Y153567D01*
X121900Y153359D01*
X118777Y153359D01*
G37*
%LPD*%
%LPC*%
G36*
X112719Y10921D02*
X112719Y10921D01*
X111082Y12558D01*
X111082Y14874D01*
X112719Y16511D01*
X113157Y16511D01*
X113259Y16526D01*
X113361Y16534D01*
X113389Y16546D01*
X113420Y16551D01*
X113512Y16595D01*
X113608Y16633D01*
X113631Y16653D01*
X113659Y16666D01*
X113734Y16736D01*
X113814Y16801D01*
X113831Y16827D01*
X113853Y16848D01*
X113904Y16937D01*
X113961Y17022D01*
X113967Y17046D01*
X113985Y17078D01*
X114043Y17338D01*
X114040Y17376D01*
X114045Y17399D01*
X114045Y18388D01*
X114037Y18441D01*
X114039Y18495D01*
X114017Y18572D01*
X114005Y18650D01*
X113982Y18699D01*
X113968Y18751D01*
X113925Y18818D01*
X113890Y18890D01*
X113853Y18929D01*
X113824Y18974D01*
X113763Y19026D01*
X113708Y19084D01*
X113662Y19111D01*
X113620Y19145D01*
X113572Y19162D01*
X113478Y19216D01*
X113296Y19256D01*
X113255Y19270D01*
X112418Y19363D01*
X110971Y21171D01*
X111227Y23472D01*
X114935Y26439D01*
X114977Y26485D01*
X115008Y26505D01*
X115702Y27199D01*
X115756Y27204D01*
X115776Y27213D01*
X115811Y27219D01*
X115965Y27293D01*
X116946Y27184D01*
X117008Y27187D01*
X117044Y27179D01*
X118026Y27179D01*
X118067Y27144D01*
X118088Y27137D01*
X118117Y27116D01*
X118278Y27060D01*
X118895Y26289D01*
X118941Y26246D01*
X118961Y26216D01*
X119655Y25522D01*
X119660Y25468D01*
X119669Y25448D01*
X119675Y25413D01*
X119749Y25259D01*
X119640Y24278D01*
X119643Y24216D01*
X119635Y24180D01*
X119635Y17399D01*
X119650Y17297D01*
X119658Y17195D01*
X119670Y17167D01*
X119675Y17136D01*
X119719Y17044D01*
X119757Y16948D01*
X119777Y16925D01*
X119790Y16897D01*
X119860Y16822D01*
X119925Y16742D01*
X119951Y16725D01*
X119972Y16703D01*
X120061Y16652D01*
X120146Y16595D01*
X120170Y16589D01*
X120202Y16571D01*
X120462Y16513D01*
X120500Y16516D01*
X120523Y16511D01*
X120961Y16511D01*
X122598Y14874D01*
X122598Y12558D01*
X120961Y10921D01*
X112719Y10921D01*
G37*
%LPD*%
%LPC*%
G36*
X238504Y178855D02*
X238504Y178855D01*
X236717Y179436D01*
X235043Y180289D01*
X233522Y181394D01*
X232194Y182722D01*
X231089Y184243D01*
X230236Y185917D01*
X229655Y187704D01*
X229494Y188723D01*
X239523Y188723D01*
X239523Y178694D01*
X238504Y178855D01*
G37*
%LPD*%
G36*
X139338Y93929D02*
X139338Y93929D01*
X139360Y93933D01*
X139367Y93948D01*
X139376Y93954D01*
X139375Y93964D01*
X139382Y93980D01*
X139382Y96520D01*
X139370Y96539D01*
X139366Y96561D01*
X139351Y96568D01*
X139345Y96577D01*
X139335Y96576D01*
X139319Y96583D01*
X114681Y96583D01*
X114662Y96571D01*
X114640Y96567D01*
X114633Y96552D01*
X114624Y96546D01*
X114625Y96536D01*
X114618Y96520D01*
X114618Y93980D01*
X114630Y93961D01*
X114634Y93939D01*
X114649Y93932D01*
X114655Y93923D01*
X114665Y93924D01*
X114681Y93917D01*
X139319Y93917D01*
X139338Y93929D01*
G37*
G36*
X74314Y163779D02*
X74314Y163779D01*
X74336Y163783D01*
X74343Y163798D01*
X74352Y163804D01*
X74351Y163814D01*
X74358Y163830D01*
X74358Y166370D01*
X74346Y166389D01*
X74342Y166411D01*
X74327Y166418D01*
X74321Y166427D01*
X74311Y166426D01*
X74295Y166433D01*
X60325Y166433D01*
X60306Y166421D01*
X60284Y166417D01*
X60277Y166402D01*
X60268Y166396D01*
X60269Y166386D01*
X60262Y166370D01*
X60262Y163830D01*
X60274Y163811D01*
X60278Y163789D01*
X60293Y163782D01*
X60299Y163773D01*
X60309Y163774D01*
X60325Y163767D01*
X74295Y163767D01*
X74314Y163779D01*
G37*
G36*
X182264Y44399D02*
X182264Y44399D01*
X182286Y44403D01*
X182293Y44418D01*
X182302Y44424D01*
X182301Y44434D01*
X182308Y44450D01*
X182308Y46990D01*
X182296Y47009D01*
X182292Y47031D01*
X182277Y47038D01*
X182271Y47047D01*
X182261Y47046D01*
X182245Y47053D01*
X168275Y47053D01*
X168256Y47041D01*
X168234Y47037D01*
X168227Y47022D01*
X168218Y47016D01*
X168219Y47006D01*
X168212Y46990D01*
X168212Y44450D01*
X168224Y44431D01*
X168228Y44409D01*
X168243Y44402D01*
X168249Y44393D01*
X168259Y44394D01*
X168275Y44387D01*
X182245Y44387D01*
X182264Y44399D01*
G37*
%LPC*%
G36*
X109108Y41509D02*
X109108Y41509D01*
X108332Y41717D01*
X107637Y42119D01*
X107069Y42687D01*
X106667Y43382D01*
X106459Y44158D01*
X106459Y49301D01*
X110501Y49301D01*
X110501Y41509D01*
X109108Y41509D01*
G37*
%LPD*%
%LPC*%
G36*
X67690Y47370D02*
X67690Y47370D01*
X67690Y51974D01*
X67897Y52747D01*
X68297Y53439D01*
X68862Y54004D01*
X69554Y54404D01*
X70327Y54611D01*
X71883Y54611D01*
X71883Y47370D01*
X67690Y47370D01*
G37*
%LPD*%
%LPC*%
G36*
X201547Y106097D02*
X201547Y106097D01*
X201547Y111361D01*
X204675Y111361D01*
X205447Y111154D01*
X206139Y110754D01*
X206704Y110189D01*
X207104Y109497D01*
X207311Y108725D01*
X207311Y106097D01*
X201547Y106097D01*
G37*
%LPD*%
%LPC*%
G36*
X201547Y65097D02*
X201547Y65097D01*
X201547Y70361D01*
X204675Y70361D01*
X205447Y70154D01*
X206139Y69754D01*
X206704Y69189D01*
X207104Y68497D01*
X207311Y67725D01*
X207311Y65097D01*
X201547Y65097D01*
G37*
%LPD*%
%LPC*%
G36*
X201547Y102543D02*
X201547Y102543D01*
X207311Y102543D01*
X207311Y99915D01*
X207104Y99143D01*
X206704Y98451D01*
X206139Y97886D01*
X205447Y97486D01*
X204675Y97279D01*
X201547Y97279D01*
X201547Y102543D01*
G37*
%LPD*%
%LPC*%
G36*
X201547Y61543D02*
X201547Y61543D01*
X207311Y61543D01*
X207311Y58915D01*
X207104Y58143D01*
X206704Y57451D01*
X206139Y56886D01*
X205447Y56486D01*
X204675Y56279D01*
X201547Y56279D01*
X201547Y61543D01*
G37*
%LPD*%
%LPC*%
G36*
X46689Y106097D02*
X46689Y106097D01*
X46689Y108725D01*
X46896Y109497D01*
X47296Y110189D01*
X47861Y110754D01*
X48553Y111154D01*
X49325Y111361D01*
X52453Y111361D01*
X52453Y106097D01*
X46689Y106097D01*
G37*
%LPD*%
%LPC*%
G36*
X46689Y65097D02*
X46689Y65097D01*
X46689Y67725D01*
X46896Y68497D01*
X47296Y69189D01*
X47861Y69754D01*
X48553Y70154D01*
X49325Y70361D01*
X52453Y70361D01*
X52453Y65097D01*
X46689Y65097D01*
G37*
%LPD*%
%LPC*%
G36*
X49325Y97279D02*
X49325Y97279D01*
X48553Y97486D01*
X47861Y97886D01*
X47296Y98451D01*
X46896Y99143D01*
X46689Y99915D01*
X46689Y102543D01*
X52453Y102543D01*
X52453Y97279D01*
X49325Y97279D01*
G37*
%LPD*%
%LPC*%
G36*
X49325Y56279D02*
X49325Y56279D01*
X48553Y56486D01*
X47861Y56886D01*
X47296Y57451D01*
X46896Y58143D01*
X46689Y58915D01*
X46689Y61543D01*
X52453Y61543D01*
X52453Y56279D01*
X49325Y56279D01*
G37*
%LPD*%
%LPC*%
G36*
X143739Y146199D02*
X143739Y146199D01*
X143739Y150241D01*
X145132Y150241D01*
X145908Y150033D01*
X146603Y149631D01*
X146692Y149542D01*
X146775Y149481D01*
X146853Y149415D01*
X146881Y149403D01*
X146906Y149385D01*
X147003Y149351D01*
X147097Y149311D01*
X147128Y149308D01*
X147157Y149297D01*
X147260Y149294D01*
X147362Y149283D01*
X147392Y149289D01*
X147423Y149288D01*
X147522Y149315D01*
X147622Y149335D01*
X147643Y149348D01*
X147679Y149358D01*
X147903Y149501D01*
X147928Y149530D01*
X147948Y149543D01*
X148037Y149631D01*
X148732Y150033D01*
X149508Y150241D01*
X150901Y150241D01*
X150901Y146199D01*
X143739Y146199D01*
G37*
%LPD*%
%LPC*%
G36*
X92939Y146199D02*
X92939Y146199D01*
X92939Y150241D01*
X94332Y150241D01*
X95108Y150033D01*
X95803Y149631D01*
X95892Y149543D01*
X95975Y149482D01*
X96053Y149415D01*
X96081Y149403D01*
X96106Y149385D01*
X96203Y149351D01*
X96297Y149311D01*
X96328Y149308D01*
X96357Y149297D01*
X96459Y149294D01*
X96562Y149283D01*
X96592Y149289D01*
X96623Y149288D01*
X96722Y149315D01*
X96822Y149335D01*
X96842Y149348D01*
X96879Y149358D01*
X97103Y149501D01*
X97128Y149530D01*
X97148Y149542D01*
X97237Y149631D01*
X97932Y150033D01*
X98708Y150241D01*
X100101Y150241D01*
X100101Y146199D01*
X92939Y146199D01*
G37*
%LPD*%
%LPC*%
G36*
X184379Y146199D02*
X184379Y146199D01*
X184379Y150241D01*
X185772Y150241D01*
X186548Y150033D01*
X187243Y149631D01*
X187811Y149063D01*
X188213Y148368D01*
X188421Y147592D01*
X188421Y146199D01*
X184379Y146199D01*
G37*
%LPD*%
%LPC*%
G36*
X65579Y146199D02*
X65579Y146199D01*
X65579Y147592D01*
X65787Y148368D01*
X66189Y149063D01*
X66757Y149631D01*
X67452Y150033D01*
X68228Y150241D01*
X69621Y150241D01*
X69621Y146199D01*
X65579Y146199D01*
G37*
%LPD*%
D10*
X113877Y22013D02*
X116840Y24384D01*
X116840Y13716D01*
X113877Y13716D02*
X119803Y13716D01*
D11*
X170180Y22742D02*
X170180Y30298D01*
X83820Y30298D02*
X83820Y22742D01*
X83820Y64542D02*
X83820Y72098D01*
X170180Y72098D02*
X170180Y64542D01*
D12*
X241300Y190500D03*
X241300Y165100D03*
X241300Y139700D03*
X241300Y114300D03*
X241300Y88900D03*
X241300Y63500D03*
X12700Y190500D03*
X12700Y165100D03*
X12700Y139700D03*
X12700Y114300D03*
X12700Y88900D03*
X12700Y63500D03*
D13*
X112500Y156400D02*
X121500Y156400D01*
X112500Y156400D02*
X112500Y201400D01*
X121500Y201400D01*
X121500Y156400D01*
X121500Y157350D02*
X112500Y157350D01*
X112500Y158300D02*
X121500Y158300D01*
X121500Y159250D02*
X112500Y159250D01*
X112500Y160200D02*
X121500Y160200D01*
X121500Y161150D02*
X112500Y161150D01*
X112500Y162100D02*
X121500Y162100D01*
X121500Y163050D02*
X112500Y163050D01*
X112500Y164000D02*
X121500Y164000D01*
X121500Y164950D02*
X112500Y164950D01*
X112500Y165900D02*
X121500Y165900D01*
X121500Y166850D02*
X112500Y166850D01*
X112500Y167800D02*
X121500Y167800D01*
X121500Y168750D02*
X112500Y168750D01*
X112500Y169700D02*
X121500Y169700D01*
X121500Y170650D02*
X112500Y170650D01*
X112500Y171600D02*
X121500Y171600D01*
X121500Y172550D02*
X112500Y172550D01*
X112500Y173500D02*
X121500Y173500D01*
X121500Y174450D02*
X112500Y174450D01*
X112500Y175400D02*
X121500Y175400D01*
X121500Y176350D02*
X112500Y176350D01*
X112500Y177300D02*
X121500Y177300D01*
X121500Y178250D02*
X112500Y178250D01*
X112500Y179200D02*
X121500Y179200D01*
X121500Y180150D02*
X112500Y180150D01*
X112500Y181100D02*
X121500Y181100D01*
X121500Y182050D02*
X112500Y182050D01*
X112500Y183000D02*
X121500Y183000D01*
X121500Y183950D02*
X112500Y183950D01*
X112500Y184900D02*
X121500Y184900D01*
X121500Y185850D02*
X112500Y185850D01*
X112500Y186800D02*
X121500Y186800D01*
X121500Y187750D02*
X112500Y187750D01*
X112500Y188700D02*
X121500Y188700D01*
X121500Y189650D02*
X112500Y189650D01*
X112500Y190600D02*
X121500Y190600D01*
X121500Y191550D02*
X112500Y191550D01*
X112500Y192500D02*
X121500Y192500D01*
X121500Y193450D02*
X112500Y193450D01*
X112500Y194400D02*
X121500Y194400D01*
X121500Y195350D02*
X112500Y195350D01*
X112500Y196300D02*
X121500Y196300D01*
X121500Y197250D02*
X112500Y197250D01*
X112500Y198200D02*
X121500Y198200D01*
X121500Y199150D02*
X112500Y199150D01*
X112500Y200100D02*
X121500Y200100D01*
X121500Y201050D02*
X112500Y201050D01*
X132500Y156400D02*
X141500Y156400D01*
X132500Y156400D02*
X132500Y201400D01*
X141500Y201400D01*
X141500Y156400D01*
X141500Y157350D02*
X132500Y157350D01*
X132500Y158300D02*
X141500Y158300D01*
X141500Y159250D02*
X132500Y159250D01*
X132500Y160200D02*
X141500Y160200D01*
X141500Y161150D02*
X132500Y161150D01*
X132500Y162100D02*
X141500Y162100D01*
X141500Y163050D02*
X132500Y163050D01*
X132500Y164000D02*
X141500Y164000D01*
X141500Y164950D02*
X132500Y164950D01*
X132500Y165900D02*
X141500Y165900D01*
X141500Y166850D02*
X132500Y166850D01*
X132500Y167800D02*
X141500Y167800D01*
X141500Y168750D02*
X132500Y168750D01*
X132500Y169700D02*
X141500Y169700D01*
X141500Y170650D02*
X132500Y170650D01*
X132500Y171600D02*
X141500Y171600D01*
X141500Y172550D02*
X132500Y172550D01*
X132500Y173500D02*
X141500Y173500D01*
X141500Y174450D02*
X132500Y174450D01*
X132500Y175400D02*
X141500Y175400D01*
X141500Y176350D02*
X132500Y176350D01*
X132500Y177300D02*
X141500Y177300D01*
X141500Y178250D02*
X132500Y178250D01*
X132500Y179200D02*
X141500Y179200D01*
X141500Y180150D02*
X132500Y180150D01*
X132500Y181100D02*
X141500Y181100D01*
X141500Y182050D02*
X132500Y182050D01*
X132500Y183000D02*
X141500Y183000D01*
X141500Y183950D02*
X132500Y183950D01*
X132500Y184900D02*
X141500Y184900D01*
X141500Y185850D02*
X132500Y185850D01*
X132500Y186800D02*
X141500Y186800D01*
X141500Y187750D02*
X132500Y187750D01*
X132500Y188700D02*
X141500Y188700D01*
X141500Y189650D02*
X132500Y189650D01*
X132500Y190600D02*
X141500Y190600D01*
X141500Y191550D02*
X132500Y191550D01*
X132500Y192500D02*
X141500Y192500D01*
X141500Y193450D02*
X132500Y193450D01*
X132500Y194400D02*
X141500Y194400D01*
X141500Y195350D02*
X132500Y195350D01*
X132500Y196300D02*
X141500Y196300D01*
X141500Y197250D02*
X132500Y197250D01*
X132500Y198200D02*
X141500Y198200D01*
X141500Y199150D02*
X132500Y199150D01*
X132500Y200100D02*
X141500Y200100D01*
X141500Y201050D02*
X132500Y201050D01*
D14*
X100520Y214380D02*
X100520Y247420D01*
X100520Y214380D02*
X85480Y214380D01*
X85480Y247420D01*
X100520Y247420D01*
X100520Y215292D02*
X85480Y215292D01*
X85480Y216204D02*
X100520Y216204D01*
X100520Y217116D02*
X85480Y217116D01*
X85480Y218028D02*
X100520Y218028D01*
X100520Y218940D02*
X85480Y218940D01*
X85480Y219852D02*
X100520Y219852D01*
X100520Y220764D02*
X85480Y220764D01*
X85480Y221676D02*
X100520Y221676D01*
X100520Y222588D02*
X85480Y222588D01*
X85480Y223500D02*
X100520Y223500D01*
X100520Y224412D02*
X85480Y224412D01*
X85480Y225324D02*
X100520Y225324D01*
X100520Y226236D02*
X85480Y226236D01*
X85480Y227148D02*
X100520Y227148D01*
X100520Y228060D02*
X85480Y228060D01*
X85480Y228972D02*
X100520Y228972D01*
X100520Y229884D02*
X85480Y229884D01*
X85480Y230796D02*
X100520Y230796D01*
X100520Y231708D02*
X85480Y231708D01*
X85480Y232620D02*
X100520Y232620D01*
X100520Y233532D02*
X85480Y233532D01*
X85480Y234444D02*
X100520Y234444D01*
X100520Y235356D02*
X85480Y235356D01*
X85480Y236268D02*
X100520Y236268D01*
X100520Y237180D02*
X85480Y237180D01*
X85480Y238092D02*
X100520Y238092D01*
X100520Y239004D02*
X85480Y239004D01*
X85480Y239916D02*
X100520Y239916D01*
X100520Y240828D02*
X85480Y240828D01*
X85480Y241740D02*
X100520Y241740D01*
X100520Y242652D02*
X85480Y242652D01*
X85480Y243564D02*
X100520Y243564D01*
X100520Y244476D02*
X85480Y244476D01*
X85480Y245388D02*
X100520Y245388D01*
X100520Y246300D02*
X85480Y246300D01*
X85480Y247212D02*
X100520Y247212D01*
X168520Y247420D02*
X168520Y214380D01*
X153480Y214380D01*
X153480Y247420D01*
X168520Y247420D01*
X168520Y215292D02*
X153480Y215292D01*
X153480Y216204D02*
X168520Y216204D01*
X168520Y217116D02*
X153480Y217116D01*
X153480Y218028D02*
X168520Y218028D01*
X168520Y218940D02*
X153480Y218940D01*
X153480Y219852D02*
X168520Y219852D01*
X168520Y220764D02*
X153480Y220764D01*
X153480Y221676D02*
X168520Y221676D01*
X168520Y222588D02*
X153480Y222588D01*
X153480Y223500D02*
X168520Y223500D01*
X168520Y224412D02*
X153480Y224412D01*
X153480Y225324D02*
X168520Y225324D01*
X168520Y226236D02*
X153480Y226236D01*
X153480Y227148D02*
X168520Y227148D01*
X168520Y228060D02*
X153480Y228060D01*
X153480Y228972D02*
X168520Y228972D01*
X168520Y229884D02*
X153480Y229884D01*
X153480Y230796D02*
X168520Y230796D01*
X168520Y231708D02*
X153480Y231708D01*
X153480Y232620D02*
X168520Y232620D01*
X168520Y233532D02*
X153480Y233532D01*
X153480Y234444D02*
X168520Y234444D01*
X168520Y235356D02*
X153480Y235356D01*
X153480Y236268D02*
X168520Y236268D01*
X168520Y237180D02*
X153480Y237180D01*
X153480Y238092D02*
X168520Y238092D01*
X168520Y239004D02*
X153480Y239004D01*
X153480Y239916D02*
X168520Y239916D01*
X168520Y240828D02*
X153480Y240828D01*
X153480Y241740D02*
X168520Y241740D01*
X168520Y242652D02*
X153480Y242652D01*
X153480Y243564D02*
X168520Y243564D01*
X168520Y244476D02*
X153480Y244476D01*
X153480Y245388D02*
X168520Y245388D01*
X168520Y246300D02*
X153480Y246300D01*
X153480Y247212D02*
X168520Y247212D01*
X104520Y4530D02*
X93480Y4530D01*
X93480Y23570D01*
X104520Y23570D01*
X104520Y4530D01*
X104520Y5442D02*
X93480Y5442D01*
X93480Y6354D02*
X104520Y6354D01*
X104520Y7266D02*
X93480Y7266D01*
X93480Y8178D02*
X104520Y8178D01*
X104520Y9090D02*
X93480Y9090D01*
X93480Y10002D02*
X104520Y10002D01*
X104520Y10914D02*
X93480Y10914D01*
X93480Y11826D02*
X104520Y11826D01*
X104520Y12738D02*
X93480Y12738D01*
X93480Y13650D02*
X104520Y13650D01*
X104520Y14562D02*
X93480Y14562D01*
X93480Y15474D02*
X104520Y15474D01*
X104520Y16386D02*
X93480Y16386D01*
X93480Y17298D02*
X104520Y17298D01*
X104520Y18210D02*
X93480Y18210D01*
X93480Y19122D02*
X104520Y19122D01*
X104520Y20034D02*
X93480Y20034D01*
X93480Y20946D02*
X104520Y20946D01*
X104520Y21858D02*
X93480Y21858D01*
X93480Y22770D02*
X104520Y22770D01*
X149480Y4530D02*
X160520Y4530D01*
X149480Y4530D02*
X149480Y23570D01*
X160520Y23570D01*
X160520Y4530D01*
X160520Y5442D02*
X149480Y5442D01*
X149480Y6354D02*
X160520Y6354D01*
X160520Y7266D02*
X149480Y7266D01*
X149480Y8178D02*
X160520Y8178D01*
X160520Y9090D02*
X149480Y9090D01*
X149480Y10002D02*
X160520Y10002D01*
X160520Y10914D02*
X149480Y10914D01*
X149480Y11826D02*
X160520Y11826D01*
X160520Y12738D02*
X149480Y12738D01*
X149480Y13650D02*
X160520Y13650D01*
X160520Y14562D02*
X149480Y14562D01*
X149480Y15474D02*
X160520Y15474D01*
X160520Y16386D02*
X149480Y16386D01*
X149480Y17298D02*
X160520Y17298D01*
X160520Y18210D02*
X149480Y18210D01*
X149480Y19122D02*
X160520Y19122D01*
X160520Y20034D02*
X149480Y20034D01*
X149480Y20946D02*
X160520Y20946D01*
X160520Y21858D02*
X149480Y21858D01*
X149480Y22770D02*
X160520Y22770D01*
D15*
X114490Y44560D02*
X109510Y44560D01*
X109510Y57040D01*
X114490Y57040D01*
X114490Y44560D01*
X114490Y45529D02*
X109510Y45529D01*
X109510Y46498D02*
X114490Y46498D01*
X114490Y47467D02*
X109510Y47467D01*
X109510Y48436D02*
X114490Y48436D01*
X114490Y49405D02*
X109510Y49405D01*
X109510Y50374D02*
X114490Y50374D01*
X114490Y51343D02*
X109510Y51343D01*
X109510Y52312D02*
X114490Y52312D01*
X114490Y53281D02*
X109510Y53281D01*
X109510Y54250D02*
X114490Y54250D01*
X114490Y55219D02*
X109510Y55219D01*
X109510Y56188D02*
X114490Y56188D01*
X119510Y44560D02*
X124490Y44560D01*
X119510Y44560D02*
X119510Y57040D01*
X124490Y57040D01*
X124490Y44560D01*
X124490Y45529D02*
X119510Y45529D01*
X119510Y46498D02*
X124490Y46498D01*
X124490Y47467D02*
X119510Y47467D01*
X119510Y48436D02*
X124490Y48436D01*
X124490Y49405D02*
X119510Y49405D01*
X119510Y50374D02*
X124490Y50374D01*
X124490Y51343D02*
X119510Y51343D01*
X119510Y52312D02*
X124490Y52312D01*
X124490Y53281D02*
X119510Y53281D01*
X119510Y54250D02*
X124490Y54250D01*
X124490Y55219D02*
X119510Y55219D01*
X119510Y56188D02*
X124490Y56188D01*
X129510Y44560D02*
X134490Y44560D01*
X129510Y44560D02*
X129510Y57040D01*
X134490Y57040D01*
X134490Y44560D01*
X134490Y45529D02*
X129510Y45529D01*
X129510Y46498D02*
X134490Y46498D01*
X134490Y47467D02*
X129510Y47467D01*
X129510Y48436D02*
X134490Y48436D01*
X134490Y49405D02*
X129510Y49405D01*
X129510Y50374D02*
X134490Y50374D01*
X134490Y51343D02*
X129510Y51343D01*
X129510Y52312D02*
X134490Y52312D01*
X134490Y53281D02*
X129510Y53281D01*
X129510Y54250D02*
X134490Y54250D01*
X134490Y55219D02*
X129510Y55219D01*
X129510Y56188D02*
X134490Y56188D01*
X139510Y44560D02*
X144490Y44560D01*
X139510Y44560D02*
X139510Y57040D01*
X144490Y57040D01*
X144490Y44560D01*
X144490Y45529D02*
X139510Y45529D01*
X139510Y46498D02*
X144490Y46498D01*
X144490Y47467D02*
X139510Y47467D01*
X139510Y48436D02*
X144490Y48436D01*
X144490Y49405D02*
X139510Y49405D01*
X139510Y50374D02*
X144490Y50374D01*
X144490Y51343D02*
X139510Y51343D01*
X139510Y52312D02*
X144490Y52312D01*
X144490Y53281D02*
X139510Y53281D01*
X139510Y54250D02*
X144490Y54250D01*
X144490Y55219D02*
X139510Y55219D01*
X139510Y56188D02*
X144490Y56188D01*
D16*
X148265Y89444D02*
X152775Y89444D01*
X148265Y89444D02*
X148265Y100454D01*
X152775Y100454D01*
X152775Y89444D01*
X152775Y90384D02*
X148265Y90384D01*
X148265Y91324D02*
X152775Y91324D01*
X152775Y92264D02*
X148265Y92264D01*
X148265Y93204D02*
X152775Y93204D01*
X152775Y94144D02*
X148265Y94144D01*
X148265Y95084D02*
X152775Y95084D01*
X152775Y96024D02*
X148265Y96024D01*
X148265Y96964D02*
X152775Y96964D01*
X152775Y97904D02*
X148265Y97904D01*
X148265Y98844D02*
X152775Y98844D01*
X152775Y99784D02*
X148265Y99784D01*
X157765Y89444D02*
X162275Y89444D01*
X157765Y89444D02*
X157765Y100454D01*
X162275Y100454D01*
X162275Y89444D01*
X162275Y90384D02*
X157765Y90384D01*
X157765Y91324D02*
X162275Y91324D01*
X162275Y92264D02*
X157765Y92264D01*
X157765Y93204D02*
X162275Y93204D01*
X162275Y94144D02*
X157765Y94144D01*
X157765Y95084D02*
X162275Y95084D01*
X162275Y96024D02*
X157765Y96024D01*
X157765Y96964D02*
X162275Y96964D01*
X162275Y97904D02*
X157765Y97904D01*
X157765Y98844D02*
X162275Y98844D01*
X162275Y99784D02*
X157765Y99784D01*
X167265Y89444D02*
X171775Y89444D01*
X167265Y89444D02*
X167265Y100454D01*
X171775Y100454D01*
X171775Y89444D01*
X171775Y90384D02*
X167265Y90384D01*
X167265Y91324D02*
X171775Y91324D01*
X171775Y92264D02*
X167265Y92264D01*
X167265Y93204D02*
X171775Y93204D01*
X171775Y94144D02*
X167265Y94144D01*
X167265Y95084D02*
X171775Y95084D01*
X171775Y96024D02*
X167265Y96024D01*
X167265Y96964D02*
X171775Y96964D01*
X171775Y97904D02*
X167265Y97904D01*
X167265Y98844D02*
X171775Y98844D01*
X171775Y99784D02*
X167265Y99784D01*
X167265Y115446D02*
X171775Y115446D01*
X167265Y115446D02*
X167265Y126456D01*
X171775Y126456D01*
X171775Y115446D01*
X171775Y116386D02*
X167265Y116386D01*
X167265Y117326D02*
X171775Y117326D01*
X171775Y118266D02*
X167265Y118266D01*
X167265Y119206D02*
X171775Y119206D01*
X171775Y120146D02*
X167265Y120146D01*
X167265Y121086D02*
X171775Y121086D01*
X171775Y122026D02*
X167265Y122026D01*
X167265Y122966D02*
X171775Y122966D01*
X171775Y123906D02*
X167265Y123906D01*
X167265Y124846D02*
X171775Y124846D01*
X171775Y125786D02*
X167265Y125786D01*
X152775Y115446D02*
X148265Y115446D01*
X148265Y126456D01*
X152775Y126456D01*
X152775Y115446D01*
X152775Y116386D02*
X148265Y116386D01*
X148265Y117326D02*
X152775Y117326D01*
X152775Y118266D02*
X148265Y118266D01*
X148265Y119206D02*
X152775Y119206D01*
X152775Y120146D02*
X148265Y120146D01*
X148265Y121086D02*
X152775Y121086D01*
X152775Y122026D02*
X148265Y122026D01*
X148265Y122966D02*
X152775Y122966D01*
X152775Y123906D02*
X148265Y123906D01*
X148265Y124846D02*
X152775Y124846D01*
X152775Y125786D02*
X148265Y125786D01*
D17*
X187000Y16320D02*
X194000Y16320D01*
X194000Y9320D01*
X187000Y9320D01*
X187000Y16320D01*
X187000Y12170D02*
X194000Y12170D01*
X194000Y15020D02*
X187000Y15020D01*
X187000Y33860D02*
X194000Y33860D01*
X194000Y26860D01*
X187000Y26860D01*
X187000Y33860D01*
X187000Y29710D02*
X194000Y29710D01*
X194000Y32560D02*
X187000Y32560D01*
X67000Y16320D02*
X60000Y16320D01*
X67000Y16320D02*
X67000Y9320D01*
X60000Y9320D01*
X60000Y16320D01*
X60000Y12170D02*
X67000Y12170D01*
X67000Y15020D02*
X60000Y15020D01*
X60000Y33860D02*
X67000Y33860D01*
X67000Y26860D01*
X60000Y26860D01*
X60000Y33860D01*
X60000Y29710D02*
X67000Y29710D01*
X67000Y32560D02*
X60000Y32560D01*
D15*
X165230Y8940D02*
X170210Y8940D01*
X165230Y8940D02*
X165230Y13920D01*
X170210Y13920D01*
X170210Y8940D01*
X170210Y9909D02*
X165230Y9909D01*
X165230Y10878D02*
X170210Y10878D01*
X170210Y11847D02*
X165230Y11847D01*
X165230Y12816D02*
X170210Y12816D01*
X170210Y13785D02*
X165230Y13785D01*
X175230Y8940D02*
X180210Y8940D01*
X175230Y8940D02*
X175230Y13920D01*
X180210Y13920D01*
X180210Y8940D01*
X180210Y9909D02*
X175230Y9909D01*
X175230Y10878D02*
X180210Y10878D01*
X180210Y11847D02*
X175230Y11847D01*
X175230Y12816D02*
X180210Y12816D01*
X180210Y13785D02*
X175230Y13785D01*
X88770Y13920D02*
X83790Y13920D01*
X88770Y13920D02*
X88770Y8940D01*
X83790Y8940D01*
X83790Y13920D01*
X83790Y9909D02*
X88770Y9909D01*
X88770Y10878D02*
X83790Y10878D01*
X83790Y11847D02*
X88770Y11847D01*
X88770Y12816D02*
X83790Y12816D01*
X83790Y13785D02*
X88770Y13785D01*
X78770Y13920D02*
X73790Y13920D01*
X78770Y13920D02*
X78770Y8940D01*
X73790Y8940D01*
X73790Y13920D01*
X73790Y9909D02*
X78770Y9909D01*
X78770Y10878D02*
X73790Y10878D01*
X73790Y11847D02*
X78770Y11847D01*
X78770Y12816D02*
X73790Y12816D01*
X73790Y13785D02*
X78770Y13785D01*
D18*
X177660Y51575D02*
X183274Y51575D01*
X183274Y39865D01*
X177660Y39865D01*
X177660Y51575D01*
X177660Y40806D02*
X183274Y40806D01*
X183274Y41747D02*
X177660Y41747D01*
X177660Y42688D02*
X183274Y42688D01*
X183274Y43629D02*
X177660Y43629D01*
X177660Y44570D02*
X183274Y44570D01*
X183274Y45511D02*
X177660Y45511D01*
X177660Y46452D02*
X183274Y46452D01*
X183274Y47393D02*
X177660Y47393D01*
X177660Y48334D02*
X183274Y48334D01*
X183274Y49275D02*
X177660Y49275D01*
X177660Y50216D02*
X183274Y50216D01*
X183274Y51157D02*
X177660Y51157D01*
X172860Y51575D02*
X167246Y51575D01*
X172860Y51575D02*
X172860Y39865D01*
X167246Y39865D01*
X167246Y51575D01*
X167246Y40806D02*
X172860Y40806D01*
X172860Y41747D02*
X167246Y41747D01*
X167246Y42688D02*
X172860Y42688D01*
X172860Y43629D02*
X167246Y43629D01*
X167246Y44570D02*
X172860Y44570D01*
X172860Y45511D02*
X167246Y45511D01*
X167246Y46452D02*
X172860Y46452D01*
X172860Y47393D02*
X167246Y47393D01*
X167246Y48334D02*
X172860Y48334D01*
X172860Y49275D02*
X167246Y49275D01*
X167246Y50216D02*
X172860Y50216D01*
X172860Y51157D02*
X167246Y51157D01*
D16*
X86735Y89444D02*
X82225Y89444D01*
X82225Y100454D01*
X86735Y100454D01*
X86735Y89444D01*
X86735Y90384D02*
X82225Y90384D01*
X82225Y91324D02*
X86735Y91324D01*
X86735Y92264D02*
X82225Y92264D01*
X82225Y93204D02*
X86735Y93204D01*
X86735Y94144D02*
X82225Y94144D01*
X82225Y95084D02*
X86735Y95084D01*
X86735Y96024D02*
X82225Y96024D01*
X82225Y96964D02*
X86735Y96964D01*
X86735Y97904D02*
X82225Y97904D01*
X82225Y98844D02*
X86735Y98844D01*
X86735Y99784D02*
X82225Y99784D01*
X91725Y89444D02*
X96235Y89444D01*
X91725Y89444D02*
X91725Y100454D01*
X96235Y100454D01*
X96235Y89444D01*
X96235Y90384D02*
X91725Y90384D01*
X91725Y91324D02*
X96235Y91324D01*
X96235Y92264D02*
X91725Y92264D01*
X91725Y93204D02*
X96235Y93204D01*
X96235Y94144D02*
X91725Y94144D01*
X91725Y95084D02*
X96235Y95084D01*
X96235Y96024D02*
X91725Y96024D01*
X91725Y96964D02*
X96235Y96964D01*
X96235Y97904D02*
X91725Y97904D01*
X91725Y98844D02*
X96235Y98844D01*
X96235Y99784D02*
X91725Y99784D01*
X101225Y89444D02*
X105735Y89444D01*
X101225Y89444D02*
X101225Y100454D01*
X105735Y100454D01*
X105735Y89444D01*
X105735Y90384D02*
X101225Y90384D01*
X101225Y91324D02*
X105735Y91324D01*
X105735Y92264D02*
X101225Y92264D01*
X101225Y93204D02*
X105735Y93204D01*
X105735Y94144D02*
X101225Y94144D01*
X101225Y95084D02*
X105735Y95084D01*
X105735Y96024D02*
X101225Y96024D01*
X101225Y96964D02*
X105735Y96964D01*
X105735Y97904D02*
X101225Y97904D01*
X101225Y98844D02*
X105735Y98844D01*
X105735Y99784D02*
X101225Y99784D01*
X101225Y115446D02*
X105735Y115446D01*
X101225Y115446D02*
X101225Y126456D01*
X105735Y126456D01*
X105735Y115446D01*
X105735Y116386D02*
X101225Y116386D01*
X101225Y117326D02*
X105735Y117326D01*
X105735Y118266D02*
X101225Y118266D01*
X101225Y119206D02*
X105735Y119206D01*
X105735Y120146D02*
X101225Y120146D01*
X101225Y121086D02*
X105735Y121086D01*
X105735Y122026D02*
X101225Y122026D01*
X101225Y122966D02*
X105735Y122966D01*
X105735Y123906D02*
X101225Y123906D01*
X101225Y124846D02*
X105735Y124846D01*
X105735Y125786D02*
X101225Y125786D01*
X86735Y115446D02*
X82225Y115446D01*
X82225Y126456D01*
X86735Y126456D01*
X86735Y115446D01*
X86735Y116386D02*
X82225Y116386D01*
X82225Y117326D02*
X86735Y117326D01*
X86735Y118266D02*
X82225Y118266D01*
X82225Y119206D02*
X86735Y119206D01*
X86735Y120146D02*
X82225Y120146D01*
X82225Y121086D02*
X86735Y121086D01*
X86735Y122026D02*
X82225Y122026D01*
X82225Y122966D02*
X86735Y122966D01*
X86735Y123906D02*
X82225Y123906D01*
X82225Y124846D02*
X86735Y124846D01*
X86735Y125786D02*
X82225Y125786D01*
D15*
X124410Y73690D02*
X124410Y68710D01*
X119430Y68710D01*
X119430Y73690D01*
X124410Y73690D01*
X124410Y69679D02*
X119430Y69679D01*
X119430Y70648D02*
X124410Y70648D01*
X124410Y71617D02*
X119430Y71617D01*
X119430Y72586D02*
X124410Y72586D01*
X124410Y73555D02*
X119430Y73555D01*
X124410Y78710D02*
X124410Y83690D01*
X124410Y78710D02*
X119430Y78710D01*
X119430Y83690D01*
X124410Y83690D01*
X124410Y79679D02*
X119430Y79679D01*
X119430Y80648D02*
X124410Y80648D01*
X124410Y81617D02*
X119430Y81617D01*
X119430Y82586D02*
X124410Y82586D01*
X124410Y83555D02*
X119430Y83555D01*
X129590Y83690D02*
X129590Y78710D01*
X129590Y83690D02*
X134570Y83690D01*
X134570Y78710D01*
X129590Y78710D01*
X129590Y79679D02*
X134570Y79679D01*
X134570Y80648D02*
X129590Y80648D01*
X129590Y81617D02*
X134570Y81617D01*
X134570Y82586D02*
X129590Y82586D01*
X129590Y83555D02*
X134570Y83555D01*
X129590Y73690D02*
X129590Y68710D01*
X129590Y73690D02*
X134570Y73690D01*
X134570Y68710D01*
X129590Y68710D01*
X129590Y69679D02*
X134570Y69679D01*
X134570Y70648D02*
X129590Y70648D01*
X129590Y71617D02*
X134570Y71617D01*
X134570Y72586D02*
X129590Y72586D01*
X129590Y73555D02*
X134570Y73555D01*
D18*
X134607Y101105D02*
X140221Y101105D01*
X140221Y89395D01*
X134607Y89395D01*
X134607Y101105D01*
X134607Y90336D02*
X140221Y90336D01*
X140221Y91277D02*
X134607Y91277D01*
X134607Y92218D02*
X140221Y92218D01*
X140221Y93159D02*
X134607Y93159D01*
X134607Y94100D02*
X140221Y94100D01*
X140221Y95041D02*
X134607Y95041D01*
X134607Y95982D02*
X140221Y95982D01*
X140221Y96923D02*
X134607Y96923D01*
X134607Y97864D02*
X140221Y97864D01*
X140221Y98805D02*
X134607Y98805D01*
X134607Y99746D02*
X140221Y99746D01*
X140221Y100687D02*
X134607Y100687D01*
X129807Y101105D02*
X124193Y101105D01*
X129807Y101105D02*
X129807Y89395D01*
X124193Y89395D01*
X124193Y101105D01*
X124193Y90336D02*
X129807Y90336D01*
X129807Y91277D02*
X124193Y91277D01*
X124193Y92218D02*
X129807Y92218D01*
X129807Y93159D02*
X124193Y93159D01*
X124193Y94100D02*
X129807Y94100D01*
X129807Y95041D02*
X124193Y95041D01*
X124193Y95982D02*
X129807Y95982D01*
X129807Y96923D02*
X124193Y96923D01*
X124193Y97864D02*
X129807Y97864D01*
X129807Y98805D02*
X124193Y98805D01*
X124193Y99746D02*
X129807Y99746D01*
X129807Y100687D02*
X124193Y100687D01*
X119393Y101105D02*
X113779Y101105D01*
X119393Y101105D02*
X119393Y89395D01*
X113779Y89395D01*
X113779Y101105D01*
X113779Y90336D02*
X119393Y90336D01*
X119393Y91277D02*
X113779Y91277D01*
X113779Y92218D02*
X119393Y92218D01*
X119393Y93159D02*
X113779Y93159D01*
X113779Y94100D02*
X119393Y94100D01*
X119393Y95041D02*
X113779Y95041D01*
X113779Y95982D02*
X119393Y95982D01*
X119393Y96923D02*
X113779Y96923D01*
X113779Y97864D02*
X119393Y97864D01*
X119393Y98805D02*
X113779Y98805D01*
X113779Y99746D02*
X119393Y99746D01*
X119393Y100687D02*
X113779Y100687D01*
X86754Y51575D02*
X81140Y51575D01*
X86754Y51575D02*
X86754Y39865D01*
X81140Y39865D01*
X81140Y51575D01*
X81140Y40806D02*
X86754Y40806D01*
X86754Y41747D02*
X81140Y41747D01*
X81140Y42688D02*
X86754Y42688D01*
X86754Y43629D02*
X81140Y43629D01*
X81140Y44570D02*
X86754Y44570D01*
X86754Y45511D02*
X81140Y45511D01*
X81140Y46452D02*
X86754Y46452D01*
X86754Y47393D02*
X81140Y47393D01*
X81140Y48334D02*
X86754Y48334D01*
X86754Y49275D02*
X81140Y49275D01*
X81140Y50216D02*
X86754Y50216D01*
X86754Y51157D02*
X81140Y51157D01*
X76340Y51575D02*
X70726Y51575D01*
X76340Y51575D02*
X76340Y39865D01*
X70726Y39865D01*
X70726Y51575D01*
X70726Y40806D02*
X76340Y40806D01*
X76340Y41747D02*
X70726Y41747D01*
X70726Y42688D02*
X76340Y42688D01*
X76340Y43629D02*
X70726Y43629D01*
X70726Y44570D02*
X76340Y44570D01*
X76340Y45511D02*
X70726Y45511D01*
X70726Y46452D02*
X76340Y46452D01*
X76340Y47393D02*
X70726Y47393D01*
X70726Y48334D02*
X76340Y48334D01*
X76340Y49275D02*
X70726Y49275D01*
X70726Y50216D02*
X76340Y50216D01*
X76340Y51157D02*
X70726Y51157D01*
D15*
X109270Y78710D02*
X109270Y83690D01*
X114250Y83690D01*
X114250Y78710D01*
X109270Y78710D01*
X109270Y79679D02*
X114250Y79679D01*
X114250Y80648D02*
X109270Y80648D01*
X109270Y81617D02*
X114250Y81617D01*
X114250Y82586D02*
X109270Y82586D01*
X109270Y83555D02*
X114250Y83555D01*
X109270Y73690D02*
X109270Y68710D01*
X109270Y73690D02*
X114250Y73690D01*
X114250Y68710D01*
X109270Y68710D01*
X109270Y69679D02*
X114250Y69679D01*
X114250Y70648D02*
X109270Y70648D01*
X109270Y71617D02*
X114250Y71617D01*
X114250Y72586D02*
X109270Y72586D01*
X109270Y73555D02*
X114250Y73555D01*
X139750Y78710D02*
X139750Y83690D01*
X144730Y83690D01*
X144730Y78710D01*
X139750Y78710D01*
X139750Y79679D02*
X144730Y79679D01*
X144730Y80648D02*
X139750Y80648D01*
X139750Y81617D02*
X144730Y81617D01*
X144730Y82586D02*
X139750Y82586D01*
X139750Y83555D02*
X144730Y83555D01*
X139750Y73690D02*
X139750Y68710D01*
X139750Y73690D02*
X144730Y73690D01*
X144730Y68710D01*
X139750Y68710D01*
X139750Y69679D02*
X144730Y69679D01*
X144730Y70648D02*
X139750Y70648D01*
X139750Y71617D02*
X144730Y71617D01*
X144730Y72586D02*
X139750Y72586D01*
X139750Y73555D02*
X144730Y73555D01*
X154890Y132210D02*
X154890Y137190D01*
X154890Y132210D02*
X149910Y132210D01*
X149910Y137190D01*
X154890Y137190D01*
X154890Y133179D02*
X149910Y133179D01*
X149910Y134148D02*
X154890Y134148D01*
X154890Y135117D02*
X149910Y135117D01*
X149910Y136086D02*
X154890Y136086D01*
X154890Y137055D02*
X149910Y137055D01*
X154890Y142210D02*
X154890Y147190D01*
X154890Y142210D02*
X149910Y142210D01*
X149910Y147190D01*
X154890Y147190D01*
X154890Y143179D02*
X149910Y143179D01*
X149910Y144148D02*
X154890Y144148D01*
X154890Y145117D02*
X149910Y145117D01*
X149910Y146086D02*
X154890Y146086D01*
X154890Y147055D02*
X149910Y147055D01*
X144730Y137190D02*
X144730Y132210D01*
X139750Y132210D01*
X139750Y137190D01*
X144730Y137190D01*
X144730Y133179D02*
X139750Y133179D01*
X139750Y134148D02*
X144730Y134148D01*
X144730Y135117D02*
X139750Y135117D01*
X139750Y136086D02*
X144730Y136086D01*
X144730Y137055D02*
X139750Y137055D01*
X144730Y142210D02*
X144730Y147190D01*
X144730Y142210D02*
X139750Y142210D01*
X139750Y147190D01*
X144730Y147190D01*
X144730Y143179D02*
X139750Y143179D01*
X139750Y144148D02*
X144730Y144148D01*
X144730Y145117D02*
X139750Y145117D01*
X139750Y146086D02*
X144730Y146086D01*
X144730Y147055D02*
X139750Y147055D01*
X93930Y137190D02*
X93930Y132210D01*
X88950Y132210D01*
X88950Y137190D01*
X93930Y137190D01*
X93930Y133179D02*
X88950Y133179D01*
X88950Y134148D02*
X93930Y134148D01*
X93930Y135117D02*
X88950Y135117D01*
X88950Y136086D02*
X93930Y136086D01*
X93930Y137055D02*
X88950Y137055D01*
X93930Y142210D02*
X93930Y147190D01*
X93930Y142210D02*
X88950Y142210D01*
X88950Y147190D01*
X93930Y147190D01*
X93930Y143179D02*
X88950Y143179D01*
X88950Y144148D02*
X93930Y144148D01*
X93930Y145117D02*
X88950Y145117D01*
X88950Y146086D02*
X93930Y146086D01*
X93930Y147055D02*
X88950Y147055D01*
X104090Y137190D02*
X104090Y132210D01*
X99110Y132210D01*
X99110Y137190D01*
X104090Y137190D01*
X104090Y133179D02*
X99110Y133179D01*
X99110Y134148D02*
X104090Y134148D01*
X104090Y135117D02*
X99110Y135117D01*
X99110Y136086D02*
X104090Y136086D01*
X104090Y137055D02*
X99110Y137055D01*
X104090Y142210D02*
X104090Y147190D01*
X104090Y142210D02*
X99110Y142210D01*
X99110Y147190D01*
X104090Y147190D01*
X104090Y143179D02*
X99110Y143179D01*
X99110Y144148D02*
X104090Y144148D01*
X104090Y145117D02*
X99110Y145117D01*
X99110Y146086D02*
X104090Y146086D01*
X104090Y147055D02*
X99110Y147055D01*
X180390Y147190D02*
X180390Y142210D01*
X180390Y147190D02*
X185370Y147190D01*
X185370Y142210D01*
X180390Y142210D01*
X180390Y143179D02*
X185370Y143179D01*
X185370Y144148D02*
X180390Y144148D01*
X180390Y145117D02*
X185370Y145117D01*
X185370Y146086D02*
X180390Y146086D01*
X180390Y147055D02*
X185370Y147055D01*
X180390Y137190D02*
X180390Y132210D01*
X180390Y137190D02*
X185370Y137190D01*
X185370Y132210D01*
X180390Y132210D01*
X180390Y133179D02*
X185370Y133179D01*
X185370Y134148D02*
X180390Y134148D01*
X180390Y135117D02*
X185370Y135117D01*
X185370Y136086D02*
X180390Y136086D01*
X180390Y137055D02*
X185370Y137055D01*
X160070Y142210D02*
X160070Y147190D01*
X165050Y147190D01*
X165050Y142210D01*
X160070Y142210D01*
X160070Y143179D02*
X165050Y143179D01*
X165050Y144148D02*
X160070Y144148D01*
X160070Y145117D02*
X165050Y145117D01*
X165050Y146086D02*
X160070Y146086D01*
X160070Y147055D02*
X165050Y147055D01*
X160070Y137190D02*
X160070Y132210D01*
X160070Y137190D02*
X165050Y137190D01*
X165050Y132210D01*
X160070Y132210D01*
X160070Y133179D02*
X165050Y133179D01*
X165050Y134148D02*
X160070Y134148D01*
X160070Y135117D02*
X165050Y135117D01*
X165050Y136086D02*
X160070Y136086D01*
X160070Y137055D02*
X165050Y137055D01*
D19*
X177520Y163820D02*
X184480Y163820D01*
X177520Y163820D02*
X177520Y171780D01*
X184480Y171780D01*
X184480Y163820D01*
X184480Y164808D02*
X177520Y164808D01*
X177520Y165796D02*
X184480Y165796D01*
X184480Y166784D02*
X177520Y166784D01*
X177520Y167772D02*
X184480Y167772D01*
X184480Y168760D02*
X177520Y168760D01*
X177520Y169748D02*
X184480Y169748D01*
X184480Y170736D02*
X177520Y170736D01*
X177520Y171724D02*
X184480Y171724D01*
X196520Y163820D02*
X203480Y163820D01*
X196520Y163820D02*
X196520Y171780D01*
X203480Y171780D01*
X203480Y163820D01*
X203480Y164808D02*
X196520Y164808D01*
X196520Y165796D02*
X203480Y165796D01*
X203480Y166784D02*
X196520Y166784D01*
X196520Y167772D02*
X203480Y167772D01*
X203480Y168760D02*
X196520Y168760D01*
X196520Y169748D02*
X203480Y169748D01*
X203480Y170736D02*
X196520Y170736D01*
X196520Y171724D02*
X203480Y171724D01*
X193980Y184820D02*
X187020Y184820D01*
X187020Y192780D01*
X193980Y192780D01*
X193980Y184820D01*
X193980Y185808D02*
X187020Y185808D01*
X187020Y186796D02*
X193980Y186796D01*
X193980Y187784D02*
X187020Y187784D01*
X187020Y188772D02*
X193980Y188772D01*
X193980Y189760D02*
X187020Y189760D01*
X187020Y190748D02*
X193980Y190748D01*
X193980Y191736D02*
X187020Y191736D01*
X187020Y192724D02*
X193980Y192724D01*
D20*
X203036Y130846D02*
X203036Y125554D01*
X195744Y125554D01*
X195744Y130846D01*
X203036Y130846D01*
X203036Y126512D02*
X195744Y126512D01*
X195744Y127470D02*
X203036Y127470D01*
X203036Y128428D02*
X195744Y128428D01*
X195744Y129386D02*
X203036Y129386D01*
X203036Y130344D02*
X195744Y130344D01*
X203036Y148554D02*
X203036Y153846D01*
X203036Y148554D02*
X195744Y148554D01*
X195744Y153846D01*
X203036Y153846D01*
X203036Y149512D02*
X195744Y149512D01*
X195744Y150470D02*
X203036Y150470D01*
X203036Y151428D02*
X195744Y151428D01*
X195744Y152386D02*
X203036Y152386D01*
X203036Y153344D02*
X195744Y153344D01*
D15*
X78790Y147190D02*
X78790Y142210D01*
X78790Y147190D02*
X83770Y147190D01*
X83770Y142210D01*
X78790Y142210D01*
X78790Y143179D02*
X83770Y143179D01*
X83770Y144148D02*
X78790Y144148D01*
X78790Y145117D02*
X83770Y145117D01*
X83770Y146086D02*
X78790Y146086D01*
X78790Y147055D02*
X83770Y147055D01*
X78790Y137190D02*
X78790Y132210D01*
X78790Y137190D02*
X83770Y137190D01*
X83770Y132210D01*
X78790Y132210D01*
X78790Y133179D02*
X83770Y133179D01*
X83770Y134148D02*
X78790Y134148D01*
X78790Y135117D02*
X83770Y135117D01*
X83770Y136086D02*
X78790Y136086D01*
X78790Y137055D02*
X83770Y137055D01*
D18*
X64910Y159245D02*
X59296Y159245D01*
X59296Y170955D01*
X64910Y170955D01*
X64910Y159245D01*
X64910Y160186D02*
X59296Y160186D01*
X59296Y161127D02*
X64910Y161127D01*
X64910Y162068D02*
X59296Y162068D01*
X59296Y163009D02*
X64910Y163009D01*
X64910Y163950D02*
X59296Y163950D01*
X59296Y164891D02*
X64910Y164891D01*
X64910Y165832D02*
X59296Y165832D01*
X59296Y166773D02*
X64910Y166773D01*
X64910Y167714D02*
X59296Y167714D01*
X59296Y168655D02*
X64910Y168655D01*
X64910Y169596D02*
X59296Y169596D01*
X59296Y170537D02*
X64910Y170537D01*
X69710Y159245D02*
X75324Y159245D01*
X69710Y159245D02*
X69710Y170955D01*
X75324Y170955D01*
X75324Y159245D01*
X75324Y160186D02*
X69710Y160186D01*
X69710Y161127D02*
X75324Y161127D01*
X75324Y162068D02*
X69710Y162068D01*
X69710Y163009D02*
X75324Y163009D01*
X75324Y163950D02*
X69710Y163950D01*
X69710Y164891D02*
X75324Y164891D01*
X75324Y165832D02*
X69710Y165832D01*
X69710Y166773D02*
X75324Y166773D01*
X75324Y167714D02*
X69710Y167714D01*
X69710Y168655D02*
X75324Y168655D01*
X75324Y169596D02*
X69710Y169596D01*
X69710Y170537D02*
X75324Y170537D01*
D17*
X58110Y134430D02*
X51110Y134430D01*
X58110Y134430D02*
X58110Y127430D01*
X51110Y127430D01*
X51110Y134430D01*
X51110Y130280D02*
X58110Y130280D01*
X58110Y133130D02*
X51110Y133130D01*
X51110Y151970D02*
X58110Y151970D01*
X58110Y144970D01*
X51110Y144970D01*
X51110Y151970D01*
X51110Y147820D02*
X58110Y147820D01*
X58110Y150670D02*
X51110Y150670D01*
D15*
X68630Y147190D02*
X68630Y142210D01*
X68630Y147190D02*
X73610Y147190D01*
X73610Y142210D01*
X68630Y142210D01*
X68630Y143179D02*
X73610Y143179D01*
X73610Y144148D02*
X68630Y144148D01*
X68630Y145117D02*
X73610Y145117D01*
X73610Y146086D02*
X68630Y146086D01*
X68630Y147055D02*
X73610Y147055D01*
X68630Y137190D02*
X68630Y132210D01*
X68630Y137190D02*
X73610Y137190D01*
X73610Y132210D01*
X68630Y132210D01*
X68630Y133179D02*
X73610Y133179D01*
X73610Y134148D02*
X68630Y134148D01*
X68630Y135117D02*
X73610Y135117D01*
X73610Y136086D02*
X68630Y136086D01*
X68630Y137055D02*
X73610Y137055D01*
D16*
X188275Y108325D02*
X188275Y100315D01*
X179265Y100315D01*
X179265Y108325D01*
X188275Y108325D01*
X188275Y101255D02*
X179265Y101255D01*
X179265Y102195D02*
X188275Y102195D01*
X188275Y103135D02*
X179265Y103135D01*
X179265Y104075D02*
X188275Y104075D01*
X188275Y105015D02*
X179265Y105015D01*
X179265Y105955D02*
X188275Y105955D01*
X188275Y106895D02*
X179265Y106895D01*
X179265Y107835D02*
X188275Y107835D01*
X204275Y108325D02*
X204275Y100315D01*
X195265Y100315D01*
X195265Y108325D01*
X204275Y108325D01*
X204275Y101255D02*
X195265Y101255D01*
X195265Y102195D02*
X204275Y102195D01*
X204275Y103135D02*
X195265Y103135D01*
X195265Y104075D02*
X204275Y104075D01*
X204275Y105015D02*
X195265Y105015D01*
X195265Y105955D02*
X204275Y105955D01*
X204275Y106895D02*
X195265Y106895D01*
X195265Y107835D02*
X204275Y107835D01*
X204275Y67325D02*
X204275Y59315D01*
X195265Y59315D01*
X195265Y67325D01*
X204275Y67325D01*
X204275Y60255D02*
X195265Y60255D01*
X195265Y61195D02*
X204275Y61195D01*
X204275Y62135D02*
X195265Y62135D01*
X195265Y63075D02*
X204275Y63075D01*
X204275Y64015D02*
X195265Y64015D01*
X195265Y64955D02*
X204275Y64955D01*
X204275Y65895D02*
X195265Y65895D01*
X195265Y66835D02*
X204275Y66835D01*
X188275Y67325D02*
X188275Y59315D01*
X179265Y59315D01*
X179265Y67325D01*
X188275Y67325D01*
X188275Y60255D02*
X179265Y60255D01*
X179265Y61195D02*
X188275Y61195D01*
X188275Y62135D02*
X179265Y62135D01*
X179265Y63075D02*
X188275Y63075D01*
X188275Y64015D02*
X179265Y64015D01*
X179265Y64955D02*
X188275Y64955D01*
X188275Y65895D02*
X179265Y65895D01*
X179265Y66835D02*
X188275Y66835D01*
X65725Y67325D02*
X65725Y59315D01*
X65725Y67325D02*
X74735Y67325D01*
X74735Y59315D01*
X65725Y59315D01*
X65725Y60255D02*
X74735Y60255D01*
X74735Y61195D02*
X65725Y61195D01*
X65725Y62135D02*
X74735Y62135D01*
X74735Y63075D02*
X65725Y63075D01*
X65725Y64015D02*
X74735Y64015D01*
X74735Y64955D02*
X65725Y64955D01*
X65725Y65895D02*
X74735Y65895D01*
X74735Y66835D02*
X65725Y66835D01*
X49725Y67325D02*
X49725Y59315D01*
X49725Y67325D02*
X58735Y67325D01*
X58735Y59315D01*
X49725Y59315D01*
X49725Y60255D02*
X58735Y60255D01*
X58735Y61195D02*
X49725Y61195D01*
X49725Y62135D02*
X58735Y62135D01*
X58735Y63075D02*
X49725Y63075D01*
X49725Y64015D02*
X58735Y64015D01*
X58735Y64955D02*
X49725Y64955D01*
X49725Y65895D02*
X58735Y65895D01*
X58735Y66835D02*
X49725Y66835D01*
X49725Y100315D02*
X49725Y108325D01*
X58735Y108325D01*
X58735Y100315D01*
X49725Y100315D01*
X49725Y101255D02*
X58735Y101255D01*
X58735Y102195D02*
X49725Y102195D01*
X49725Y103135D02*
X58735Y103135D01*
X58735Y104075D02*
X49725Y104075D01*
X49725Y105015D02*
X58735Y105015D01*
X58735Y105955D02*
X49725Y105955D01*
X49725Y106895D02*
X58735Y106895D01*
X58735Y107835D02*
X49725Y107835D01*
X65725Y108325D02*
X65725Y100315D01*
X65725Y108325D02*
X74735Y108325D01*
X74735Y100315D01*
X65725Y100315D01*
X65725Y101255D02*
X74735Y101255D01*
X74735Y102195D02*
X65725Y102195D01*
X65725Y103135D02*
X74735Y103135D01*
X74735Y104075D02*
X65725Y104075D01*
X65725Y105015D02*
X74735Y105015D01*
X74735Y105955D02*
X65725Y105955D01*
X65725Y106895D02*
X74735Y106895D01*
X74735Y107835D02*
X65725Y107835D01*
D15*
X175210Y132210D02*
X175210Y137190D01*
X175210Y132210D02*
X170230Y132210D01*
X170230Y137190D01*
X175210Y137190D01*
X175210Y133179D02*
X170230Y133179D01*
X170230Y134148D02*
X175210Y134148D01*
X175210Y135117D02*
X170230Y135117D01*
X170230Y136086D02*
X175210Y136086D01*
X175210Y137055D02*
X170230Y137055D01*
X175210Y142210D02*
X175210Y147190D01*
X175210Y142210D02*
X170230Y142210D01*
X170230Y147190D01*
X175210Y147190D01*
X175210Y143179D02*
X170230Y143179D01*
X170230Y144148D02*
X175210Y144148D01*
X175210Y145117D02*
X170230Y145117D01*
X170230Y146086D02*
X175210Y146086D01*
X175210Y147055D02*
X170230Y147055D01*
X149910Y83690D02*
X149910Y78710D01*
X149910Y83690D02*
X154890Y83690D01*
X154890Y78710D01*
X149910Y78710D01*
X149910Y79679D02*
X154890Y79679D01*
X154890Y80648D02*
X149910Y80648D01*
X149910Y81617D02*
X154890Y81617D01*
X154890Y82586D02*
X149910Y82586D01*
X149910Y83555D02*
X154890Y83555D01*
X149910Y73690D02*
X149910Y68710D01*
X149910Y73690D02*
X154890Y73690D01*
X154890Y68710D01*
X149910Y68710D01*
X149910Y69679D02*
X154890Y69679D01*
X154890Y70648D02*
X149910Y70648D01*
X149910Y71617D02*
X154890Y71617D01*
X154890Y72586D02*
X149910Y72586D01*
X149910Y73555D02*
X154890Y73555D01*
X99110Y78710D02*
X99110Y83690D01*
X104090Y83690D01*
X104090Y78710D01*
X99110Y78710D01*
X99110Y79679D02*
X104090Y79679D01*
X104090Y80648D02*
X99110Y80648D01*
X99110Y81617D02*
X104090Y81617D01*
X104090Y82586D02*
X99110Y82586D01*
X99110Y83555D02*
X104090Y83555D01*
X99110Y73690D02*
X99110Y68710D01*
X99110Y73690D02*
X104090Y73690D01*
X104090Y68710D01*
X99110Y68710D01*
X99110Y69679D02*
X104090Y69679D01*
X104090Y70648D02*
X99110Y70648D01*
X99110Y71617D02*
X104090Y71617D01*
X104090Y72586D02*
X99110Y72586D01*
X99110Y73555D02*
X104090Y73555D01*
X109270Y142210D02*
X109270Y147190D01*
X114250Y147190D01*
X114250Y142210D01*
X109270Y142210D01*
X109270Y143179D02*
X114250Y143179D01*
X114250Y144148D02*
X109270Y144148D01*
X109270Y145117D02*
X114250Y145117D01*
X114250Y146086D02*
X109270Y146086D01*
X109270Y147055D02*
X114250Y147055D01*
X109270Y137190D02*
X109270Y132210D01*
X109270Y137190D02*
X114250Y137190D01*
X114250Y132210D01*
X109270Y132210D01*
X109270Y133179D02*
X114250Y133179D01*
X114250Y134148D02*
X109270Y134148D01*
X109270Y135117D02*
X114250Y135117D01*
X114250Y136086D02*
X109270Y136086D01*
X109270Y137055D02*
X114250Y137055D01*
D21*
X209550Y247650D03*
X44450Y6350D03*
D15*
X134570Y132210D02*
X134570Y137190D01*
X134570Y132210D02*
X129590Y132210D01*
X129590Y137190D01*
X134570Y137190D01*
X134570Y133179D02*
X129590Y133179D01*
X129590Y134148D02*
X134570Y134148D01*
X134570Y135117D02*
X129590Y135117D01*
X129590Y136086D02*
X134570Y136086D01*
X134570Y137055D02*
X129590Y137055D01*
X134570Y142210D02*
X134570Y147190D01*
X134570Y142210D02*
X129590Y142210D01*
X129590Y147190D01*
X134570Y147190D01*
X134570Y143179D02*
X129590Y143179D01*
X129590Y144148D02*
X134570Y144148D01*
X134570Y145117D02*
X129590Y145117D01*
X129590Y146086D02*
X134570Y146086D01*
X134570Y147055D02*
X129590Y147055D01*
X119430Y147190D02*
X119430Y142210D01*
X119430Y147190D02*
X124410Y147190D01*
X124410Y142210D01*
X119430Y142210D01*
X119430Y143179D02*
X124410Y143179D01*
X124410Y144148D02*
X119430Y144148D01*
X119430Y145117D02*
X124410Y145117D01*
X124410Y146086D02*
X119430Y146086D01*
X119430Y147055D02*
X124410Y147055D01*
X119430Y137190D02*
X119430Y132210D01*
X119430Y137190D02*
X124410Y137190D01*
X124410Y132210D01*
X119430Y132210D01*
X119430Y133179D02*
X124410Y133179D01*
X124410Y134148D02*
X119430Y134148D01*
X119430Y135117D02*
X124410Y135117D01*
X124410Y136086D02*
X119430Y136086D01*
X119430Y137055D02*
X124410Y137055D01*
D22*
X170053Y45720D02*
X170053Y43053D01*
D23*
X156210Y29210D01*
D22*
X127000Y95250D02*
X127000Y104140D01*
D24*
X167640Y154940D03*
D22*
X167640Y149780D01*
X172720Y144700D01*
D23*
X122000Y50800D02*
X122000Y38180D01*
X122000Y35640D01*
D22*
X121920Y38100D02*
X122000Y38180D01*
D24*
X121920Y38100D03*
D23*
X122000Y35640D02*
X128430Y29210D01*
X156210Y29210D01*
D24*
X127000Y104140D03*
D22*
X127000Y119460D02*
X111760Y134700D01*
X127000Y119460D02*
X127000Y95250D01*
D23*
X142240Y129231D02*
X142240Y134700D01*
X142240Y129231D02*
X150520Y120951D01*
D22*
X150520Y115632D02*
X140298Y105410D01*
X150520Y115632D02*
X150520Y120951D01*
X140298Y105410D02*
X128270Y105410D01*
X127000Y104140D01*
D24*
X161290Y55880D03*
X92710Y55880D03*
X209550Y6350D03*
X73660Y22860D03*
D25*
X101760Y71200D02*
X111760Y81200D01*
X101760Y71200D02*
X101600Y71200D01*
X142240Y81200D02*
X152240Y71200D01*
X152400Y71200D01*
D24*
X93980Y106680D03*
X160020Y105410D03*
X176530Y153670D03*
X77470Y153670D03*
X94488Y156210D03*
X44450Y127000D03*
X76657Y122885D03*
X6350Y41910D03*
X247650Y41910D03*
X101600Y177800D03*
X55880Y196850D03*
X25400Y76200D03*
X25400Y177800D03*
X158750Y177800D03*
D22*
X58330Y101780D02*
X56770Y101780D01*
X54230Y104320D01*
X58330Y101780D02*
X65912Y94198D01*
D24*
X60960Y73660D03*
X180340Y22860D03*
X114300Y6350D03*
X139700Y6350D03*
X111760Y38100D03*
X131445Y38100D03*
X193040Y73660D03*
X198120Y196850D03*
X228600Y152400D03*
D23*
X147320Y177800D02*
X138100Y177800D01*
X137000Y178900D01*
D24*
X147320Y177800D03*
D23*
X158320Y188800D01*
X190500Y188800D01*
D22*
X132080Y149860D02*
X132080Y144700D01*
X137000Y154780D02*
X137000Y178900D01*
X137000Y154780D02*
X132080Y149860D01*
D25*
X110490Y126318D02*
X102108Y134700D01*
X101600Y134700D01*
D22*
X103480Y98400D02*
X103480Y94949D01*
X110490Y110490D02*
X110490Y126318D01*
X110490Y110490D02*
X110490Y105410D01*
X103480Y98400D01*
D24*
X110490Y110490D03*
D22*
X116586Y95250D02*
X116586Y86534D01*
X121920Y81200D01*
X132080Y81200D02*
X137414Y86534D01*
X137414Y95250D01*
X142000Y54850D02*
X142000Y50800D01*
X132080Y64770D02*
X132080Y71200D01*
X132080Y64770D02*
X142000Y54850D01*
D24*
X152400Y53340D03*
D22*
X144540Y53340D01*
X142000Y50800D01*
X132000Y50800D02*
X132000Y54690D01*
X121920Y64770D02*
X121920Y71200D01*
X121920Y64770D02*
X132000Y54690D01*
D24*
X152400Y44450D03*
D22*
X148590Y40640D02*
X138350Y40640D01*
X132000Y46990D01*
X132000Y50800D01*
X148590Y40640D02*
X152400Y44450D01*
X83820Y45593D02*
X83820Y26520D01*
X83820Y45593D02*
X83947Y45720D01*
X111760Y63500D02*
X111760Y71200D01*
D24*
X111760Y63500D03*
X142285Y63545D03*
D22*
X142285Y71155D01*
X142240Y71200D01*
X91440Y134700D02*
X81280Y134700D01*
D23*
X172560Y167800D02*
X181000Y167800D01*
X172560Y167800D02*
X171450Y168910D01*
D24*
X171450Y168910D03*
D23*
X182880Y134700D02*
X189310Y134700D01*
X199390Y144780D02*
X199390Y151200D01*
X199390Y144780D02*
X189310Y134700D01*
X182790Y167800D02*
X181000Y167800D01*
X182790Y167800D02*
X199390Y151200D01*
D24*
X103886Y56896D03*
X93980Y121920D03*
D22*
X91440Y129540D02*
X91440Y134700D01*
X93980Y127000D02*
X93980Y121920D01*
X93980Y127000D02*
X91440Y129540D01*
X93980Y121920D02*
X94949Y120951D01*
X103480Y120951D01*
X162560Y134700D02*
X163722Y133538D01*
X169520Y107340D02*
X169520Y94949D01*
X169520Y107340D02*
X163722Y113138D01*
X163722Y133538D01*
X162560Y144700D02*
X162400Y144700D01*
X152400Y134700D01*
X156318Y130782D01*
X200000Y167800D02*
X200000Y168300D01*
X191770Y176530D01*
X168910Y176530D01*
X161290Y168910D01*
X161290Y152320D01*
X162560Y151050D02*
X162560Y144700D01*
X162560Y151050D02*
X161290Y152320D01*
X199390Y128200D02*
X207010Y135820D01*
X207010Y160790D02*
X200000Y167800D01*
X207010Y160790D02*
X207010Y135820D01*
X150520Y107340D02*
X150520Y94949D01*
X150520Y107340D02*
X156318Y113138D01*
X156318Y130782D01*
D25*
X78130Y109576D02*
X78130Y103839D01*
X84480Y97489D02*
X84480Y94949D01*
X84480Y97489D02*
X78130Y103839D01*
X78130Y109576D02*
X69476Y118230D01*
X67310Y118230D02*
X54610Y130930D01*
X67310Y118230D02*
X69476Y118230D01*
D22*
X54610Y148470D02*
X54610Y155067D01*
X62103Y162560D02*
X62103Y165100D01*
X62103Y162560D02*
X54610Y155067D01*
X79930Y165100D02*
X86360Y158670D01*
X79930Y165100D02*
X72517Y165100D01*
X86360Y149780D02*
X81280Y144700D01*
X86360Y149780D02*
X86360Y158670D01*
X84480Y124388D02*
X84480Y120951D01*
D25*
X84480Y124388D02*
X80010Y128858D01*
X76962Y128858D01*
X71120Y134700D01*
D22*
X183770Y104320D02*
X183770Y83820D01*
X183770Y63320D01*
X163830Y81200D02*
X166450Y83820D01*
X163830Y81200D02*
X152400Y81200D01*
X166450Y83820D02*
X183770Y83820D01*
X183770Y104320D02*
X177800Y110290D01*
X177800Y125730D01*
D24*
X177800Y125730D03*
D22*
X177800Y129620D01*
X172720Y134700D01*
X70230Y83820D02*
X70230Y63320D01*
X70230Y83820D02*
X70230Y104320D01*
X90170Y81200D02*
X101600Y81200D01*
X90170Y81200D02*
X87630Y83740D01*
X87630Y83820D01*
X70230Y83820D01*
D24*
X87630Y83820D03*
D22*
X189110Y11430D02*
X190500Y12820D01*
X189110Y11430D02*
X177720Y11430D01*
X182880Y30360D02*
X190500Y30360D01*
X182880Y30360D02*
X180467Y32773D01*
X180467Y45720D01*
X64890Y11430D02*
X63500Y12820D01*
X64890Y11430D02*
X76280Y11430D01*
D24*
X93980Y165100D03*
D22*
X95250Y163830D01*
X99060Y163830D01*
X111760Y151130D02*
X111760Y144700D01*
X111760Y151130D02*
X99060Y163830D01*
D24*
X58420Y92710D03*
D22*
X29210Y63500D01*
X12700Y63500D01*
D24*
X59690Y114300D03*
X50800Y38500D03*
D22*
X55360Y38500D02*
X63500Y30360D01*
X55360Y38500D02*
X50800Y38500D01*
X121920Y134700D02*
X132080Y134700D01*
D24*
X136906Y112268D03*
D22*
X132080Y117094D02*
X132080Y134700D01*
X132080Y117094D02*
X136906Y112268D01*
M02*
