G04 EAGLE Gerber RS-274X export*
G75*
%MOMM*%
%FSLAX34Y34*%
%LPD*%
%INInner Layer 2*%
%IPPOS*%
%AMOC8*
5,1,8,0,0,1.08239X$1,22.5*%
G01*
%ADD10C,0.203200*%
%ADD11C,0.755600*%
%ADD12C,1.524000*%
%ADD13C,0.660400*%
%ADD14C,0.508000*%
%ADD15C,0.254000*%

G36*
X249657Y3572D02*
X249657Y3572D01*
X249759Y3580D01*
X249787Y3592D01*
X249818Y3597D01*
X249910Y3641D01*
X250006Y3679D01*
X250029Y3699D01*
X250057Y3712D01*
X250132Y3782D01*
X250212Y3847D01*
X250229Y3873D01*
X250251Y3894D01*
X250302Y3983D01*
X250359Y4068D01*
X250365Y4092D01*
X250383Y4124D01*
X250441Y4384D01*
X250438Y4422D01*
X250443Y4445D01*
X250443Y56129D01*
X250436Y56180D01*
X250437Y56232D01*
X250416Y56311D01*
X250403Y56392D01*
X250381Y56439D01*
X250367Y56488D01*
X250323Y56558D01*
X250288Y56632D01*
X250253Y56669D01*
X250225Y56713D01*
X250162Y56766D01*
X250106Y56826D01*
X250062Y56851D01*
X250022Y56885D01*
X249947Y56917D01*
X249876Y56958D01*
X249825Y56969D01*
X249778Y56989D01*
X249696Y56998D01*
X249616Y57016D01*
X249565Y57011D01*
X249513Y57017D01*
X249433Y57001D01*
X249351Y56994D01*
X249303Y56975D01*
X249253Y56965D01*
X249209Y56937D01*
X249104Y56895D01*
X248965Y56782D01*
X248927Y56757D01*
X247056Y54886D01*
X243321Y53339D01*
X239279Y53339D01*
X235544Y54886D01*
X232686Y57744D01*
X231139Y61479D01*
X231139Y65521D01*
X232686Y69256D01*
X235544Y72114D01*
X239279Y73661D01*
X243321Y73661D01*
X247056Y72114D01*
X248927Y70243D01*
X248968Y70212D01*
X249004Y70174D01*
X249075Y70133D01*
X249141Y70085D01*
X249190Y70068D01*
X249234Y70042D01*
X249314Y70024D01*
X249392Y69997D01*
X249444Y69996D01*
X249494Y69984D01*
X249576Y69991D01*
X249658Y69988D01*
X249707Y70002D01*
X249759Y70006D01*
X249835Y70037D01*
X249914Y70058D01*
X249958Y70086D01*
X250006Y70105D01*
X250069Y70157D01*
X250138Y70201D01*
X250172Y70240D01*
X250212Y70273D01*
X250257Y70341D01*
X250310Y70403D01*
X250331Y70451D01*
X250359Y70494D01*
X250371Y70544D01*
X250415Y70648D01*
X250433Y70826D01*
X250443Y70871D01*
X250443Y81529D01*
X250436Y81580D01*
X250437Y81632D01*
X250416Y81711D01*
X250403Y81792D01*
X250381Y81839D01*
X250367Y81888D01*
X250323Y81958D01*
X250288Y82032D01*
X250253Y82069D01*
X250225Y82113D01*
X250162Y82166D01*
X250106Y82226D01*
X250062Y82251D01*
X250022Y82285D01*
X249947Y82317D01*
X249876Y82358D01*
X249825Y82369D01*
X249778Y82389D01*
X249696Y82398D01*
X249616Y82416D01*
X249565Y82411D01*
X249513Y82417D01*
X249433Y82401D01*
X249351Y82394D01*
X249303Y82375D01*
X249253Y82365D01*
X249209Y82337D01*
X249104Y82295D01*
X248965Y82182D01*
X248927Y82157D01*
X247056Y80286D01*
X243321Y78739D01*
X239279Y78739D01*
X235544Y80286D01*
X232686Y83144D01*
X231139Y86879D01*
X231139Y90921D01*
X232686Y94656D01*
X235544Y97514D01*
X239279Y99061D01*
X243321Y99061D01*
X247056Y97514D01*
X248927Y95643D01*
X248968Y95612D01*
X249004Y95574D01*
X249075Y95533D01*
X249141Y95485D01*
X249190Y95468D01*
X249234Y95442D01*
X249314Y95424D01*
X249392Y95397D01*
X249444Y95396D01*
X249494Y95384D01*
X249576Y95391D01*
X249658Y95388D01*
X249707Y95402D01*
X249759Y95406D01*
X249835Y95437D01*
X249914Y95458D01*
X249958Y95486D01*
X250006Y95505D01*
X250069Y95557D01*
X250138Y95601D01*
X250172Y95640D01*
X250212Y95673D01*
X250257Y95741D01*
X250310Y95803D01*
X250331Y95851D01*
X250359Y95894D01*
X250371Y95944D01*
X250415Y96048D01*
X250433Y96226D01*
X250443Y96271D01*
X250443Y106929D01*
X250436Y106980D01*
X250437Y107032D01*
X250416Y107111D01*
X250403Y107192D01*
X250381Y107239D01*
X250367Y107288D01*
X250323Y107358D01*
X250288Y107432D01*
X250253Y107469D01*
X250225Y107513D01*
X250162Y107566D01*
X250106Y107626D01*
X250062Y107651D01*
X250022Y107685D01*
X249947Y107717D01*
X249876Y107758D01*
X249825Y107769D01*
X249778Y107789D01*
X249696Y107798D01*
X249616Y107816D01*
X249565Y107811D01*
X249513Y107817D01*
X249433Y107801D01*
X249351Y107794D01*
X249303Y107775D01*
X249253Y107765D01*
X249209Y107737D01*
X249104Y107695D01*
X248965Y107582D01*
X248927Y107557D01*
X247056Y105686D01*
X243321Y104139D01*
X239279Y104139D01*
X235544Y105686D01*
X232686Y108544D01*
X231139Y112279D01*
X231139Y116321D01*
X232686Y120056D01*
X235544Y122914D01*
X239279Y124461D01*
X243321Y124461D01*
X247056Y122914D01*
X248927Y121043D01*
X248933Y121038D01*
X248934Y121037D01*
X248939Y121033D01*
X248968Y121012D01*
X249004Y120974D01*
X249075Y120933D01*
X249141Y120885D01*
X249190Y120868D01*
X249234Y120842D01*
X249314Y120824D01*
X249392Y120797D01*
X249444Y120796D01*
X249494Y120784D01*
X249576Y120791D01*
X249658Y120788D01*
X249707Y120802D01*
X249759Y120806D01*
X249835Y120837D01*
X249914Y120858D01*
X249958Y120886D01*
X250006Y120905D01*
X250069Y120957D01*
X250138Y121001D01*
X250172Y121040D01*
X250212Y121073D01*
X250257Y121141D01*
X250310Y121203D01*
X250331Y121251D01*
X250359Y121294D01*
X250371Y121344D01*
X250382Y121371D01*
X250383Y121373D01*
X250384Y121375D01*
X250415Y121448D01*
X250428Y121573D01*
X250441Y121633D01*
X250439Y121654D01*
X250443Y121671D01*
X250443Y132329D01*
X250436Y132380D01*
X250437Y132432D01*
X250416Y132511D01*
X250403Y132592D01*
X250381Y132639D01*
X250367Y132688D01*
X250323Y132758D01*
X250288Y132832D01*
X250253Y132869D01*
X250225Y132913D01*
X250162Y132966D01*
X250106Y133026D01*
X250062Y133051D01*
X250022Y133085D01*
X249947Y133117D01*
X249876Y133158D01*
X249825Y133169D01*
X249778Y133189D01*
X249696Y133198D01*
X249616Y133216D01*
X249565Y133211D01*
X249513Y133217D01*
X249433Y133201D01*
X249351Y133194D01*
X249303Y133175D01*
X249253Y133165D01*
X249209Y133137D01*
X249104Y133095D01*
X248965Y132982D01*
X248927Y132957D01*
X247056Y131086D01*
X243321Y129539D01*
X239279Y129539D01*
X235544Y131086D01*
X232686Y133944D01*
X231139Y137679D01*
X231139Y141721D01*
X232686Y145456D01*
X235544Y148314D01*
X239279Y149861D01*
X243321Y149861D01*
X247056Y148314D01*
X248927Y146443D01*
X248968Y146412D01*
X249004Y146374D01*
X249075Y146333D01*
X249141Y146285D01*
X249190Y146268D01*
X249234Y146242D01*
X249314Y146224D01*
X249392Y146197D01*
X249444Y146196D01*
X249494Y146184D01*
X249576Y146191D01*
X249658Y146188D01*
X249707Y146202D01*
X249759Y146206D01*
X249835Y146237D01*
X249914Y146258D01*
X249958Y146286D01*
X250006Y146305D01*
X250069Y146357D01*
X250138Y146401D01*
X250172Y146440D01*
X250212Y146473D01*
X250257Y146541D01*
X250310Y146603D01*
X250331Y146651D01*
X250359Y146694D01*
X250371Y146744D01*
X250415Y146848D01*
X250433Y147026D01*
X250443Y147071D01*
X250443Y157729D01*
X250436Y157780D01*
X250437Y157832D01*
X250416Y157911D01*
X250403Y157992D01*
X250381Y158039D01*
X250367Y158088D01*
X250323Y158158D01*
X250288Y158232D01*
X250253Y158269D01*
X250225Y158313D01*
X250162Y158366D01*
X250106Y158426D01*
X250062Y158451D01*
X250022Y158485D01*
X249947Y158517D01*
X249876Y158558D01*
X249825Y158569D01*
X249778Y158589D01*
X249696Y158598D01*
X249616Y158616D01*
X249565Y158611D01*
X249513Y158617D01*
X249433Y158601D01*
X249351Y158594D01*
X249303Y158575D01*
X249253Y158565D01*
X249209Y158537D01*
X249104Y158495D01*
X248965Y158382D01*
X248927Y158357D01*
X247056Y156486D01*
X243321Y154939D01*
X239279Y154939D01*
X235544Y156486D01*
X232686Y159344D01*
X232634Y159471D01*
X232602Y159524D01*
X232579Y159582D01*
X232533Y159637D01*
X232496Y159699D01*
X232450Y159740D01*
X232411Y159788D01*
X232351Y159828D01*
X232298Y159875D01*
X232242Y159901D01*
X232190Y159935D01*
X232143Y159946D01*
X232056Y159985D01*
X231844Y160012D01*
X231813Y160019D01*
X182159Y160019D01*
X182138Y160016D01*
X182117Y160018D01*
X182007Y159996D01*
X181896Y159979D01*
X181877Y159970D01*
X181856Y159966D01*
X181818Y159942D01*
X181657Y159864D01*
X181574Y159787D01*
X181531Y159759D01*
X177981Y156209D01*
X175846Y156209D01*
X175825Y156206D01*
X175804Y156208D01*
X175694Y156186D01*
X175583Y156169D01*
X175564Y156160D01*
X175544Y156156D01*
X175505Y156132D01*
X175344Y156054D01*
X175262Y155977D01*
X175218Y155949D01*
X173743Y154474D01*
X173730Y154457D01*
X173714Y154444D01*
X173652Y154350D01*
X173585Y154260D01*
X173578Y154240D01*
X173567Y154223D01*
X173557Y154178D01*
X173498Y154009D01*
X173494Y153896D01*
X173483Y153846D01*
X173483Y153778D01*
X172593Y151630D01*
X170950Y149987D01*
X169273Y149292D01*
X169046Y149155D01*
X169011Y149117D01*
X168985Y149100D01*
X138957Y119072D01*
X138951Y119063D01*
X138943Y119057D01*
X138872Y118957D01*
X138799Y118858D01*
X138796Y118848D01*
X138790Y118839D01*
X138752Y118723D01*
X138712Y118607D01*
X138712Y118596D01*
X138708Y118586D01*
X138707Y118464D01*
X138703Y118341D01*
X138706Y118331D01*
X138706Y118321D01*
X138741Y118203D01*
X138773Y118085D01*
X138778Y118076D01*
X138781Y118066D01*
X138850Y117964D01*
X138915Y117860D01*
X138923Y117854D01*
X138929Y117845D01*
X138955Y117827D01*
X139118Y117688D01*
X139206Y117651D01*
X139245Y117623D01*
X140216Y117221D01*
X141859Y115578D01*
X142749Y113430D01*
X142749Y111106D01*
X141859Y108958D01*
X140216Y107315D01*
X138068Y106425D01*
X135744Y106425D01*
X133662Y107288D01*
X133611Y107300D01*
X133564Y107322D01*
X133483Y107332D01*
X133404Y107352D01*
X133352Y107349D01*
X133301Y107355D01*
X133220Y107341D01*
X133138Y107336D01*
X133090Y107318D01*
X133039Y107309D01*
X132966Y107272D01*
X132889Y107243D01*
X132848Y107211D01*
X132802Y107188D01*
X132744Y107131D01*
X132679Y107080D01*
X132649Y107038D01*
X132612Y107002D01*
X132573Y106930D01*
X132526Y106863D01*
X132511Y106814D01*
X132486Y106768D01*
X132470Y106688D01*
X132445Y106610D01*
X132444Y106558D01*
X132434Y106507D01*
X132443Y106457D01*
X132442Y106344D01*
X132493Y106172D01*
X132501Y106127D01*
X132843Y105302D01*
X132843Y102978D01*
X132148Y101301D01*
X132085Y101043D01*
X132087Y100992D01*
X132081Y100961D01*
X132081Y48695D01*
X127261Y43876D01*
X127248Y43859D01*
X127232Y43845D01*
X127170Y43752D01*
X127103Y43662D01*
X127096Y43642D01*
X127085Y43624D01*
X127075Y43580D01*
X127016Y43411D01*
X127012Y43298D01*
X127001Y43248D01*
X127001Y41279D01*
X127041Y41016D01*
X127063Y40969D01*
X127068Y40939D01*
X127763Y39262D01*
X127763Y36938D01*
X126873Y34790D01*
X125230Y33147D01*
X123082Y32257D01*
X120758Y32257D01*
X118610Y33147D01*
X116967Y34790D01*
X116077Y36938D01*
X116077Y39262D01*
X116772Y40939D01*
X116835Y41197D01*
X116833Y41248D01*
X116839Y41279D01*
X116839Y47825D01*
X118044Y49029D01*
X118074Y49070D01*
X118112Y49106D01*
X118153Y49177D01*
X118201Y49243D01*
X118218Y49292D01*
X118244Y49336D01*
X118262Y49416D01*
X118289Y49494D01*
X118291Y49546D01*
X118302Y49596D01*
X118295Y49678D01*
X118298Y49760D01*
X118284Y49809D01*
X118280Y49861D01*
X118250Y49937D01*
X118228Y50016D01*
X118200Y50060D01*
X118181Y50108D01*
X118129Y50171D01*
X118085Y50240D01*
X118046Y50274D01*
X118014Y50314D01*
X117945Y50359D01*
X117883Y50412D01*
X117835Y50433D01*
X117792Y50461D01*
X117742Y50473D01*
X117638Y50517D01*
X117460Y50535D01*
X117416Y50545D01*
X103051Y50545D01*
X102541Y51056D01*
X102327Y51214D01*
X102278Y51231D01*
X102253Y51248D01*
X100576Y51943D01*
X98933Y53586D01*
X98043Y55734D01*
X98043Y56341D01*
X98028Y56443D01*
X98020Y56545D01*
X98008Y56573D01*
X98003Y56604D01*
X97959Y56696D01*
X97921Y56792D01*
X97901Y56815D01*
X97888Y56843D01*
X97818Y56918D01*
X97753Y56998D01*
X97727Y57015D01*
X97706Y57037D01*
X97617Y57088D01*
X97532Y57145D01*
X97508Y57151D01*
X97476Y57169D01*
X97216Y57227D01*
X97178Y57224D01*
X97155Y57229D01*
X96948Y57229D01*
X94820Y58111D01*
X93191Y59740D01*
X92309Y61868D01*
X92309Y64172D01*
X93191Y66300D01*
X94820Y67929D01*
X96948Y68811D01*
X99252Y68811D01*
X101380Y67929D01*
X103009Y66300D01*
X103891Y64172D01*
X103891Y63627D01*
X103906Y63525D01*
X103914Y63423D01*
X103926Y63395D01*
X103931Y63364D01*
X103975Y63272D01*
X104013Y63176D01*
X104033Y63153D01*
X104046Y63125D01*
X104116Y63050D01*
X104181Y62970D01*
X104207Y62953D01*
X104228Y62931D01*
X104317Y62880D01*
X104402Y62823D01*
X104426Y62817D01*
X104458Y62799D01*
X104718Y62741D01*
X104756Y62744D01*
X104779Y62739D01*
X105029Y62739D01*
X105131Y62754D01*
X105233Y62762D01*
X105261Y62774D01*
X105292Y62779D01*
X105384Y62823D01*
X105480Y62861D01*
X105503Y62881D01*
X105531Y62894D01*
X105606Y62964D01*
X105686Y63029D01*
X105703Y63055D01*
X105725Y63076D01*
X105776Y63165D01*
X105833Y63250D01*
X105839Y63274D01*
X105857Y63306D01*
X105915Y63566D01*
X105912Y63604D01*
X105917Y63627D01*
X105917Y64662D01*
X106807Y66810D01*
X108450Y68453D01*
X110598Y69343D01*
X112922Y69343D01*
X113071Y69281D01*
X113081Y69278D01*
X113090Y69273D01*
X113210Y69247D01*
X113329Y69217D01*
X113340Y69218D01*
X113350Y69216D01*
X113472Y69225D01*
X113594Y69233D01*
X113604Y69236D01*
X113615Y69237D01*
X113729Y69283D01*
X113843Y69326D01*
X113852Y69332D01*
X113862Y69336D01*
X113957Y69414D01*
X114054Y69488D01*
X114060Y69497D01*
X114068Y69504D01*
X114136Y69606D01*
X114206Y69706D01*
X114210Y69716D01*
X114215Y69725D01*
X114222Y69755D01*
X114288Y69959D01*
X114289Y70055D01*
X114299Y70102D01*
X114299Y95631D01*
X114284Y95733D01*
X114276Y95835D01*
X114264Y95863D01*
X114259Y95894D01*
X114215Y95986D01*
X114177Y96082D01*
X114157Y96105D01*
X114144Y96133D01*
X114074Y96208D01*
X114009Y96288D01*
X113983Y96305D01*
X113962Y96327D01*
X113873Y96378D01*
X113788Y96435D01*
X113764Y96441D01*
X113732Y96459D01*
X113472Y96517D01*
X113434Y96514D01*
X113411Y96519D01*
X105845Y96519D01*
X96519Y105845D01*
X96519Y111828D01*
X96516Y111848D01*
X96518Y111869D01*
X96496Y111980D01*
X96479Y112090D01*
X96470Y112109D01*
X96466Y112130D01*
X96442Y112168D01*
X96364Y112330D01*
X96287Y112412D01*
X96259Y112456D01*
X92635Y116080D01*
X92421Y116238D01*
X92372Y116255D01*
X92347Y116272D01*
X90670Y116967D01*
X89027Y118610D01*
X88332Y120287D01*
X88301Y120338D01*
X88289Y120368D01*
X88266Y120397D01*
X88195Y120514D01*
X88157Y120549D01*
X88140Y120575D01*
X81976Y126739D01*
X81959Y126752D01*
X81945Y126768D01*
X81852Y126830D01*
X81762Y126897D01*
X81742Y126904D01*
X81724Y126915D01*
X81680Y126925D01*
X81511Y126984D01*
X81398Y126988D01*
X81348Y126999D01*
X72825Y126999D01*
X40066Y159759D01*
X40049Y159772D01*
X40035Y159788D01*
X39942Y159850D01*
X39852Y159917D01*
X39832Y159924D01*
X39814Y159935D01*
X39770Y159945D01*
X39601Y160004D01*
X39488Y160008D01*
X39438Y160019D01*
X22187Y160019D01*
X22126Y160010D01*
X22064Y160011D01*
X21995Y159990D01*
X21924Y159979D01*
X21868Y159952D01*
X21809Y159935D01*
X21749Y159895D01*
X21685Y159864D01*
X21639Y159821D01*
X21588Y159787D01*
X21560Y159748D01*
X21490Y159682D01*
X21384Y159496D01*
X21366Y159471D01*
X21314Y159344D01*
X18456Y156486D01*
X14721Y154939D01*
X10679Y154939D01*
X6944Y156486D01*
X5073Y158357D01*
X5032Y158388D01*
X4996Y158426D01*
X4925Y158467D01*
X4859Y158515D01*
X4810Y158532D01*
X4766Y158558D01*
X4686Y158576D01*
X4608Y158603D01*
X4556Y158604D01*
X4506Y158616D01*
X4424Y158609D01*
X4342Y158612D01*
X4293Y158598D01*
X4241Y158594D01*
X4165Y158563D01*
X4086Y158542D01*
X4042Y158514D01*
X3994Y158495D01*
X3931Y158443D01*
X3862Y158399D01*
X3828Y158360D01*
X3788Y158327D01*
X3743Y158259D01*
X3690Y158197D01*
X3669Y158149D01*
X3641Y158106D01*
X3629Y158056D01*
X3585Y157952D01*
X3567Y157774D01*
X3557Y157729D01*
X3557Y147071D01*
X3564Y147020D01*
X3563Y146968D01*
X3584Y146889D01*
X3597Y146808D01*
X3619Y146761D01*
X3633Y146712D01*
X3677Y146642D01*
X3712Y146568D01*
X3747Y146531D01*
X3775Y146487D01*
X3838Y146434D01*
X3894Y146374D01*
X3938Y146349D01*
X3978Y146315D01*
X4053Y146283D01*
X4124Y146242D01*
X4175Y146231D01*
X4222Y146211D01*
X4304Y146202D01*
X4384Y146184D01*
X4435Y146189D01*
X4487Y146183D01*
X4567Y146199D01*
X4649Y146206D01*
X4697Y146225D01*
X4747Y146235D01*
X4791Y146263D01*
X4896Y146305D01*
X5035Y146418D01*
X5073Y146443D01*
X6944Y148314D01*
X10679Y149861D01*
X14721Y149861D01*
X18456Y148314D01*
X21314Y145456D01*
X22861Y141721D01*
X22861Y137679D01*
X21314Y133944D01*
X18456Y131086D01*
X14721Y129539D01*
X10679Y129539D01*
X6944Y131086D01*
X5073Y132957D01*
X5032Y132988D01*
X4996Y133026D01*
X4925Y133067D01*
X4859Y133115D01*
X4810Y133132D01*
X4766Y133158D01*
X4686Y133176D01*
X4608Y133203D01*
X4556Y133204D01*
X4506Y133216D01*
X4424Y133209D01*
X4342Y133212D01*
X4293Y133198D01*
X4241Y133194D01*
X4165Y133163D01*
X4086Y133142D01*
X4042Y133114D01*
X3994Y133095D01*
X3931Y133043D01*
X3862Y132999D01*
X3828Y132960D01*
X3788Y132927D01*
X3743Y132859D01*
X3690Y132797D01*
X3669Y132749D01*
X3641Y132706D01*
X3629Y132656D01*
X3585Y132552D01*
X3567Y132374D01*
X3557Y132329D01*
X3557Y121671D01*
X3564Y121620D01*
X3563Y121568D01*
X3579Y121508D01*
X3580Y121490D01*
X3586Y121476D01*
X3597Y121408D01*
X3619Y121361D01*
X3633Y121312D01*
X3677Y121242D01*
X3712Y121168D01*
X3747Y121131D01*
X3775Y121087D01*
X3838Y121034D01*
X3894Y120974D01*
X3938Y120949D01*
X3978Y120915D01*
X4053Y120883D01*
X4124Y120842D01*
X4175Y120831D01*
X4222Y120811D01*
X4304Y120802D01*
X4384Y120784D01*
X4435Y120789D01*
X4487Y120783D01*
X4567Y120799D01*
X4649Y120806D01*
X4697Y120825D01*
X4747Y120835D01*
X4791Y120863D01*
X4896Y120905D01*
X4956Y120954D01*
X4970Y120961D01*
X5009Y120997D01*
X5035Y121018D01*
X5073Y121043D01*
X6944Y122914D01*
X10679Y124461D01*
X14721Y124461D01*
X18456Y122914D01*
X21314Y120056D01*
X22861Y116321D01*
X22861Y112279D01*
X21314Y108544D01*
X18456Y105686D01*
X14721Y104139D01*
X10679Y104139D01*
X6944Y105686D01*
X5073Y107557D01*
X5032Y107588D01*
X4996Y107626D01*
X4925Y107667D01*
X4859Y107715D01*
X4810Y107732D01*
X4766Y107758D01*
X4686Y107776D01*
X4608Y107803D01*
X4556Y107804D01*
X4506Y107816D01*
X4424Y107809D01*
X4342Y107812D01*
X4293Y107798D01*
X4241Y107794D01*
X4165Y107763D01*
X4086Y107742D01*
X4042Y107714D01*
X3994Y107695D01*
X3931Y107643D01*
X3862Y107599D01*
X3828Y107560D01*
X3788Y107527D01*
X3743Y107459D01*
X3690Y107397D01*
X3669Y107349D01*
X3641Y107306D01*
X3629Y107256D01*
X3585Y107152D01*
X3567Y106974D01*
X3557Y106929D01*
X3557Y96271D01*
X3564Y96220D01*
X3563Y96168D01*
X3584Y96089D01*
X3597Y96008D01*
X3619Y95961D01*
X3633Y95912D01*
X3677Y95842D01*
X3712Y95768D01*
X3747Y95731D01*
X3775Y95687D01*
X3838Y95634D01*
X3894Y95574D01*
X3938Y95549D01*
X3978Y95515D01*
X4053Y95483D01*
X4124Y95442D01*
X4175Y95431D01*
X4222Y95411D01*
X4304Y95402D01*
X4384Y95384D01*
X4435Y95389D01*
X4487Y95383D01*
X4567Y95399D01*
X4649Y95406D01*
X4697Y95425D01*
X4747Y95435D01*
X4791Y95463D01*
X4896Y95505D01*
X5035Y95618D01*
X5073Y95643D01*
X6944Y97514D01*
X10679Y99061D01*
X14721Y99061D01*
X18456Y97514D01*
X21314Y94656D01*
X22861Y90921D01*
X22861Y86879D01*
X21314Y83144D01*
X18456Y80286D01*
X14721Y78739D01*
X10679Y78739D01*
X6944Y80286D01*
X5073Y82157D01*
X5032Y82188D01*
X4996Y82226D01*
X4925Y82267D01*
X4859Y82315D01*
X4810Y82332D01*
X4766Y82358D01*
X4686Y82376D01*
X4608Y82403D01*
X4556Y82404D01*
X4506Y82416D01*
X4424Y82409D01*
X4342Y82412D01*
X4293Y82398D01*
X4241Y82394D01*
X4165Y82363D01*
X4086Y82342D01*
X4042Y82314D01*
X3994Y82295D01*
X3931Y82243D01*
X3862Y82199D01*
X3828Y82160D01*
X3788Y82127D01*
X3743Y82059D01*
X3690Y81997D01*
X3669Y81949D01*
X3641Y81906D01*
X3629Y81856D01*
X3585Y81752D01*
X3567Y81574D01*
X3557Y81529D01*
X3557Y70871D01*
X3564Y70820D01*
X3563Y70768D01*
X3584Y70689D01*
X3597Y70608D01*
X3619Y70561D01*
X3633Y70512D01*
X3677Y70442D01*
X3712Y70368D01*
X3747Y70331D01*
X3775Y70287D01*
X3838Y70234D01*
X3894Y70174D01*
X3938Y70149D01*
X3978Y70115D01*
X4053Y70083D01*
X4124Y70042D01*
X4175Y70031D01*
X4222Y70011D01*
X4304Y70002D01*
X4384Y69984D01*
X4435Y69989D01*
X4487Y69983D01*
X4567Y69999D01*
X4649Y70006D01*
X4697Y70025D01*
X4747Y70035D01*
X4791Y70063D01*
X4896Y70105D01*
X5035Y70218D01*
X5073Y70243D01*
X6944Y72114D01*
X10679Y73661D01*
X14721Y73661D01*
X18456Y72114D01*
X21314Y69256D01*
X22861Y65521D01*
X22861Y61479D01*
X21314Y57744D01*
X18456Y54886D01*
X14721Y53339D01*
X10679Y53339D01*
X6944Y54886D01*
X5073Y56757D01*
X5032Y56788D01*
X4996Y56826D01*
X4925Y56867D01*
X4859Y56915D01*
X4810Y56932D01*
X4766Y56958D01*
X4686Y56976D01*
X4608Y57003D01*
X4556Y57004D01*
X4506Y57016D01*
X4424Y57009D01*
X4342Y57012D01*
X4293Y56998D01*
X4241Y56994D01*
X4165Y56963D01*
X4086Y56942D01*
X4042Y56914D01*
X3994Y56895D01*
X3931Y56843D01*
X3862Y56799D01*
X3828Y56760D01*
X3788Y56727D01*
X3743Y56659D01*
X3690Y56597D01*
X3669Y56549D01*
X3641Y56506D01*
X3629Y56456D01*
X3585Y56352D01*
X3567Y56174D01*
X3557Y56129D01*
X3557Y4445D01*
X3572Y4343D01*
X3580Y4241D01*
X3592Y4213D01*
X3597Y4182D01*
X3641Y4090D01*
X3679Y3994D01*
X3699Y3971D01*
X3712Y3943D01*
X3782Y3868D01*
X3847Y3788D01*
X3873Y3771D01*
X3894Y3749D01*
X3983Y3698D01*
X4068Y3641D01*
X4092Y3635D01*
X4124Y3617D01*
X4384Y3559D01*
X4422Y3562D01*
X4445Y3557D01*
X249555Y3557D01*
X249657Y3572D01*
G37*
G36*
X110562Y134560D02*
X110562Y134560D01*
X110593Y134559D01*
X110692Y134586D01*
X110792Y134606D01*
X110813Y134619D01*
X110849Y134629D01*
X111073Y134772D01*
X111098Y134801D01*
X111118Y134813D01*
X141979Y165674D01*
X141992Y165691D01*
X142008Y165705D01*
X142070Y165798D01*
X142137Y165888D01*
X142144Y165908D01*
X142155Y165926D01*
X142165Y165970D01*
X142224Y166139D01*
X142228Y166252D01*
X142239Y166302D01*
X142239Y174621D01*
X142199Y174884D01*
X142177Y174931D01*
X142172Y174961D01*
X141477Y176638D01*
X141477Y178962D01*
X142367Y181110D01*
X144010Y182753D01*
X146158Y183643D01*
X148482Y183643D01*
X150630Y182753D01*
X152273Y181110D01*
X153163Y178962D01*
X153163Y176638D01*
X152468Y174961D01*
X152405Y174703D01*
X152407Y174652D01*
X152401Y174621D01*
X152401Y163254D01*
X152408Y163203D01*
X152407Y163152D01*
X152428Y163073D01*
X152441Y162992D01*
X152463Y162945D01*
X152477Y162895D01*
X152521Y162826D01*
X152556Y162752D01*
X152591Y162715D01*
X152619Y162671D01*
X152682Y162618D01*
X152738Y162558D01*
X152782Y162532D01*
X152822Y162499D01*
X152897Y162467D01*
X152968Y162426D01*
X153019Y162415D01*
X153066Y162395D01*
X153148Y162386D01*
X153228Y162368D01*
X153279Y162372D01*
X153331Y162367D01*
X153411Y162383D01*
X153493Y162390D01*
X153541Y162409D01*
X153591Y162419D01*
X153635Y162447D01*
X153740Y162489D01*
X153879Y162602D01*
X153917Y162626D01*
X165281Y173991D01*
X168271Y173991D01*
X168534Y174031D01*
X168581Y174053D01*
X168611Y174058D01*
X170288Y174753D01*
X172612Y174753D01*
X174760Y173863D01*
X176403Y172220D01*
X177021Y170729D01*
X177053Y170676D01*
X177076Y170618D01*
X177121Y170563D01*
X177158Y170501D01*
X177204Y170460D01*
X177243Y170412D01*
X177303Y170372D01*
X177356Y170325D01*
X177413Y170299D01*
X177464Y170265D01*
X177511Y170254D01*
X177598Y170215D01*
X177811Y170188D01*
X177841Y170181D01*
X231813Y170181D01*
X231874Y170190D01*
X231936Y170189D01*
X232005Y170210D01*
X232076Y170221D01*
X232132Y170248D01*
X232191Y170265D01*
X232251Y170305D01*
X232315Y170336D01*
X232361Y170379D01*
X232412Y170413D01*
X232440Y170452D01*
X232510Y170518D01*
X232616Y170704D01*
X232634Y170729D01*
X232686Y170856D01*
X235544Y173714D01*
X239279Y175261D01*
X243321Y175261D01*
X247056Y173714D01*
X248927Y171843D01*
X248968Y171812D01*
X249004Y171774D01*
X249075Y171733D01*
X249141Y171685D01*
X249190Y171668D01*
X249234Y171642D01*
X249314Y171624D01*
X249392Y171597D01*
X249444Y171596D01*
X249494Y171584D01*
X249576Y171591D01*
X249658Y171588D01*
X249707Y171602D01*
X249759Y171606D01*
X249835Y171637D01*
X249914Y171658D01*
X249958Y171686D01*
X250006Y171705D01*
X250069Y171757D01*
X250138Y171801D01*
X250172Y171840D01*
X250212Y171873D01*
X250257Y171941D01*
X250310Y172003D01*
X250331Y172051D01*
X250359Y172094D01*
X250371Y172144D01*
X250415Y172248D01*
X250433Y172426D01*
X250443Y172471D01*
X250443Y183129D01*
X250436Y183180D01*
X250437Y183232D01*
X250416Y183311D01*
X250403Y183392D01*
X250381Y183439D01*
X250367Y183489D01*
X250323Y183558D01*
X250288Y183632D01*
X250253Y183669D01*
X250225Y183713D01*
X250162Y183766D01*
X250106Y183826D01*
X250062Y183851D01*
X250022Y183885D01*
X249947Y183917D01*
X249876Y183958D01*
X249825Y183969D01*
X249778Y183989D01*
X249696Y183998D01*
X249616Y184016D01*
X249565Y184011D01*
X249513Y184017D01*
X249433Y184001D01*
X249351Y183994D01*
X249303Y183975D01*
X249253Y183965D01*
X249209Y183937D01*
X249104Y183895D01*
X248965Y183782D01*
X248927Y183758D01*
X247919Y182750D01*
X246625Y181810D01*
X245200Y181084D01*
X243679Y180589D01*
X243077Y180494D01*
X243077Y189611D01*
X243062Y189712D01*
X243053Y189815D01*
X243042Y189843D01*
X243037Y189874D01*
X242993Y189966D01*
X242954Y190061D01*
X242935Y190085D01*
X242922Y190113D01*
X242852Y190188D01*
X242787Y190268D01*
X242761Y190285D01*
X242740Y190307D01*
X242651Y190358D01*
X242566Y190415D01*
X242542Y190420D01*
X242510Y190439D01*
X242250Y190497D01*
X242212Y190494D01*
X242189Y190499D01*
X241299Y190499D01*
X241299Y191389D01*
X241284Y191490D01*
X241275Y191593D01*
X241264Y191621D01*
X241259Y191652D01*
X241215Y191744D01*
X241176Y191839D01*
X241157Y191863D01*
X241144Y191891D01*
X241074Y191966D01*
X241009Y192046D01*
X240983Y192063D01*
X240962Y192085D01*
X240873Y192136D01*
X240788Y192193D01*
X240764Y192199D01*
X240731Y192217D01*
X240472Y192275D01*
X240434Y192272D01*
X240411Y192277D01*
X231294Y192277D01*
X231389Y192879D01*
X231884Y194400D01*
X232610Y195825D01*
X233550Y197119D01*
X234681Y198250D01*
X235260Y198671D01*
X235346Y198756D01*
X235435Y198839D01*
X235441Y198849D01*
X235450Y198858D01*
X235507Y198964D01*
X235567Y199069D01*
X235569Y199081D01*
X235575Y199092D01*
X235598Y199211D01*
X235625Y199329D01*
X235624Y199341D01*
X235626Y199353D01*
X235613Y199473D01*
X235603Y199594D01*
X235598Y199605D01*
X235597Y199618D01*
X235549Y199728D01*
X235504Y199841D01*
X235496Y199850D01*
X235491Y199861D01*
X235413Y199953D01*
X235336Y200047D01*
X235326Y200054D01*
X235318Y200063D01*
X235216Y200127D01*
X235115Y200194D01*
X235105Y200197D01*
X235093Y200204D01*
X234836Y200273D01*
X234774Y200270D01*
X234738Y200278D01*
X19436Y200278D01*
X19385Y200271D01*
X19333Y200272D01*
X19254Y200251D01*
X19173Y200238D01*
X19126Y200216D01*
X19077Y200202D01*
X19007Y200158D01*
X18934Y200123D01*
X18896Y200088D01*
X18852Y200060D01*
X18799Y199997D01*
X18739Y199941D01*
X18714Y199897D01*
X18680Y199857D01*
X18648Y199782D01*
X18607Y199711D01*
X18596Y199660D01*
X18576Y199613D01*
X18567Y199531D01*
X18549Y199451D01*
X18554Y199400D01*
X18548Y199348D01*
X18564Y199268D01*
X18571Y199186D01*
X18590Y199138D01*
X18600Y199088D01*
X18628Y199044D01*
X18670Y198939D01*
X18783Y198800D01*
X18808Y198762D01*
X21314Y196256D01*
X21366Y196129D01*
X21398Y196076D01*
X21421Y196018D01*
X21467Y195963D01*
X21504Y195901D01*
X21550Y195860D01*
X21589Y195812D01*
X21649Y195772D01*
X21702Y195725D01*
X21758Y195699D01*
X21810Y195665D01*
X21857Y195654D01*
X21944Y195615D01*
X22156Y195588D01*
X22187Y195581D01*
X30045Y195581D01*
X33281Y192344D01*
X80584Y145041D01*
X80598Y145031D01*
X80607Y145020D01*
X80610Y145018D01*
X80614Y145012D01*
X80708Y144950D01*
X80798Y144883D01*
X80818Y144876D01*
X80836Y144865D01*
X80880Y144855D01*
X81049Y144796D01*
X81162Y144792D01*
X81212Y144781D01*
X99895Y144781D01*
X109862Y134813D01*
X109945Y134752D01*
X110023Y134686D01*
X110051Y134674D01*
X110076Y134656D01*
X110173Y134622D01*
X110267Y134582D01*
X110298Y134578D01*
X110327Y134568D01*
X110429Y134565D01*
X110532Y134554D01*
X110562Y134560D01*
G37*
%LPC*%
G36*
X21611Y6349D02*
X21611Y6349D01*
X14609Y9250D01*
X9250Y14609D01*
X6349Y21611D01*
X6349Y29189D01*
X9250Y36191D01*
X14609Y41550D01*
X21611Y44451D01*
X29189Y44451D01*
X36191Y41550D01*
X41550Y36191D01*
X44451Y29189D01*
X44451Y21611D01*
X41550Y14609D01*
X36191Y9250D01*
X29189Y6349D01*
X21611Y6349D01*
G37*
%LPD*%
%LPC*%
G36*
X224811Y6349D02*
X224811Y6349D01*
X217809Y9250D01*
X212450Y14609D01*
X209549Y21611D01*
X209549Y29189D01*
X212450Y36191D01*
X217809Y41550D01*
X224811Y44451D01*
X232389Y44451D01*
X239391Y41550D01*
X244750Y36191D01*
X247651Y29189D01*
X247651Y21611D01*
X244750Y14609D01*
X239391Y9250D01*
X232389Y6349D01*
X224811Y6349D01*
G37*
%LPD*%
%LPC*%
G36*
X49638Y32657D02*
X49638Y32657D01*
X47490Y33547D01*
X45847Y35190D01*
X44957Y37338D01*
X44957Y39662D01*
X45847Y41810D01*
X46729Y42692D01*
X46742Y42709D01*
X46758Y42722D01*
X46820Y42816D01*
X46887Y42906D01*
X46894Y42926D01*
X46905Y42943D01*
X46915Y42988D01*
X46974Y43157D01*
X46978Y43270D01*
X46989Y43320D01*
X46989Y106988D01*
X49482Y109481D01*
X53587Y113586D01*
X53600Y113603D01*
X53616Y113616D01*
X53678Y113710D01*
X53745Y113800D01*
X53752Y113820D01*
X53763Y113838D01*
X53773Y113882D01*
X53832Y114051D01*
X53836Y114164D01*
X53847Y114214D01*
X53847Y115462D01*
X54737Y117610D01*
X56380Y119253D01*
X58528Y120143D01*
X60852Y120143D01*
X63000Y119253D01*
X64643Y117610D01*
X65533Y115462D01*
X65533Y113138D01*
X64643Y110990D01*
X63000Y109347D01*
X60852Y108457D01*
X59604Y108457D01*
X59584Y108454D01*
X59563Y108456D01*
X59452Y108434D01*
X59342Y108417D01*
X59323Y108408D01*
X59302Y108404D01*
X59263Y108380D01*
X59102Y108302D01*
X59020Y108225D01*
X58976Y108197D01*
X54871Y104092D01*
X54858Y104075D01*
X54842Y104062D01*
X54780Y103968D01*
X54713Y103878D01*
X54706Y103858D01*
X54695Y103840D01*
X54685Y103796D01*
X54626Y103627D01*
X54622Y103514D01*
X54611Y103464D01*
X54611Y98786D01*
X54612Y98775D01*
X54611Y98765D01*
X54632Y98644D01*
X54651Y98523D01*
X54655Y98513D01*
X54657Y98503D01*
X54713Y98394D01*
X54766Y98284D01*
X54774Y98276D01*
X54778Y98266D01*
X54864Y98179D01*
X54948Y98089D01*
X54957Y98084D01*
X54964Y98076D01*
X55072Y98018D01*
X55178Y97957D01*
X55189Y97955D01*
X55198Y97950D01*
X55318Y97926D01*
X55438Y97899D01*
X55448Y97900D01*
X55459Y97898D01*
X55489Y97904D01*
X55703Y97921D01*
X55792Y97957D01*
X55839Y97965D01*
X57258Y98553D01*
X59582Y98553D01*
X61730Y97663D01*
X63373Y96020D01*
X64263Y93872D01*
X64263Y91548D01*
X63373Y89400D01*
X61730Y87757D01*
X59582Y86867D01*
X57258Y86867D01*
X55839Y87455D01*
X55829Y87458D01*
X55820Y87463D01*
X55700Y87489D01*
X55581Y87519D01*
X55570Y87518D01*
X55560Y87521D01*
X55438Y87511D01*
X55315Y87503D01*
X55306Y87500D01*
X55295Y87499D01*
X55181Y87453D01*
X55067Y87410D01*
X55058Y87404D01*
X55048Y87400D01*
X54953Y87322D01*
X54856Y87248D01*
X54850Y87239D01*
X54842Y87232D01*
X54774Y87130D01*
X54704Y87030D01*
X54700Y87020D01*
X54695Y87011D01*
X54688Y86981D01*
X54622Y86777D01*
X54621Y86681D01*
X54611Y86634D01*
X54611Y43320D01*
X54614Y43299D01*
X54612Y43278D01*
X54634Y43168D01*
X54651Y43057D01*
X54660Y43038D01*
X54664Y43018D01*
X54688Y42979D01*
X54766Y42818D01*
X54843Y42736D01*
X54871Y42692D01*
X55753Y41810D01*
X56643Y39662D01*
X56643Y37338D01*
X55753Y35190D01*
X54110Y33547D01*
X51962Y32657D01*
X49638Y32657D01*
G37*
%LPD*%
%LPC*%
G36*
X83115Y57169D02*
X83115Y57169D01*
X83068Y57164D01*
X83043Y57184D01*
X82813Y57316D01*
X82793Y57321D01*
X82782Y57328D01*
X82677Y57365D01*
X82532Y57392D01*
X82483Y57409D01*
X82372Y57421D01*
X82106Y57411D01*
X82088Y57405D01*
X82075Y57405D01*
X82039Y57396D01*
X81876Y57467D01*
X81828Y57473D01*
X81808Y57498D01*
X81613Y57679D01*
X81595Y57687D01*
X81586Y57696D01*
X81492Y57756D01*
X81357Y57814D01*
X81312Y57842D01*
X81207Y57879D01*
X80946Y57928D01*
X80926Y57926D01*
X80913Y57929D01*
X80876Y57929D01*
X80733Y58034D01*
X80688Y58050D01*
X80674Y58079D01*
X80524Y58299D01*
X80509Y58311D01*
X80502Y58322D01*
X80423Y58401D01*
X80305Y58488D01*
X80268Y58525D01*
X80173Y58584D01*
X79929Y58690D01*
X79910Y58693D01*
X79898Y58698D01*
X79862Y58706D01*
X79746Y58841D01*
X79705Y58866D01*
X79698Y58898D01*
X79601Y59145D01*
X79589Y59161D01*
X79584Y59173D01*
X79525Y59267D01*
X79429Y59379D01*
X79401Y59423D01*
X79322Y59502D01*
X79108Y59660D01*
X79089Y59666D01*
X79079Y59674D01*
X79046Y59690D01*
X78963Y59847D01*
X78929Y59881D01*
X78929Y59913D01*
X78889Y60176D01*
X78880Y60194D01*
X78879Y60207D01*
X78842Y60312D01*
X78773Y60442D01*
X78756Y60492D01*
X78696Y60586D01*
X78523Y60788D01*
X78506Y60798D01*
X78498Y60808D01*
X78469Y60831D01*
X78423Y61003D01*
X78397Y61043D01*
X78400Y61052D01*
X78408Y61172D01*
X78421Y61292D01*
X78418Y61305D01*
X78419Y61317D01*
X78392Y61434D01*
X78369Y61552D01*
X78363Y61561D01*
X78360Y61577D01*
X78274Y61723D01*
X78274Y61784D01*
X78234Y62047D01*
X78226Y62064D01*
X78224Y62077D01*
X78144Y62307D01*
X78172Y62366D01*
X78188Y62418D01*
X78214Y62467D01*
X78219Y62517D01*
X78251Y62620D01*
X78250Y62809D01*
X78255Y62851D01*
X78169Y63613D01*
X78190Y63645D01*
X78195Y63667D01*
X78213Y63698D01*
X78272Y63957D01*
X78269Y63997D01*
X78274Y64022D01*
X78274Y65020D01*
X78234Y65283D01*
X78212Y65330D01*
X78207Y65360D01*
X77501Y67063D01*
X77501Y69577D01*
X78207Y71280D01*
X78270Y71538D01*
X78268Y71589D01*
X78274Y71620D01*
X78274Y72618D01*
X78259Y72721D01*
X78250Y72825D01*
X78240Y72846D01*
X78234Y72881D01*
X78168Y73019D01*
X78255Y73789D01*
X78253Y73844D01*
X78260Y73899D01*
X78249Y73948D01*
X78245Y74055D01*
X78182Y74233D01*
X78172Y74274D01*
X78144Y74333D01*
X78224Y74563D01*
X78274Y74824D01*
X78271Y74843D01*
X78274Y74856D01*
X78274Y74911D01*
X78307Y74953D01*
X78312Y74965D01*
X78319Y74976D01*
X78359Y75089D01*
X78402Y75202D01*
X78402Y75212D01*
X78407Y75227D01*
X78416Y75492D01*
X78400Y75552D01*
X78400Y75588D01*
X78396Y75601D01*
X78467Y75764D01*
X78473Y75812D01*
X78498Y75832D01*
X78679Y76027D01*
X78687Y76045D01*
X78696Y76054D01*
X78756Y76148D01*
X78814Y76283D01*
X78842Y76328D01*
X78879Y76433D01*
X78928Y76694D01*
X78926Y76714D01*
X78929Y76727D01*
X78929Y76764D01*
X79034Y76907D01*
X79050Y76952D01*
X79079Y76966D01*
X79299Y77116D01*
X79311Y77131D01*
X79322Y77138D01*
X79401Y77217D01*
X79488Y77335D01*
X79525Y77372D01*
X79584Y77467D01*
X79690Y77711D01*
X79693Y77730D01*
X79698Y77742D01*
X79706Y77778D01*
X79841Y77894D01*
X79866Y77935D01*
X79898Y77942D01*
X80145Y78039D01*
X80161Y78051D01*
X80173Y78056D01*
X80268Y78115D01*
X80379Y78211D01*
X80423Y78239D01*
X80502Y78318D01*
X80660Y78532D01*
X80666Y78551D01*
X80674Y78561D01*
X80690Y78594D01*
X80847Y78677D01*
X80881Y78711D01*
X80913Y78711D01*
X81176Y78751D01*
X81194Y78760D01*
X81207Y78761D01*
X81312Y78798D01*
X81442Y78867D01*
X81492Y78884D01*
X81586Y78944D01*
X81788Y79117D01*
X81798Y79134D01*
X81808Y79142D01*
X81831Y79171D01*
X82003Y79217D01*
X82076Y79263D01*
X82119Y79279D01*
X82331Y79412D01*
X82353Y79430D01*
X82378Y79443D01*
X82453Y79517D01*
X82533Y79585D01*
X82548Y79609D01*
X82568Y79629D01*
X82618Y79722D01*
X82674Y79811D01*
X82681Y79838D01*
X82694Y79863D01*
X82715Y79966D01*
X82742Y80068D01*
X82741Y80096D01*
X82746Y80124D01*
X82737Y80173D01*
X82731Y80333D01*
X82689Y80452D01*
X82679Y80504D01*
X81787Y82658D01*
X81787Y84982D01*
X82677Y87130D01*
X84320Y88773D01*
X86468Y89663D01*
X88792Y89663D01*
X90940Y88773D01*
X92583Y87130D01*
X93473Y84982D01*
X93473Y82658D01*
X92583Y80510D01*
X90940Y78867D01*
X89092Y78101D01*
X89083Y78096D01*
X89072Y78093D01*
X89002Y78049D01*
X88931Y78014D01*
X88902Y77987D01*
X88864Y77964D01*
X88857Y77956D01*
X88848Y77950D01*
X88791Y77883D01*
X88737Y77833D01*
X88719Y77801D01*
X88687Y77765D01*
X88683Y77756D01*
X88676Y77748D01*
X88640Y77662D01*
X88605Y77602D01*
X88598Y77568D01*
X88577Y77524D01*
X88576Y77513D01*
X88572Y77503D01*
X88562Y77407D01*
X88547Y77343D01*
X88550Y77310D01*
X88544Y77260D01*
X88545Y77250D01*
X88544Y77239D01*
X88564Y77142D01*
X88569Y77078D01*
X88581Y77048D01*
X88590Y76998D01*
X88594Y76989D01*
X88596Y76978D01*
X88613Y76952D01*
X88642Y76896D01*
X88668Y76831D01*
X88688Y76807D01*
X88711Y76762D01*
X88711Y76761D01*
X88711Y76727D01*
X88751Y76464D01*
X88760Y76446D01*
X88761Y76433D01*
X88798Y76328D01*
X88867Y76198D01*
X88884Y76148D01*
X88944Y76054D01*
X89117Y75852D01*
X89134Y75842D01*
X89142Y75832D01*
X89171Y75809D01*
X89217Y75637D01*
X89243Y75597D01*
X89240Y75588D01*
X89232Y75468D01*
X89219Y75348D01*
X89222Y75336D01*
X89221Y75323D01*
X89248Y75206D01*
X89271Y75088D01*
X89277Y75079D01*
X89280Y75064D01*
X89366Y74917D01*
X89366Y74856D01*
X89406Y74593D01*
X89414Y74576D01*
X89416Y74563D01*
X89496Y74333D01*
X89468Y74274D01*
X89452Y74222D01*
X89426Y74173D01*
X89421Y74123D01*
X89389Y74020D01*
X89390Y73832D01*
X89385Y73789D01*
X89471Y73028D01*
X89450Y72995D01*
X89445Y72973D01*
X89427Y72942D01*
X89368Y72683D01*
X89371Y72643D01*
X89366Y72618D01*
X89366Y71620D01*
X89406Y71357D01*
X89428Y71310D01*
X89433Y71280D01*
X90139Y69577D01*
X90139Y67063D01*
X89433Y65360D01*
X89370Y65102D01*
X89372Y65051D01*
X89366Y65020D01*
X89366Y64022D01*
X89381Y63919D01*
X89390Y63815D01*
X89400Y63794D01*
X89406Y63759D01*
X89472Y63621D01*
X89385Y62851D01*
X89387Y62796D01*
X89380Y62741D01*
X89391Y62692D01*
X89395Y62585D01*
X89458Y62407D01*
X89468Y62366D01*
X89496Y62307D01*
X89416Y62077D01*
X89366Y61816D01*
X89369Y61797D01*
X89366Y61784D01*
X89366Y61729D01*
X89333Y61687D01*
X89328Y61675D01*
X89321Y61664D01*
X89281Y61551D01*
X89238Y61438D01*
X89238Y61428D01*
X89233Y61413D01*
X89224Y61148D01*
X89240Y61088D01*
X89240Y61052D01*
X89244Y61039D01*
X89173Y60876D01*
X89167Y60828D01*
X89142Y60808D01*
X88961Y60613D01*
X88953Y60595D01*
X88944Y60586D01*
X88884Y60492D01*
X88826Y60357D01*
X88798Y60312D01*
X88761Y60207D01*
X88712Y59946D01*
X88714Y59926D01*
X88711Y59913D01*
X88711Y59876D01*
X88606Y59733D01*
X88590Y59688D01*
X88561Y59674D01*
X88341Y59524D01*
X88329Y59509D01*
X88318Y59502D01*
X88239Y59423D01*
X88152Y59305D01*
X88115Y59268D01*
X88056Y59173D01*
X87950Y58929D01*
X87947Y58910D01*
X87942Y58898D01*
X87934Y58862D01*
X87799Y58746D01*
X87774Y58705D01*
X87742Y58698D01*
X87495Y58601D01*
X87479Y58589D01*
X87467Y58584D01*
X87372Y58525D01*
X87314Y58475D01*
X87310Y58473D01*
X87289Y58453D01*
X87261Y58429D01*
X87217Y58401D01*
X87138Y58322D01*
X86980Y58108D01*
X86974Y58089D01*
X86966Y58079D01*
X86950Y58046D01*
X86793Y57963D01*
X86759Y57929D01*
X86727Y57929D01*
X86464Y57889D01*
X86446Y57880D01*
X86433Y57879D01*
X86328Y57842D01*
X86198Y57773D01*
X86148Y57756D01*
X86054Y57696D01*
X85852Y57523D01*
X85842Y57506D01*
X85832Y57498D01*
X85809Y57469D01*
X85637Y57423D01*
X85597Y57397D01*
X85565Y57405D01*
X85300Y57424D01*
X85281Y57420D01*
X85268Y57421D01*
X85157Y57409D01*
X85015Y57371D01*
X84963Y57365D01*
X84858Y57328D01*
X84623Y57203D01*
X84609Y57189D01*
X84597Y57184D01*
X84568Y57161D01*
X84391Y57154D01*
X84346Y57138D01*
X84316Y57152D01*
X84062Y57230D01*
X84043Y57230D01*
X84030Y57234D01*
X83919Y57247D01*
X83773Y57241D01*
X83721Y57247D01*
X83610Y57234D01*
X83353Y57166D01*
X83336Y57155D01*
X83324Y57152D01*
X83290Y57136D01*
X83115Y57169D01*
G37*
%LPD*%
G36*
X38981Y170188D02*
X38981Y170188D01*
X39032Y170187D01*
X39111Y170208D01*
X39192Y170221D01*
X39239Y170243D01*
X39289Y170257D01*
X39358Y170301D01*
X39432Y170336D01*
X39469Y170371D01*
X39513Y170399D01*
X39566Y170462D01*
X39626Y170518D01*
X39652Y170562D01*
X39685Y170602D01*
X39717Y170677D01*
X39758Y170748D01*
X39769Y170799D01*
X39789Y170846D01*
X39798Y170928D01*
X39816Y171008D01*
X39812Y171059D01*
X39817Y171111D01*
X39801Y171191D01*
X39794Y171273D01*
X39775Y171321D01*
X39765Y171371D01*
X39737Y171415D01*
X39695Y171520D01*
X39582Y171659D01*
X39558Y171697D01*
X26096Y185159D01*
X26079Y185172D01*
X26065Y185188D01*
X25972Y185250D01*
X25882Y185317D01*
X25862Y185324D01*
X25844Y185335D01*
X25800Y185345D01*
X25631Y185404D01*
X25518Y185408D01*
X25468Y185419D01*
X22187Y185419D01*
X22126Y185410D01*
X22064Y185411D01*
X21995Y185390D01*
X21924Y185379D01*
X21868Y185352D01*
X21809Y185335D01*
X21749Y185295D01*
X21685Y185264D01*
X21639Y185221D01*
X21588Y185187D01*
X21560Y185148D01*
X21490Y185082D01*
X21384Y184896D01*
X21366Y184871D01*
X21314Y184744D01*
X18456Y181886D01*
X14721Y180339D01*
X10679Y180339D01*
X6944Y181886D01*
X5073Y183757D01*
X5032Y183788D01*
X4996Y183826D01*
X4925Y183867D01*
X4859Y183915D01*
X4810Y183932D01*
X4766Y183958D01*
X4686Y183976D01*
X4608Y184003D01*
X4556Y184004D01*
X4506Y184016D01*
X4424Y184009D01*
X4342Y184012D01*
X4293Y183998D01*
X4241Y183994D01*
X4165Y183963D01*
X4086Y183942D01*
X4042Y183914D01*
X3994Y183895D01*
X3931Y183843D01*
X3862Y183799D01*
X3828Y183760D01*
X3788Y183727D01*
X3743Y183659D01*
X3690Y183597D01*
X3669Y183549D01*
X3641Y183506D01*
X3629Y183456D01*
X3585Y183352D01*
X3567Y183174D01*
X3557Y183129D01*
X3557Y172471D01*
X3564Y172420D01*
X3563Y172368D01*
X3584Y172289D01*
X3597Y172208D01*
X3619Y172161D01*
X3633Y172112D01*
X3677Y172042D01*
X3712Y171968D01*
X3747Y171931D01*
X3775Y171887D01*
X3838Y171834D01*
X3894Y171774D01*
X3938Y171749D01*
X3978Y171715D01*
X4053Y171683D01*
X4124Y171642D01*
X4175Y171631D01*
X4222Y171611D01*
X4304Y171602D01*
X4384Y171584D01*
X4435Y171589D01*
X4487Y171583D01*
X4567Y171599D01*
X4649Y171606D01*
X4697Y171625D01*
X4747Y171635D01*
X4791Y171663D01*
X4896Y171705D01*
X5035Y171818D01*
X5073Y171843D01*
X6944Y173714D01*
X10679Y175261D01*
X14721Y175261D01*
X18456Y173714D01*
X21314Y170856D01*
X21366Y170729D01*
X21398Y170676D01*
X21421Y170618D01*
X21467Y170563D01*
X21504Y170501D01*
X21550Y170460D01*
X21589Y170412D01*
X21649Y170372D01*
X21702Y170325D01*
X21758Y170299D01*
X21810Y170265D01*
X21857Y170254D01*
X21944Y170215D01*
X22156Y170188D01*
X22187Y170181D01*
X38930Y170181D01*
X38981Y170188D01*
G37*
%LPC*%
G36*
X151238Y38607D02*
X151238Y38607D01*
X149090Y39497D01*
X147447Y41140D01*
X146557Y43288D01*
X146557Y45612D01*
X147447Y47760D01*
X147954Y48267D01*
X147979Y48300D01*
X147985Y48306D01*
X147991Y48318D01*
X148015Y48350D01*
X148081Y48428D01*
X148094Y48456D01*
X148112Y48481D01*
X148146Y48578D01*
X148186Y48672D01*
X148189Y48703D01*
X148199Y48732D01*
X148203Y48835D01*
X148213Y48937D01*
X148207Y48967D01*
X148208Y48998D01*
X148181Y49097D01*
X148161Y49197D01*
X148148Y49218D01*
X148138Y49254D01*
X147996Y49478D01*
X147967Y49503D01*
X147954Y49523D01*
X147447Y50030D01*
X146557Y52178D01*
X146557Y54502D01*
X147447Y56650D01*
X149090Y58293D01*
X150403Y58837D01*
X150491Y58890D01*
X150583Y58937D01*
X150605Y58958D01*
X150631Y58974D01*
X150699Y59051D01*
X150773Y59123D01*
X150787Y59150D01*
X150808Y59173D01*
X150850Y59266D01*
X150899Y59357D01*
X150905Y59387D01*
X150918Y59415D01*
X150931Y59516D01*
X150951Y59617D01*
X150947Y59641D01*
X150951Y59679D01*
X150906Y59940D01*
X150888Y59974D01*
X150884Y59998D01*
X150109Y61868D01*
X150109Y64172D01*
X150991Y66300D01*
X152620Y67929D01*
X154748Y68811D01*
X157052Y68811D01*
X159180Y67929D01*
X160809Y66300D01*
X161691Y64172D01*
X161691Y61868D01*
X160809Y59740D01*
X159180Y58111D01*
X157925Y57591D01*
X157837Y57538D01*
X157746Y57491D01*
X157724Y57469D01*
X157697Y57454D01*
X157629Y57377D01*
X157556Y57305D01*
X157541Y57278D01*
X157520Y57255D01*
X157478Y57162D01*
X157429Y57071D01*
X157423Y57041D01*
X157410Y57013D01*
X157397Y56911D01*
X157377Y56811D01*
X157381Y56787D01*
X157377Y56749D01*
X157423Y56488D01*
X157440Y56454D01*
X157444Y56430D01*
X158243Y54502D01*
X158243Y52178D01*
X157353Y50030D01*
X156846Y49523D01*
X156785Y49441D01*
X156719Y49362D01*
X156706Y49334D01*
X156688Y49309D01*
X156654Y49212D01*
X156614Y49118D01*
X156611Y49087D01*
X156601Y49058D01*
X156597Y48956D01*
X156587Y48853D01*
X156593Y48823D01*
X156592Y48792D01*
X156619Y48693D01*
X156639Y48593D01*
X156652Y48573D01*
X156662Y48536D01*
X156804Y48312D01*
X156833Y48287D01*
X156846Y48267D01*
X157353Y47760D01*
X158243Y45612D01*
X158243Y43288D01*
X157353Y41140D01*
X155710Y39497D01*
X153562Y38607D01*
X151238Y38607D01*
G37*
%LPD*%
%LPC*%
G36*
X169475Y57169D02*
X169475Y57169D01*
X169428Y57164D01*
X169403Y57184D01*
X169173Y57316D01*
X169153Y57321D01*
X169142Y57328D01*
X169037Y57365D01*
X168892Y57392D01*
X168843Y57409D01*
X168732Y57421D01*
X168466Y57411D01*
X168448Y57405D01*
X168435Y57405D01*
X168399Y57396D01*
X168236Y57467D01*
X168188Y57473D01*
X168168Y57498D01*
X167973Y57679D01*
X167955Y57687D01*
X167946Y57696D01*
X167852Y57756D01*
X167717Y57814D01*
X167672Y57842D01*
X167567Y57879D01*
X167306Y57928D01*
X167286Y57926D01*
X167273Y57929D01*
X167236Y57929D01*
X167093Y58034D01*
X167048Y58050D01*
X167034Y58079D01*
X166884Y58299D01*
X166869Y58311D01*
X166862Y58322D01*
X166783Y58401D01*
X166665Y58488D01*
X166627Y58525D01*
X166533Y58584D01*
X166289Y58690D01*
X166270Y58693D01*
X166258Y58698D01*
X166222Y58706D01*
X166106Y58841D01*
X166065Y58866D01*
X166058Y58898D01*
X165961Y59145D01*
X165949Y59161D01*
X165944Y59173D01*
X165885Y59267D01*
X165789Y59379D01*
X165761Y59423D01*
X165682Y59502D01*
X165468Y59660D01*
X165449Y59666D01*
X165439Y59674D01*
X165406Y59690D01*
X165323Y59847D01*
X165289Y59881D01*
X165289Y59913D01*
X165249Y60176D01*
X165240Y60194D01*
X165239Y60207D01*
X165202Y60312D01*
X165133Y60442D01*
X165116Y60492D01*
X165056Y60586D01*
X164883Y60788D01*
X164866Y60798D01*
X164858Y60808D01*
X164829Y60831D01*
X164783Y61003D01*
X164757Y61043D01*
X164760Y61052D01*
X164768Y61172D01*
X164781Y61292D01*
X164778Y61305D01*
X164779Y61317D01*
X164752Y61434D01*
X164729Y61552D01*
X164723Y61561D01*
X164720Y61577D01*
X164634Y61723D01*
X164634Y61784D01*
X164594Y62047D01*
X164586Y62064D01*
X164584Y62077D01*
X164504Y62307D01*
X164532Y62366D01*
X164548Y62418D01*
X164574Y62467D01*
X164579Y62517D01*
X164611Y62620D01*
X164610Y62809D01*
X164615Y62851D01*
X164529Y63613D01*
X164550Y63645D01*
X164555Y63667D01*
X164573Y63698D01*
X164632Y63957D01*
X164629Y63997D01*
X164634Y64022D01*
X164634Y65020D01*
X164594Y65283D01*
X164572Y65330D01*
X164567Y65360D01*
X163861Y67063D01*
X163861Y69577D01*
X164567Y71280D01*
X164630Y71538D01*
X164628Y71589D01*
X164634Y71620D01*
X164634Y72618D01*
X164619Y72721D01*
X164610Y72825D01*
X164600Y72846D01*
X164594Y72881D01*
X164528Y73019D01*
X164615Y73789D01*
X164613Y73844D01*
X164620Y73899D01*
X164609Y73948D01*
X164605Y74055D01*
X164542Y74233D01*
X164532Y74274D01*
X164504Y74333D01*
X164584Y74563D01*
X164634Y74824D01*
X164631Y74843D01*
X164634Y74856D01*
X164634Y74911D01*
X164667Y74953D01*
X164672Y74965D01*
X164679Y74976D01*
X164719Y75089D01*
X164762Y75202D01*
X164762Y75212D01*
X164767Y75227D01*
X164776Y75492D01*
X164760Y75552D01*
X164760Y75588D01*
X164756Y75601D01*
X164827Y75764D01*
X164833Y75812D01*
X164858Y75832D01*
X165039Y76027D01*
X165047Y76045D01*
X165056Y76054D01*
X165116Y76148D01*
X165174Y76283D01*
X165202Y76328D01*
X165239Y76433D01*
X165288Y76694D01*
X165286Y76714D01*
X165289Y76727D01*
X165289Y76764D01*
X165394Y76907D01*
X165410Y76952D01*
X165439Y76966D01*
X165659Y77116D01*
X165671Y77131D01*
X165682Y77138D01*
X165761Y77217D01*
X165848Y77335D01*
X165885Y77372D01*
X165944Y77467D01*
X166050Y77711D01*
X166053Y77730D01*
X166058Y77742D01*
X166066Y77778D01*
X166201Y77894D01*
X166226Y77935D01*
X166258Y77942D01*
X166505Y78039D01*
X166521Y78051D01*
X166533Y78056D01*
X166628Y78115D01*
X166739Y78211D01*
X166783Y78239D01*
X166862Y78318D01*
X167020Y78532D01*
X167026Y78551D01*
X167034Y78561D01*
X167050Y78594D01*
X167207Y78677D01*
X167241Y78711D01*
X167273Y78711D01*
X167536Y78751D01*
X167554Y78760D01*
X167567Y78761D01*
X167672Y78798D01*
X167802Y78867D01*
X167852Y78884D01*
X167946Y78944D01*
X168148Y79117D01*
X168158Y79134D01*
X168168Y79142D01*
X168191Y79171D01*
X168363Y79217D01*
X168403Y79243D01*
X168435Y79235D01*
X168700Y79216D01*
X168719Y79220D01*
X168732Y79219D01*
X168843Y79231D01*
X168985Y79269D01*
X169037Y79275D01*
X169142Y79312D01*
X169377Y79437D01*
X169391Y79451D01*
X169403Y79456D01*
X169432Y79479D01*
X169609Y79486D01*
X169654Y79502D01*
X169683Y79488D01*
X169938Y79410D01*
X169957Y79410D01*
X169970Y79406D01*
X170081Y79393D01*
X170227Y79399D01*
X170280Y79393D01*
X170390Y79406D01*
X170647Y79474D01*
X170664Y79485D01*
X170676Y79488D01*
X170710Y79504D01*
X170885Y79471D01*
X170932Y79476D01*
X170957Y79456D01*
X171187Y79324D01*
X171207Y79319D01*
X171218Y79312D01*
X171323Y79275D01*
X171467Y79248D01*
X171517Y79231D01*
X171628Y79219D01*
X171894Y79229D01*
X171912Y79235D01*
X171925Y79235D01*
X171961Y79244D01*
X172124Y79173D01*
X172172Y79167D01*
X172192Y79142D01*
X172387Y78961D01*
X172405Y78953D01*
X172414Y78944D01*
X172508Y78884D01*
X172643Y78826D01*
X172688Y78798D01*
X172793Y78761D01*
X173054Y78712D01*
X173074Y78714D01*
X173087Y78711D01*
X173124Y78711D01*
X173267Y78606D01*
X173312Y78590D01*
X173326Y78561D01*
X173476Y78341D01*
X173491Y78329D01*
X173498Y78318D01*
X173577Y78239D01*
X173695Y78152D01*
X173732Y78115D01*
X173827Y78056D01*
X174071Y77950D01*
X174090Y77947D01*
X174102Y77942D01*
X174138Y77934D01*
X174254Y77799D01*
X174295Y77774D01*
X174302Y77742D01*
X174399Y77495D01*
X174411Y77479D01*
X174416Y77467D01*
X174475Y77372D01*
X174571Y77261D01*
X174599Y77217D01*
X174678Y77138D01*
X174892Y76980D01*
X174911Y76974D01*
X174921Y76966D01*
X174954Y76950D01*
X175037Y76793D01*
X175071Y76759D01*
X175071Y76727D01*
X175111Y76464D01*
X175120Y76446D01*
X175121Y76433D01*
X175158Y76328D01*
X175227Y76198D01*
X175244Y76148D01*
X175304Y76054D01*
X175477Y75852D01*
X175494Y75842D01*
X175502Y75832D01*
X175531Y75809D01*
X175577Y75637D01*
X175603Y75597D01*
X175600Y75588D01*
X175592Y75468D01*
X175579Y75348D01*
X175582Y75335D01*
X175581Y75323D01*
X175608Y75206D01*
X175631Y75088D01*
X175637Y75079D01*
X175640Y75063D01*
X175726Y74917D01*
X175726Y74856D01*
X175766Y74593D01*
X175774Y74576D01*
X175776Y74563D01*
X175856Y74333D01*
X175828Y74274D01*
X175812Y74222D01*
X175786Y74173D01*
X175781Y74123D01*
X175749Y74020D01*
X175750Y73831D01*
X175745Y73789D01*
X175831Y73027D01*
X175810Y72995D01*
X175805Y72973D01*
X175787Y72942D01*
X175728Y72683D01*
X175731Y72643D01*
X175726Y72618D01*
X175726Y71620D01*
X175766Y71357D01*
X175788Y71310D01*
X175793Y71280D01*
X176499Y69577D01*
X176499Y67063D01*
X175793Y65360D01*
X175730Y65102D01*
X175732Y65051D01*
X175726Y65020D01*
X175726Y64022D01*
X175741Y63919D01*
X175750Y63815D01*
X175760Y63794D01*
X175766Y63759D01*
X175832Y63621D01*
X175745Y62851D01*
X175747Y62796D01*
X175740Y62741D01*
X175751Y62692D01*
X175755Y62585D01*
X175818Y62407D01*
X175828Y62366D01*
X175856Y62307D01*
X175776Y62077D01*
X175726Y61816D01*
X175729Y61797D01*
X175726Y61784D01*
X175726Y61729D01*
X175693Y61687D01*
X175688Y61675D01*
X175681Y61664D01*
X175641Y61551D01*
X175598Y61438D01*
X175598Y61428D01*
X175593Y61413D01*
X175584Y61148D01*
X175600Y61088D01*
X175600Y61052D01*
X175604Y61039D01*
X175533Y60876D01*
X175527Y60828D01*
X175502Y60808D01*
X175321Y60613D01*
X175313Y60595D01*
X175304Y60586D01*
X175244Y60492D01*
X175186Y60357D01*
X175158Y60312D01*
X175121Y60207D01*
X175072Y59946D01*
X175074Y59926D01*
X175071Y59913D01*
X175071Y59876D01*
X174966Y59733D01*
X174950Y59688D01*
X174921Y59674D01*
X174701Y59524D01*
X174689Y59509D01*
X174678Y59502D01*
X174599Y59423D01*
X174512Y59305D01*
X174475Y59268D01*
X174416Y59173D01*
X174310Y58929D01*
X174307Y58910D01*
X174302Y58898D01*
X174294Y58862D01*
X174159Y58746D01*
X174134Y58705D01*
X174102Y58698D01*
X173855Y58601D01*
X173839Y58589D01*
X173827Y58584D01*
X173733Y58525D01*
X173674Y58475D01*
X173670Y58473D01*
X173649Y58453D01*
X173621Y58429D01*
X173577Y58401D01*
X173498Y58322D01*
X173340Y58108D01*
X173334Y58089D01*
X173326Y58079D01*
X173310Y58046D01*
X173153Y57963D01*
X173119Y57929D01*
X173087Y57929D01*
X172824Y57889D01*
X172806Y57880D01*
X172793Y57879D01*
X172688Y57842D01*
X172558Y57773D01*
X172508Y57756D01*
X172414Y57696D01*
X172212Y57523D01*
X172202Y57506D01*
X172192Y57498D01*
X172169Y57469D01*
X171997Y57423D01*
X171957Y57397D01*
X171925Y57405D01*
X171660Y57424D01*
X171641Y57420D01*
X171628Y57421D01*
X171517Y57409D01*
X171375Y57371D01*
X171323Y57365D01*
X171218Y57328D01*
X170983Y57203D01*
X170969Y57189D01*
X170957Y57184D01*
X170928Y57161D01*
X170751Y57154D01*
X170706Y57138D01*
X170676Y57152D01*
X170422Y57230D01*
X170403Y57230D01*
X170390Y57234D01*
X170279Y57247D01*
X170133Y57241D01*
X170081Y57247D01*
X169970Y57234D01*
X169713Y57166D01*
X169696Y57155D01*
X169684Y57152D01*
X169650Y57136D01*
X169475Y57169D01*
G37*
%LPD*%
%LPC*%
G36*
X118970Y10075D02*
X118970Y10075D01*
X118958Y10078D01*
X118942Y10088D01*
X118784Y10129D01*
X117839Y11074D01*
X117803Y11100D01*
X117786Y11122D01*
X116773Y11984D01*
X116763Y12031D01*
X116757Y12041D01*
X116753Y12059D01*
X116670Y12200D01*
X116670Y13536D01*
X116663Y13581D01*
X116667Y13608D01*
X116560Y14933D01*
X116586Y14973D01*
X116589Y14985D01*
X116598Y15001D01*
X116639Y15159D01*
X117585Y16104D01*
X117611Y16140D01*
X117633Y16157D01*
X118745Y17465D01*
X118750Y17473D01*
X118758Y17480D01*
X118820Y17585D01*
X118885Y17691D01*
X118888Y17700D01*
X118893Y17709D01*
X118921Y17829D01*
X118952Y17948D01*
X118951Y17958D01*
X118954Y17968D01*
X118945Y18091D01*
X118939Y18214D01*
X118936Y18223D01*
X118935Y18233D01*
X118891Y18347D01*
X118849Y18464D01*
X118843Y18471D01*
X118840Y18481D01*
X118763Y18577D01*
X118689Y18676D01*
X118681Y18681D01*
X118675Y18689D01*
X118649Y18704D01*
X118473Y18831D01*
X118383Y18861D01*
X118342Y18885D01*
X117729Y19084D01*
X116389Y21708D01*
X116843Y23109D01*
X117301Y24522D01*
X119287Y26731D01*
X121873Y27884D01*
X121962Y27941D01*
X125154Y27941D01*
X128042Y26273D01*
X129710Y23385D01*
X129710Y20242D01*
X129557Y20034D01*
X129542Y19992D01*
X129526Y19970D01*
X129007Y18760D01*
X129002Y18739D01*
X128992Y18720D01*
X128985Y18675D01*
X128940Y18502D01*
X128942Y18477D01*
X128917Y18448D01*
X128778Y18224D01*
X128777Y18223D01*
X128672Y17976D01*
X128435Y17751D01*
X128366Y17661D01*
X128292Y17575D01*
X128285Y17557D01*
X128272Y17541D01*
X128233Y17435D01*
X128188Y17330D01*
X128186Y17311D01*
X128179Y17292D01*
X128172Y17179D01*
X128161Y17066D01*
X128164Y17047D01*
X128163Y17027D01*
X128190Y16917D01*
X128213Y16805D01*
X128221Y16792D01*
X128227Y16769D01*
X128364Y16541D01*
X128403Y16506D01*
X128420Y16480D01*
X129710Y15189D01*
X129710Y12243D01*
X127627Y10159D01*
X120407Y10159D01*
X120362Y10153D01*
X120335Y10156D01*
X119009Y10049D01*
X118970Y10075D01*
G37*
%LPD*%
%LPC*%
G36*
X169475Y17819D02*
X169475Y17819D01*
X169428Y17814D01*
X169403Y17834D01*
X169173Y17966D01*
X169153Y17971D01*
X169142Y17978D01*
X169037Y18015D01*
X168892Y18042D01*
X168843Y18059D01*
X168732Y18071D01*
X168466Y18061D01*
X168448Y18055D01*
X168435Y18055D01*
X168399Y18046D01*
X168236Y18117D01*
X168188Y18123D01*
X168168Y18148D01*
X167973Y18329D01*
X167955Y18337D01*
X167946Y18346D01*
X167852Y18406D01*
X167717Y18464D01*
X167672Y18492D01*
X167567Y18529D01*
X167306Y18578D01*
X167286Y18576D01*
X167273Y18579D01*
X167236Y18579D01*
X167093Y18684D01*
X167048Y18700D01*
X167034Y18729D01*
X166884Y18949D01*
X166869Y18961D01*
X166862Y18972D01*
X166783Y19051D01*
X166665Y19138D01*
X166628Y19175D01*
X166533Y19234D01*
X166289Y19340D01*
X166270Y19343D01*
X166258Y19348D01*
X166222Y19356D01*
X166106Y19491D01*
X166065Y19516D01*
X166058Y19548D01*
X165961Y19795D01*
X165949Y19811D01*
X165944Y19823D01*
X165885Y19917D01*
X165789Y20029D01*
X165761Y20073D01*
X165682Y20152D01*
X165468Y20310D01*
X165449Y20316D01*
X165439Y20324D01*
X165406Y20340D01*
X165323Y20497D01*
X165289Y20531D01*
X165289Y20563D01*
X165249Y20826D01*
X165240Y20844D01*
X165239Y20857D01*
X165202Y20962D01*
X165133Y21092D01*
X165116Y21142D01*
X165056Y21236D01*
X164883Y21438D01*
X164866Y21448D01*
X164858Y21458D01*
X164829Y21481D01*
X164818Y21521D01*
X164818Y21526D01*
X164815Y21532D01*
X164783Y21653D01*
X164757Y21693D01*
X164760Y21702D01*
X164768Y21822D01*
X164781Y21942D01*
X164778Y21955D01*
X164779Y21967D01*
X164752Y22084D01*
X164729Y22202D01*
X164723Y22211D01*
X164720Y22227D01*
X164634Y22373D01*
X164634Y22434D01*
X164594Y22697D01*
X164586Y22714D01*
X164584Y22727D01*
X164503Y22959D01*
X164513Y22992D01*
X164535Y23032D01*
X164552Y23118D01*
X164578Y23202D01*
X164578Y23248D01*
X164587Y23293D01*
X164578Y23345D01*
X164577Y23467D01*
X164529Y23624D01*
X164520Y23673D01*
X163861Y25263D01*
X163861Y27777D01*
X164542Y29421D01*
X164553Y29465D01*
X164573Y29507D01*
X164585Y29594D01*
X164606Y29679D01*
X164603Y29725D01*
X164610Y29770D01*
X164598Y29822D01*
X164591Y29944D01*
X164533Y30098D01*
X164522Y30146D01*
X164504Y30183D01*
X164584Y30413D01*
X164634Y30674D01*
X164631Y30693D01*
X164634Y30706D01*
X164634Y30761D01*
X164667Y30803D01*
X164672Y30815D01*
X164679Y30826D01*
X164719Y30939D01*
X164762Y31052D01*
X164762Y31062D01*
X164767Y31077D01*
X164776Y31342D01*
X164760Y31402D01*
X164760Y31438D01*
X164756Y31451D01*
X164827Y31614D01*
X164833Y31662D01*
X164858Y31682D01*
X165039Y31877D01*
X165047Y31895D01*
X165056Y31904D01*
X165116Y31998D01*
X165174Y32133D01*
X165202Y32178D01*
X165239Y32283D01*
X165288Y32544D01*
X165286Y32564D01*
X165289Y32577D01*
X165289Y32614D01*
X165394Y32757D01*
X165410Y32802D01*
X165439Y32816D01*
X165659Y32966D01*
X165671Y32981D01*
X165682Y32988D01*
X165761Y33067D01*
X165848Y33185D01*
X165885Y33222D01*
X165944Y33317D01*
X165984Y33409D01*
X166000Y33437D01*
X166004Y33455D01*
X166050Y33561D01*
X166053Y33580D01*
X166058Y33592D01*
X166066Y33628D01*
X166201Y33744D01*
X166226Y33785D01*
X166258Y33792D01*
X166505Y33889D01*
X166521Y33901D01*
X166533Y33906D01*
X166628Y33965D01*
X166739Y34061D01*
X166783Y34089D01*
X166862Y34168D01*
X167020Y34382D01*
X167026Y34401D01*
X167034Y34411D01*
X167050Y34444D01*
X167207Y34527D01*
X167241Y34561D01*
X167273Y34561D01*
X167536Y34601D01*
X167554Y34610D01*
X167567Y34611D01*
X167672Y34648D01*
X167802Y34717D01*
X167852Y34734D01*
X167946Y34794D01*
X167952Y34799D01*
X167956Y34801D01*
X167979Y34822D01*
X168148Y34967D01*
X168158Y34984D01*
X168168Y34992D01*
X168191Y35021D01*
X168363Y35067D01*
X168403Y35093D01*
X168435Y35085D01*
X168700Y35066D01*
X168719Y35070D01*
X168732Y35069D01*
X168843Y35081D01*
X168985Y35119D01*
X169037Y35125D01*
X169142Y35162D01*
X169377Y35287D01*
X169391Y35301D01*
X169403Y35306D01*
X169432Y35329D01*
X169609Y35336D01*
X169654Y35352D01*
X169683Y35338D01*
X169938Y35260D01*
X169957Y35260D01*
X169970Y35256D01*
X170081Y35243D01*
X170227Y35249D01*
X170280Y35243D01*
X170390Y35256D01*
X170647Y35324D01*
X170664Y35335D01*
X170676Y35338D01*
X170710Y35354D01*
X170885Y35321D01*
X170932Y35326D01*
X170957Y35306D01*
X171187Y35174D01*
X171207Y35169D01*
X171218Y35162D01*
X171323Y35125D01*
X171467Y35098D01*
X171517Y35081D01*
X171628Y35069D01*
X171894Y35079D01*
X171912Y35085D01*
X171925Y35085D01*
X171961Y35094D01*
X172124Y35023D01*
X172172Y35017D01*
X172192Y34992D01*
X172282Y34909D01*
X172308Y34877D01*
X172338Y34857D01*
X172387Y34811D01*
X172405Y34803D01*
X172414Y34794D01*
X172508Y34734D01*
X172643Y34676D01*
X172688Y34648D01*
X172793Y34611D01*
X173054Y34562D01*
X173074Y34564D01*
X173087Y34561D01*
X173124Y34561D01*
X173267Y34456D01*
X173312Y34440D01*
X173326Y34411D01*
X173476Y34191D01*
X173491Y34179D01*
X173498Y34168D01*
X173577Y34089D01*
X173695Y34002D01*
X173732Y33965D01*
X173827Y33906D01*
X174071Y33800D01*
X174090Y33797D01*
X174102Y33792D01*
X174138Y33784D01*
X174254Y33649D01*
X174295Y33624D01*
X174302Y33592D01*
X174399Y33345D01*
X174411Y33329D01*
X174416Y33317D01*
X174475Y33222D01*
X174571Y33111D01*
X174599Y33067D01*
X174678Y32988D01*
X174892Y32830D01*
X174911Y32824D01*
X174921Y32816D01*
X174954Y32800D01*
X175037Y32643D01*
X175071Y32609D01*
X175071Y32577D01*
X175111Y32314D01*
X175120Y32296D01*
X175121Y32283D01*
X175158Y32178D01*
X175227Y32048D01*
X175244Y31998D01*
X175304Y31904D01*
X175477Y31702D01*
X175494Y31692D01*
X175502Y31682D01*
X175531Y31659D01*
X175577Y31487D01*
X175603Y31447D01*
X175600Y31438D01*
X175592Y31318D01*
X175579Y31198D01*
X175582Y31185D01*
X175581Y31173D01*
X175608Y31056D01*
X175631Y30938D01*
X175637Y30929D01*
X175640Y30913D01*
X175726Y30767D01*
X175726Y30706D01*
X175766Y30443D01*
X175774Y30426D01*
X175776Y30413D01*
X175856Y30183D01*
X175838Y30146D01*
X175825Y30102D01*
X175803Y30062D01*
X175786Y29976D01*
X175760Y29892D01*
X175760Y29846D01*
X175751Y29801D01*
X175760Y29749D01*
X175760Y29626D01*
X175809Y29470D01*
X175818Y29421D01*
X176499Y27777D01*
X176499Y25263D01*
X175840Y23673D01*
X175829Y23628D01*
X175809Y23587D01*
X175797Y23500D01*
X175776Y23415D01*
X175779Y23369D01*
X175773Y23323D01*
X175785Y23272D01*
X175792Y23150D01*
X175849Y22996D01*
X175857Y22961D01*
X175776Y22727D01*
X175726Y22466D01*
X175729Y22447D01*
X175726Y22434D01*
X175726Y22379D01*
X175693Y22337D01*
X175688Y22325D01*
X175681Y22314D01*
X175641Y22201D01*
X175598Y22088D01*
X175598Y22078D01*
X175593Y22063D01*
X175584Y21798D01*
X175600Y21738D01*
X175600Y21702D01*
X175604Y21689D01*
X175600Y21681D01*
X175578Y21642D01*
X175573Y21618D01*
X175533Y21526D01*
X175527Y21478D01*
X175502Y21458D01*
X175321Y21263D01*
X175313Y21245D01*
X175304Y21236D01*
X175244Y21142D01*
X175186Y21007D01*
X175158Y20962D01*
X175121Y20857D01*
X175072Y20596D01*
X175074Y20576D01*
X175071Y20563D01*
X175071Y20526D01*
X174966Y20383D01*
X174950Y20338D01*
X174921Y20324D01*
X174865Y20286D01*
X174848Y20278D01*
X174835Y20266D01*
X174701Y20174D01*
X174689Y20159D01*
X174678Y20152D01*
X174599Y20073D01*
X174512Y19955D01*
X174475Y19918D01*
X174416Y19823D01*
X174310Y19579D01*
X174307Y19560D01*
X174302Y19548D01*
X174294Y19512D01*
X174159Y19396D01*
X174134Y19355D01*
X174102Y19348D01*
X173855Y19251D01*
X173839Y19239D01*
X173827Y19234D01*
X173733Y19175D01*
X173621Y19079D01*
X173577Y19051D01*
X173498Y18972D01*
X173340Y18758D01*
X173334Y18739D01*
X173326Y18729D01*
X173310Y18696D01*
X173153Y18613D01*
X173119Y18579D01*
X173087Y18579D01*
X172824Y18539D01*
X172806Y18530D01*
X172793Y18529D01*
X172688Y18492D01*
X172558Y18423D01*
X172508Y18406D01*
X172414Y18346D01*
X172212Y18173D01*
X172202Y18156D01*
X172192Y18148D01*
X172169Y18119D01*
X171997Y18073D01*
X171957Y18047D01*
X171925Y18055D01*
X171660Y18074D01*
X171641Y18070D01*
X171628Y18071D01*
X171517Y18059D01*
X171375Y18021D01*
X171323Y18015D01*
X171218Y17978D01*
X170983Y17853D01*
X170969Y17839D01*
X170957Y17834D01*
X170928Y17811D01*
X170751Y17804D01*
X170706Y17788D01*
X170676Y17802D01*
X170422Y17880D01*
X170403Y17880D01*
X170390Y17884D01*
X170279Y17897D01*
X170133Y17891D01*
X170081Y17897D01*
X169970Y17884D01*
X169713Y17816D01*
X169696Y17805D01*
X169684Y17802D01*
X169650Y17786D01*
X169475Y17819D01*
G37*
%LPD*%
%LPC*%
G36*
X83115Y17819D02*
X83115Y17819D01*
X83068Y17814D01*
X83043Y17834D01*
X82813Y17966D01*
X82793Y17971D01*
X82782Y17978D01*
X82677Y18015D01*
X82532Y18042D01*
X82483Y18059D01*
X82372Y18071D01*
X82106Y18061D01*
X82088Y18055D01*
X82075Y18055D01*
X82039Y18046D01*
X81876Y18117D01*
X81828Y18123D01*
X81808Y18148D01*
X81613Y18329D01*
X81595Y18337D01*
X81586Y18346D01*
X81492Y18406D01*
X81357Y18464D01*
X81312Y18492D01*
X81207Y18529D01*
X80946Y18578D01*
X80926Y18576D01*
X80913Y18579D01*
X80876Y18579D01*
X80733Y18684D01*
X80688Y18700D01*
X80674Y18729D01*
X80524Y18949D01*
X80509Y18961D01*
X80502Y18972D01*
X80423Y19051D01*
X80305Y19138D01*
X80268Y19175D01*
X80173Y19234D01*
X79929Y19340D01*
X79910Y19343D01*
X79898Y19348D01*
X79862Y19356D01*
X79746Y19491D01*
X79705Y19516D01*
X79698Y19548D01*
X79601Y19795D01*
X79589Y19811D01*
X79584Y19823D01*
X79525Y19917D01*
X79429Y20029D01*
X79401Y20073D01*
X79322Y20152D01*
X79108Y20310D01*
X79089Y20316D01*
X79079Y20324D01*
X79046Y20340D01*
X78963Y20497D01*
X78929Y20531D01*
X78929Y20563D01*
X78889Y20826D01*
X78880Y20844D01*
X78879Y20857D01*
X78842Y20962D01*
X78773Y21092D01*
X78756Y21142D01*
X78696Y21236D01*
X78523Y21438D01*
X78506Y21448D01*
X78498Y21458D01*
X78469Y21481D01*
X78458Y21521D01*
X78458Y21526D01*
X78455Y21532D01*
X78423Y21653D01*
X78397Y21693D01*
X78400Y21702D01*
X78408Y21822D01*
X78421Y21942D01*
X78418Y21955D01*
X78419Y21967D01*
X78392Y22084D01*
X78369Y22202D01*
X78363Y22211D01*
X78360Y22227D01*
X78274Y22373D01*
X78274Y22434D01*
X78234Y22697D01*
X78226Y22714D01*
X78224Y22727D01*
X78143Y22959D01*
X78153Y22992D01*
X78175Y23032D01*
X78192Y23118D01*
X78218Y23202D01*
X78218Y23248D01*
X78227Y23293D01*
X78218Y23345D01*
X78217Y23467D01*
X78169Y23624D01*
X78160Y23673D01*
X77501Y25263D01*
X77501Y27777D01*
X78182Y29421D01*
X78193Y29465D01*
X78213Y29507D01*
X78225Y29594D01*
X78246Y29679D01*
X78243Y29725D01*
X78250Y29770D01*
X78238Y29822D01*
X78231Y29944D01*
X78173Y30098D01*
X78162Y30146D01*
X78144Y30183D01*
X78224Y30413D01*
X78274Y30674D01*
X78271Y30693D01*
X78274Y30706D01*
X78274Y30761D01*
X78307Y30803D01*
X78312Y30815D01*
X78319Y30826D01*
X78359Y30939D01*
X78402Y31052D01*
X78402Y31062D01*
X78407Y31077D01*
X78416Y31342D01*
X78400Y31402D01*
X78400Y31438D01*
X78396Y31451D01*
X78467Y31614D01*
X78473Y31662D01*
X78498Y31682D01*
X78679Y31877D01*
X78687Y31895D01*
X78696Y31904D01*
X78756Y31998D01*
X78814Y32133D01*
X78842Y32178D01*
X78879Y32283D01*
X78928Y32544D01*
X78926Y32564D01*
X78929Y32577D01*
X78929Y32614D01*
X79034Y32757D01*
X79050Y32802D01*
X79079Y32816D01*
X79299Y32966D01*
X79311Y32981D01*
X79322Y32988D01*
X79401Y33067D01*
X79488Y33185D01*
X79525Y33222D01*
X79584Y33317D01*
X79624Y33409D01*
X79640Y33437D01*
X79644Y33455D01*
X79690Y33561D01*
X79693Y33580D01*
X79698Y33592D01*
X79706Y33628D01*
X79841Y33744D01*
X79866Y33785D01*
X79898Y33792D01*
X80145Y33889D01*
X80161Y33901D01*
X80173Y33906D01*
X80268Y33965D01*
X80379Y34061D01*
X80423Y34089D01*
X80502Y34168D01*
X80660Y34382D01*
X80666Y34401D01*
X80674Y34411D01*
X80690Y34444D01*
X80847Y34527D01*
X80881Y34561D01*
X80913Y34561D01*
X81176Y34601D01*
X81194Y34610D01*
X81207Y34611D01*
X81312Y34648D01*
X81442Y34717D01*
X81492Y34734D01*
X81586Y34794D01*
X81592Y34799D01*
X81596Y34801D01*
X81619Y34822D01*
X81788Y34967D01*
X81798Y34984D01*
X81808Y34992D01*
X81831Y35021D01*
X82003Y35067D01*
X82043Y35093D01*
X82075Y35085D01*
X82340Y35066D01*
X82359Y35070D01*
X82372Y35069D01*
X82483Y35081D01*
X82625Y35119D01*
X82677Y35125D01*
X82782Y35162D01*
X83017Y35287D01*
X83031Y35301D01*
X83043Y35306D01*
X83072Y35329D01*
X83249Y35336D01*
X83294Y35352D01*
X83324Y35338D01*
X83578Y35260D01*
X83597Y35260D01*
X83610Y35256D01*
X83721Y35243D01*
X83867Y35249D01*
X83919Y35243D01*
X84030Y35256D01*
X84287Y35324D01*
X84304Y35335D01*
X84316Y35338D01*
X84350Y35354D01*
X84525Y35321D01*
X84572Y35326D01*
X84597Y35306D01*
X84827Y35174D01*
X84847Y35169D01*
X84858Y35162D01*
X84963Y35125D01*
X85108Y35098D01*
X85157Y35081D01*
X85268Y35069D01*
X85534Y35079D01*
X85552Y35085D01*
X85565Y35085D01*
X85601Y35094D01*
X85764Y35023D01*
X85812Y35017D01*
X85832Y34992D01*
X85922Y34909D01*
X85948Y34877D01*
X85978Y34857D01*
X86027Y34811D01*
X86045Y34803D01*
X86054Y34794D01*
X86148Y34734D01*
X86283Y34676D01*
X86328Y34648D01*
X86433Y34611D01*
X86694Y34562D01*
X86714Y34564D01*
X86727Y34561D01*
X86764Y34561D01*
X86907Y34456D01*
X86952Y34440D01*
X86966Y34411D01*
X87116Y34191D01*
X87131Y34179D01*
X87138Y34168D01*
X87217Y34089D01*
X87335Y34002D01*
X87372Y33965D01*
X87467Y33906D01*
X87711Y33800D01*
X87730Y33797D01*
X87742Y33792D01*
X87778Y33784D01*
X87894Y33649D01*
X87935Y33624D01*
X87942Y33592D01*
X88039Y33345D01*
X88051Y33329D01*
X88056Y33317D01*
X88115Y33222D01*
X88211Y33111D01*
X88239Y33067D01*
X88318Y32988D01*
X88532Y32830D01*
X88551Y32824D01*
X88561Y32816D01*
X88594Y32800D01*
X88677Y32643D01*
X88711Y32609D01*
X88711Y32577D01*
X88751Y32314D01*
X88760Y32296D01*
X88761Y32283D01*
X88798Y32178D01*
X88867Y32048D01*
X88884Y31998D01*
X88944Y31904D01*
X89117Y31702D01*
X89134Y31692D01*
X89142Y31682D01*
X89171Y31659D01*
X89217Y31487D01*
X89243Y31447D01*
X89240Y31438D01*
X89232Y31318D01*
X89219Y31198D01*
X89222Y31185D01*
X89221Y31173D01*
X89248Y31056D01*
X89271Y30938D01*
X89277Y30929D01*
X89280Y30913D01*
X89366Y30767D01*
X89366Y30706D01*
X89406Y30443D01*
X89414Y30426D01*
X89416Y30413D01*
X89496Y30183D01*
X89478Y30146D01*
X89465Y30102D01*
X89443Y30062D01*
X89426Y29976D01*
X89400Y29892D01*
X89400Y29846D01*
X89391Y29801D01*
X89400Y29749D01*
X89400Y29626D01*
X89449Y29470D01*
X89458Y29421D01*
X90139Y27777D01*
X90139Y25263D01*
X89480Y23673D01*
X89469Y23628D01*
X89449Y23587D01*
X89437Y23500D01*
X89416Y23415D01*
X89419Y23369D01*
X89413Y23323D01*
X89425Y23272D01*
X89432Y23150D01*
X89489Y22996D01*
X89497Y22961D01*
X89416Y22727D01*
X89366Y22466D01*
X89369Y22447D01*
X89366Y22434D01*
X89366Y22379D01*
X89333Y22337D01*
X89328Y22325D01*
X89321Y22314D01*
X89281Y22201D01*
X89238Y22088D01*
X89238Y22078D01*
X89233Y22063D01*
X89224Y21798D01*
X89240Y21738D01*
X89240Y21702D01*
X89244Y21689D01*
X89240Y21681D01*
X89218Y21642D01*
X89213Y21618D01*
X89173Y21526D01*
X89167Y21478D01*
X89142Y21458D01*
X88961Y21263D01*
X88953Y21245D01*
X88944Y21236D01*
X88884Y21142D01*
X88826Y21007D01*
X88798Y20962D01*
X88761Y20857D01*
X88712Y20596D01*
X88714Y20576D01*
X88711Y20563D01*
X88711Y20526D01*
X88606Y20383D01*
X88590Y20338D01*
X88561Y20324D01*
X88505Y20286D01*
X88488Y20278D01*
X88475Y20266D01*
X88341Y20174D01*
X88329Y20159D01*
X88318Y20152D01*
X88239Y20073D01*
X88152Y19955D01*
X88115Y19918D01*
X88056Y19823D01*
X87950Y19579D01*
X87947Y19560D01*
X87942Y19548D01*
X87934Y19512D01*
X87799Y19396D01*
X87774Y19355D01*
X87742Y19348D01*
X87495Y19251D01*
X87479Y19239D01*
X87467Y19234D01*
X87372Y19175D01*
X87261Y19079D01*
X87217Y19051D01*
X87138Y18972D01*
X86980Y18758D01*
X86974Y18739D01*
X86966Y18729D01*
X86950Y18696D01*
X86793Y18613D01*
X86759Y18579D01*
X86727Y18579D01*
X86464Y18539D01*
X86446Y18530D01*
X86433Y18529D01*
X86328Y18492D01*
X86198Y18423D01*
X86148Y18406D01*
X86054Y18346D01*
X85852Y18173D01*
X85842Y18156D01*
X85832Y18148D01*
X85809Y18119D01*
X85637Y18073D01*
X85597Y18047D01*
X85565Y18055D01*
X85300Y18074D01*
X85281Y18070D01*
X85268Y18071D01*
X85157Y18059D01*
X85015Y18021D01*
X84963Y18015D01*
X84858Y17978D01*
X84623Y17853D01*
X84609Y17839D01*
X84597Y17834D01*
X84568Y17811D01*
X84391Y17804D01*
X84346Y17788D01*
X84316Y17802D01*
X84062Y17880D01*
X84043Y17880D01*
X84030Y17884D01*
X83919Y17897D01*
X83773Y17891D01*
X83721Y17897D01*
X83610Y17884D01*
X83353Y17816D01*
X83336Y17805D01*
X83324Y17802D01*
X83290Y17786D01*
X83115Y17819D01*
G37*
%LPD*%
%LPC*%
G36*
X92818Y159257D02*
X92818Y159257D01*
X90670Y160147D01*
X89027Y161790D01*
X88137Y163938D01*
X88137Y166262D01*
X89027Y168410D01*
X90670Y170053D01*
X92818Y170943D01*
X95142Y170943D01*
X97290Y170053D01*
X98933Y168410D01*
X99823Y166262D01*
X99823Y163938D01*
X98933Y161790D01*
X97290Y160147D01*
X95142Y159257D01*
X92818Y159257D01*
G37*
%LPD*%
%LPC*%
G36*
X176638Y119887D02*
X176638Y119887D01*
X174490Y120777D01*
X172847Y122420D01*
X171957Y124568D01*
X171957Y126892D01*
X172847Y129040D01*
X174490Y130683D01*
X176638Y131573D01*
X178962Y131573D01*
X181110Y130683D01*
X182753Y129040D01*
X183643Y126892D01*
X183643Y124568D01*
X182753Y122420D01*
X181110Y120777D01*
X178962Y119887D01*
X176638Y119887D01*
G37*
%LPD*%
%LPC*%
G36*
X141123Y57702D02*
X141123Y57702D01*
X138976Y58592D01*
X137332Y60236D01*
X136442Y62383D01*
X136442Y64707D01*
X137332Y66855D01*
X138976Y68498D01*
X141123Y69388D01*
X143447Y69388D01*
X145595Y68498D01*
X147238Y66855D01*
X148128Y64707D01*
X148128Y62383D01*
X147238Y60236D01*
X145595Y58592D01*
X143447Y57702D01*
X141123Y57702D01*
G37*
%LPD*%
G36*
X84488Y59891D02*
X84488Y59891D01*
X84488Y59892D01*
X84489Y59891D01*
X85123Y60113D01*
X85123Y60114D01*
X85124Y60114D01*
X85693Y60471D01*
X85693Y60472D01*
X86169Y60947D01*
X86527Y61516D01*
X86526Y61517D01*
X86527Y61517D01*
X86749Y62151D01*
X86749Y62152D01*
X86824Y62820D01*
X86824Y73820D01*
X86749Y74488D01*
X86749Y74489D01*
X86527Y75123D01*
X86526Y75123D01*
X86527Y75124D01*
X86169Y75693D01*
X86168Y75693D01*
X86169Y75693D01*
X85693Y76169D01*
X85124Y76527D01*
X85123Y76526D01*
X85123Y76527D01*
X84489Y76749D01*
X84488Y76749D01*
X83820Y76824D01*
X83152Y76749D01*
X83151Y76749D01*
X82517Y76527D01*
X82517Y76526D01*
X82516Y76527D01*
X81947Y76169D01*
X81947Y76168D01*
X81947Y76169D01*
X81472Y75693D01*
X81471Y75693D01*
X81114Y75124D01*
X81114Y75123D01*
X81113Y75123D01*
X80891Y74489D01*
X80891Y74488D01*
X80816Y73820D01*
X80816Y62820D01*
X80891Y62152D01*
X80892Y62152D01*
X80891Y62151D01*
X81113Y61517D01*
X81114Y61517D01*
X81114Y61516D01*
X81471Y60947D01*
X81472Y60947D01*
X81947Y60472D01*
X81947Y60471D01*
X82516Y60114D01*
X82517Y60114D01*
X82517Y60113D01*
X83151Y59891D01*
X83152Y59891D01*
X83820Y59816D01*
X84488Y59891D01*
G37*
G36*
X170848Y59891D02*
X170848Y59891D01*
X170848Y59892D01*
X170849Y59891D01*
X171483Y60113D01*
X171483Y60114D01*
X171484Y60114D01*
X172053Y60471D01*
X172053Y60472D01*
X172529Y60947D01*
X172887Y61516D01*
X172886Y61517D01*
X172887Y61517D01*
X173109Y62151D01*
X173109Y62152D01*
X173184Y62820D01*
X173184Y73820D01*
X173109Y74488D01*
X173109Y74489D01*
X172887Y75123D01*
X172886Y75123D01*
X172887Y75124D01*
X172529Y75693D01*
X172528Y75693D01*
X172529Y75693D01*
X172053Y76169D01*
X171484Y76527D01*
X171483Y76526D01*
X171483Y76527D01*
X170849Y76749D01*
X170848Y76749D01*
X170180Y76824D01*
X169512Y76749D01*
X169511Y76749D01*
X168877Y76527D01*
X168877Y76526D01*
X168876Y76527D01*
X168307Y76169D01*
X168307Y76168D01*
X168307Y76169D01*
X167832Y75693D01*
X167831Y75693D01*
X167474Y75124D01*
X167474Y75123D01*
X167473Y75123D01*
X167251Y74489D01*
X167251Y74488D01*
X167176Y73820D01*
X167176Y62820D01*
X167251Y62152D01*
X167252Y62152D01*
X167251Y62151D01*
X167473Y61517D01*
X167474Y61517D01*
X167474Y61516D01*
X167831Y60947D01*
X167832Y60947D01*
X168307Y60472D01*
X168307Y60471D01*
X168876Y60114D01*
X168877Y60114D01*
X168877Y60113D01*
X169511Y59891D01*
X169512Y59891D01*
X170180Y59816D01*
X170848Y59891D01*
G37*
G36*
X170848Y20541D02*
X170848Y20541D01*
X170848Y20542D01*
X170849Y20541D01*
X171483Y20763D01*
X171483Y20764D01*
X171484Y20764D01*
X172053Y21121D01*
X172053Y21122D01*
X172529Y21597D01*
X172887Y22166D01*
X172886Y22167D01*
X172887Y22167D01*
X173109Y22801D01*
X173109Y22802D01*
X173184Y23470D01*
X173184Y29670D01*
X173109Y30338D01*
X173109Y30339D01*
X172887Y30973D01*
X172886Y30973D01*
X172887Y30974D01*
X172529Y31543D01*
X172528Y31543D01*
X172529Y31543D01*
X172053Y32019D01*
X171484Y32377D01*
X171483Y32376D01*
X171483Y32377D01*
X170849Y32599D01*
X170848Y32599D01*
X170180Y32674D01*
X169512Y32599D01*
X169511Y32599D01*
X168877Y32377D01*
X168877Y32376D01*
X168876Y32377D01*
X168307Y32019D01*
X168307Y32018D01*
X168307Y32019D01*
X167832Y31543D01*
X167831Y31543D01*
X167474Y30974D01*
X167474Y30973D01*
X167473Y30973D01*
X167251Y30339D01*
X167251Y30338D01*
X167176Y29670D01*
X167176Y23470D01*
X167251Y22802D01*
X167252Y22802D01*
X167251Y22801D01*
X167473Y22167D01*
X167474Y22167D01*
X167474Y22166D01*
X167831Y21597D01*
X167832Y21597D01*
X168307Y21122D01*
X168307Y21121D01*
X168876Y20764D01*
X168877Y20764D01*
X168877Y20763D01*
X169511Y20541D01*
X169512Y20541D01*
X170180Y20466D01*
X170848Y20541D01*
G37*
G36*
X84488Y20541D02*
X84488Y20541D01*
X84488Y20542D01*
X84489Y20541D01*
X85123Y20763D01*
X85123Y20764D01*
X85124Y20764D01*
X85693Y21121D01*
X85693Y21122D01*
X86169Y21597D01*
X86527Y22166D01*
X86526Y22167D01*
X86527Y22167D01*
X86749Y22801D01*
X86749Y22802D01*
X86824Y23470D01*
X86824Y29670D01*
X86749Y30338D01*
X86749Y30339D01*
X86527Y30973D01*
X86526Y30973D01*
X86527Y30974D01*
X86169Y31543D01*
X86168Y31543D01*
X86169Y31543D01*
X85693Y32019D01*
X85124Y32377D01*
X85123Y32376D01*
X85123Y32377D01*
X84489Y32599D01*
X84488Y32599D01*
X83820Y32674D01*
X83152Y32599D01*
X83151Y32599D01*
X82517Y32377D01*
X82517Y32376D01*
X82516Y32377D01*
X81947Y32019D01*
X81947Y32018D01*
X81947Y32019D01*
X81472Y31543D01*
X81471Y31543D01*
X81114Y30974D01*
X81114Y30973D01*
X81113Y30973D01*
X80891Y30339D01*
X80891Y30338D01*
X80816Y29670D01*
X80816Y23470D01*
X80891Y22802D01*
X80892Y22802D01*
X80891Y22801D01*
X81113Y22167D01*
X81114Y22167D01*
X81114Y22166D01*
X81471Y21597D01*
X81472Y21597D01*
X81947Y21122D01*
X81947Y21121D01*
X82516Y20764D01*
X82517Y20764D01*
X82517Y20763D01*
X83151Y20541D01*
X83152Y20541D01*
X83820Y20466D01*
X84488Y20541D01*
G37*
%LPC*%
G36*
X238921Y180589D02*
X238921Y180589D01*
X237400Y181084D01*
X235975Y181810D01*
X234681Y182750D01*
X233550Y183881D01*
X232610Y185175D01*
X231884Y186600D01*
X231389Y188121D01*
X231294Y188723D01*
X239523Y188723D01*
X239523Y180494D01*
X238921Y180589D01*
G37*
%LPD*%
D10*
X126153Y21717D02*
X126151Y21819D01*
X126145Y21921D01*
X126135Y22023D01*
X126122Y22124D01*
X126104Y22225D01*
X126083Y22325D01*
X126058Y22424D01*
X126029Y22522D01*
X125996Y22618D01*
X125960Y22714D01*
X125920Y22808D01*
X125876Y22900D01*
X125829Y22991D01*
X125778Y23080D01*
X125725Y23167D01*
X125667Y23251D01*
X125607Y23334D01*
X125544Y23414D01*
X125477Y23491D01*
X125408Y23566D01*
X125335Y23639D01*
X125260Y23708D01*
X125183Y23775D01*
X125103Y23838D01*
X125020Y23898D01*
X124936Y23956D01*
X124849Y24009D01*
X124760Y24060D01*
X124669Y24107D01*
X124577Y24151D01*
X124483Y24191D01*
X124387Y24227D01*
X124291Y24260D01*
X124193Y24289D01*
X124094Y24314D01*
X123994Y24335D01*
X123893Y24353D01*
X123792Y24366D01*
X123690Y24376D01*
X123588Y24382D01*
X123486Y24384D01*
X123370Y24382D01*
X123253Y24376D01*
X123137Y24366D01*
X123022Y24352D01*
X122907Y24335D01*
X122792Y24313D01*
X122679Y24287D01*
X122566Y24258D01*
X122454Y24225D01*
X122344Y24188D01*
X122235Y24147D01*
X122127Y24103D01*
X122021Y24055D01*
X121917Y24003D01*
X121814Y23948D01*
X121713Y23890D01*
X121615Y23828D01*
X121518Y23763D01*
X121424Y23694D01*
X121332Y23622D01*
X121243Y23548D01*
X121156Y23470D01*
X121072Y23389D01*
X120991Y23306D01*
X120913Y23220D01*
X120837Y23131D01*
X120765Y23040D01*
X120696Y22946D01*
X120630Y22850D01*
X120567Y22752D01*
X120508Y22652D01*
X120452Y22550D01*
X120400Y22446D01*
X120351Y22340D01*
X120306Y22233D01*
X120264Y22124D01*
X120227Y22014D01*
X125265Y19642D02*
X125340Y19716D01*
X125412Y19793D01*
X125481Y19873D01*
X125548Y19955D01*
X125611Y20039D01*
X125671Y20126D01*
X125728Y20214D01*
X125782Y20305D01*
X125832Y20398D01*
X125879Y20492D01*
X125922Y20588D01*
X125962Y20686D01*
X125998Y20785D01*
X126031Y20885D01*
X126059Y20987D01*
X126084Y21089D01*
X126106Y21193D01*
X126123Y21297D01*
X126137Y21401D01*
X126146Y21506D01*
X126152Y21612D01*
X126154Y21717D01*
X125264Y19643D02*
X120227Y13716D01*
X126153Y13716D01*
D11*
X170180Y26520D03*
X83820Y26520D03*
X83820Y68320D03*
X170180Y68320D03*
D12*
X241300Y190500D03*
X241300Y165100D03*
X241300Y139700D03*
X241300Y114300D03*
X241300Y88900D03*
X241300Y63500D03*
X12700Y190500D03*
X12700Y165100D03*
X12700Y139700D03*
X12700Y114300D03*
X12700Y88900D03*
X12700Y63500D03*
D13*
X167640Y154940D03*
X121920Y38100D03*
X127000Y104140D03*
D14*
X121920Y45720D02*
X121920Y38100D01*
X121920Y45720D02*
X127000Y50800D01*
X127000Y104140D01*
X127000Y114300D01*
X167640Y154940D01*
X167640Y155556D02*
X173374Y161290D01*
X167640Y155556D02*
X167640Y154940D01*
X175876Y161290D02*
X179686Y165100D01*
X175876Y161290D02*
X173374Y161290D01*
X179686Y165100D02*
X241300Y165100D01*
D13*
X161290Y55880D03*
X92710Y55880D03*
X209550Y6350D03*
X73660Y22860D03*
X93980Y106680D03*
X160020Y105410D03*
X176530Y153670D03*
X77470Y153670D03*
X94488Y156210D03*
X44450Y127000D03*
X76657Y122885D03*
X6350Y41910D03*
X247650Y41910D03*
X101600Y177800D03*
X55880Y196850D03*
X25400Y76200D03*
X25400Y177800D03*
X158750Y177800D03*
X60960Y73660D03*
X180340Y22860D03*
X114300Y6350D03*
X139700Y6350D03*
X111760Y38100D03*
X131445Y38100D03*
X193040Y73660D03*
X198120Y196850D03*
X228600Y152400D03*
X147320Y177800D03*
D14*
X147320Y163830D01*
X110490Y127000D01*
X78740Y139700D02*
X27940Y190500D01*
X12700Y190500D01*
D13*
X110490Y110490D03*
D14*
X110490Y127000D01*
X97790Y139700D01*
X78740Y139700D01*
D13*
X152400Y53340D03*
X152400Y44450D03*
X111760Y63500D03*
X142285Y63545D03*
X171450Y168910D03*
X103886Y56896D03*
D14*
X167386Y168910D02*
X171450Y168910D01*
X119380Y59436D02*
X115570Y55626D01*
X105156Y55626D02*
X103886Y56896D01*
X105156Y55626D02*
X115570Y55626D01*
X74930Y132080D02*
X41910Y165100D01*
X12700Y165100D01*
X119380Y101600D02*
X119380Y59436D01*
X119380Y101600D02*
X119380Y120904D01*
X167386Y168910D01*
X83820Y132080D02*
X74930Y132080D01*
X83820Y132080D02*
X93980Y121920D01*
D13*
X93980Y121920D03*
D14*
X101600Y114300D01*
X101600Y107950D02*
X107950Y101600D01*
X119380Y101600D01*
X101600Y107950D02*
X101600Y114300D01*
D13*
X177800Y125730D03*
X87630Y83820D03*
X93980Y165100D03*
X58420Y92710D03*
X59690Y114300D03*
D15*
X50800Y105410D01*
D13*
X50800Y38500D03*
D15*
X50800Y105410D01*
D13*
X136906Y112268D03*
M02*
