G04 EAGLE Gerber RS-274X export*
G75*
%MOMM*%
%FSLAX34Y34*%
%LPD*%
%INSoldermask Top*%
%IPPOS*%
%AMOC8*
5,1,8,0,0,1.08239X$1,22.5*%
G01*
%ADD10C,3.454400*%
%ADD11C,0.802400*%
%ADD12C,2.032000*%
%ADD13C,0.253525*%
%ADD14C,0.245334*%
%ADD15C,0.243431*%
%ADD16C,0.255816*%
%ADD17C,0.252862*%
%ADD18C,0.449434*%
%ADD19C,0.251966*%
%ADD20C,0.257147*%
%ADD21C,0.250366*%
%ADD22C,0.252575*%
%ADD23C,0.787400*%

G36*
X69280Y163207D02*
X69280Y163207D01*
X69346Y163209D01*
X69389Y163227D01*
X69436Y163235D01*
X69493Y163269D01*
X69553Y163294D01*
X69588Y163325D01*
X69629Y163350D01*
X69671Y163401D01*
X69719Y163445D01*
X69741Y163487D01*
X69770Y163524D01*
X69791Y163586D01*
X69822Y163645D01*
X69830Y163699D01*
X69842Y163736D01*
X69841Y163776D01*
X69849Y163830D01*
X69849Y166370D01*
X69838Y166435D01*
X69836Y166501D01*
X69818Y166544D01*
X69810Y166591D01*
X69776Y166648D01*
X69751Y166708D01*
X69720Y166743D01*
X69695Y166784D01*
X69644Y166826D01*
X69600Y166874D01*
X69558Y166896D01*
X69521Y166925D01*
X69459Y166946D01*
X69400Y166977D01*
X69346Y166985D01*
X69309Y166997D01*
X69269Y166996D01*
X69215Y167004D01*
X65405Y167004D01*
X65340Y166993D01*
X65274Y166991D01*
X65231Y166973D01*
X65184Y166965D01*
X65127Y166931D01*
X65067Y166906D01*
X65032Y166875D01*
X64991Y166850D01*
X64950Y166799D01*
X64901Y166755D01*
X64879Y166713D01*
X64850Y166676D01*
X64829Y166614D01*
X64798Y166555D01*
X64790Y166501D01*
X64778Y166464D01*
X64778Y166461D01*
X64779Y166424D01*
X64771Y166370D01*
X64771Y163830D01*
X64782Y163765D01*
X64784Y163699D01*
X64802Y163656D01*
X64810Y163609D01*
X64844Y163552D01*
X64869Y163492D01*
X64900Y163457D01*
X64925Y163416D01*
X64976Y163375D01*
X65020Y163326D01*
X65062Y163304D01*
X65099Y163275D01*
X65161Y163254D01*
X65220Y163223D01*
X65274Y163215D01*
X65311Y163203D01*
X65351Y163204D01*
X65405Y163196D01*
X69215Y163196D01*
X69280Y163207D01*
G37*
G36*
X134050Y93357D02*
X134050Y93357D01*
X134116Y93359D01*
X134159Y93377D01*
X134206Y93385D01*
X134263Y93419D01*
X134323Y93444D01*
X134358Y93475D01*
X134399Y93500D01*
X134441Y93551D01*
X134489Y93595D01*
X134511Y93637D01*
X134540Y93674D01*
X134561Y93736D01*
X134592Y93795D01*
X134600Y93849D01*
X134612Y93886D01*
X134611Y93926D01*
X134619Y93980D01*
X134619Y96520D01*
X134608Y96585D01*
X134606Y96651D01*
X134588Y96694D01*
X134580Y96741D01*
X134546Y96798D01*
X134521Y96858D01*
X134490Y96893D01*
X134465Y96934D01*
X134414Y96976D01*
X134370Y97024D01*
X134328Y97046D01*
X134291Y97075D01*
X134229Y97096D01*
X134170Y97127D01*
X134116Y97135D01*
X134079Y97147D01*
X134039Y97146D01*
X133985Y97154D01*
X130175Y97154D01*
X130110Y97143D01*
X130044Y97141D01*
X130001Y97123D01*
X129954Y97115D01*
X129897Y97081D01*
X129837Y97056D01*
X129802Y97025D01*
X129761Y97000D01*
X129720Y96949D01*
X129671Y96905D01*
X129649Y96863D01*
X129620Y96826D01*
X129599Y96764D01*
X129568Y96705D01*
X129560Y96651D01*
X129548Y96614D01*
X129548Y96611D01*
X129549Y96574D01*
X129541Y96520D01*
X129541Y93980D01*
X129552Y93915D01*
X129554Y93849D01*
X129572Y93806D01*
X129580Y93759D01*
X129614Y93702D01*
X129639Y93642D01*
X129670Y93607D01*
X129695Y93566D01*
X129746Y93525D01*
X129790Y93476D01*
X129832Y93454D01*
X129869Y93425D01*
X129931Y93404D01*
X129990Y93373D01*
X130044Y93365D01*
X130081Y93353D01*
X130121Y93354D01*
X130175Y93346D01*
X133985Y93346D01*
X134050Y93357D01*
G37*
G36*
X123890Y93357D02*
X123890Y93357D01*
X123956Y93359D01*
X123999Y93377D01*
X124046Y93385D01*
X124103Y93419D01*
X124163Y93444D01*
X124198Y93475D01*
X124239Y93500D01*
X124281Y93551D01*
X124329Y93595D01*
X124351Y93637D01*
X124380Y93674D01*
X124401Y93736D01*
X124432Y93795D01*
X124440Y93849D01*
X124452Y93886D01*
X124451Y93926D01*
X124459Y93980D01*
X124459Y96520D01*
X124448Y96585D01*
X124446Y96651D01*
X124428Y96694D01*
X124420Y96741D01*
X124386Y96798D01*
X124361Y96858D01*
X124330Y96893D01*
X124305Y96934D01*
X124254Y96976D01*
X124210Y97024D01*
X124168Y97046D01*
X124131Y97075D01*
X124069Y97096D01*
X124010Y97127D01*
X123956Y97135D01*
X123919Y97147D01*
X123879Y97146D01*
X123825Y97154D01*
X120015Y97154D01*
X119950Y97143D01*
X119884Y97141D01*
X119841Y97123D01*
X119794Y97115D01*
X119737Y97081D01*
X119677Y97056D01*
X119642Y97025D01*
X119601Y97000D01*
X119560Y96949D01*
X119511Y96905D01*
X119489Y96863D01*
X119460Y96826D01*
X119439Y96764D01*
X119408Y96705D01*
X119400Y96651D01*
X119388Y96614D01*
X119388Y96611D01*
X119389Y96574D01*
X119381Y96520D01*
X119381Y93980D01*
X119392Y93915D01*
X119394Y93849D01*
X119412Y93806D01*
X119420Y93759D01*
X119454Y93702D01*
X119479Y93642D01*
X119510Y93607D01*
X119535Y93566D01*
X119586Y93525D01*
X119630Y93476D01*
X119672Y93454D01*
X119709Y93425D01*
X119771Y93404D01*
X119830Y93373D01*
X119884Y93365D01*
X119921Y93353D01*
X119961Y93354D01*
X120015Y93346D01*
X123825Y93346D01*
X123890Y93357D01*
G37*
G36*
X80710Y43827D02*
X80710Y43827D01*
X80776Y43829D01*
X80819Y43847D01*
X80866Y43855D01*
X80923Y43889D01*
X80983Y43914D01*
X81018Y43945D01*
X81059Y43970D01*
X81101Y44021D01*
X81149Y44065D01*
X81171Y44107D01*
X81200Y44144D01*
X81221Y44206D01*
X81252Y44265D01*
X81260Y44319D01*
X81272Y44356D01*
X81271Y44396D01*
X81279Y44450D01*
X81279Y46990D01*
X81268Y47055D01*
X81266Y47121D01*
X81248Y47164D01*
X81240Y47211D01*
X81206Y47268D01*
X81181Y47328D01*
X81150Y47363D01*
X81125Y47404D01*
X81074Y47446D01*
X81030Y47494D01*
X80988Y47516D01*
X80951Y47545D01*
X80889Y47566D01*
X80830Y47597D01*
X80776Y47605D01*
X80739Y47617D01*
X80699Y47616D01*
X80645Y47624D01*
X76835Y47624D01*
X76770Y47613D01*
X76704Y47611D01*
X76661Y47593D01*
X76614Y47585D01*
X76557Y47551D01*
X76497Y47526D01*
X76462Y47495D01*
X76421Y47470D01*
X76380Y47419D01*
X76331Y47375D01*
X76309Y47333D01*
X76280Y47296D01*
X76259Y47234D01*
X76228Y47175D01*
X76220Y47121D01*
X76208Y47084D01*
X76208Y47081D01*
X76209Y47044D01*
X76201Y46990D01*
X76201Y44450D01*
X76212Y44385D01*
X76214Y44319D01*
X76232Y44276D01*
X76240Y44229D01*
X76274Y44172D01*
X76299Y44112D01*
X76330Y44077D01*
X76355Y44036D01*
X76406Y43995D01*
X76450Y43946D01*
X76492Y43924D01*
X76529Y43895D01*
X76591Y43874D01*
X76650Y43843D01*
X76704Y43835D01*
X76741Y43823D01*
X76781Y43824D01*
X76835Y43816D01*
X80645Y43816D01*
X80710Y43827D01*
G37*
G36*
X177230Y43827D02*
X177230Y43827D01*
X177296Y43829D01*
X177339Y43847D01*
X177386Y43855D01*
X177443Y43889D01*
X177503Y43914D01*
X177538Y43945D01*
X177579Y43970D01*
X177621Y44021D01*
X177669Y44065D01*
X177691Y44107D01*
X177720Y44144D01*
X177741Y44206D01*
X177772Y44265D01*
X177780Y44319D01*
X177792Y44356D01*
X177791Y44396D01*
X177799Y44450D01*
X177799Y46990D01*
X177788Y47055D01*
X177786Y47121D01*
X177768Y47164D01*
X177760Y47211D01*
X177726Y47268D01*
X177701Y47328D01*
X177670Y47363D01*
X177645Y47404D01*
X177594Y47446D01*
X177550Y47494D01*
X177508Y47516D01*
X177471Y47545D01*
X177409Y47566D01*
X177350Y47597D01*
X177296Y47605D01*
X177259Y47617D01*
X177219Y47616D01*
X177165Y47624D01*
X173355Y47624D01*
X173290Y47613D01*
X173224Y47611D01*
X173181Y47593D01*
X173134Y47585D01*
X173077Y47551D01*
X173017Y47526D01*
X172982Y47495D01*
X172941Y47470D01*
X172900Y47419D01*
X172851Y47375D01*
X172829Y47333D01*
X172800Y47296D01*
X172779Y47234D01*
X172748Y47175D01*
X172740Y47121D01*
X172728Y47084D01*
X172728Y47081D01*
X172729Y47044D01*
X172721Y46990D01*
X172721Y44450D01*
X172732Y44385D01*
X172734Y44319D01*
X172752Y44276D01*
X172760Y44229D01*
X172794Y44172D01*
X172819Y44112D01*
X172850Y44077D01*
X172875Y44036D01*
X172926Y43995D01*
X172970Y43946D01*
X173012Y43924D01*
X173049Y43895D01*
X173111Y43874D01*
X173170Y43843D01*
X173224Y43835D01*
X173261Y43823D01*
X173301Y43824D01*
X173355Y43816D01*
X177165Y43816D01*
X177230Y43827D01*
G37*
D10*
X228600Y25400D03*
X25400Y25400D03*
X25400Y228600D03*
X228600Y228600D03*
D11*
X155900Y63020D03*
X98100Y63020D03*
D12*
X241300Y190500D03*
X241300Y165100D03*
X241300Y139700D03*
X241300Y114300D03*
X241300Y88900D03*
X241300Y63500D03*
X12700Y190500D03*
X12700Y165100D03*
X12700Y139700D03*
X12700Y114300D03*
X12700Y88900D03*
X12700Y63500D03*
D13*
X112505Y156405D02*
X121495Y156405D01*
X112505Y156405D02*
X112505Y201395D01*
X121495Y201395D01*
X121495Y156405D01*
X121495Y158813D02*
X112505Y158813D01*
X112505Y161221D02*
X121495Y161221D01*
X121495Y163629D02*
X112505Y163629D01*
X112505Y166037D02*
X121495Y166037D01*
X121495Y168445D02*
X112505Y168445D01*
X112505Y170853D02*
X121495Y170853D01*
X121495Y173261D02*
X112505Y173261D01*
X112505Y175669D02*
X121495Y175669D01*
X121495Y178077D02*
X112505Y178077D01*
X112505Y180485D02*
X121495Y180485D01*
X121495Y182893D02*
X112505Y182893D01*
X112505Y185301D02*
X121495Y185301D01*
X121495Y187709D02*
X112505Y187709D01*
X112505Y190117D02*
X121495Y190117D01*
X121495Y192525D02*
X112505Y192525D01*
X112505Y194933D02*
X121495Y194933D01*
X121495Y197341D02*
X112505Y197341D01*
X112505Y199749D02*
X121495Y199749D01*
X132505Y156405D02*
X141495Y156405D01*
X132505Y156405D02*
X132505Y201395D01*
X141495Y201395D01*
X141495Y156405D01*
X141495Y158813D02*
X132505Y158813D01*
X132505Y161221D02*
X141495Y161221D01*
X141495Y163629D02*
X132505Y163629D01*
X132505Y166037D02*
X141495Y166037D01*
X141495Y168445D02*
X132505Y168445D01*
X132505Y170853D02*
X141495Y170853D01*
X141495Y173261D02*
X132505Y173261D01*
X132505Y175669D02*
X141495Y175669D01*
X141495Y178077D02*
X132505Y178077D01*
X132505Y180485D02*
X141495Y180485D01*
X141495Y182893D02*
X132505Y182893D01*
X132505Y185301D02*
X141495Y185301D01*
X141495Y187709D02*
X132505Y187709D01*
X132505Y190117D02*
X141495Y190117D01*
X141495Y192525D02*
X132505Y192525D01*
X132505Y194933D02*
X141495Y194933D01*
X141495Y197341D02*
X132505Y197341D01*
X132505Y199749D02*
X141495Y199749D01*
D14*
X100536Y214364D02*
X100536Y247436D01*
X100536Y214364D02*
X85464Y214364D01*
X85464Y247436D01*
X100536Y247436D01*
X100536Y216694D02*
X85464Y216694D01*
X85464Y219024D02*
X100536Y219024D01*
X100536Y221354D02*
X85464Y221354D01*
X85464Y223684D02*
X100536Y223684D01*
X100536Y226014D02*
X85464Y226014D01*
X85464Y228344D02*
X100536Y228344D01*
X100536Y230674D02*
X85464Y230674D01*
X85464Y233004D02*
X100536Y233004D01*
X100536Y235334D02*
X85464Y235334D01*
X85464Y237664D02*
X100536Y237664D01*
X100536Y239994D02*
X85464Y239994D01*
X85464Y242324D02*
X100536Y242324D01*
X100536Y244654D02*
X85464Y244654D01*
X85464Y246984D02*
X100536Y246984D01*
X168536Y247436D02*
X168536Y214364D01*
X153464Y214364D01*
X153464Y247436D01*
X168536Y247436D01*
X168536Y216694D02*
X153464Y216694D01*
X153464Y219024D02*
X168536Y219024D01*
X168536Y221354D02*
X153464Y221354D01*
X153464Y223684D02*
X168536Y223684D01*
X168536Y226014D02*
X153464Y226014D01*
X153464Y228344D02*
X168536Y228344D01*
X168536Y230674D02*
X153464Y230674D01*
X153464Y233004D02*
X168536Y233004D01*
X168536Y235334D02*
X153464Y235334D01*
X153464Y237664D02*
X168536Y237664D01*
X168536Y239994D02*
X153464Y239994D01*
X153464Y242324D02*
X168536Y242324D01*
X168536Y244654D02*
X153464Y244654D01*
X153464Y246984D02*
X168536Y246984D01*
D15*
X104545Y4505D02*
X93455Y4505D01*
X93455Y23595D01*
X104545Y23595D01*
X104545Y4505D01*
X104545Y6817D02*
X93455Y6817D01*
X93455Y9129D02*
X104545Y9129D01*
X104545Y11441D02*
X93455Y11441D01*
X93455Y13753D02*
X104545Y13753D01*
X104545Y16065D02*
X93455Y16065D01*
X93455Y18377D02*
X104545Y18377D01*
X104545Y20689D02*
X93455Y20689D01*
X93455Y23001D02*
X104545Y23001D01*
X149455Y4505D02*
X160545Y4505D01*
X149455Y4505D02*
X149455Y23595D01*
X160545Y23595D01*
X160545Y4505D01*
X160545Y6817D02*
X149455Y6817D01*
X149455Y9129D02*
X160545Y9129D01*
X160545Y11441D02*
X149455Y11441D01*
X149455Y13753D02*
X160545Y13753D01*
X160545Y16065D02*
X149455Y16065D01*
X149455Y18377D02*
X160545Y18377D01*
X160545Y20689D02*
X149455Y20689D01*
X149455Y23001D02*
X160545Y23001D01*
D16*
X114483Y44567D02*
X109517Y44567D01*
X109517Y57033D01*
X114483Y57033D01*
X114483Y44567D01*
X114483Y46997D02*
X109517Y46997D01*
X109517Y49427D02*
X114483Y49427D01*
X114483Y51857D02*
X109517Y51857D01*
X109517Y54287D02*
X114483Y54287D01*
X114483Y56717D02*
X109517Y56717D01*
X119517Y44567D02*
X124483Y44567D01*
X119517Y44567D02*
X119517Y57033D01*
X124483Y57033D01*
X124483Y44567D01*
X124483Y46997D02*
X119517Y46997D01*
X119517Y49427D02*
X124483Y49427D01*
X124483Y51857D02*
X119517Y51857D01*
X119517Y54287D02*
X124483Y54287D01*
X124483Y56717D02*
X119517Y56717D01*
X129517Y44567D02*
X134483Y44567D01*
X129517Y44567D02*
X129517Y57033D01*
X134483Y57033D01*
X134483Y44567D01*
X134483Y46997D02*
X129517Y46997D01*
X129517Y49427D02*
X134483Y49427D01*
X134483Y51857D02*
X129517Y51857D01*
X129517Y54287D02*
X134483Y54287D01*
X134483Y56717D02*
X129517Y56717D01*
X139517Y44567D02*
X144483Y44567D01*
X139517Y44567D02*
X139517Y57033D01*
X144483Y57033D01*
X144483Y44567D01*
X144483Y46997D02*
X139517Y46997D01*
X139517Y49427D02*
X144483Y49427D01*
X144483Y51857D02*
X139517Y51857D01*
X139517Y54287D02*
X144483Y54287D01*
X144483Y56717D02*
X139517Y56717D01*
D17*
X148272Y89451D02*
X152768Y89451D01*
X148272Y89451D02*
X148272Y100447D01*
X152768Y100447D01*
X152768Y89451D01*
X152768Y91854D02*
X148272Y91854D01*
X148272Y94257D02*
X152768Y94257D01*
X152768Y96660D02*
X148272Y96660D01*
X148272Y99063D02*
X152768Y99063D01*
X157772Y89451D02*
X162268Y89451D01*
X157772Y89451D02*
X157772Y100447D01*
X162268Y100447D01*
X162268Y89451D01*
X162268Y91854D02*
X157772Y91854D01*
X157772Y94257D02*
X162268Y94257D01*
X162268Y96660D02*
X157772Y96660D01*
X157772Y99063D02*
X162268Y99063D01*
X167272Y89451D02*
X171768Y89451D01*
X167272Y89451D02*
X167272Y100447D01*
X171768Y100447D01*
X171768Y89451D01*
X171768Y91854D02*
X167272Y91854D01*
X167272Y94257D02*
X171768Y94257D01*
X171768Y96660D02*
X167272Y96660D01*
X167272Y99063D02*
X171768Y99063D01*
X171768Y115453D02*
X167272Y115453D01*
X167272Y126449D01*
X171768Y126449D01*
X171768Y115453D01*
X171768Y117856D02*
X167272Y117856D01*
X167272Y120259D02*
X171768Y120259D01*
X171768Y122662D02*
X167272Y122662D01*
X167272Y125065D02*
X171768Y125065D01*
X152768Y115453D02*
X148272Y115453D01*
X148272Y126449D01*
X152768Y126449D01*
X152768Y115453D01*
X152768Y117856D02*
X148272Y117856D01*
X148272Y120259D02*
X152768Y120259D01*
X152768Y122662D02*
X148272Y122662D01*
X148272Y125065D02*
X152768Y125065D01*
D18*
X186985Y16335D02*
X194015Y16335D01*
X194015Y9305D01*
X186985Y9305D01*
X186985Y16335D01*
X186985Y13574D02*
X194015Y13574D01*
X194015Y33875D02*
X186985Y33875D01*
X194015Y33875D02*
X194015Y26845D01*
X186985Y26845D01*
X186985Y33875D01*
X186985Y31114D02*
X194015Y31114D01*
X67015Y16335D02*
X59985Y16335D01*
X67015Y16335D02*
X67015Y9305D01*
X59985Y9305D01*
X59985Y16335D01*
X59985Y13574D02*
X67015Y13574D01*
X67015Y33875D02*
X59985Y33875D01*
X67015Y33875D02*
X67015Y26845D01*
X59985Y26845D01*
X59985Y33875D01*
X59985Y31114D02*
X67015Y31114D01*
D16*
X165237Y8947D02*
X170203Y8947D01*
X165237Y8947D02*
X165237Y13913D01*
X170203Y13913D01*
X170203Y8947D01*
X170203Y11377D02*
X165237Y11377D01*
X165237Y13807D02*
X170203Y13807D01*
X175237Y8947D02*
X180203Y8947D01*
X175237Y8947D02*
X175237Y13913D01*
X180203Y13913D01*
X180203Y8947D01*
X180203Y11377D02*
X175237Y11377D01*
X175237Y13807D02*
X180203Y13807D01*
X88763Y13913D02*
X83797Y13913D01*
X88763Y13913D02*
X88763Y8947D01*
X83797Y8947D01*
X83797Y13913D01*
X83797Y11377D02*
X88763Y11377D01*
X88763Y13807D02*
X83797Y13807D01*
X78763Y13913D02*
X73797Y13913D01*
X78763Y13913D02*
X78763Y8947D01*
X73797Y8947D01*
X73797Y13913D01*
X73797Y11377D02*
X78763Y11377D01*
X78763Y13807D02*
X73797Y13807D01*
D19*
X177663Y51572D02*
X183271Y51572D01*
X183271Y39868D01*
X177663Y39868D01*
X177663Y51572D01*
X177663Y42262D02*
X183271Y42262D01*
X183271Y44656D02*
X177663Y44656D01*
X177663Y47050D02*
X183271Y47050D01*
X183271Y49444D02*
X177663Y49444D01*
X172857Y51572D02*
X167249Y51572D01*
X172857Y51572D02*
X172857Y39868D01*
X167249Y39868D01*
X167249Y51572D01*
X167249Y42262D02*
X172857Y42262D01*
X172857Y44656D02*
X167249Y44656D01*
X167249Y47050D02*
X172857Y47050D01*
X172857Y49444D02*
X167249Y49444D01*
D17*
X86728Y89451D02*
X82232Y89451D01*
X82232Y100447D01*
X86728Y100447D01*
X86728Y89451D01*
X86728Y91854D02*
X82232Y91854D01*
X82232Y94257D02*
X86728Y94257D01*
X86728Y96660D02*
X82232Y96660D01*
X82232Y99063D02*
X86728Y99063D01*
X91732Y89451D02*
X96228Y89451D01*
X91732Y89451D02*
X91732Y100447D01*
X96228Y100447D01*
X96228Y89451D01*
X96228Y91854D02*
X91732Y91854D01*
X91732Y94257D02*
X96228Y94257D01*
X96228Y96660D02*
X91732Y96660D01*
X91732Y99063D02*
X96228Y99063D01*
X101232Y89451D02*
X105728Y89451D01*
X101232Y89451D02*
X101232Y100447D01*
X105728Y100447D01*
X105728Y89451D01*
X105728Y91854D02*
X101232Y91854D01*
X101232Y94257D02*
X105728Y94257D01*
X105728Y96660D02*
X101232Y96660D01*
X101232Y99063D02*
X105728Y99063D01*
X105728Y115453D02*
X101232Y115453D01*
X101232Y126449D01*
X105728Y126449D01*
X105728Y115453D01*
X105728Y117856D02*
X101232Y117856D01*
X101232Y120259D02*
X105728Y120259D01*
X105728Y122662D02*
X101232Y122662D01*
X101232Y125065D02*
X105728Y125065D01*
X86728Y115453D02*
X82232Y115453D01*
X82232Y126449D01*
X86728Y126449D01*
X86728Y115453D01*
X86728Y117856D02*
X82232Y117856D01*
X82232Y120259D02*
X86728Y120259D01*
X86728Y122662D02*
X82232Y122662D01*
X82232Y125065D02*
X86728Y125065D01*
D16*
X124403Y73683D02*
X124403Y68717D01*
X119437Y68717D01*
X119437Y73683D01*
X124403Y73683D01*
X124403Y71147D02*
X119437Y71147D01*
X119437Y73577D02*
X124403Y73577D01*
X124403Y78717D02*
X124403Y83683D01*
X124403Y78717D02*
X119437Y78717D01*
X119437Y83683D01*
X124403Y83683D01*
X124403Y81147D02*
X119437Y81147D01*
X119437Y83577D02*
X124403Y83577D01*
X129597Y83683D02*
X129597Y78717D01*
X129597Y83683D02*
X134563Y83683D01*
X134563Y78717D01*
X129597Y78717D01*
X129597Y81147D02*
X134563Y81147D01*
X134563Y83577D02*
X129597Y83577D01*
X129597Y73683D02*
X129597Y68717D01*
X129597Y73683D02*
X134563Y73683D01*
X134563Y68717D01*
X129597Y68717D01*
X129597Y71147D02*
X134563Y71147D01*
X134563Y73577D02*
X129597Y73577D01*
D19*
X134610Y101102D02*
X140218Y101102D01*
X140218Y89398D01*
X134610Y89398D01*
X134610Y101102D01*
X134610Y91792D02*
X140218Y91792D01*
X140218Y94186D02*
X134610Y94186D01*
X134610Y96580D02*
X140218Y96580D01*
X140218Y98974D02*
X134610Y98974D01*
X129804Y101102D02*
X124196Y101102D01*
X129804Y101102D02*
X129804Y89398D01*
X124196Y89398D01*
X124196Y101102D01*
X124196Y91792D02*
X129804Y91792D01*
X129804Y94186D02*
X124196Y94186D01*
X124196Y96580D02*
X129804Y96580D01*
X129804Y98974D02*
X124196Y98974D01*
X119390Y101102D02*
X113782Y101102D01*
X119390Y101102D02*
X119390Y89398D01*
X113782Y89398D01*
X113782Y101102D01*
X113782Y91792D02*
X119390Y91792D01*
X119390Y94186D02*
X113782Y94186D01*
X113782Y96580D02*
X119390Y96580D01*
X119390Y98974D02*
X113782Y98974D01*
X86751Y51572D02*
X81143Y51572D01*
X86751Y51572D02*
X86751Y39868D01*
X81143Y39868D01*
X81143Y51572D01*
X81143Y42262D02*
X86751Y42262D01*
X86751Y44656D02*
X81143Y44656D01*
X81143Y47050D02*
X86751Y47050D01*
X86751Y49444D02*
X81143Y49444D01*
X76337Y51572D02*
X70729Y51572D01*
X76337Y51572D02*
X76337Y39868D01*
X70729Y39868D01*
X70729Y51572D01*
X70729Y42262D02*
X76337Y42262D01*
X76337Y44656D02*
X70729Y44656D01*
X70729Y47050D02*
X76337Y47050D01*
X76337Y49444D02*
X70729Y49444D01*
D16*
X109277Y78717D02*
X109277Y83683D01*
X114243Y83683D01*
X114243Y78717D01*
X109277Y78717D01*
X109277Y81147D02*
X114243Y81147D01*
X114243Y83577D02*
X109277Y83577D01*
X109277Y73683D02*
X109277Y68717D01*
X109277Y73683D02*
X114243Y73683D01*
X114243Y68717D01*
X109277Y68717D01*
X109277Y71147D02*
X114243Y71147D01*
X114243Y73577D02*
X109277Y73577D01*
X139757Y78717D02*
X139757Y83683D01*
X144723Y83683D01*
X144723Y78717D01*
X139757Y78717D01*
X139757Y81147D02*
X144723Y81147D01*
X144723Y83577D02*
X139757Y83577D01*
X139757Y73683D02*
X139757Y68717D01*
X139757Y73683D02*
X144723Y73683D01*
X144723Y68717D01*
X139757Y68717D01*
X139757Y71147D02*
X144723Y71147D01*
X144723Y73577D02*
X139757Y73577D01*
X154883Y132217D02*
X154883Y137183D01*
X154883Y132217D02*
X149917Y132217D01*
X149917Y137183D01*
X154883Y137183D01*
X154883Y134647D02*
X149917Y134647D01*
X149917Y137077D02*
X154883Y137077D01*
X154883Y142217D02*
X154883Y147183D01*
X154883Y142217D02*
X149917Y142217D01*
X149917Y147183D01*
X154883Y147183D01*
X154883Y144647D02*
X149917Y144647D01*
X149917Y147077D02*
X154883Y147077D01*
X144723Y137183D02*
X144723Y132217D01*
X139757Y132217D01*
X139757Y137183D01*
X144723Y137183D01*
X144723Y134647D02*
X139757Y134647D01*
X139757Y137077D02*
X144723Y137077D01*
X144723Y142217D02*
X144723Y147183D01*
X144723Y142217D02*
X139757Y142217D01*
X139757Y147183D01*
X144723Y147183D01*
X144723Y144647D02*
X139757Y144647D01*
X139757Y147077D02*
X144723Y147077D01*
X93923Y137183D02*
X93923Y132217D01*
X88957Y132217D01*
X88957Y137183D01*
X93923Y137183D01*
X93923Y134647D02*
X88957Y134647D01*
X88957Y137077D02*
X93923Y137077D01*
X93923Y142217D02*
X93923Y147183D01*
X93923Y142217D02*
X88957Y142217D01*
X88957Y147183D01*
X93923Y147183D01*
X93923Y144647D02*
X88957Y144647D01*
X88957Y147077D02*
X93923Y147077D01*
X104083Y137183D02*
X104083Y132217D01*
X99117Y132217D01*
X99117Y137183D01*
X104083Y137183D01*
X104083Y134647D02*
X99117Y134647D01*
X99117Y137077D02*
X104083Y137077D01*
X104083Y142217D02*
X104083Y147183D01*
X104083Y142217D02*
X99117Y142217D01*
X99117Y147183D01*
X104083Y147183D01*
X104083Y144647D02*
X99117Y144647D01*
X99117Y147077D02*
X104083Y147077D01*
X180397Y147183D02*
X180397Y142217D01*
X180397Y147183D02*
X185363Y147183D01*
X185363Y142217D01*
X180397Y142217D01*
X180397Y144647D02*
X185363Y144647D01*
X185363Y147077D02*
X180397Y147077D01*
X180397Y137183D02*
X180397Y132217D01*
X180397Y137183D02*
X185363Y137183D01*
X185363Y132217D01*
X180397Y132217D01*
X180397Y134647D02*
X185363Y134647D01*
X185363Y137077D02*
X180397Y137077D01*
X160077Y142217D02*
X160077Y147183D01*
X165043Y147183D01*
X165043Y142217D01*
X160077Y142217D01*
X160077Y144647D02*
X165043Y144647D01*
X165043Y147077D02*
X160077Y147077D01*
X160077Y137183D02*
X160077Y132217D01*
X160077Y137183D02*
X165043Y137183D01*
X165043Y132217D01*
X160077Y132217D01*
X160077Y134647D02*
X165043Y134647D01*
X165043Y137077D02*
X160077Y137077D01*
D20*
X177523Y163823D02*
X184477Y163823D01*
X177523Y163823D02*
X177523Y171777D01*
X184477Y171777D01*
X184477Y163823D01*
X184477Y166265D02*
X177523Y166265D01*
X177523Y168707D02*
X184477Y168707D01*
X184477Y171149D02*
X177523Y171149D01*
X196523Y163823D02*
X203477Y163823D01*
X196523Y163823D02*
X196523Y171777D01*
X203477Y171777D01*
X203477Y163823D01*
X203477Y166265D02*
X196523Y166265D01*
X196523Y168707D02*
X203477Y168707D01*
X203477Y171149D02*
X196523Y171149D01*
X193977Y184823D02*
X187023Y184823D01*
X187023Y192777D01*
X193977Y192777D01*
X193977Y184823D01*
X193977Y187265D02*
X187023Y187265D01*
X187023Y189707D02*
X193977Y189707D01*
X193977Y192149D02*
X187023Y192149D01*
D21*
X203050Y130860D02*
X203050Y125540D01*
X195730Y125540D01*
X195730Y130860D01*
X203050Y130860D01*
X203050Y127919D02*
X195730Y127919D01*
X195730Y130298D02*
X203050Y130298D01*
X203050Y148540D02*
X203050Y153860D01*
X203050Y148540D02*
X195730Y148540D01*
X195730Y153860D01*
X203050Y153860D01*
X203050Y150919D02*
X195730Y150919D01*
X195730Y153298D02*
X203050Y153298D01*
D16*
X78797Y147183D02*
X78797Y142217D01*
X78797Y147183D02*
X83763Y147183D01*
X83763Y142217D01*
X78797Y142217D01*
X78797Y144647D02*
X83763Y144647D01*
X83763Y147077D02*
X78797Y147077D01*
X78797Y137183D02*
X78797Y132217D01*
X78797Y137183D02*
X83763Y137183D01*
X83763Y132217D01*
X78797Y132217D01*
X78797Y134647D02*
X83763Y134647D01*
X83763Y137077D02*
X78797Y137077D01*
D19*
X64907Y159248D02*
X59299Y159248D01*
X59299Y170952D01*
X64907Y170952D01*
X64907Y159248D01*
X64907Y161642D02*
X59299Y161642D01*
X59299Y164036D02*
X64907Y164036D01*
X64907Y166430D02*
X59299Y166430D01*
X59299Y168824D02*
X64907Y168824D01*
X69713Y159248D02*
X75321Y159248D01*
X69713Y159248D02*
X69713Y170952D01*
X75321Y170952D01*
X75321Y159248D01*
X75321Y161642D02*
X69713Y161642D01*
X69713Y164036D02*
X75321Y164036D01*
X75321Y166430D02*
X69713Y166430D01*
X69713Y168824D02*
X75321Y168824D01*
D18*
X58125Y134445D02*
X51095Y134445D01*
X58125Y134445D02*
X58125Y127415D01*
X51095Y127415D01*
X51095Y134445D01*
X51095Y131684D02*
X58125Y131684D01*
X58125Y151985D02*
X51095Y151985D01*
X58125Y151985D02*
X58125Y144955D01*
X51095Y144955D01*
X51095Y151985D01*
X51095Y149224D02*
X58125Y149224D01*
D16*
X68637Y147183D02*
X68637Y142217D01*
X68637Y147183D02*
X73603Y147183D01*
X73603Y142217D01*
X68637Y142217D01*
X68637Y144647D02*
X73603Y144647D01*
X73603Y147077D02*
X68637Y147077D01*
X68637Y137183D02*
X68637Y132217D01*
X68637Y137183D02*
X73603Y137183D01*
X73603Y132217D01*
X68637Y132217D01*
X68637Y134647D02*
X73603Y134647D01*
X73603Y137077D02*
X68637Y137077D01*
D22*
X188269Y108319D02*
X188269Y100321D01*
X179271Y100321D01*
X179271Y108319D01*
X188269Y108319D01*
X188269Y102721D02*
X179271Y102721D01*
X179271Y105121D02*
X188269Y105121D01*
X188269Y107521D02*
X179271Y107521D01*
X204269Y108319D02*
X204269Y100321D01*
X195271Y100321D01*
X195271Y108319D01*
X204269Y108319D01*
X204269Y102721D02*
X195271Y102721D01*
X195271Y105121D02*
X204269Y105121D01*
X204269Y107521D02*
X195271Y107521D01*
X204269Y67319D02*
X204269Y59321D01*
X195271Y59321D01*
X195271Y67319D01*
X204269Y67319D01*
X204269Y61721D02*
X195271Y61721D01*
X195271Y64121D02*
X204269Y64121D01*
X204269Y66521D02*
X195271Y66521D01*
X188269Y67319D02*
X188269Y59321D01*
X179271Y59321D01*
X179271Y67319D01*
X188269Y67319D01*
X188269Y61721D02*
X179271Y61721D01*
X179271Y64121D02*
X188269Y64121D01*
X188269Y66521D02*
X179271Y66521D01*
X65731Y67319D02*
X65731Y59321D01*
X65731Y67319D02*
X74729Y67319D01*
X74729Y59321D01*
X65731Y59321D01*
X65731Y61721D02*
X74729Y61721D01*
X74729Y64121D02*
X65731Y64121D01*
X65731Y66521D02*
X74729Y66521D01*
X49731Y67319D02*
X49731Y59321D01*
X49731Y67319D02*
X58729Y67319D01*
X58729Y59321D01*
X49731Y59321D01*
X49731Y61721D02*
X58729Y61721D01*
X58729Y64121D02*
X49731Y64121D01*
X49731Y66521D02*
X58729Y66521D01*
X49731Y100321D02*
X49731Y108319D01*
X58729Y108319D01*
X58729Y100321D01*
X49731Y100321D01*
X49731Y102721D02*
X58729Y102721D01*
X58729Y105121D02*
X49731Y105121D01*
X49731Y107521D02*
X58729Y107521D01*
X65731Y108319D02*
X65731Y100321D01*
X65731Y108319D02*
X74729Y108319D01*
X74729Y100321D01*
X65731Y100321D01*
X65731Y102721D02*
X74729Y102721D01*
X74729Y105121D02*
X65731Y105121D01*
X65731Y107521D02*
X74729Y107521D01*
D16*
X175203Y132217D02*
X175203Y137183D01*
X175203Y132217D02*
X170237Y132217D01*
X170237Y137183D01*
X175203Y137183D01*
X175203Y134647D02*
X170237Y134647D01*
X170237Y137077D02*
X175203Y137077D01*
X175203Y142217D02*
X175203Y147183D01*
X175203Y142217D02*
X170237Y142217D01*
X170237Y147183D01*
X175203Y147183D01*
X175203Y144647D02*
X170237Y144647D01*
X170237Y147077D02*
X175203Y147077D01*
X149917Y83683D02*
X149917Y78717D01*
X149917Y83683D02*
X154883Y83683D01*
X154883Y78717D01*
X149917Y78717D01*
X149917Y81147D02*
X154883Y81147D01*
X154883Y83577D02*
X149917Y83577D01*
X149917Y73683D02*
X149917Y68717D01*
X149917Y73683D02*
X154883Y73683D01*
X154883Y68717D01*
X149917Y68717D01*
X149917Y71147D02*
X154883Y71147D01*
X154883Y73577D02*
X149917Y73577D01*
X99117Y78717D02*
X99117Y83683D01*
X104083Y83683D01*
X104083Y78717D01*
X99117Y78717D01*
X99117Y81147D02*
X104083Y81147D01*
X104083Y83577D02*
X99117Y83577D01*
X99117Y73683D02*
X99117Y68717D01*
X99117Y73683D02*
X104083Y73683D01*
X104083Y68717D01*
X99117Y68717D01*
X99117Y71147D02*
X104083Y71147D01*
X104083Y73577D02*
X99117Y73577D01*
X109277Y142217D02*
X109277Y147183D01*
X114243Y147183D01*
X114243Y142217D01*
X109277Y142217D01*
X109277Y144647D02*
X114243Y144647D01*
X114243Y147077D02*
X109277Y147077D01*
X109277Y137183D02*
X109277Y132217D01*
X109277Y137183D02*
X114243Y137183D01*
X114243Y132217D01*
X109277Y132217D01*
X109277Y134647D02*
X114243Y134647D01*
X114243Y137077D02*
X109277Y137077D01*
D23*
X209550Y247650D03*
X44450Y6350D03*
D16*
X134563Y132217D02*
X134563Y137183D01*
X134563Y132217D02*
X129597Y132217D01*
X129597Y137183D01*
X134563Y137183D01*
X134563Y134647D02*
X129597Y134647D01*
X129597Y137077D02*
X134563Y137077D01*
X134563Y142217D02*
X134563Y147183D01*
X134563Y142217D02*
X129597Y142217D01*
X129597Y147183D01*
X134563Y147183D01*
X134563Y144647D02*
X129597Y144647D01*
X129597Y147077D02*
X134563Y147077D01*
X119437Y147183D02*
X119437Y142217D01*
X119437Y147183D02*
X124403Y147183D01*
X124403Y142217D01*
X119437Y142217D01*
X119437Y144647D02*
X124403Y144647D01*
X124403Y147077D02*
X119437Y147077D01*
X119437Y137183D02*
X119437Y132217D01*
X119437Y137183D02*
X124403Y137183D01*
X124403Y132217D01*
X119437Y132217D01*
X119437Y134647D02*
X124403Y134647D01*
X124403Y137077D02*
X119437Y137077D01*
M02*
