M48
;GenerationSoftware,Autodesk,EAGLE,9.6.2*%
;CreationDate,2023-06-29T21:43:46Z*%
FMAT,2
ICI,OFF
METRIC,TZ,000.000
T5C0.305
T4C0.400
T3C0.650
T2C1.016
T1C3.302
%
G90
M71
T1
X22860Y2540
X2540Y2540
X2540Y22860
X22860Y22860
T2
X1270Y6350
X24130Y11430
X24130Y19050
X24130Y16510
X24130Y13970
X24130Y8890
X24130Y6350
X1270Y19050
X1270Y16510
X1270Y13970
X1270Y11430
X1270Y8890
T3
X15590Y6302
X9810Y6302
T4
X17018Y2652
X8382Y2652
X8382Y6832
X17018Y6832
T5
X18034Y2286
X11430Y635
X13970Y635
X11176Y3810
X13144Y3810
X19304Y7366
X19812Y19685
X22860Y15240
X14732Y17780
X11049Y11049
X15240Y5334
X15240Y4445
X16002Y10541
X14229Y6355
X17145Y16891
X10389Y5690
X9398Y12192
X17780Y12573
X8763Y8382
X9398Y16510
X5842Y9271
X5969Y11430
X5080Y3850
X13691Y11227
X16764Y15494
X12192Y3810
X12700Y10414
X16129Y5588
X9271Y5588
X20955Y635
X7366Y2286
X9398Y10668
X17653Y15367
X7747Y15367
X9449Y15621
X4445Y12700
X7666Y12289
X11176Y6350
X635Y4191
X24765Y4191
X10160Y17780
X5588Y19685
X2540Y7620
X2540Y17780
X15875Y17780
X6096Y7366
M30