M48
;GenerationSoftware,Autodesk,EAGLE,9.6.2*%
;CreationDate,2023-08-01T19:56:59Z*%
FMAT,2
ICI,OFF
METRIC,TZ,000.000
T5C0.305
T4C0.400
T3C0.650
T2C1.016
T1C3.302
%
G90
M71
T1
X48768Y58420
X22860Y2540
X2540Y2540
X2540Y22860
X22860Y22860
X28448Y86360
X28448Y106680
X48768Y2540
X28448Y2540
X28448Y22860
X48768Y22860
X48768Y106680
X48768Y134620
X74676Y2540
X54356Y2540
X54356Y22860
X74676Y22860
X100584Y134620
X74676Y86360
X100584Y2540
X80264Y2540
X80264Y22860
X100584Y22860
X54356Y86360
X54356Y106680
X22860Y30480
X2540Y30480
X2540Y50800
X22860Y50800
X74676Y106680
X100584Y114300
X48768Y30480
X28448Y30480
X28448Y50800
X48768Y50800
X74676Y114300
X100584Y86360
X74676Y30480
X54356Y30480
X54356Y50800
X74676Y50800
X80264Y86360
X80264Y106680
X100584Y30480
X80264Y30480
X80264Y50800
X100584Y50800
X100584Y106680
X80264Y114300
X22860Y58420
X2540Y58420
X2540Y78740
X22860Y78740
X54356Y134620
X22860Y114300
X54356Y114300
X28448Y58420
X28448Y78740
X48768Y78740
X2540Y114300
X2540Y134620
X74676Y58420
X54356Y58420
X54356Y78740
X74676Y78740
X22860Y134620
X74676Y134620
X100584Y58420
X80264Y58420
X80264Y78740
X100584Y78740
X80264Y134620
X48768Y114300
X22860Y86360
X2540Y86360
X2540Y106680
X22860Y106680
X28448Y114300
X28448Y134620
X48768Y86360
T2
X75946Y92710
X75946Y90170
X53086Y102870
X53086Y100330
X53086Y97790
X53086Y95250
X53086Y92710
X53086Y90170
X101854Y102870
X101854Y100330
X101854Y97790
X101854Y95250
X101854Y92710
X101854Y90170
X78994Y102870
X78994Y100330
X78994Y97790
X78994Y95250
X78994Y92710
X78994Y90170
X24130Y130810
X24130Y128270
X24130Y125730
X24130Y123190
X78994Y118110
X24130Y118110
X1270Y130810
X1270Y128270
X1270Y125730
X1270Y123190
X1270Y120650
X1270Y118110
X50038Y130810
X50038Y128270
X50038Y125730
X50038Y123190
X50038Y72390
X50038Y120650
X50038Y118110
X27178Y130810
X27178Y128270
X27178Y125730
X27178Y123190
X27178Y120650
X27178Y118110
X24130Y19050
X24130Y16510
X24130Y13970
X24130Y11430
X24130Y8890
X24130Y6350
X1270Y19050
X1270Y16510
X1270Y13970
X1270Y11430
X1270Y8890
X1270Y6350
X75946Y130810
X75946Y128270
X75946Y125730
X75946Y123190
X50038Y19050
X50038Y16510
X50038Y13970
X50038Y11430
X50038Y8890
X50038Y6350
X27178Y19050
X27178Y16510
X27178Y13970
X27178Y11430
X27178Y8890
X27178Y6350
X75946Y120650
X75946Y118110
X53086Y130810
X53086Y128270
X75946Y19050
X75946Y16510
X75946Y13970
X75946Y11430
X75946Y8890
X75946Y6350
X53086Y19050
X53086Y16510
X53086Y13970
X53086Y11430
X53086Y8890
X53086Y6350
X53086Y125730
X53086Y123190
X53086Y120650
X53086Y118110
X101854Y19050
X101854Y16510
X101854Y13970
X101854Y11430
X101854Y8890
X101854Y6350
X78994Y19050
X78994Y16510
X78994Y13970
X78994Y11430
X78994Y8890
X78994Y6350
X101854Y130810
X101854Y128270
X101854Y125730
X101854Y123190
X24130Y46990
X24130Y44450
X24130Y41910
X24130Y39370
X24130Y36830
X24130Y34290
X1270Y46990
X1270Y44450
X1270Y41910
X1270Y39370
X1270Y36830
X1270Y34290
X101854Y120650
X101854Y118110
X78994Y130810
X78994Y128270
X50038Y46990
X50038Y44450
X50038Y41910
X50038Y39370
X50038Y36830
X50038Y34290
X27178Y46990
X27178Y44450
X27178Y41910
X27178Y39370
X27178Y36830
X27178Y34290
X78994Y125730
X78994Y123190
X78994Y120650
X27178Y72390
X75946Y46990
X75946Y44450
X75946Y41910
X75946Y39370
X75946Y36830
X75946Y34290
X53086Y46990
X53086Y44450
X53086Y41910
X53086Y39370
X53086Y36830
X53086Y34290
X101854Y46990
X101854Y44450
X101854Y41910
X101854Y39370
X101854Y36830
X101854Y34290
X78994Y46990
X78994Y44450
X78994Y41910
X78994Y39370
X78994Y36830
X78994Y34290
X24130Y74930
X24130Y72390
X24130Y69850
X24130Y67310
X24130Y64770
X24130Y62230
X1270Y74930
X1270Y72390
X1270Y69850
X1270Y67310
X1270Y64770
X1270Y62230
X50038Y74930
X50038Y69850
X50038Y67310
X50038Y64770
X50038Y62230
X27178Y74930
X27178Y69850
X27178Y67310
X27178Y64770
X27178Y62230
X75946Y74930
X75946Y72390
X75946Y69850
X75946Y67310
X75946Y64770
X75946Y62230
X53086Y74930
X53086Y72390
X53086Y69850
X53086Y67310
X53086Y64770
X53086Y62230
X101854Y74930
X101854Y72390
X101854Y69850
X101854Y67310
X101854Y64770
X101854Y62230
X78994Y74930
X78994Y72390
X78994Y69850
X78994Y67310
X78994Y64770
X78994Y62230
X24130Y102870
X24130Y100330
X24130Y97790
X24130Y95250
X24130Y92710
X24130Y90170
X1270Y102870
X1270Y100330
X1270Y97790
X1270Y95250
X1270Y92710
X1270Y90170
X24130Y120650
X50038Y102870
X50038Y100330
X50038Y97790
X50038Y95250
X50038Y92710
X50038Y90170
X27178Y102870
X27178Y100330
X27178Y97790
X27178Y95250
X27178Y92710
X27178Y90170
X75946Y102870
X75946Y100330
X75946Y97790
X75946Y95250
T3
X15590Y6302
X9810Y6302
X41498Y6302
X35718Y6302
X67406Y6302
X61626Y6302
X93314Y6302
X87534Y6302
X15590Y34242
X9810Y34242
X41498Y34242
X35718Y34242
X67406Y34242
X61626Y34242
X93314Y34242
X87534Y34242
X15590Y62182
X9810Y62182
X41498Y62182
X35718Y62182
X67406Y62182
X61626Y62182
X93314Y62182
X87534Y62182
X15590Y90122
X9810Y90122
X41498Y90122
X35718Y90122
X67406Y90122
X61626Y90122
X93314Y90122
X87534Y90122
X15590Y118062
X9810Y118062
X41498Y118062
X35718Y118062
X67406Y118062
X61626Y118062
X93314Y118062
X87534Y118062
T4
X17018Y2652
X8382Y2652
X8382Y6832
X17018Y6832
X42926Y2652
X34290Y2652
X34290Y6832
X42926Y6832
X68834Y2652
X60198Y2652
X60198Y6832
X68834Y6832
X94742Y2652
X86106Y2652
X86106Y6832
X94742Y6832
X17018Y30592
X8382Y30592
X8382Y34772
X17018Y34772
X42926Y30592
X34290Y30592
X34290Y34772
X42926Y34772
X68834Y30592
X60198Y30592
X60198Y34772
X68834Y90652
X86106Y30592
X68834Y34772
X86106Y34772
X94742Y34772
X42926Y114412
X34290Y114412
X34290Y118592
X42926Y118592
X42926Y58532
X94742Y58532
X86106Y58532
X86106Y62712
X94742Y62712
X34290Y58532
X68834Y58532
X60198Y58532
X94742Y86472
X86106Y86472
X86106Y90652
X94742Y90652
X68834Y114412
X60198Y114412
X60198Y118592
X68834Y118592
X42926Y86472
X60198Y62712
X34290Y90652
X42926Y90652
X68834Y62712
X34290Y62712
X42926Y62712
X17018Y58532
X8382Y58532
X8382Y62712
X17018Y62712
X94742Y30592
X94742Y114412
X86106Y114412
X86106Y118592
X94742Y118592
X17018Y114412
X8382Y114412
X8382Y118592
X17018Y118592
X17018Y86472
X8382Y86472
X8382Y90652
X17018Y90652
X68834Y86472
X60198Y86472
X60198Y90652
X34290Y86472
T5
X39053Y59690
X45212Y63246
X45720Y75565
X48768Y71120
X40640Y73660
X36957Y66929
X41148Y61214
X41148Y60325
X37084Y62230
X40137Y62235
X43053Y72771
X36297Y61570
X35306Y68072
X43688Y68453
X34671Y64262
X35306Y72390
X31750Y65151
X31750Y67310
X30988Y59730
X39599Y67107
X68580Y71374
X64008Y59690
X64516Y66294
X67945Y61468
X61087Y61468
X72771Y56515
X59182Y58166
X61214Y66548
X67818Y66421
X69469Y71247
X59563Y71247
X61265Y71501
X56261Y68580
X59482Y68169
X52451Y60071
X76581Y60071
X61976Y73660
X57404Y75565
X54356Y63500
X54356Y73660
X67691Y73660
X57912Y63246
X69850Y58166
X63246Y56515
X65786Y56515
X62992Y59690
X64960Y59690
X71120Y63246
X71628Y75565
X74676Y71120
X66548Y73660
X62865Y66929
X67056Y61214
X67056Y60325
X62992Y62230
X66045Y62235
X68961Y72771
X62205Y61570
X61214Y68072
X69596Y68453
X60579Y64262
X61214Y72390
X57658Y65151
X57658Y67310
X56896Y59730
X65507Y67107
X94488Y71374
X89916Y59690
X90424Y66294
X93853Y61468
X86995Y61468
X98679Y56515
X85090Y58166
X87122Y66548
X93726Y66421
X95377Y71247
X85471Y71247
X87173Y71501
X82169Y68580
X85390Y68169
X78359Y60071
X102489Y60071
X87884Y73660
X83312Y75565
X80264Y63500
X80264Y73660
X93599Y73660
X83820Y63246
X95758Y58166
X89154Y56515
X91694Y56515
X88900Y59690
X90868Y59690
X97028Y63246
X97536Y75565
X100584Y71120
X92456Y73660
X88773Y66929
X92964Y61214
X92964Y60325
X88900Y62230
X91953Y62235
X94869Y72771
X88113Y61570
X87122Y68072
X95504Y68453
X86487Y64262
X87122Y72390
X83566Y65151
X83566Y67310
X82804Y59730
X91415Y67107
X16764Y99314
X12192Y87630
X12700Y94234
X16129Y89408
X9271Y89408
X20955Y84455
X7366Y86106
X9398Y94488
X16002Y94361
X17653Y99187
X7747Y99187
X9449Y99441
X4445Y96520
X7666Y96109
X635Y88011
X24765Y88011
X10160Y101600
X5588Y103505
X2540Y91440
X2540Y101600
X15875Y101600
X6096Y91186
X18034Y86106
X11430Y84455
X13970Y84455
X11176Y87630
X13144Y87630
X19304Y91186
X19812Y103505
X22860Y99060
X14732Y101600
X11049Y94869
X15240Y89154
X15240Y88265
X11176Y90170
X14229Y90175
X17145Y100711
X10389Y89510
X9398Y96012
X17780Y96393
X8763Y92202
X9398Y100330
X5842Y93091
X5842Y95250
X5080Y87670
X13691Y95047
X42672Y99314
X38100Y87630
X38608Y94234
X42037Y89408
X35179Y89408
X46863Y84455
X33274Y86106
X35306Y94488
X41910Y94361
X43561Y99187
X33655Y99187
X35357Y99441
X30353Y96520
X33574Y96109
X26543Y88011
X50673Y88011
X36068Y101600
X31496Y103505
X28448Y91440
X28448Y101600
X41783Y101600
X32004Y91186
X43942Y86106
X37338Y84455
X39878Y84455
X37084Y87630
X39053Y87630
X45212Y91186
X45720Y103505
X48768Y99060
X40640Y101600
X36957Y94869
X41148Y89154
X41148Y88265
X37084Y90170
X40137Y90175
X43053Y100711
X36297Y89510
X35306Y96012
X43688Y96393
X34671Y92202
X35306Y100330
X31750Y93091
X31750Y95250
X30988Y87670
X39599Y95047
X68580Y99314
X64008Y87630
X64516Y94234
X67945Y89408
X61087Y89408
X72771Y84455
X59182Y86106
X61214Y94488
X67818Y94361
X69469Y99187
X59563Y99187
X61265Y99441
X56261Y96520
X59482Y96109
X52451Y88011
X76581Y88011
X61976Y101600
X57404Y103505
X54356Y91440
X54356Y101600
X67691Y101600
X57912Y91186
X69850Y86106
X63246Y84455
X65786Y84455
X62992Y87630
X64960Y87630
X71120Y91186
X71628Y103505
X74676Y99060
X66548Y101600
X62865Y94869
X67056Y89154
X67056Y88265
X62992Y90170
X66045Y90175
X92964Y5334
X62205Y89510
X61214Y96012
X69596Y96393
X60579Y92202
X61214Y100330
X57658Y93091
X57658Y95250
X56896Y87670
X65507Y95047
X94488Y99314
X89916Y87630
X90424Y94234
X93853Y89408
X86995Y89408
X98679Y84455
X85090Y86106
X87122Y94488
X93726Y94361
X95377Y99187
X85471Y99187
X87173Y99441
X82169Y96520
X85390Y96109
X78359Y88011
X102489Y88011
X87884Y101600
X83312Y103505
X80264Y91440
X80264Y101600
X93599Y101600
X83820Y91186
X95758Y86106
X89154Y84455
X91694Y84455
X88900Y87630
X90868Y87630
X97028Y91186
X97536Y103505
X100584Y99060
X92456Y101600
X88773Y94869
X92964Y89154
X92964Y88265
X88900Y90170
X91953Y90175
X94869Y100711
X88113Y89510
X87122Y96012
X95504Y96393
X86487Y92202
X87122Y100330
X83566Y93091
X83566Y95250
X82804Y87670
X91415Y95047
X16764Y127254
X12192Y115570
X12700Y122174
X16129Y117348
X9271Y117348
X20955Y112395
X7366Y114046
X9398Y122428
X16002Y122301
X17653Y127127
X7747Y127127
X9449Y127381
X4445Y124460
X7666Y124049
X635Y115951
X24765Y115951
X10160Y129540
X5588Y131445
X2540Y119380
X2540Y129540
X15875Y129540
X6096Y119126
X18034Y114046
X11430Y112395
X13970Y112395
X11176Y115570
X13144Y115570
X19304Y119126
X19812Y131445
X22860Y127000
X14732Y129540
X11049Y122809
X15240Y117094
X15240Y116205
X11176Y118110
X14229Y118115
X17145Y128651
X10389Y117450
X9398Y123952
X17780Y124333
X8763Y120142
X9398Y128270
X5842Y121031
X5842Y123190
X5080Y115610
X13691Y122987
X42672Y127254
X38100Y115570
X38608Y122174
X42037Y117348
X35179Y117348
X46863Y112395
X33274Y114046
X35306Y122428
X41910Y122301
X43561Y127127
X33655Y127127
X35357Y127381
X30353Y124460
X33574Y124049
X26543Y115951
X50673Y115951
X36068Y129540
X31496Y131445
X28448Y119380
X28448Y129540
X41783Y129540
X32004Y119126
X43942Y114046
X37338Y112395
X39878Y112395
X37084Y115570
X39053Y115570
X45212Y119126
X45720Y131445
X48768Y127000
X40640Y129540
X36957Y122809
X41148Y117094
X41148Y116205
X37084Y118110
X40137Y118115
X43053Y128651
X36297Y117450
X35306Y123952
X43688Y124333
X34671Y120142
X35306Y128270
X31750Y121031
X31750Y123190
X30988Y115610
X39599Y122987
X68580Y127254
X64008Y115570
X64516Y122174
X67945Y117348
X61087Y117348
X72771Y112395
X59182Y114046
X61214Y122428
X67818Y122301
X69469Y127127
X59563Y127127
X61265Y127381
X56261Y124460
X59482Y124049
X52451Y115951
X76581Y115951
X61976Y129540
X57404Y131445
X54356Y119380
X54356Y129540
X67691Y129540
X57912Y119126
X69850Y114046
X63246Y112395
X65786Y112395
X62992Y115570
X64960Y115570
X71120Y119126
X71628Y131445
X74676Y127000
X66548Y129540
X62865Y122809
X67056Y117094
X67056Y116205
X62992Y118110
X66045Y118115
X68961Y128651
X62205Y117450
X61214Y123952
X69596Y124333
X60579Y120142
X61214Y128270
X57658Y121031
X57658Y123190
X56896Y115610
X65507Y122987
X94488Y127254
X89916Y115570
X90424Y122174
X93853Y117348
X86995Y117348
X98679Y112395
X85090Y114046
X87122Y122428
X93726Y122301
X95377Y127127
X85471Y127127
X87173Y127381
X82169Y124460
X85390Y124049
X78359Y115951
X102489Y115951
X87884Y129540
X83312Y131445
X80264Y119380
X80264Y129540
X93599Y129540
X83820Y119126
X95758Y114046
X89154Y112395
X91694Y112395
X88900Y115570
X90868Y115570
X97028Y119126
X97536Y131445
X100584Y127000
X92456Y129540
X88773Y122809
X92964Y117094
X92964Y116205
X88900Y118110
X91953Y118115
X94869Y128651
X88113Y117450
X87122Y123952
X95504Y124333
X86487Y120142
X87122Y128270
X83566Y121031
X83566Y123190
X82804Y115610
X91415Y122987
X16764Y15494
X12192Y3810
X12700Y10414
X16129Y5588
X9271Y5588
X20955Y635
X7366Y2286
X9398Y10668
X16002Y10541
X17653Y15367
X7747Y15367
X9449Y15621
X4445Y12700
X7666Y12289
X635Y4191
X24765Y4191
X10160Y17780
X5588Y19685
X2540Y7620
X2540Y17780
X15875Y17780
X6096Y7366
X18034Y2286
X11430Y635
X13970Y635
X11176Y3810
X13144Y3810
X19304Y7366
X19812Y19685
X22860Y15240
X14732Y17780
X11049Y11049
X15240Y5334
X15240Y4445
X11176Y6350
X14229Y6355
X17145Y16891
X10389Y5690
X9398Y12192
X17780Y12573
X8763Y8382
X9398Y16510
X5842Y9271
X5842Y11430
X5080Y3850
X13691Y11227
X42672Y15494
X38100Y3810
X38608Y10414
X42037Y5588
X35179Y5588
X46863Y635
X33274Y2286
X35306Y10668
X41910Y10541
X43561Y15367
X33655Y15367
X35357Y15621
X30353Y12700
X33574Y12289
X26543Y4191
X50673Y4191
X36068Y17780
X31496Y19685
X28448Y7620
X28448Y17780
X41783Y17780
X32004Y7366
X43942Y2286
X37338Y635
X39878Y635
X37084Y3810
X39053Y3810
X45212Y7366
X45720Y19685
X48768Y15240
X40640Y17780
X36957Y11049
X41148Y5334
X41148Y4445
X37084Y6350
X40137Y6355
X43053Y16891
X36297Y5690
X35306Y12192
X43688Y12573
X34671Y8382
X35306Y16510
X31750Y9271
X31750Y11430
X30988Y3850
X39599Y11227
X68580Y15494
X64008Y3810
X64516Y10414
X67945Y5588
X61087Y5588
X72771Y635
X59182Y2286
X61214Y10668
X67818Y10541
X69469Y15367
X59563Y15367
X61265Y15621
X56261Y12700
X59482Y12289
X52451Y4191
X76581Y4191
X61976Y17780
X57404Y19685
X54356Y7620
X54356Y17780
X67691Y17780
X57912Y7366
X69850Y2286
X63246Y635
X65786Y635
X62992Y3810
X64960Y3810
X71120Y7366
X71628Y19685
X74676Y15240
X66548Y17780
X62865Y11049
X67056Y5334
X67056Y4445
X62992Y6350
X66045Y6355
X68961Y16891
X62205Y5690
X61214Y12192
X69596Y12573
X60579Y8382
X61214Y16510
X57658Y9271
X57658Y11430
X56896Y3850
X65507Y11227
X94488Y15494
X89916Y3810
X90424Y10414
X93853Y5588
X86995Y5588
X98679Y635
X85090Y2286
X87122Y10668
X93726Y10541
X95377Y15367
X85471Y15367
X87173Y15621
X82169Y12700
X85390Y12289
X78359Y4191
X102489Y4191
X87884Y17780
X83312Y19685
X80264Y7620
X80264Y17780
X93599Y17780
X83820Y7366
X95758Y2286
X89154Y635
X91694Y635
X88900Y3810
X90868Y3810
X97028Y7366
X97536Y19685
X100584Y15240
X92456Y17780
X88773Y11049
X92964Y4445
X88900Y6350
X91953Y6355
X94869Y16891
X88113Y5690
X87122Y12192
X95504Y12573
X86487Y8382
X87122Y16510
X83566Y9271
X83566Y11430
X82804Y3850
X91415Y11227
X16764Y43434
X12192Y31750
X12700Y38354
X16129Y33528
X9271Y33528
X20955Y28575
X7366Y30226
X9398Y38608
X16002Y38481
X17653Y43307
X7747Y43307
X9449Y43561
X4445Y40640
X7666Y40229
X635Y32131
X24765Y32131
X10160Y45720
X5588Y47625
X2540Y35560
X2540Y45720
X15875Y45720
X6096Y35306
X18034Y30226
X11430Y28575
X13970Y28575
X11176Y31750
X13144Y31750
X19304Y35306
X19812Y47625
X22860Y43180
X14732Y45720
X11049Y38989
X15240Y33274
X15240Y32385
X11176Y34290
X14229Y34295
X17145Y44831
X10389Y33630
X9398Y40132
X17780Y40513
X8763Y36322
X9398Y44450
X5842Y37211
X5842Y39370
X5080Y31790
X13691Y39167
X42672Y43434
X38100Y31750
X38608Y38354
X42037Y33528
X35179Y33528
X46863Y28575
X33274Y30226
X35306Y38608
X41910Y38481
X43561Y43307
X33655Y43307
X35357Y43561
X30353Y40640
X33574Y40229
X26543Y32131
X50673Y32131
X36068Y45720
X31496Y47625
X28448Y35560
X28448Y45720
X41783Y45720
X32004Y35306
X43942Y30226
X37338Y28575
X39878Y28575
X37084Y31750
X39053Y31750
X45212Y35306
X45720Y47625
X48768Y43180
X40640Y45720
X36957Y38989
X41148Y33274
X41148Y32385
X37084Y34290
X40137Y34295
X43053Y44831
X36297Y33630
X35306Y40132
X43688Y40513
X68961Y100711
X34671Y36322
X35306Y44450
X31750Y37211
X31750Y39370
X30988Y31790
X39599Y39167
X68580Y43434
X64008Y31750
X64516Y38354
X67945Y33528
X61087Y33528
X72771Y28575
X59182Y30226
X61214Y38608
X67818Y38481
X69469Y43307
X59563Y43307
X61265Y43561
X56261Y40640
X59482Y40229
X52451Y32131
X76581Y32131
X61976Y45720
X57404Y47625
X54356Y35560
X54356Y45720
X67691Y45720
X57912Y35306
X69850Y30226
X63246Y28575
X65786Y28575
X62992Y31750
X64960Y31750
X71120Y35306
X71628Y47625
X74676Y43180
X66548Y45720
X62865Y38989
X67056Y33274
X67056Y32385
X62992Y34290
X66045Y34295
X68961Y44831
X62205Y33630
X61214Y40132
X69596Y40513
X60579Y36322
X61214Y44450
X57658Y37211
X57658Y39370
X56896Y31790
X65507Y39167
X94488Y43434
X89916Y31750
X90424Y38354
X93853Y33528
X86995Y33528
X98679Y28575
X85090Y30226
X87122Y38608
X93726Y38481
X95377Y43307
X85471Y43307
X87173Y43561
X82169Y40640
X85390Y40229
X78359Y32131
X102489Y32131
X87884Y45720
X83312Y47625
X80264Y35560
X80264Y45720
X93599Y45720
X83820Y35306
X95758Y30226
X89154Y28575
X91694Y28575
X88900Y31750
X90868Y31750
X97028Y35306
X97536Y47625
X100584Y43180
X92456Y45720
X88773Y38989
X92964Y33274
X92964Y32385
X88900Y34290
X91953Y34295
X94869Y44831
X88113Y33630
X87122Y40132
X95504Y40513
X86487Y36322
X87122Y44450
X83566Y37211
X83566Y39370
X82804Y31790
X91415Y39167
X16764Y71374
X12192Y59690
X12700Y66294
X16129Y61468
X9271Y61468
X20955Y56515
X7366Y58166
X9398Y66548
X16002Y66421
X17653Y71247
X7747Y71247
X9449Y71501
X4445Y68580
X7666Y68169
X635Y60071
X24765Y60071
X10160Y73660
X5588Y75565
X2540Y63500
X2540Y73660
X15875Y73660
X6096Y63246
X18034Y58166
X11430Y56515
X13970Y56515
X11176Y59690
X13144Y59690
X19304Y63246
X19812Y75565
X22860Y71120
X14732Y73660
X11049Y66929
X15240Y61214
X15240Y60325
X11176Y62230
X14229Y62235
X17145Y72771
X10389Y61570
X9398Y68072
X17780Y68453
X8763Y64262
X9398Y72390
X5842Y65151
X5842Y67310
X5080Y59730
X13691Y67107
X42672Y71374
X38100Y59690
X38608Y66294
X42037Y61468
X35179Y61468
X46863Y56515
X33274Y58166
X35306Y66548
X41910Y66421
X43561Y71247
X33655Y71247
X35357Y71501
X30353Y68580
X33574Y68169
X26543Y60071
X50673Y60071
X36068Y73660
X31496Y75565
X28448Y63500
X28448Y73660
X41783Y73660
X32004Y63246
X43942Y58166
X37338Y56515
X39878Y56515
X37084Y59690
M30